<?xml version="1.0" encoding="UTF-8" standalone="no"?>
<svg
   xmlns:dc="http://purl.org/dc/elements/1.1/"
   xmlns:cc="http://creativecommons.org/ns#"
   xmlns:rdf="http://www.w3.org/1999/02/22-rdf-syntax-ns#"
   xmlns:svg="http://www.w3.org/2000/svg"
   xmlns="http://www.w3.org/2000/svg"
   xmlns:sodipodi="http://sodipodi.sourceforge.net/DTD/sodipodi-0.dtd"
   xmlns:inkscape="http://www.inkscape.org/namespaces/inkscape"
   width="607.82538mm"
   height="422.07971mm"
   viewBox="0 0 607.82538 422.07971"
   version="1.1"
   id="svg17815"
   inkscape:version="1.0.1 (1.0.1+r75)"
   sodipodi:docname="dance.svg">
  <defs
     id="defs17809" />
  <sodipodi:namedview
     id="base"
     pagecolor="#ffffff"
     bordercolor="#666666"
     borderopacity="1.0"
     inkscape:pageopacity="0.0"
     inkscape:pageshadow="2"
     inkscape:zoom="0.175"
     inkscape:cx="244.97541"
     inkscape:cy="2042.7549"
     inkscape:document-units="mm"
     inkscape:current-layer="layer1"
     inkscape:document-rotation="0"
     showgrid="false"
     inkscape:window-width="1687"
     inkscape:window-height="1383"
     inkscape:window-x="1339"
     inkscape:window-y="27"
     inkscape:window-maximized="0"
     showguides="true" />
  <metadata
     id="metadata17812">
    <rdf:RDF>
      <cc:Work
         rdf:about="">
        <dc:format>image/svg+xml</dc:format>
        <dc:type
           rdf:resource="http://purl.org/dc/dcmitype/StillImage" />
        <dc:title></dc:title>
      </cc:Work>
    </rdf:RDF>
  </metadata>
  <style
     id="style5">.cls-1{fill:#f7faff;}.cls-2{fill:#e6f0fa;}.cls-3{fill:#a0d4b0;}.cls-4{fill:#527e35;}.cls-5{fill:#709f47;}.cls-6{fill:#87b272;}.cls-31,.cls-7{fill:#c5c880;}.cls-8{fill:#9c312e;}.cls-9{fill:#d29f7a;}.cls-10{fill:#fbe1c7;}.cls-11,.cls-45,.cls-47{fill:#231f20;}.cls-11,.cls-13,.cls-18,.cls-27,.cls-48,.cls-62{opacity:0.1;}.cls-12{fill:#ffc6b2;}.cls-14{fill:#003c68;}.cls-15{fill:#11343f;}.cls-16,.cls-33,.cls-38,.cls-52{fill:none;}.cls-16{stroke:#000;}.cls-16,.cls-38,.cls-52{stroke-miterlimit:10;}.cls-17,.cls-18,.cls-49{fill:#4b2603;}.cls-19{fill:#e6e6e6;}.cls-20{fill:#3d3027;}.cls-21{fill:#ffac00;}.cls-22,.cls-54{fill:#42423d;}.cls-23{fill:#83d2cd;}.cls-24{fill:#0157ad;}.cls-25{fill:#fcd7d1;}.cls-26,.cls-27{fill:#fd7d00;}.cls-28,.cls-64{fill:#ed2d19;}.cls-29{fill:#fff;}.cls-30{fill:#fbebdc;}.cls-31,.cls-64{opacity:0.5;}.cls-32{fill:#5a9cae;}.cls-34{fill:#4d4d4d;}.cls-35{fill:#333;}.cls-36{fill:#29343f;}.cls-37{fill:#b9d6f4;}.cls-38{stroke:#1a1a1a;}.cls-39{fill:#fe6e09;}.cls-40{fill:#ddecff;}.cls-41{fill:#ffc7ad;}.cls-42{fill:#85d0cd;}.cls-43{fill:#3f5e49;}.cls-44{fill:#628554;}.cls-45,.cls-46,.cls-54{opacity:0.2;}.cls-49{opacity:0.51;}.cls-50{fill:#8c6239;}.cls-51{fill:#ffe923;}.cls-52{stroke:#3f5e49;stroke-width:2px;}.cls-53{fill:url(#linear-gradient);}.cls-55{fill:url(#linear-gradient-2);}.cls-56{fill:#c1ee60;}.cls-57{fill:#1e3829;}.cls-58{opacity:0.4;}.cls-59{fill:#0ad9ff;}.cls-60{fill:#eac3b0;}.cls-61,.cls-62{fill:#41342a;}.cls-63{fill:#231d18;}</style>
  <g
     inkscape:label="Layer 1"
     inkscape:groupmode="layer"
     id="layer1"
     transform="translate(240.09137,2.8266123)">
    <path
       class="cls-30"
       d="m 362.74234,354.03862 c -2.93423,12.13908 -6.35,25.69369 -14.67379,38.77998 q -1.28587,2.02406 -2.73579,4.02431 c -0.13758,0.19315 -0.27781,0.38894 -0.42069,0.57944 q -1.16416,1.5875 -2.43946,3.13796 -1.60602,1.97643 -3.40783,3.92641 a 84.444416,84.444416 0 0 1 -9.26042,8.60955 q -0.75935,0.61118 -1.52664,1.19327 c -0.0847,0.0635 -0.16933,0.12964 -0.26458,0.1905 q -3.39196,2.57968 -6.96384,4.7625 h -485.18762 a 137.05416,137.05416 0 0 1 -15.875,-4.7625 c -0.17198,-0.0609 -0.34131,-0.127 -0.51064,-0.1905 q -1.53194,-0.57944 -3.0189,-1.19327 c -8.14123,-3.35492 -15.20825,-7.47184 -21.36775,-12.53596 q -1.83621,-1.51342 -3.56923,-3.13796 c -6.11716,-5.74675 -11.25537,-12.58623 -15.61041,-20.73275 -19.77232,-37.07077 -24.78617,-104.30669 5.67266,-139.75556 17.83027,-20.75127 41.20357,-23.44738 52.17319,-50.8 9.76577,-24.34167 -4.7334,-34.84033 -1.86796,-68.05083 3.70417,-42.912774 32.09396,-73.958982 47.64352,-87.926336 1.40759,-1.262062 2.71198,-2.38125 3.88144,-3.368145 3.40254,-2.854855 5.67796,-4.497917 6.13833,-4.815417 A 150.28333,150.28333 0 0 1 -88.56538,9.0087288 q 1.881187,-0.8916459 3.881437,-1.7806459 C -68.54436,0.13460387 -46.525735,-5.6518336 -21.20511,-1.3523544 13.566431,4.5478538 45.771514,27.966124 60.141035,57.416895 c 9.538229,19.539479 5.36575,29.741812 18.880666,46.950315 2.746375,3.49514 21.198419,27.00602 49.426809,30.20483 37.62375,4.26508 52.31606,-32.88771 93.36352,-31.57537 25.33386,0.79375 43.45517,15.94643 64.52923,34.32439 36.68713,31.98548 65.28065,78.97019 76.37463,129.20133 q 0.9472,4.2889 1.72508,8.6069 0.77787,4.318 1.36525,8.60954 c 3.23321,23.40239 2.52148,47.22283 -3.06388,70.29979 z"
       id="path7461"
       style="stroke-width:0.264583" />
    <path
       class="cls-4"
       d="m -117.75946,309.53306 a 24.939625,24.939625 0 0 1 -11.02519,6.06954 c -1.48961,0.39423 -2.794,0.61383 -3.81,0.78052 -1.88384,0.31221 -2.99773,0.30163 -3.99786,-0.28575 -3.60362,-2.11667 -2.81516,-10.00389 -1.7092,-14.26633 a 23.862771,23.862771 0 0 1 2.54529,-6.12775 26.106437,26.106437 0 0 1 3.01889,-4.11427 29.4005,29.4005 0 0 1 2.76754,-2.70934 31.97225,31.97225 0 0 1 3.79148,-2.78606 v 0 c 1.11125,-0.69585 1.97644,-1.14829 2.42359,-1.38112 2.51089,-1.3044 5.92402,-3.07975 8.85825,-2.68023 a 5.2202292,5.2202292 0 0 1 1.98437,0.68527 5.3975,5.3975 0 0 1 1.78329,1.76741 9.7895833,9.7895833 0 0 1 1.28323,3.43959 23.968604,23.968604 0 0 1 0.35984,3.34698 c 0.50535,9.525 -6.46642,16.56291 -8.27352,18.26154 z"
       id="path9011"
       style="fill:#527e35;stroke-width:0.264583" />
    <line
       class="cls-33"
       x1="-128.15494"
       y1="396.71857"
       x2="-128.15494"
       y2="398.47803"
       id="line7465"
       style="stroke-width:0.264583" />
    <line
       class="cls-33"
       x1="-126.39019"
       y1="375.57574"
       x2="-126.39019"
       y2="377.33783"
       id="line7471"
       style="stroke-width:0.264583" />
    <line
       class="cls-33"
       x1="-128.15494"
       y1="342.91287"
       x2="-128.15494"
       y2="344.67239"
       id="line7479"
       style="stroke-width:0.264583" />
    <line
       class="cls-33"
       x1="-126.39019"
       y1="321.77005"
       x2="-126.39019"
       y2="323.53214"
       id="line7485"
       style="stroke-width:0.264583" />
    <line
       class="cls-33"
       x1="-128.15494"
       y1="289.10724"
       x2="-128.15494"
       y2="290.86935"
       id="line7493"
       style="stroke-width:0.264583" />
    <line
       class="cls-33"
       x1="-157.9973"
       y1="395.9989"
       x2="-157.9973"
       y2="397.82715"
       id="line7563"
       style="stroke-width:0.264583" />
    <line
       class="cls-33"
       x1="-156.23256"
       y1="374.05173"
       x2="-156.23256"
       y2="375.88263"
       id="line7569"
       style="stroke-width:0.264583" />
    <line
       class="cls-33"
       x1="-157.9973"
       y1="340.14532"
       x2="-157.9973"
       y2="341.97366"
       id="line7577"
       style="stroke-width:0.264583" />
    <line
       class="cls-33"
       x1="-156.23256"
       y1="318.19815"
       x2="-156.23256"
       y2="320.0264"
       id="line7583"
       style="stroke-width:0.264583" />
    <line
       class="cls-33"
       x1="-157.9973"
       y1="284.28918"
       x2="-157.9973"
       y2="286.11743"
       id="line7591"
       style="stroke-width:0.264583" />
    <line
       class="cls-33"
       x1="-67.37751"
       y1="397.50967"
       x2="-67.37751"
       y2="399.19766"
       id="line7647"
       style="stroke-width:0.264583" />
    <path
       class="cls-29"
       d="m -6.5524853,272.65014 c -0.4471458,1.91029 -0.8810625,3.76238 0.4577292,5.42925 1.524,1.89442 3.9687499,1.49225 5.36310407,-0.26458 1.07420832,-1.34938 0.78052083,-3.01096 0.41804166,-4.56142 -0.35189582,-1.50812 -1.37318743,-2.6961 -2.88660413,-2.84956 -1.3282083,-0.13494 -3.0056666,0.762 -3.3522708,2.24631 z"
       id="path7887"
       style="stroke-width:0.264583" />
    <path
       class="cls-29"
       d="m -6.5524853,157.59344 c -0.4471458,1.91029 -0.8810625,3.76237 0.4577292,5.42925 1.524,1.89177 3.9687499,1.49225 5.36310407,-0.26459 1.07420832,-1.34937 0.78052083,-3.01096 0.41804166,-4.56141 -0.35189582,-1.51078 -1.37318743,-2.69611 -2.88660413,-2.84957 -1.3282083,-0.13493 -3.0056666,0.762 -3.3522708,2.24632 z"
       id="path7915"
       style="stroke-width:0.264583" />
    <line
       class="cls-33"
       x1="-33.35207"
       y1="391.14111"
       x2="-33.35207"
       y2="392.81595"
       id="line7955"
       style="stroke-width:0.264583" />
    <line
       class="cls-33"
       x1="-31.58732"
       y1="371.04074"
       x2="-31.58732"
       y2="372.71558"
       id="line7961"
       style="stroke-width:0.264583" />
    <path
       class="cls-29"
       d="m -27.531298,352.07277 c 0,-4.95036 -8.112124,-5.70971 -8.112124,-0.72761 0,4.98211 8.112124,5.70971 8.112124,0.72761 z"
       id="path7967"
       style="stroke-width:0.264583" />
    <line
       class="cls-33"
       x1="-33.35207"
       y1="339.98663"
       x2="-33.35207"
       y2="341.65875"
       id="line7969"
       style="stroke-width:0.264583" />
    <path
       class="cls-29"
       d="m -36.394839,338.91504 c -0.447146,1.69862 -0.881063,3.34698 0.457729,4.826 1.524,1.68539 3.96875,1.32291 5.363104,-0.23548 1.074209,-1.20121 0.780521,-2.67759 0.418042,-4.05606 -0.362479,-1.37848 -1.373188,-2.39713 -2.886604,-2.53207 -1.325563,-0.11906 -3.005667,0.67734 -3.352271,1.99761 z"
       id="path7971"
       style="stroke-width:0.264583" />
    <path
       class="cls-29"
       d="m -28.356798,331.90093 c 0,-3.94758 -6.461124,-4.55348 -6.461124,-0.58208 0,3.9714 6.461124,4.55083 6.461124,0.58208 z"
       id="path7973"
       style="stroke-width:0.264583" />
    <line
       class="cls-33"
       x1="-31.58732"
       y1="319.88623"
       x2="-31.58732"
       y2="321.55835"
       id="line7975"
       style="stroke-width:0.264583" />
    <path
       class="cls-29"
       d="m -34.283464,319.64014 c -0.03704,0.36248 -0.06615,0.71967 -0.113771,1.07686 l 1.5875,-2.16694 c -3.341687,1.0451 -2.465917,5.84729 0.891646,6.14627 3.939646,0.35189 5.058833,-5.14086 1.299104,-6.23888 l 1.796521,2.04523 c -0.04498,-0.35189 -0.07408,-0.70908 -0.108479,-1.05833 -0.272521,-2.94481 -5.08,-2.62731 -5.352521,0.19579 z"
       id="path7977"
       style="stroke-width:0.264583" />
    <path
       class="cls-29"
       d="m -28.232443,310.14954 c 0,-4.0984 -6.709834,-4.72546 -6.709834,-0.60325 0,4.12221 6.709834,4.71223 6.709834,0.60325 z"
       id="path7979"
       style="stroke-width:0.264583" />
    <path
       class="cls-29"
       d="m -27.531298,300.91823 c 0,-4.95036 -8.112124,-5.71236 -8.112124,-0.73025 0,4.9821 8.112124,5.71235 8.112124,0.73025 z"
       id="path7981"
       style="stroke-width:0.264583" />
    <line
       class="cls-33"
       x1="-33.35207"
       y1="288.82941"
       x2="-33.35207"
       y2="290.50424"
       id="line7983"
       style="stroke-width:0.264583" />
    <path
       class="cls-29"
       d="m -36.394839,287.75785 c -0.447146,1.70127 -0.881063,3.34698 0.457729,4.82865 1.524,1.68539 3.96875,1.32291 5.363104,-0.23813 1.074209,-1.19856 0.780521,-2.67494 0.418042,-4.05606 -0.351896,-1.34144 -1.373188,-2.39713 -2.886604,-2.53206 -1.325563,-0.11907 -3.005667,0.67733 -3.352271,1.9976 z"
       id="path7985"
       style="stroke-width:0.264583" />
    <path
       class="cls-29"
       d="m -28.356798,280.74375 c 0,-3.94494 -6.461124,-4.55084 -6.461124,-0.58209 0,3.96875 6.461124,4.55084 6.461124,0.58209 z"
       id="path7987"
       style="stroke-width:0.264583" />
    <line
       class="cls-33"
       x1="-31.58732"
       y1="268.72903"
       x2="-31.58732"
       y2="270.40387"
       id="line7989"
       style="stroke-width:0.264583" />
    <path
       class="cls-29"
       d="m -34.283464,268.4856 c -0.03704,0.35983 -0.06615,0.71702 -0.113771,1.07421 l 1.5875,-2.16694 c -3.341687,1.04511 -2.465917,5.84729 0.891646,6.14627 3.939646,0.3519 5.058833,-5.14085 1.299104,-6.23887 l 1.796521,2.04787 c -0.04498,-0.35454 -0.07408,-0.71173 -0.108479,-1.05833 -0.272521,-2.9554 -5.08,-2.62731 -5.352521,0.19579 z"
       id="path7991"
       style="stroke-width:0.264583" />
    <path
       class="cls-29"
       d="m -28.232443,258.97912 c 0,-4.09575 -6.709834,-4.72546 -6.709834,-0.60325 0,4.12221 6.709834,4.72546 6.709834,0.60325 z"
       id="path7993"
       style="stroke-width:0.264583" />
    <path
       class="cls-29"
       d="m -27.531298,249.76104 c 0,-4.95036 -8.112124,-5.70971 -8.112124,-0.72761 0,4.98211 8.112124,5.70971 8.112124,0.72761 z"
       id="path7995"
       style="stroke-width:0.264583" />
    <line
       class="cls-33"
       x1="-33.35207"
       y1="237.6722"
       x2="-33.35207"
       y2="239.34703"
       id="line7997"
       style="stroke-width:0.264583" />
    <path
       class="cls-29"
       d="m -36.394839,236.59537 c -0.447146,1.69863 -0.881063,3.34698 0.457729,4.826 1.524,1.6854 3.96875,1.32292 5.363104,-0.23548 1.074209,-1.20121 0.780521,-2.67758 0.418042,-4.05606 -0.362479,-1.37848 -1.373188,-2.39977 -2.886604,-2.53471 -1.325563,-0.11641 -3.005667,0.67734 -3.352271,2.00025 z"
       id="path7999"
       style="stroke-width:0.264583" />
    <path
       class="cls-29"
       d="m -28.356798,229.58656 c 0,-3.94494 -6.461124,-4.55083 -6.461124,-0.57944 0,3.9714 6.461124,4.55084 6.461124,0.57944 z"
       id="path8001"
       style="stroke-width:0.264583" />
    <line
       class="cls-33"
       x1="-31.58732"
       y1="217.57181"
       x2="-31.58732"
       y2="219.24664"
       id="line8003"
       style="stroke-width:0.264583" />
    <path
       class="cls-29"
       d="m -34.283464,217.32841 c -0.03704,0.36248 -0.06615,0.71702 -0.113771,1.07686 l 1.5875,-2.16694 c -3.341687,1.05833 -2.465917,5.84729 0.891646,6.14627 3.939646,0.3519 5.058833,-5.14085 1.299104,-6.23887 l 1.796521,2.04523 c -0.04498,-0.3519 -0.07408,-0.70909 -0.108479,-1.05834 -0.272521,-2.95539 -5.08,-2.62731 -5.352521,0.19579 z"
       id="path8005"
       style="stroke-width:0.264583" />
    <path
       class="cls-29"
       d="m -28.232443,207.82458 c 0,-4.0984 -6.709834,-4.7281 -6.709834,-0.6059 0,4.12221 6.709834,4.72811 6.709834,0.6059 z"
       id="path8007"
       style="stroke-width:0.264583" />
    <path
       class="cls-29"
       d="m -27.531298,198.6065 c 0,-4.95036 -8.112124,-5.71236 -8.112124,-0.73025 0,4.9821 8.112124,5.71235 8.112124,0.73025 z"
       id="path8009"
       style="stroke-width:0.264583" />
    <line
       class="cls-33"
       x1="-33.35207"
       y1="186.5177"
       x2="-33.35207"
       y2="188.19247"
       id="line8011"
       style="stroke-width:0.264583" />
    <path
       class="cls-29"
       d="m -36.394839,185.44612 c -0.447146,1.70127 -0.881063,3.34698 0.457729,4.82865 1.524,1.68275 3.96875,1.32291 5.363104,-0.23813 1.074209,-1.19856 0.780521,-2.67493 0.418042,-4.05606 -0.351896,-1.34144 -1.373188,-2.39712 -2.886604,-2.53206 -1.325563,-0.11906 -3.005667,0.67733 -3.352271,1.9976 z"
       id="path8013"
       style="stroke-width:0.264583" />
    <path
       class="cls-29"
       d="m -28.356798,178.43202 c 0,-3.94494 -6.461124,-4.55083 -6.461124,-0.58209 0,3.96875 6.461124,4.55084 6.461124,0.58209 z"
       id="path8015"
       style="stroke-width:0.264583" />
    <line
       class="cls-33"
       x1="-31.58732"
       y1="166.41731"
       x2="-31.58732"
       y2="168.09209"
       id="line8017"
       style="stroke-width:0.264583" />
    <path
       class="cls-29"
       d="m -34.283464,166.17387 c -0.03704,0.35984 -0.06615,0.71702 -0.113771,1.07421 l 1.5875,-2.16694 c -3.341687,1.04511 -2.465917,5.8473 0.891646,6.14627 3.939646,0.3519 5.058833,-5.14085 1.299104,-6.23887 l 1.796521,2.04787 c -0.04498,-0.35454 -0.07408,-0.71172 -0.108479,-1.05833 -0.272521,-2.95539 -5.08,-2.62731 -5.352521,0.19579 z"
       id="path8019"
       style="stroke-width:0.264583" />
    <path
       class="cls-29"
       d="m -28.232443,156.66739 c 0,-4.09575 -6.709834,-4.72545 -6.709834,-0.60325 0,4.12221 6.709834,4.72546 6.709834,0.60325 z"
       id="path8021"
       style="stroke-width:0.264583" />
    <path
       class="cls-29"
       d="m -27.531298,147.44931 c 0,-4.95035 -8.112124,-5.70971 -8.112124,-0.7276 0,4.9821 8.112124,5.7097 8.112124,0.7276 z"
       id="path8023"
       style="stroke-width:0.264583" />
    <line
       class="cls-33"
       x1="-33.35207"
       y1="135.36049"
       x2="-33.35207"
       y2="137.03532"
       id="line8025"
       style="stroke-width:0.264583" />
    <path
       class="cls-29"
       d="m -36.394839,134.29158 c -0.447146,1.69863 -0.881063,3.34698 0.457729,4.826 1.524,1.6854 3.96875,1.32292 5.363104,-0.23548 1.074209,-1.20121 0.780521,-2.67758 0.418042,-4.05606 -0.362479,-1.37848 -1.373188,-2.39977 -2.886604,-2.53471 -1.325563,-0.11642 -3.005667,0.67998 -3.352271,2.00025 z"
       id="path8027"
       style="stroke-width:0.264583" />
    <path
       class="cls-29"
       d="m -28.356798,127.27483 c 0,-3.94494 -6.461124,-4.55083 -6.461124,-0.57944 0,3.9714 6.461124,4.55084 6.461124,0.57944 z"
       id="path8029"
       style="stroke-width:0.264583" />
    <line
       class="cls-33"
       x1="-31.58732"
       y1="115.2601"
       x2="-31.58732"
       y2="116.93493"
       id="line8031"
       style="stroke-width:0.264583" />
    <path
       class="cls-29"
       d="m -34.283464,115.01669 c -0.03704,0.35983 -0.06615,0.71702 -0.113771,1.07685 l 1.5875,-2.16694 c -3.341687,1.05834 -2.465917,5.84465 0.891646,6.14627 3.939646,0.3519 5.058833,-5.14085 1.299104,-6.23887 l 1.796521,2.04523 c -0.04498,-0.3519 -0.07408,-0.70909 -0.108479,-1.05834 -0.272521,-2.95539 -5.08,-2.62731 -5.352521,0.1958 z"
       id="path8033"
       style="stroke-width:0.264583" />
    <path
       class="cls-29"
       d="m 263.05528,405.42864 c 0,-5.70706 -8.11212,-6.58283 -8.11212,-0.83873 0,5.74411 8.11212,6.58548 8.11212,0.83873 z"
       id="path8527"
       style="stroke-width:0.264583" />
    <line
       class="cls-33"
       x1="257.23447"
       y1="391.49304"
       x2="257.23447"
       y2="393.42188"
       id="line8529"
       style="stroke-width:0.264583" />
    <path
       class="cls-29"
       d="m 254.19174,390.25743 c -0.44715,1.96056 -0.88106,3.85763 0.45773,5.55625 1.524,1.94204 3.96875,1.53194 5.3631,-0.26458 1.07421,-1.38377 0.78052,-3.08769 0.41805,-4.67783 -0.3519,-1.54782 -1.37319,-2.7649 -2.88661,-2.91042 -1.32821,-0.14288 -3.00567,0.76994 -3.35227,2.29658 z"
       id="path8531"
       style="stroke-width:0.264583" />
    <path
       class="cls-29"
       d="m 262.22978,382.16912 c 0,-4.54819 -6.46112,-5.24933 -6.46112,-0.6694 0,4.57994 6.46112,5.24669 6.46112,0.6694 z"
       id="path8533"
       style="stroke-width:0.264583" />
    <line
       class="cls-33"
       x1="258.99921"
       y1="368.31552"
       x2="258.99921"
       y2="370.24698"
       id="line8535"
       style="stroke-width:0.264583" />
    <path
       class="cls-29"
       d="m 256.30312,368.03508 c -0.037,0.41539 -0.0661,0.82814 -0.11378,1.24089 l 1.5875,-2.50031 c -3.34168,1.2065 -2.46591,6.74158 0.89165,7.08819 3.93965,0.40481 5.05883,-5.92931 1.2991,-7.19402 l 1.79653,2.36008 c -0.045,-0.40746 -0.0741,-0.82021 -0.10848,-1.23031 -0.27252,-3.41048 -5.08,-3.0189 -5.35252,0.23548 z"
       id="path8537"
       style="stroke-width:0.264583" />
    <path
       class="cls-29"
       d="m 262.35414,357.07604 c 0,-4.72546 -6.70984,-5.45042 -6.70984,-0.6985 0,4.75191 6.70984,5.45041 6.70984,0.6985 z"
       id="path8539"
       style="stroke-width:0.264583" />
    <path
       class="cls-29"
       d="m 263.05528,346.44772 c 0,-5.7097 -8.11212,-6.58547 -8.11212,-0.84137 0,5.7441 8.11212,6.58548 8.11212,0.84137 z"
       id="path8541"
       style="stroke-width:0.264583" />
    <line
       class="cls-33"
       x1="257.23447"
       y1="332.50949"
       x2="257.23447"
       y2="334.43832"
       id="line8543"
       style="stroke-width:0.264583" />
    <path
       class="cls-29"
       d="m 254.19174,331.27387 c -0.44715,1.96056 -0.88106,3.86027 0.45773,5.55625 1.524,1.94204 3.96875,1.53194 5.3631,-0.26458 1.07421,-1.38377 0.78052,-3.08769 0.41805,-4.67784 -0.3519,-1.54781 -1.37319,-2.76489 -2.88661,-2.91041 -1.32821,-0.14288 -3.00567,0.77523 -3.35227,2.29658 z"
       id="path8545"
       style="stroke-width:0.264583" />
    <path
       class="cls-29"
       d="m 262.22978,323.18556 c 0,-4.54819 -6.46112,-5.24669 -6.46112,-0.6694 0,4.57729 6.46112,5.24669 6.46112,0.6694 z"
       id="path8547"
       style="stroke-width:0.264583" />
    <line
       class="cls-33"
       x1="258.99921"
       y1="309.33197"
       x2="258.99921"
       y2="311.26346"
       id="line8549"
       style="stroke-width:0.264583" />
    <path
       class="cls-29"
       d="m 256.30312,309.05152 c -0.037,0.41539 -0.0661,0.82814 -0.11378,1.24089 l 1.5875,-2.50031 c -3.34168,1.2065 -2.46591,6.74158 0.89165,7.08819 3.93965,0.40481 5.05883,-5.92667 1.2991,-7.19402 l 1.79653,2.36008 c -0.045,-0.40746 -0.0741,-0.82021 -0.10848,-1.23031 -0.27252,-3.39725 -5.08,-3.0189 -5.35252,0.23548 z"
       id="path8551"
       style="stroke-width:0.264583" />
    <path
       class="cls-29"
       d="m 262.35414,298.09248 c 0,-4.72282 -6.70984,-5.45042 -6.70984,-0.69586 0,4.75456 6.70984,5.44777 6.70984,0.69586 z"
       id="path8553"
       style="stroke-width:0.264583" />
    <path
       class="cls-29"
       d="m 263.05528,287.46416 c 0,-5.70971 -8.11212,-6.58548 -8.11212,-0.84137 0,5.7441 8.11212,6.59341 8.11212,0.84137 z"
       id="path8555"
       style="stroke-width:0.264583" />
    <line
       class="cls-33"
       x1="257.23447"
       y1="273.52588"
       x2="257.23447"
       y2="275.45737"
       id="line8557"
       style="stroke-width:0.264583" />
    <path
       class="cls-29"
       d="m 254.19174,272.29031 c -0.44715,1.96056 -0.88106,3.86027 0.45773,5.55625 1.524,1.94204 3.96875,1.53194 5.3631,-0.26458 1.07421,-1.38378 0.78052,-3.08769 0.41805,-4.67784 -0.3519,-1.54781 -1.37319,-2.76489 -2.88661,-2.91041 -1.32821,-0.14288 -3.00567,0.77522 -3.35227,2.29658 z"
       id="path8559"
       style="stroke-width:0.264583" />
    <path
       class="cls-29"
       d="m 262.22978,264.202 c 0,-4.54819 -6.46112,-5.24669 -6.46112,-0.6694 0,4.57729 6.46112,5.24669 6.46112,0.6694 z"
       id="path8561"
       style="stroke-width:0.264583" />
    <line
       class="cls-33"
       x1="258.99921"
       y1="250.34843"
       x2="258.99921"
       y2="252.27991"
       id="line8563"
       style="stroke-width:0.264583" />
    <path
       class="cls-29"
       d="m 256.30312,250.06795 c -0.037,0.4154 -0.0661,0.82815 -0.11378,1.2409 l 1.5875,-2.50031 c -3.34168,1.2065 -2.46591,6.74158 0.89165,7.08819 3.93965,0.40481 5.05883,-5.92667 1.2991,-7.19403 q 0.89694,1.18269 1.79653,2.36009 c -0.045,-0.40746 -0.0741,-0.82021 -0.10848,-1.23031 -0.27252,-3.39725 -5.08,-3.0189 -5.35252,0.23547 z"
       id="path8565"
       style="stroke-width:0.264583" />
    <path
       class="cls-29"
       d="m 262.35414,239.10891 c 0,-4.72281 -6.70984,-5.45041 -6.70984,-0.69585 0,4.75456 6.70984,5.44777 6.70984,0.69585 z"
       id="path8567"
       style="stroke-width:0.264583" />
    <path
       class="cls-29"
       d="m 263.05528,228.4806 c 0,-5.70706 -8.11212,-6.58548 -8.11212,-0.84137 0,5.7441 8.11212,6.57489 8.11212,0.84137 z"
       id="path8569"
       style="stroke-width:0.264583" />
    <line
       class="cls-33"
       x1="257.23447"
       y1="214.54234"
       x2="257.23447"
       y2="216.47382"
       id="line8571"
       style="stroke-width:0.264583" />
    <path
       class="cls-29"
       d="m 254.19174,213.31204 c -0.44715,1.96056 -0.88106,3.86027 0.45773,5.55625 1.524,1.94204 3.96875,1.53194 5.3631,-0.26458 1.07421,-1.38378 0.78052,-3.08769 0.41805,-4.67784 -0.3519,-1.54516 -1.37319,-2.76489 -2.88661,-2.91041 -1.32821,-0.14817 -3.00567,0.76993 -3.35227,2.29658 z"
       id="path8573"
       style="stroke-width:0.264583" />
    <path
       class="cls-29"
       d="m 262.22978,205.21843 c 0,-4.54818 -6.46112,-5.24668 -6.46112,-0.66939 0,4.57729 6.46112,5.24669 6.46112,0.66939 z"
       id="path8575"
       style="stroke-width:0.264583" />
    <line
       class="cls-33"
       x1="258.99921"
       y1="191.36488"
       x2="258.99921"
       y2="193.2963"
       id="line8577"
       style="stroke-width:0.264583" />
    <path
       class="cls-29"
       d="m 256.30312,191.08704 c -0.037,0.41539 -0.0661,0.82814 -0.11378,1.24089 l 1.5875,-2.50031 c -3.34168,1.2065 -2.46591,6.74423 0.89165,7.08819 3.93965,0.40481 5.05883,-5.92667 1.2991,-7.19402 q 0.89694,1.18269 1.79653,2.36008 c -0.045,-0.40746 -0.0741,-0.81756 -0.10848,-1.23031 -0.27252,-3.3999 -5.08,-3.02154 -5.35252,0.23548 z"
       id="path8579"
       style="stroke-width:0.264583" />
    <path
       class="cls-29"
       d="m 262.35414,180.12535 c 0,-4.72281 -6.70984,-5.45041 -6.70984,-0.69585 0,4.75456 6.70984,5.44777 6.70984,0.69585 z"
       id="path8581"
       style="stroke-width:0.264583" />
    <path
       class="cls-29"
       d="m 263.05528,169.49704 c 0,-5.70706 -8.11212,-6.58548 -8.11212,-0.84138 0,5.74411 8.11212,6.58548 8.11212,0.84138 z"
       id="path8583"
       style="stroke-width:0.264583" />
    <line
       class="cls-33"
       x1="257.23447"
       y1="155.55881"
       x2="257.23447"
       y2="157.49028"
       id="line8585"
       style="stroke-width:0.264583" />
    <path
       class="cls-29"
       d="m 254.19174,154.32319 c -0.44715,1.96056 -0.88106,3.86027 0.45773,5.55625 1.524,1.94204 3.96875,1.53193 5.3631,-0.26459 1.07421,-1.38377 0.78052,-3.08769 0.41805,-4.67519 -0.3519,-1.54781 -1.37319,-2.76754 -2.88661,-2.91041 -1.32821,-0.14552 -3.00567,0.77258 -3.35227,2.29394 z"
       id="path8587"
       style="stroke-width:0.264583" />
    <path
       class="cls-29"
       d="m 262.22978,146.23487 c 0,-4.54818 -6.46112,-5.24668 -6.46112,-0.66939 0,4.57729 6.46112,5.24933 6.46112,0.66939 z"
       id="path8589"
       style="stroke-width:0.264583" />
    <line
       class="cls-33"
       x1="258.99921"
       y1="132.38393"
       x2="258.99921"
       y2="134.31274"
       id="line8591"
       style="stroke-width:0.264583" />
    <path
       class="cls-29"
       d="m 256.30312,132.10083 c -0.037,0.4154 -0.0661,0.82815 -0.11378,1.2409 l 1.5875,-2.49767 c -3.34168,1.20385 -2.46591,6.74158 0.89165,7.08554 3.93965,0.40481 5.05883,-5.92666 1.2991,-7.19402 q 0.89694,1.18269 1.79653,2.36008 c -0.045,-0.40745 -0.0741,-0.81756 -0.10848,-1.22766 -0.27252,-3.3999 -5.08,-3.02154 -5.35252,0.23283 z"
       id="path8593"
       style="stroke-width:0.264583" />
    <path
       class="cls-29"
       d="m 262.35414,121.14179 c 0,-4.72281 -6.70984,-5.44777 -6.70984,-0.69585 0,4.75191 6.70984,5.44777 6.70984,0.69585 z"
       id="path8595"
       style="stroke-width:0.264583" />
    <line
       class="cls-33"
       x1="-188.66513"
       y1="397.98062"
       x2="-188.66513"
       y2="399.62369"
       id="line8851"
       style="stroke-width:0.264583" />
    <line
       class="cls-33"
       x1="-186.90039"
       y1="378.25858"
       x2="-186.90039"
       y2="379.90164"
       id="line8857"
       style="stroke-width:0.264583" />
    <line
       class="cls-33"
       x1="-188.66513"
       y1="347.78653"
       x2="-188.66513"
       y2="349.4296"
       id="line8865"
       style="stroke-width:0.264583" />
    <line
       class="cls-33"
       x1="-186.90039"
       y1="328.06183"
       x2="-186.90039"
       y2="329.7049"
       id="line8871"
       style="stroke-width:0.264583" />
    <path
       class="cls-29"
       d="m -183.5455,318.49714 c 0,-4.01902 -6.70984,-4.63814 -6.70984,-0.59267 0,4.04548 6.70984,4.63815 6.70984,0.59267 z"
       id="path8875"
       style="stroke-width:0.264583" />
    <rect
       class="cls-1"
       x="61.926998"
       y="18.705723"
       width="192.79128"
       height="241.09361"
       id="rect8947"
       style="stroke-width:0.264583" />
    <rect
       class="cls-40"
       x="68.779747"
       y="93.402908"
       width="23.722542"
       height="156.6889"
       id="rect8949"
       style="stroke-width:0.264583" />
    <rect
       class="cls-40"
       x="117.16936"
       y="122.91183"
       width="29.429605"
       height="127.17992"
       id="rect8951"
       style="stroke-width:0.264583" />
    <rect
       class="cls-40"
       x="215.81927"
       y="176.73871"
       width="29.429605"
       height="73.350441"
       id="rect8953"
       style="stroke-width:0.264583" />
    <rect
       class="cls-40"
       x="176.74026"
       y="213.41522"
       width="53.795086"
       height="36.67654"
       id="rect8955"
       style="stroke-width:0.264583" />
    <rect
       class="cls-40"
       x="80.016586"
       y="226.8746"
       width="73.787003"
       height="25.000479"
       id="rect8957"
       style="stroke-width:0.264583" />
    <path
       class="cls-22"
       d="M 61.940201,18.703062 V 259.79668 H 261.43603 V 18.703062 Z M 254.71826,250.08912 H 68.644743 V 140.13623 H 254.71826 Z m 0,-114.90325 H 68.644743 V 25.230333 H 254.71826 Z"
       id="path8959"
       style="stroke-width:0.264583" />
    <rect
       class="cls-22"
       x="159.37041"
       y="25.232973"
       width="4.9503541"
       height="224.85878"
       id="rect8961"
       style="stroke-width:0.264583" />
    <path
       class="cls-7"
       d="m 342.2169,400.19214 q -1.60602,1.97643 -3.40783,3.92641 a 84.444416,84.444416 0 0 1 -9.26042,8.60955 q -0.75935,0.61118 -1.52664,1.19327 c -0.0847,0.0635 -0.16933,0.12964 -0.26458,0.1905 h -508.02646 c -0.17198,-0.0609 -0.34131,-0.127 -0.51064,-0.1905 q -1.53194,-0.57944 -3.0189,-1.19327 c -8.14123,-3.35492 -15.20825,-7.47184 -21.36775,-12.53596 z"
       id="path8963"
       style="stroke-width:0.264583" />
    <rect
       class="cls-8"
       x="-211.51457"
       y="414.28952"
       width="559.60699"
       height="4.9635835"
       id="rect8965"
       style="stroke-width:0.264583" />
    <path
       class="cls-9"
       d="m 348.06855,392.8186 q -1.28587,2.02406 -2.73579,4.02431 -6.23623,-21.43125 -12.4751,-42.8625 h -40.74584 l -17.55775,60.34352 h -3.76502 q 11.54907,-40.67439 23.12723,-81.35673 h 4.29684 q -2.45534,8.44286 -4.91332,16.88836 h 38.35136 q -2.45534,-8.44815 -4.91332,-16.88836 h 4.30477 z"
       id="path8967"
       style="stroke-width:0.264583" />
    <path
       class="cls-32"
       d="m 243.94178,330.88758 c -1.01071,0.74612 -2.38125,0.97631 -3.13531,1.08744 -9.26042,1.36525 -26.97427,0.15081 -37.70842,0.74348 a 61.473291,61.473291 0 0 1 -9.97743,-0.1958 c -3.96875,-0.40481 -6.40821,-0.67204 -9.39007,-1.99231 a 23.6855,23.6855 0 0 1 -8.55927,-6.70719 c -2.69081,-3.33904 -3.77031,-6.52462 -4.42383,-8.49841 a 34.197395,34.197395 0 0 1 -1.66687,-11.68929 c 0.1852,-8.20209 -0.20109,-30.62817 -0.68263,-61.33571 h 0.0265 a 51.035479,51.035479 0 0 1 8.73125,-0.86519 c 2.74373,-0.0582 4.68577,0.0662 4.68577,0.0662 4.064,0.26458 6.19389,0.41804 8.33967,1.61131 1.42875,0.79375 5.18054,3.34698 7.26281,13.72129 2.20927,11.00931 -0.64029,14.99658 -0.24871,31.22083 0.16669,6.79186 0.26458,10.26055 1.5875,13.95677 3.88937,10.90877 13.13392,16.40417 14.85371,17.4043 7.03262,4.02695 14.38804,4.7281 19.31458,5.19112 1.65365,0.15875 5.3975,0.43656 7.91633,0.61913 l 2.49502,0.17991 c 0,0 0.34661,2.31246 0.57944,5.48217 z"
       id="path8969"
       style="stroke-width:0.264583" />
    <path
       class="cls-24"
       d="m 244.85195,329.87158 a 3.0665208,3.0665208 0 0 1 -0.91017,1.016 c -1.01071,0.74612 -2.38125,0.97631 -3.13531,1.08744 -9.26042,1.36525 -26.97427,0.15081 -37.70842,0.74348 a 61.473291,61.473291 0 0 1 -9.97743,-0.1958 c -3.96875,-0.40481 -6.40821,-0.67204 -9.39007,-1.99231 a 23.6855,23.6855 0 0 1 -8.55927,-6.70719 c -2.69081,-3.33904 -3.77031,-6.52462 -4.42383,-8.49841 a 34.197395,34.197395 0 0 1 -1.66687,-11.68929 c 0.1852,-8.20209 -0.20109,-30.62817 -0.68263,-61.33571 h 0.0265 c 0.34396,-0.0794 4.03489,-0.92604 5.89227,-1.07156 a 10.017125,10.017125 0 0 1 2.84692,0.20637 c 3.72797,0.79375 6.61458,3.40783 7.37393,4.0984 2.7649,2.50825 4.57465,5.95048 5.91873,12.91166 1.86531,9.652 0.44186,13.64986 0.52917,27.97704 0.0688,9.88484 0.14287,14.91721 2.15371,19.3675 3.75179,8.30263 10.91141,12.88521 13.45141,14.52563 2.59821,1.68275 6.81038,4.4106 12.8614,5.43719 8.25765,1.397 16.90423,0.12435 16.90423,0.12435 1.60073,-0.23548 3.15912,-0.52917 4.51114,-0.64029 a 6.7230624,6.7230624 0 0 1 2.49502,0.17992 2.5373541,2.5373541 0 0 1 1.24355,0.81491 c 0.77787,0.9525 0.83873,2.54794 0.24606,3.64067 z"
       id="path8971"
       style="stroke-width:0.264583" />
    <path
       class="cls-32"
       d="m 312.57999,238.64589 c -2.66435,0 -6.68867,-0.0423 -12.31371,0.11907 -1.5875,0.045 -2.97656,0.0926 -4.78366,0.5662 -1.5293,0.40217 -4.49792,1.18534 -6.93473,3.70417 -1.95263,2.032 -2.64584,4.25715 -3.34698,6.48494 -0.93927,3.00302 -1.39171,6.74952 -1.39171,6.74952 -3.96875,34.13125 -4.74398,59.3381 -2.91042,64.80439 1.76213,5.24669 4.53231,7.30515 4.53231,7.30515 1.42611,1.05833 4.59317,2.80723 4.59317,2.80723 l 20.7354,-0.15875 c 0.99748,-0.0291 2.23043,-0.0397 3.64595,0 8.04598,0.2196 17.43075,1.94469 20.73275,0.15875 0.19844,-0.10584 1.03188,-0.58209 1.76213,-1.00542 2.02406,-1.17475 2.46592,-1.49489 2.83369,-1.80181 a 10.435167,10.435167 0 0 0 1.60337,-1.6854 18.785416,18.785416 0 0 0 2.91306,-5.6171 c 2.6088,-8.61483 0.90488,-28.3845 0.90488,-28.3845 -1.05833,-12.17083 -2.80723,-24.25435 -3.81794,-36.4199 a 29.36875,29.36875 0 0 0 -1.39171,-6.74952 c -0.84666,-2.56116 -1.51077,-4.57729 -3.34698,-6.48493 -2.43945,-2.53471 -5.43718,-3.31523 -6.93472,-3.70417 -1.80711,-0.47096 -3.19882,-0.52917 -4.78103,-0.56621 -5.6171,-0.16404 -9.64141,-0.12171 -12.30312,-0.12171 z"
       id="path8973"
       style="stroke-width:0.264583" />
    <path
       class="cls-9"
       d="m 232.35832,353.84283 q 8.77888,30.1625 17.55775,60.34352 h 3.76767 Q 242.11616,373.5146 230.55122,332.83491 h -4.30477 q 2.45269,8.44286 4.91331,16.88571 h -38.35135 q 2.45269,-8.44285 4.91066,-16.88571 h -4.30212 q -11.56758,40.67704 -23.13252,81.35144 h 3.76502 q 8.77887,-30.1625 17.55775,-60.34352 z"
       id="path8975"
       style="stroke-width:0.264583" />
    <path
       class="cls-19"
       d="m 312.84722,240.32864 h 15.06273 v 22.50811 a 3.6724166,3.6724166 0 0 1 -3.67506,3.67241 h -7.71261 a 3.6724166,3.6724166 0 0 1 -3.67506,-3.67241 z"
       id="path8977"
       style="stroke-width:0.264583" />
    <path
       class="cls-28"
       d="m 314.19659,246.69452 h 12.37457 v 14.25575 a 3.0506458,3.0506458 0 0 1 -3.05065,3.048 h -6.27592 a 3.048,3.048 0 0 1 -3.048,-3.048 z"
       id="path8979"
       style="stroke-width:0.264583" />
    <path
       class="cls-32"
       d="M 283.68484,21.094895 H 43.683952 q -4.148667,3.048 -8.302625,6.085417 H 274.19159 Z"
       id="path8981"
       style="stroke-width:0.264583" />
    <path
       class="cls-32"
       d="M 283.68484,32.453458 H 43.683952 l -8.302625,6.085416 H 274.19159 Z"
       id="path8983"
       style="stroke-width:0.264583" />
    <path
       class="cls-32"
       d="M 283.68484,43.81202 H 43.683952 l -8.302625,6.085417 H 274.19159 Z"
       id="path8985"
       style="stroke-width:0.264583" />
    <path
       class="cls-32"
       d="M 283.68484,55.167937 H 43.683952 q -4.148667,3.047999 -8.302625,6.098645 H 274.19159 Z"
       id="path8987"
       style="stroke-width:0.264583" />
    <path
       class="cls-32"
       d="M 283.5208,66.526499 H 43.511972 l -8.302624,6.085416 H 274.01697 Z"
       id="path8989"
       style="stroke-width:0.264583" />
    <path
       class="cls-32"
       d="M 283.5208,77.885061 H 43.511972 l -8.302624,6.085417 H 274.01697 Z"
       id="path8991"
       style="stroke-width:0.264583" />
    <rect
       class="cls-32"
       x="50.303867"
       y="12.625604"
       width="1.5451667"
       height="107.60604"
       id="rect8993"
       style="stroke-width:0.264583" />
    <path
       class="cls-7"
       d="m -142.72559,357.18716 c -1.1721,-4.51908 5.16996,-9.525 6.84742,-10.84791 7.32631,-5.7785 18.18217,-8.46667 20.25914,-5.42132 0.75407,1.11125 0.14817,2.68817 -0.5715,4.56407 -2.10343,5.48216 -5.91079,8.52487 -10.27112,11.00402 -4.56142,2.59291 -11.27654,5.62239 -14.55208,3.26231 a 4.7175208,4.7175208 0 0 1 -1.71186,-2.56117 z"
       id="path8995"
       style="stroke-width:0.264583" />
    <path
       class="cls-44"
       d="m -151.20019,375.0677 -5.29167,-13.22916 0.41275,-0.48419 c 0.94721,-1.1139 2.01348,-1.71185 3.11415,-1.651 2.91041,0.0847 4.18306,4.34975 4.40796,5.20435 0.93662,3.57717 -0.56621,6.78392 -1.54782,8.37936 z m -2.84956,-12.79525 3.14325,7.86342 a 7.8766457,7.8766457 0 0 0 0.31485,-4.70165 c -0.38894,-1.49225 -1.40494,-3.60891 -2.43681,-3.63802 a 1.5504583,1.5504583 0 0 0 -1.02129,0.47625 z"
       id="path8997"
       style="stroke-width:0.264583" />
    <rect
       class="cls-43"
       x="-301.68185"
       y="244.06702"
       width="2.1034374"
       height="22.074186"
       transform="rotate(-26.9)"
       id="rect8999"
       style="stroke-width:0.264583" />
    <path
       class="cls-44"
       d="m -130.17111,373.15477 0.38629,-2.57175 a 97.797936,97.797936 0 0 1 2.74109,-12.54919 c 1.15887,-3.99521 2.01348,-5.99811 4.00314,-7.29456 2.23838,-1.45257 5.72029,-2.05317 8.46667,-0.11907 2.53735,1.79388 3.61421,5.12498 2.68287,8.2894 l -0.0952,0.33073 z m 11.6549,-21.66409 a 6.5113958,6.5113958 0 0 0 -3.37873,1.01336 c -1.32292,0.85196 -1.98438,2.16693 -3.13002,6.11716 a 94.720832,94.720832 0 0 0 -2.25161,9.67052 l 13.44348,-10.29493 c 0.52917,-2.20134 -0.24606,-4.44236 -1.96585,-5.65944 a 4.6116874,4.6116874 0 0 0 -2.70669,-0.84667 z"
       id="path9001"
       style="stroke-width:0.264583" />
    <path
       class="cls-4"
       d="m -139.87603,377.44102 -0.1905,-4.95036 a 46.979416,46.979416 0 0 1 14.15521,-35.45416 l 3.54542,-3.46075 z m 11.53584,-34.56782 a 44.714583,44.714583 0 0 0 -9.46415,23.70932 z"
       id="path9003"
       style="stroke-width:0.264583" />
    <path
       class="cls-43"
       d="m -141.27567,378.06543 -26.19375,-53.55431 3.38931,2.43152 a 54.721124,54.721124 0 0 1 22.97642,46.97148 z m -20.46552,-46.61958 18.52083,37.8804 a 52.43777,52.43777 0 0 0 -18.52083,-37.8804 z"
       id="path9005"
       style="stroke-width:0.264583" />
    <path
       class="cls-57"
       d="m -143.82625,383.43912 -7.45067,-71.247 2.98185,8.55927 a 117.92744,117.92744 0 0 1 5.61446,53.6919 z m -3.21469,-50.94817 3.15912,30.20748 a 115.56471,115.56471 0 0 0 -3.15912,-30.20748 z"
       id="path9007"
       style="stroke-width:0.264583" />
    <path
       class="cls-4"
       d="m -143.74423,374.77402 -1.28588,-5.20965 c -2.93423,-11.88508 -4.78631,-29.8159 3.05329,-47.752 a 65.685458,65.685458 0 0 1 5.36575,-9.85837 l 2.59557,-3.93171 z m 6.22035,-57.24525 q -1.38377,2.51089 -2.52677,5.12498 c -6.43731,14.7267 -6.1304,29.48252 -4.15131,40.68233 z"
       id="path9009"
       style="stroke-width:0.264583" />
    <path
       class="cls-7"
       d="m -123.75232,286.1386 c -0.79375,-0.037 -1.69598,5.61975 -2.85221,5.55625 a 4.3682708,4.3682708 0 0 1 -0.89693,-0.33073 9.9165832,9.9165832 0 0 0 -0.94457,-0.37571 c -1.11125,-0.38893 -1.66687,-0.58473 -1.9976,-0.42862 -0.19579,0.0926 -0.79375,0.48948 -0.5715,4.56406 0.16933,2.93158 0.55033,3.93435 -0.14023,5.29167 -0.045,0.0873 -0.79375,1.53193 -1.57162,1.4261 -0.89694,-0.12171 -1.03982,-2.286 -1.56898,-2.28071 -0.46302,0 -0.94192,1.68011 -1.14036,3.70417 -0.23018,2.3495 -0.35718,7.91898 1.14036,8.27352 1.778,0.42069 3.048,-7.14375 10.55687,-16.54969 2.74109,-3.43958 7.70467,-8.84502 7.70467,-8.84502 0,0 0.36777,-1.67746 -0.14288,-2.14048 -0.51064,-0.46302 -2.08227,0.11113 -3.28083,1.143 -2.16958,1.86796 -2.2225,4.60904 -2.85221,4.56407 -0.72496,-0.0556 -0.82285,-3.54278 -1.44198,-3.57188 z"
       id="path9013"
       style="stroke-width:0.264583" />
    <g
       class="cls-58"
       id="g9017"
       transform="matrix(0.26458333,0,0,0.26458333,-968.3446,-572.51897)">
      <path
         class="cls-47"
         d="m 3915.82,3759.67 a 94.26,94.26 0 0 1 -41.67,22.94 c 5.79,-6.15 15.3,-13.62 14.71,-14.31 -0.73,-0.84 -14.2,12.45 -21.57,8.63 -1.8,-0.92 -3.36,-2.95 -3.23,-4.85 0.28,-3.9 7.68,-6.3 15.1,-8.62 13.88,-4.36 18.07,-2.7 24.79,-7.55 5.09,-3.67 9,-9.14 8.1,-10.24 -0.62,-0.81 -3.54,0.83 -7,2.15 -11.44,4.31 -24.95,3.51 -25.88,0.54 -0.86,-2.72 8.63,-7.94 11.85,-9.71 18.6,-10.22 29.43,-6.6 38.83,-16.72 5,-5.37 7.08,-12 5.93,-12.93 -1.15,-0.93 -5.69,4.43 -14.56,7 -4.42,1.29 -11.71,2.38 -12.94,0 -1.23,-2.38 3.8,-6.94 10.79,-13.48 14.69,-13.75 22.18,-20.9 26.68,-24.5 a 90.59,90.59 0 0 1 1.36,12.65 c 1.89,35.98 -24.46,62.58 -31.29,69 z"
         transform="translate(-701.01,-425.93)"
         id="path9015" />
    </g>
    <g
       class="cls-58"
       id="g9021"
       transform="matrix(0.26458333,0,0,0.26458333,-968.3446,-572.51897)">
      <path
         class="cls-47"
         d="m 3940.89,3665 a 32.68,32.68 0 0 0 -4,2.47 c -5.1,3.66 -6.06,6.42 -7.54,5.94 -2.44,-0.78 -3.64,-9.46 -2.65,-17.68 a 19.73,19.73 0 0 1 7.5,2.59 20.4,20.4 0 0 1 6.69,6.68 z"
         transform="translate(-701.01,-425.93)"
         id="path9019" />
    </g>
    <g
       class="cls-58"
       id="g9025"
       transform="matrix(0.26458333,0,0,0.26458333,-968.3446,-572.51897)">
      <path
         class="cls-47"
         d="m 3884,3671.08 c -0.69,2.84 -1.57,6.11 -2.68,9.87 -2.45,2.38 -3.79,3.59 -4.52,4.22 -0.73,0.63 -0.88,0.63 -0.88,0.63 -1.53,0.29 -3.84,-1.4 -6.25,-4.19 a 120.84,120.84 0 0 1 14.33,-10.53 z"
         transform="translate(-701.01,-425.93)"
         id="path9023" />
    </g>
    <g
       class="cls-58"
       id="g9029"
       transform="matrix(0.26458333,0,0,0.26458333,-968.3446,-572.51897)">
      <path
         class="cls-47"
         d="m 3859.21,3715.47 c -2.65,2.33 -15.57,-16.17 -6.48,-3.24 3.49,5 0.32,1.74 -4.93,-4.83 a 98.67,98.67 0 0 1 11.41,-15.55 c 3.84,9.15 4.79,19.36 0,23.62 z"
         transform="translate(-701.01,-425.93)"
         id="path9027" />
    </g>
    <path
       class="cls-4"
       d="m -91.668943,317.55787 c -0.391583,1.97379 -1.44727,3.61685 -2.547937,5.10117 -6.22565,8.40846 -14.6976,12.9831 -14.6976,12.9831 -4.69371,2.53736 -11.1125,6.00869 -15.26911,6.08542 -1.2356,0.0238 -2.26748,-0.26459 -2.99244,-0.94721 -2.38125,-2.27277 -0.52916,-8.17827 1.90765,-13.20535 a 50.588333,50.588333 0 0 1 3.08504,-5.48217 c 1.5875,-2.42358 6.52992,-9.73138 15.69509,-12.7 2.88925,-0.93663 8.855599,-2.86544 12.408953,0.2831 1.613959,1.42611 2.211917,3.43959 2.436813,4.73869 a 9.7895832,9.7895832 0 0 1 0.134937,1.25413 8.0988957,8.0988957 0 0 1 -0.161396,1.88912 z"
       id="path9039"
       style="stroke-width:0.264583" />
    <g
       class="cls-58"
       id="g9043"
       transform="matrix(0.26458333,0,0,0.26458333,-968.3446,-572.51897)">
      <path
         class="cls-47"
         d="m 3995.62,3794.19 c 8,-1.66 14.31,-3 18.81,-4.19 -1.48,7.46 -5.47,13.67 -9.63,19.28 -23.53,31.78 -55.55,49.07 -55.55,49.07 -17.74,9.59 -42,22.71 -57.71,23 4.69,-7.13 15.7,-14.92 22.12,-18.67 10.15,-5.93 20.77,-8.74 20.49,-9.71 -0.39,-1.36 -20.6,5.37 -23.18,0.54 -1.07,-2 0.91,-5.89 3.78,-8.09 9,-6.9 23.78,5 30.72,-1.61 1.77,-1.69 3,-4.58 2.17,-6.47 -2.38,-5.24 -19.83,-0.61 -21,-4.31 -0.48,-1.52 1.84,-4 4.32,-5.39 9.73,-5.46 20.06,7.14 33.42,2.69 4.74,-1.58 9.11,-5.05 8.63,-7 -1.18,-4.81 -31.29,0.91 -32.89,-4.84 -0.56,-2.05 2.6,-5 5.39,-6.48 7.18,-3.72 13.5,1.8 29.66,1.63 3.74,-0.05 7.16,-0.39 8.63,-2.7 1.26,-2 0.87,-5 -0.55,-7 -4.11,-5.77 -17.14,-2.52 -17.24,-3.24 -0.1,-0.72 17.33,-3.97 29.61,-6.51 z"
         transform="translate(-701.01,-425.93)"
         id="path9041" />
    </g>
    <g
       class="cls-58"
       id="g9047"
       transform="matrix(0.26458333,0,0,0.26458333,-968.3446,-572.51897)">
      <path
         class="cls-47"
         d="m 3889.4,3838.94 c -0.09,-0.42 -1.15,-5 -2,-11.09 a 191.2,191.2 0 0 1 11.66,-20.72 c 6,-9.16 24.68,-36.78 59.32,-48 10.92,-3.54 33.47,-10.83 46.9,1.07 6.1,5.39 8.36,13 9.21,17.91 a 58.27,58.27 0 0 0 -24.84,-5 c -5.87,0.17 -11.45,3.3 -14,0.53 -3.05,-3.31 1.4,-10.56 -0.54,-11.86 -3.35,-2.23 -19.67,17.26 -21,16.18 -1,-0.8 7.87,-11.5 5.94,-13.48 -1.42,-1.47 -8.51,1.13 -11.87,6.46 -2.81,4.47 -0.82,7.34 -3.77,13.48 -2.25,4.67 -6.17,8.74 -7.56,8.09 -2.39,-1.12 3.77,-15.89 1.09,-17.25 -1.58,-0.79 -6,3.23 -8.63,8.09 -4.29,7.86 -1.07,12.52 -4.31,22.64 -2.6,8.1 -7.48,14 -8.63,13.49 -1.82,-0.77 5.65,-17.35 1.09,-20.5 -1.84,-1.26 -5.32,-0.14 -7.57,1.61 -6.9,5.48 -1.14,16.5 -6.46,33.44 -1.81,5.79 -5.75,14.93 -9.17,14.56 -1.79,-0.13 -3.26,-2.91 -4.86,-9.65 z"
         transform="translate(-701.01,-425.93)"
         id="path9045" />
    </g>
    <path
       class="cls-5"
       d="m -161.27288,328.6545 c -0.54504,2.14047 -3.65389,2.98714 -4.70694,3.27818 a 13.872104,13.872104 0 0 1 -5.82083,0.30427 c -2.93687,-0.42862 -5.59065,-1.61131 -7.73642,-2.58498 -2.75431,-1.25412 -10.02241,-4.96093 -14.43831,-12.76085 -2.13783,-3.7756 -1.5875,-4.92125 -1.39964,-5.21494 1.54516,-2.60879 9.09902,-0.69585 12.4116,0.14288 0,0 9.44562,2.38125 16.72167,8.96408 a 28.43477,28.43477 0 0 1 3.68035,4.01902 c 0.77258,1.02923 1.65629,2.42094 1.28852,3.85234 z"
       id="path9049"
       style="stroke-width:0.264583" />
    <g
       class="cls-58"
       id="g9053"
       transform="matrix(0.26458333,0,0,0.26458333,-968.3446,-572.51897)">
      <path
         class="cls-47"
         d="m 3732.6,3802.19 c -0.4,7.83 -1.82,12.89 -2.81,13 -2.07,0.31 -7.22,-21 -9.25,-20.49 -1,0.24 0.29,5.42 -1.53,6.47 -2.15,1.25 -8.25,-3.54 -21.47,-20 -7.18,-5 -13.82,-8.93 -15.19,-7.48 -1.93,2 7.4,13.24 5.92,14.57 -2,1.78 -20.59,-17.41 -24.26,-14.57 -2.07,1.61 2.12,8.58 0,10.79 -2.12,2.21 -8.74,-4.25 -21.57,-7 -4.62,-1 -6.11,-0.7 -6.47,0 -0.63,1.21 2.1,3.78 3.23,4.85 9.5,8.84 22.46,11.2 22.11,12.4 -0.46,1.59 -10.67,-1.17 -11.85,1.62 -0.86,2 3.22,6.18 7.55,8.63 9.54,5.41 20.25,2.43 20.48,3.77 0.23,1.34 -11.54,4 -11.33,5.39 0.15,0.91 5,0.68 13,1.08 11.05,0.55 17.14,0.9 17.78,3.24 0.85,3.1 -8.09,9.16 -8.09,9.16 11.22,-0.54 15.64,-0.54 15.64,-0.54 8.12,0 12.17,0 13,1.08 1.78,2.42 -0.5,9.62 -5.81,17.32 -11.1,-1.62 -21.13,-6.09 -29.24,-9.77 -10.41,-4.74 -37.88,-18.75 -54.57,-48.23 -8.08,-14.27 -6,-18.6 -5.29,-19.71 5.84,-9.86 34.39,-2.63 46.91,0.54 -0.09,0 35.61,9.01 63.11,33.88 z"
         transform="translate(-701.01,-425.93)"
         id="path9051" />
    </g>
    <g
       class="cls-58"
       id="g9057"
       transform="matrix(0.26458333,0,0,0.26458333,-968.3446,-572.51897)">
      <path
         class="cls-5"
         d="m 3768.62,3935.46 c -6.92,8.31 -20.68,8.15 -29.66,4.86 -16.19,-5.94 -13.15,-20.7 -30.19,-28.58 0,0 -14.71,-6.8 -36.13,-4.32 v 0 c 0,0 22.45,-12.05 43.68,-15.09 5.54,-0.8 38.49,-5.53 51.22,12.94 5.65,8.2 7.96,21.93 1.08,30.19 z"
         transform="translate(-701.01,-425.93)"
         id="path9055" />
    </g>
    <path
       class="cls-5"
       d="m -156.70617,356.04416 c -1.83092,2.19869 -5.47158,2.15636 -7.84754,1.28588 -4.28361,-1.57163 -3.47927,-5.47688 -7.98777,-7.56179 0,0 -3.89202,-1.79917 -9.5594,-1.143 v 0 c 0,0 5.9399,-3.18823 11.557,-3.99257 1.46579,-0.21166 10.18381,-1.46314 13.55196,3.42371 1.49489,2.16958 2.10608,5.80231 0.28575,7.98777 z"
       id="path9061"
       style="stroke-width:0.264583" />
    <path
       class="cls-7"
       d="m -113.47855,355.47531 c 0.61648,-0.3175 -0.12964,-1.78065 0.56886,-2.99773 0.96044,-1.66952 4.33916,-2.34421 5.84994,-0.99748 0.98954,0.88106 0.92868,2.40771 0.85725,4.27831 -0.13759,3.46869 -1.41288,4.6355 -0.5715,6.13569 0.71437,1.27794 2.3151,1.63777 2.70933,1.71185 1.40229,0.26459 2.52412,-0.26458 3.1406,-0.5715 0.941919,-0.45243 1.108607,-0.8202 3.137961,-2.42358 1.153583,-0.91281 1.733021,-1.3679 1.852083,-1.28587 0.481542,0.33602 -0.846666,5.23081 -4.849814,7.99041 -3.68829,2.54 -7.69673,1.92881 -9.13077,1.71186 -1.12712,-0.17198 -5.97164,-0.90752 -8.70214,-4.99269 -0.5715,-0.85461 -2.4765,-3.70417 -1.42875,-6.56431 0.58472,-1.5875 2.14577,-3.35492 3.70416,-3.28084 1.42346,0.0688 2.22515,1.61132 2.86279,1.28588 z"
       id="path9065"
       style="stroke-width:0.264583" />
    <path
       class="cls-24"
       d="m 344.44905,295.19264 c -0.56091,0 -1.11389,2.60086 -1.27794,3.60363 a 14.052021,14.052021 0 0 0 -0.10318,3.28348 c 0.13493,2.94745 -0.34396,5.25727 -0.56357,7.29985 -0.26458,2.36273 -0.49212,4.36298 -1.8362,6.48758 -1.74361,2.74902 -4.27567,4.01373 -5.92932,4.81277 -3.40254,1.64571 -6.45054,1.82827 -12.40631,2.11667 -3.20939,0.16404 -5.90021,0.14288 -7.83431,0.0873 -4.7625,-0.0476 -8.33967,-0.0767 -11.84275,-0.0873 -1.91029,0 -7.51681,-0.0476 -11.78719,-1.85208 -0.23812,-0.10054 -0.43921,-0.19579 -0.61912,-0.28046 -1.65365,-0.79375 -4.18307,-2.06375 -5.92667,-4.81277 -1.34673,-2.11667 -1.5875,-4.12486 -1.83621,-6.48759 -0.69585,-6.48758 1.41552,-9.7102 -0.87048,-13.38527 a 8.3264374,8.3264374 0 0 0 -1.15887,-1.46314 v 0 c -0.81227,14.37216 -0.62706,24.19879 0.43921,27.37114 1.75683,5.24669 4.52702,7.3078 4.52702,7.3078 a 11.705167,11.705167 0 0 0 3.59833,2.9501 c 2.54794,1.32292 4.2545,0.92075 11.48821,0.79375 3.52689,-0.0582 7.05379,0 10.58333,0 h 4.66196 c 6.87917,0.09 16.25071,0.75935 19.38073,-0.94721 0.26458,-0.14287 0.74083,-0.41275 1.76477,-1.00542 2.02142,-1.17475 2.46327,-1.49489 2.83104,-1.80181 a 10.715625,10.715625 0 0 0 1.60602,-1.68804 c 0.48948,-0.62177 2.17223,-3.26231 2.92365,-5.61975 2.11931,-6.61458 1.74889,-26.68323 0.18785,-26.68323 z"
       id="path9086"
       style="stroke-width:0.264583" />
    <path
       class="cls-9"
       d="M 364.44626,275.11606 H 204.8443 a 3.0876875,3.0876875 0 0 1 -3.09033,-3.08769 v -2.42887 a 3.0903333,3.0903333 0 0 1 3.09033,-3.09034 h 157.87688 q 0.94985,4.2889 1.72508,8.6069 z"
       id="path9088"
       style="stroke-width:0.264583" />
    <path
       class="cls-22"
       d="M 365.81151,283.7256 H 225.93953 a 3.0903333,3.0903333 0 0 1 -3.09033,-3.09033 v -2.42623 a 3.0903333,3.0903333 0 0 1 3.09033,-3.09298 h 138.50673 q 0.76994,4.29419 1.36525,8.60954 z"
       id="path9090"
       style="stroke-width:0.264583" />
    <rect
       class="cls-22"
       x="251.46918"
       y="283.72824"
       width="9.1704578"
       height="130.59303"
       id="rect9092"
       style="stroke-width:0.264583" />
    <path
       class="cls-3"
       d="m 250.08276,234.03421 c -1.74096,-5.08 -2.96069,-9.35832 -3.77296,-12.41161 -4.24921,-15.98877 -3.46339,-21.72758 -2.28335,-25.51642 0.48419,-1.55839 2.09814,-6.73893 4.86569,-6.9506 1.08214,-0.082 2.1537,0.61119 2.77812,1.39171 2.02142,2.51619 -0.0661,6.61458 -1.68804,12.31106 0,0 -2.11667,7.4639 -2.28335,15.29027 -0.0794,3.86027 0.46566,9.49854 3.57452,16.4809 z"
       id="path9094"
       style="stroke-width:0.264583" />
    <path
       class="cls-4"
       d="m 250.08276,234.03421 c -1.74096,-5.08 -2.96069,-9.35832 -3.77296,-12.41161 -4.24921,-15.98877 -3.46339,-21.72758 -2.28335,-25.51642 0.48419,-1.55839 2.09814,-6.73893 4.86569,-6.9506 1.08214,-0.082 2.1537,0.61119 2.77812,1.39171 2.02142,2.51619 -0.0661,6.61458 -1.68804,12.31106 0,0 -2.11667,7.4639 -2.28335,15.29027 -0.0794,3.86027 0.46566,9.49854 3.57452,16.4809 z"
       id="path9096"
       style="stroke-width:0.264583" />
    <path
       class="cls-5"
       d="m 250.17801,235.82279 a 63.764583,63.764583 0 0 1 -0.99219,-20.25386 c 0.3228,-2.87072 0.96044,-9.50912 4.16984,-16.48089 1.27793,-2.78077 2.45798,-6.43731 8.49048,-14.24781 2.79664,-3.62215 7.02204,-6.7654 8.78416,-6.20448 1.02923,0.32543 1.44463,1.70127 1.5875,2.18281 1.73832,5.7785 -5.8076,12.6021 -12.11262,25.019 0,0 -4.57994,9.17575 -6.75217,18.66635 -0.55562,2.42094 -1.016,5.23082 -1.016,5.23082 -0.54504,3.31258 -0.99748,7.19931 -0.82021,7.22841 0.10319,0.0185 0.39952,-1.30968 0.50271,-1.76477 a 97.102082,97.102082 0 0 1 4.55083,-14.02291 c 0,0 3.37344,-7.84225 11.46705,-15.48871 a 25.55875,25.55875 0 0 1 4.91595,-3.42371 c 3.83117,-2.07963 5.49275,-1.75419 6.25475,-1.48961 0.31221,0.10848 1.397,0.48419 1.63778,1.3388 0.1905,0.67733 -0.1905,1.50283 -1.19063,2.53206 -2.81781,2.91042 -8.20208,5.26256 -10.42458,6.55373 -4.99534,2.89719 -10.53307,11.64166 -13.70277,19.21139 a 54.205187,54.205187 0 0 0 -2.38125,6.99823 z"
       id="path9098"
       style="stroke-width:0.264583" />
    <path
       class="cls-6"
       d="m 253.88482,237.45527 c 0,-0.0529 0.0185,-0.12436 0.0291,-0.20638 v -0.0185 c 1.29646,-9.04081 6.37116,-16.1581 6.37116,-16.1581 2.21192,-3.09563 5.15673,-6.10129 7.28398,-7.57502 3.8444,-2.66171 4.48205,-2.69875 9.26042,-4.86569 1.08479,-0.49477 5.96371,-1.37848 7.14375,0.52917 0.762,1.22766 0.38894,3.19087 -0.59531,4.46881 -2.03994,2.64583 -6.68073,2.29658 -12.02267,4.28889 -3.59304,1.34144 -4.67783,2.11667 -6.74158,4.19894 -3.57717,3.59304 -5.31019,7.20196 -6.40556,9.525 a 38.81702,38.81702 0 0 0 -2.38125,6.55109 z"
       id="path9100"
       style="stroke-width:0.264583" />
    <path
       class="cls-4"
       d="m 253.88482,237.45527 c 0,-0.0529 0.0185,-0.12436 0.0291,-0.20638 v -0.0185 c 1.29646,-9.04081 6.37116,-16.1581 6.37116,-16.1581 2.21192,-3.09563 5.15673,-6.10129 7.28398,-7.57502 3.8444,-2.66171 4.48205,-2.69875 9.26042,-4.86569 1.08479,-0.49477 5.96371,-1.37848 7.14375,0.52917 0.762,1.22766 0.38894,3.19087 -0.59531,4.46881 -2.03994,2.64583 -6.68073,2.29658 -12.02267,4.28889 -3.59304,1.34144 -4.67783,2.11667 -6.74158,4.19894 -3.57717,3.59304 -5.31019,7.20196 -6.40556,9.525 a 38.81702,38.81702 0 0 0 -2.38125,6.55109 z"
       id="path9102"
       style="stroke-width:0.264583" />
    <path
       class="cls-6"
       d="m 255.32416,236.03181 c 1.03187,-2.58498 3.27818,-7.08025 7.9375,-10.62302 0,0 4.96358,-3.77031 11.21833,-4.07194 1.7489,-0.082 2.45004,0.32544 2.78077,0.79375 0.43127,0.61119 0.34925,1.48961 0.10054,2.08492 -0.29633,0.70114 -0.88371,1.14829 -1.5875,1.48696 -2.47121,1.18798 -5.60916,0.65087 -5.95577,0.59795 -5.9055,-0.92604 -12.91431,5.09059 -13.20535,9.72873 a 5.3525208,5.3525208 0 0 0 0.29898,2.08492 z"
       id="path9104"
       style="stroke-width:0.264583" />
    <path
       class="cls-4"
       d="m 255.32416,236.03181 c 1.03187,-2.58498 3.27818,-7.08025 7.9375,-10.62302 0,0 4.96358,-3.77031 11.21833,-4.07194 1.7489,-0.082 2.45004,0.32544 2.78077,0.79375 0.43127,0.61119 0.34925,1.48961 0.10054,2.08492 -0.29633,0.70114 -0.88371,1.14829 -1.5875,1.48696 -2.47121,1.18798 -5.60916,0.65087 -5.95577,0.59795 -5.9055,-0.92604 -12.91431,5.09059 -13.20535,9.72873 a 5.3525208,5.3525208 0 0 0 0.29898,2.08492 z"
       id="path9106"
       style="stroke-width:0.264583" />
    <path
       class="cls-7"
       d="m 257.40907,234.43373 c 4.40002,-3.65125 8.46667,-5.22288 11.0199,-5.95842 3.89996,-1.12183 5.63033,-0.68792 6.75217,0 0.29898,0.18256 2.02406,1.28587 2.28335,3.27554 0.18256,1.38906 -0.36248,3.12473 -1.19062,3.27819 -0.62442,0.11642 -1.00013,-0.74613 -3.27555,-2.97921 -1.09537,-1.07421 -1.651,-1.6166 -2.08491,-1.78594 -1.65365,-0.65352 -5.42132,0.66411 -7.98513,2.08492 -1.70391,0.94456 -3.92906,1.98437 -5.32077,3.47398 z"
       id="path9108"
       style="stroke-width:0.264583" />
    <path
       class="cls-6"
       d="M 248.79159,233.13991"
       id="path9110"
       style="stroke-width:0.264583" />
    <path
       class="cls-7"
       d="m 251.26809,235.12693 c -0.082,-0.40745 -0.21431,-0.99483 -0.40745,-1.68804 -0.49213,-1.76212 -2.43152,-8.36612 -8.52752,-13.30325 -1.47903,-1.19856 -9.12548,-7.39246 -16.66875,-5.16202 -1.89442,0.55827 -3.48192,1.66423 -6.65163,3.87086 -3.16971,2.20662 -7.15698,4.98475 -6.65162,6.35 0.50535,1.36525 5.02708,0.18785 13.86416,0 8.21796,-0.17727 12.61534,-0.21961 16.81427,2.18281 4.01109,2.29658 6.23888,5.90814 7.44538,8.44021 z"
       id="path9112"
       style="stroke-width:0.264583" />
    <path
       class="cls-5"
       d="m 250.55372,233.53943 c -0.61119,-1.21708 -3.84175,-7.32366 -10.31875,-8.63864 -3.81529,-0.77258 -9.60437,-0.0609 -10.8241,3.0771 -0.68792,1.77536 0.0953,4.30213 1.3917,4.7625 1.45521,0.52917 2.6035,-1.89441 6.65163,-3.47662 1.05833,-0.41011 2.87073,-1.11919 4.7625,-0.99219 4.63285,0.31221 7.56444,5.48746 8.14123,6.55373 z"
       id="path9114"
       style="stroke-width:0.264583" />
    <path
       class="cls-5"
       d="m 251.15168,236.33079 a 134.09083,134.09083 0 0 0 -6.95061,-21.14815 c -5.77056,-13.589 -9.44562,-15.875 -10.922,-16.66875 -4.83922,-2.62996 -10.93787,-2.79664 -15.68714,-1.09273 -3.0824,1.10596 -5.29167,2.8919 -5.16202,3.175 0.21431,0.4498 5.87639,-3.66183 10.22614,-1.68804 1.76742,0.79375 1.69863,1.87061 5.85788,7.44538 2.38125,3.19087 3.57187,4.78631 4.7625,5.85787 3.87614,3.47398 6.28385,3.00302 9.3345,6.45319 0.41804,0.4736 1.28587,1.51606 2.87866,4.7625 a 66.674999,66.674999 0 0 1 4.96359,13.9991 z"
       id="path9116"
       style="stroke-width:0.264583" />
    <path
       class="cls-39"
       d="m 275.78174,248.17089 a 21.894271,21.894271 0 0 1 -10.34521,18.61344 h -23.13781 a 21.894271,21.894271 0 0 1 -10.34521,-18.61344 c 0,-0.51064 0.0159,-1.01335 0.0529,-1.51606 a 21.735521,21.735521 0 0 1 4.07458,-11.28712 h 35.57323 a 21.735521,21.735521 0 0 1 4.06929,11.28183 c 0.0423,0.508 0.0582,1.01071 0.0582,1.52135 z"
       id="path9118"
       style="stroke-width:0.264583" />
    <path
       class="cls-19"
       d="m 275.72353,246.64954 h -43.7171 a 21.785791,21.785791 0 0 1 0.87577,-4.82071 h 41.97085 a 21.93925,21.93925 0 0 1 0.87048,4.82071 z"
       id="path9120"
       style="stroke-width:0.264583" />
    <path
       class="cls-11"
       d="m 275.72353,248.17354 a 21.894271,21.894271 0 0 1 -10.34256,18.61079 h -23.13781 a 21.960416,21.960416 0 0 1 -8.08831,-8.9244 c 6.46906,0.68527 17.12912,3.85498 25.98472,-2.17487 7.95338,-5.42131 9.49325,-14.89075 11.42207,-20.31471 h 0.0397 a 21.862521,21.862521 0 0 1 3.19882,6.46377 22.127104,22.127104 0 0 1 0.87312,4.81806 c 0.0503,0.50536 0.0503,1.00807 0.0503,1.52136 z"
       id="path9122"
       style="stroke-width:0.264583" />
    <path
       class="cls-7"
       d="m -109.37486,125.09996 h -19.2696 l -15.85913,19.84375 h 51.958877 q -8.416397,-9.92452 -16.830147,-19.84375 z"
       id="path9125"
       style="stroke-width:0.264583" />
    <path
       class="cls-9"
       d="m -116.58211,26.780791 v 73.734079 h -3.88144 V 30.156874 c 1.40759,-1.259416 2.71198,-2.386541 3.88144,-3.376083 z"
       id="path9127"
       style="stroke-width:0.264583" />
    <rect
       class="cls-9"
       x="-123.53797"
       y="100.52282"
       width="10.025063"
       height="10.025063"
       id="rect9129"
       style="stroke-width:0.264583" />
    <rect
       class="cls-7"
       x="-127.2818"
       y="110.54785"
       width="17.515415"
       height="7.4374375"
       rx="1.8520833"
       id="rect9131"
       style="stroke-width:0.264583" />
    <rect
       class="cls-7"
       x="-124.87148"
       y="117.98532"
       width="12.692062"
       height="2.696104"
       rx="0.43656248"
       id="rect9133"
       style="stroke-width:0.264583" />
    <rect
       class="cls-9"
       x="-128.64444"
       y="120.68141"
       width="19.269604"
       height="4.4185419"
       id="rect9135"
       style="stroke-width:0.264583" />
    <path
       class="cls-7"
       d="m -77.471401,61.279811 h -19.266958 l -15.859121,19.84375 h 51.956225 q -8.41375,-9.927166 -16.830146,-19.84375 z"
       id="path9137"
       style="stroke-width:0.264583" />
    <path
       class="cls-9"
       d="M -84.678651,7.2148538 V 36.70002 h -3.881437 V 8.9954996 q 1.881187,-0.8916458 3.881437,-1.7806458 z"
       id="path9139"
       style="stroke-width:0.264583" />
    <rect
       class="cls-9"
       x="-91.631844"
       y="36.702686"
       width="10.025063"
       height="10.025063"
       id="rect9141"
       style="stroke-width:0.264583" />
    <rect
       class="cls-7"
       x="-95.378387"
       y="46.727718"
       width="17.515415"
       height="7.4374375"
       rx="1.8520833"
       id="rect9143"
       style="stroke-width:0.264583" />
    <rect
       class="cls-7"
       x="-92.965355"
       y="54.165188"
       width="12.692062"
       height="2.696104"
       rx="0.43656248"
       id="rect9145"
       style="stroke-width:0.264583" />
    <rect
       class="cls-9"
       x="-96.738319"
       y="56.858627"
       width="19.269604"
       height="4.4185419"
       id="rect9147"
       style="stroke-width:0.264583" />
    <rect
       class="cls-15"
       x="33.312336"
       y="2.8413169"
       width="257.06387"
       height="13.157729"
       id="rect9149"
       style="stroke-width:0.264583" />
    <path
       class="cls-16"
       d="M -80.813089,395.90893"
       id="path9151"
       style="stroke-width:0.264583" />
    <path
       class="cls-12"
       d="m -23.200068,161.94319 a 30.850416,30.850416 0 0 0 1.307041,6.78391 c 2.074334,6.55638 7.389813,15.77975 12.3481043,15.17915 1.2964583,-0.15611 2.1907499,-0.93663 3.0876874,-1.79917 8.0618541,-7.75229 11.3215207,-16.98096 11.3215207,-16.98096 2.9950833,-8.48518 4.7624999,-13.52285 2.57175,-19.29871 -0.4021667,-1.05833 -3.556,-8.95085 -11.0622291,-10.28964 -6.7601043,-1.2065 -11.9935623,3.80735 -13.1206873,4.8895 -2.418292,2.3151 -3.704167,4.89479 -4.558771,7.35277 -0.79375,-1.05833 -1.783291,-1.81769 -3.003021,-1.92352 -1.793875,-0.15611 -3.545416,1.15358 -4.402666,2.54529 -2.645833,4.27831 2.447396,10.45898 2.958041,11.06488 0.735542,0.87047 1.624542,1.92352 2.55323,2.4765 z"
       id="path9153"
       style="stroke-width:0.264583" />
    <path
       class="cls-29"
       d="m 1.9962021,169.59229 c -0.5053542,0.74612 -1.26735415,1.82562 -2.27806247,3.05858 -2.99772913,3.65919 -4.83922913,5.9055 -6.81831243,5.72559 -2.2568958,-0.20903 -3.6512502,-3.47398 -4.4979162,-5.46894 a 18.137187,18.137187 0 0 1 -1.285875,-9.06727 65.476437,65.476437 0 0 0 14.8854578,5.75204 z"
       id="path9155"
       style="stroke-width:0.264583" />
    <path
       class="cls-39"
       d="m 22.615181,150.46027 c -2.788708,5.12233 -8.995833,11.176 -13.8906248,9.78958 a 5.1196874,5.1196874 0 0 1 -1.1641667,-0.48683 5.6779583,5.6779583 0 0 1 -0.7037916,-0.46567 23.386521,23.386521 0 0 1 -10.2340832,-17.21114 43.859979,43.859979 0 0 1 -15.3934577,5.40014 c -0.896938,0.13494 -1.743605,0.23548 -2.534709,0.30692 a 4.3338749,4.3338749 0 0 0 -1.338791,-1.32292 4.0190208,4.0190208 0 0 0 -1.66423,-0.60589 c -1.793875,-0.15611 -3.545416,1.15358 -4.402666,2.54529 -2.645833,4.27831 2.447396,10.45898 2.958041,11.06487 0.735542,0.87048 1.624542,1.92352 2.55323,2.4765 a 30.850416,30.850416 0 0 0 1.307041,6.78392 c 1.648354,5.21494 5.355167,12.12056 9.294813,14.42244 0.637645,1.28587 0.93927,2.42623 0.738187,3.84439 -0.560917,3.91584 -3.839104,6.37381 -7.46125,8.99584 a 49.445333,49.445333 0 0 1 -13.04925,6.65162 c -6.614583,2.2225 -12.408958,2.53735 -13.708062,0.29369 -0.918104,-1.5875 0.870479,-3.62479 2.574396,-6.94531 5.503333,-10.74738 3.640666,-22.225 0.513292,-41.42317 -2.722563,-16.72696 -5.027084,-17.018 -3.860271,-24.18556 1.510771,-9.32657 7.482416,-21.69584 16.467666,-22.6404 3.799417,-0.40481 7.998354,1.18269 10.548938,3.85763 2.468562,2.59291 5.556249,7.03527 4.593166,11.32152 -0.441854,1.94998 -1.531937,3.13266 -0.992187,3.73062 0.187854,0.20902 0.904875,0.71438 6.8791662,-2.14048 3.6168542,-1.72508 4.3762083,-2.41035 6.0245625,-3.13531 4.8127707,-2.11667 9.6361249,-1.44462 10.760604,-1.28587 a 19.692937,19.692937 0 0 1 3.9475833,0.98954 c 5.188479,1.87325 10.19175,5.99016 12.520083,12.13114 3.262313,8.60161 -0.661458,16.10254 -1.283229,17.2429 z"
       id="path9157"
       style="stroke-width:0.264583" />
    <path
       class="cls-13"
       d="m -11.860027,186.99393 c -0.560917,3.91584 -3.839104,6.37382 -7.46125,8.99584 a 49.445333,49.445333 0 0 1 -13.04925,6.65162 c -3.561291,-3.43958 -6.021916,-8.09096 -5.603875,-12.43541 0.621771,-6.49023 7.186084,-7.51682 9.649354,-16.98096 1.354667,-5.21229 0.674688,-9.94569 0.193146,-13.31383 -1.172104,-8.16769 -3.849687,-9.8425 -3.473979,-16.40417 0.322792,-5.66738 2.6035,-9.38213 3.280833,-10.41929 1.5875,-2.44475 4.302125,-5.39486 6.559021,-6.5749 0.957792,-0.50006 1.833563,-0.68262 2.510896,-0.37306 1.338792,0.61119 1.288521,2.87867 0.928688,5.95842 -1.748896,1.64306 -3.225271,3.63802 -3.825875,6.13304 a 13.1445,13.1445 0 0 0 -0.248709,3.40254 19.489208,19.489208 0 0 0 1.095375,6.13833 4.3444583,4.3444583 0 0 0 -1.322916,-1.32291 v 0 l -0.07673,-0.0476 a 4.1169166,4.1169166 0 0 0 -1.420812,-0.52917 c -0.05292,0 -0.111125,-0.0159 -0.166688,-0.0185 -0.05556,-0.003 -0.150812,0 -0.224895,-0.0132 -0.07408,-0.0132 -0.150813,0 -0.227542,0 -0.07673,0 -0.08202,0 -0.121708,0 h -0.113771 -0.05027 c -1.521354,0.19315 -2.926292,1.32292 -3.664479,2.52942 -2.645833,4.27831 2.447396,10.45898 2.958041,11.06488 0.735542,0.87047 1.624542,1.92352 2.55323,2.4765 a 30.850416,30.850416 0 0 0 1.307041,6.78391 c 1.648354,5.21494 5.355167,12.12056 9.294813,14.42244 0.62177,1.31762 0.923395,2.45798 0.722312,3.87614 z"
       id="path9159"
       style="stroke-width:0.264583" />
    <path
       class="cls-12"
       d="m -15.736173,180.36348 -0.312208,0.44979 c -0.04233,0.0609 -0.08731,0.12171 -0.127,0.18521 -0.357187,0.52916 -0.767292,1.15358 -1.243542,1.93939 -0.05556,0.0873 -0.108479,0.17992 -0.166687,0.26459 -0.219604,0.36777 -0.457729,0.76993 -0.706438,1.20914 -2.995083,5.25992 -2.709333,7.38452 -4.630208,7.97454 -0.703792,0.21432 -1.566333,0 -2.754312,-0.61648 -1.341438,-0.69056 -3.09298,-1.88118 -5.479521,-3.49779 -3.881438,-2.64583 -4.124854,-3.34962 -4.116917,-3.86027 0.03704,-2.05581 3.939646,-2.85485 6.947958,-4.8895 3.225271,-2.18281 4.910667,-5.47423 5.889625,-8.82121 0.05292,-0.17462 0.100542,-0.3466 0.148167,-0.52916 0.04763,-0.18257 0.07673,-0.2884 0.111125,-0.43392 0.05292,-0.19579 0.100542,-0.39158 0.142875,-0.59002 0.04233,-0.19844 0.07673,-0.34131 0.116417,-0.51065 0,0.0265 0.01588,0.0476 0.02381,0.0714 1.198563,3.81 3.484563,8.49577 6.156854,11.6549 z"
       id="path9161"
       style="stroke-width:0.264583" />
    <path
       class="cls-13"
       d="m -15.736173,180.36348 -0.312208,0.44979 c -0.04233,0.0609 -0.08731,0.12171 -0.127,0.18521 -0.357187,0.52916 -0.767292,1.15358 -1.243542,1.93939 -0.05556,0.0873 -0.111125,0.18256 -0.166687,0.26459 -0.219604,0.36777 -0.457729,0.76993 -0.706438,1.20914 -2.995083,5.25992 -2.709333,7.38452 -4.630208,7.97454 -0.703792,0.21432 -1.566333,0 -2.754312,-0.61648 1.209145,-1.4605 3.378729,-3.50308 5.455708,-7.74435 1.076854,-2.20133 1.600729,-3.9079 1.322917,-5.78908 -0.227542,-1.56369 -0.849313,-2.17488 -2.058459,-4.45823 -0.473604,-0.89694 -1.008062,-1.99231 -1.484312,-3.07711 0.05292,-0.17462 0.100541,-0.3466 0.148166,-0.52916 0.04763,-0.18257 0.07673,-0.2884 0.111125,-0.43392 0.05292,-0.19579 0.100542,-0.39158 0.142875,-0.59002 0.04233,-0.19844 0.07937,-0.34131 0.116417,-0.51065 0,0.0265 0.01588,0.0476 0.02381,0.0714 1.203854,3.81 3.489854,8.49577 6.162145,11.6549 z"
       id="path9163"
       style="stroke-width:0.264583" />
    <path
       class="cls-59"
       d="m -18.326443,132.10612 c -1.748896,1.64307 -3.225271,3.63802 -3.825875,6.13304 a 13.1445,13.1445 0 0 0 -0.248709,3.40255 19.489208,19.489208 0 0 0 1.095375,6.13833 5.5827083,5.5827083 0 0 0 -1.322916,-1.32292 v 0 l -0.07673,-0.0476 a 3.4845625,3.4845625 0 0 0 -1.17475,-0.49477 2.38125,2.38125 0 0 0 -0.246062,-0.045 c -0.05292,0 -0.111125,-0.0159 -0.166688,-0.0185 a 3.2279166,3.2279166 0 0 0 -0.452437,0 0.91016666,0.91016666 0 0 0 -0.121708,0 0.86783332,0.86783332 0 0 0 -0.113771,0 h -0.05027 c -0.994833,-2.62467 -1.658938,-6.17009 -1.156229,-9.69169 0.460375,-3.21733 1.973791,-6.96648 4.437062,-9.65994 1.5875,-1.73566 3.571875,-3.03212 5.918729,-3.46075 a 11.771312,11.771312 0 0 1 2.756959,-0.15081 c 1.852083,0.11906 3.4898538,0.66675 3.7412079,1.61131 0.4894792,1.90765 -4.9688749,3.82852 -8.9931869,7.60677 z"
       id="path9165"
       style="stroke-width:0.264583" />
    <path
       class="cls-13"
       d="m -22.152318,138.23916 a 13.1445,13.1445 0 0 0 -0.248709,3.40255 19.489208,19.489208 0 0 0 1.095375,6.13833 c -0.695854,-0.93133 -1.55575,-1.63777 -2.590271,-1.85208 -0.679979,-3.48192 -0.60325,-7.65969 0.973667,-11.09134 0.960438,-2.09021 2.264833,-4.92389 5.209646,-6.75216 2.156354,-1.3388 4.278312,-1.56898 4.823354,-3.28084 0.230187,-0.72496 0.04763,-1.2991 -0.201083,-1.88648 1.852083,0.11907 3.4898538,0.66675 3.7412079,1.61132 0.7249583,2.69875 -10.8241039,5.47158 -12.8031869,13.7107 z"
       id="path9167"
       style="stroke-width:0.264583" />
    <path
       class="cls-13"
       d="m 22.615181,150.46027 c -2.788708,5.12233 -8.995833,11.176 -13.8906248,9.78958 a 5.1196874,5.1196874 0 0 1 -1.1641667,-0.48683 15.345833,15.345833 0 0 0 3.2861245,-0.99219 c 5.535084,-2.38125 9.503834,-8.09625 10.805584,-13.89327 1.608666,-7.15698 -1.201209,-12.86404 -2.116667,-14.66585 -0.545042,-1.05834 -3.145896,-5.94519 -8.143875,-9.10961 5.188479,1.87325 10.19175,5.99017 12.520083,12.13115 3.249084,8.58573 -0.674687,16.08666 -1.296458,17.22702 z"
       id="path9169"
       style="stroke-width:0.264583" />
    <path
       class="cls-60"
       d="m -25.623652,391.58035 c -0.992187,0.35189 -0.944562,1.87325 -1.545166,9.906 a 13.1445,13.1445 0 0 0 0.386291,4.8895 c 0.391584,1.35731 0.769938,2.68023 1.801813,3.08769 1.542521,0.60854 3.918479,-1.08744 4.886854,-3.08769 0.775229,-1.5875 0.08996,-2.22779 0.264583,-5.40279 0.238125,-4.49792 1.785938,-6.43732 0.642938,-7.5909 -0.494771,-0.49742 -0.836084,-0.1905 -3.344334,-0.89958 -2.413,-0.68263 -2.550583,-1.09273 -3.092979,-0.90223 z"
       id="path9173"
       style="stroke-width:0.264583" />
    <path
       class="cls-61"
       d="M -1.0544437,414.28954 H -27.68211 c -0.164042,-1.5293 -0.296333,-3.14061 -0.386292,-4.826 -0.08996,-1.6854 -0.129646,-3.3364 -0.129646,-4.8895 a 107.23033,107.23033 0 0 1 13.758334,0.38629 c 3.209395,0.30162 4.8921454,0.70114 6.1330412,1.18798 0,0 0.5794375,0.23548 1.0583334,0.48418 3.2596666,1.63248 5.3683957,5.82084 6.1938957,7.65705 z"
       id="path9175"
       style="stroke-width:0.264583" />
    <path
       class="cls-24"
       d="m 2.1628896,309.46162 c -1.29910415,15.18444 -3.6882916,17.3355 -13.8959166,57.89083 -3.286125,13.05719 -5.585354,23.76488 -6.974416,30.53292 h -2.849563 l -6.511396,-0.0344 c -0.73025,-11.71575 -1.603375,-29.32641 -1.801812,-50.94022 -0.185208,-20.24857 0.100542,-26.29165 -0.772583,-36.27703 -1.201209,-13.75833 -5.6515,-33.02529 -20.452292,-55.95937 l 28.172833,-15.05214 c 0.529167,0.32543 1.058333,0.68262 1.648354,1.07685 a 52.194354,52.194354 0 0 1 9.789583,8.57514 c 16.8036877,18.96534 14.8933961,45.58507 13.6472086,60.18742 z"
       id="path9177"
       style="stroke-width:0.264583" />
    <path
       class="cls-60"
       d="m -67.462214,392.47199 c 0.113771,2.45798 5.908146,5.18319 8.620125,3.47398 1.013354,-0.64029 0.79375,-1.39435 2.185459,-4.11691 2.174874,-4.26509 3.844395,-4.65932 3.730624,-6.43202 -0.17727,-2.80459 -4.603749,-5.73882 -6.945312,-4.7625 -1.960562,0.81756 -0.941917,3.7465 -3.860271,7.58825 -2.053166,2.70933 -3.794125,2.88925 -3.730625,4.2492 z"
       id="path9179"
       style="stroke-width:0.264583" />
    <path
       class="cls-16"
       d="M -55.727943,383.56083"
       id="path9181"
       style="stroke-width:0.264583" />
    <path
       class="cls-61"
       d="m -69.851401,394.93791 a 6.7124791,6.7124791 0 0 1 1.259416,-3.40254 6.8209582,6.8209582 0 0 1 3.937,-2.55323 9.950979,9.950979 0 0 0 2.116667,2.93952 c 2.582333,2.47121 5.754688,2.77548 6.815667,2.83104 q 1.621895,4.37886 3.241145,8.75771 a 8.4031666,8.4031666 0 0 1 4.093105,2.04788 c 3.439583,3.2041 2.555875,8.20208 2.4765,8.61483 l -11.996209,0.15346 z"
       id="path9183"
       style="stroke-width:0.264583" />
    <path
       class="cls-24"
       d="m -17.519464,335.70564 c -5.17525,14.04408 -12.197292,18.78542 -25.857729,38.59213 -5.516563,7.99835 -9.559396,14.74522 -11.964458,18.90977 a 12.964583,12.964583 0 0 1 -4.106334,-1.73038 c -0.103187,-0.0635 -0.203729,-0.13494 -0.306916,-0.20373 a 12.924896,12.924896 0 0 1 -3.688292,-3.85498 c 5.146146,-13.3006 9.667875,-23.88923 12.73175,-30.87423 10.429875,-23.749 15.713604,-32.37706 11.578166,-40.13464 -1.600729,-3.00831 -2.479145,-1.85208 -13.506979,-13.50963 -4.778374,-5.0456 -7.209895,-7.63058 -9.260416,-10.80293 -0.915458,-1.41552 -5.162021,-8.14917 -7.045854,-18.11602 a 53.29502,53.29502 0 0 1 -0.896938,-11.37709 55.094187,55.094187 0 0 1 0.963084,-8.77887 c 0.36777,-1.92352 0.79375,-3.59304 1.190625,-4.96623 l 25.085145,-6.94796 q 0.910167,1.4605 1.775354,2.8919 a 300.61429,300.61429 0 0 1 15.205604,28.36862 c 11.930063,25.4635 12.311063,35.66583 12.348104,38.97842 0.02646,2.29658 0.0079,12.02266 -4.243916,23.55585 z"
       id="path9185"
       style="stroke-width:0.264583" />
    <path
       class="cls-13"
       d="m 2.1628896,309.46162 c -1.29910415,15.18444 -3.6882916,17.3355 -13.8959166,57.89083 -3.286125,13.05719 -5.585354,23.76488 -6.974416,30.53292 h -2.849563 c -0.05027,-0.10583 -0.07937,-0.1614 -0.07937,-0.1614 0,0 9.122833,-32.07543 16.650229,-67.87356 1.7753542,-8.45079 3.8761458,-19.07116 3.6750625,-32.98031 -0.111125,-7.6491 -0.9498542,-12.39044 -2.8310417,-21.87046 -1.5583958,-7.85548 -2.9474582,-11.77925 -6.4320208,-14.66585 -3.484562,-2.88661 -7.495646,-3.47398 -8.490479,-3.60098 -7.180792,-0.91546 -11.641666,3.29935 -12.866687,2.04787 -0.976313,-1.00277 0.529166,-5.09323 10.657416,-18.08162 a 52.194354,52.194354 0 0 1 9.789583,8.57514 c 16.8036877,18.96534 14.8933961,45.58507 13.6472086,60.18742 z"
       id="path9187"
       style="stroke-width:0.264583" />
    <path
       class="cls-13"
       d="m -17.519464,335.70564 c -5.17525,14.04408 -12.197292,18.78542 -25.857729,38.59213 -5.516563,7.99835 -9.559396,14.74522 -11.964458,18.90977 a 12.964583,12.964583 0 0 1 -4.106334,-1.73038 c 1.75948,-2.33627 4.341813,-5.51392 7.707313,-9.97479 3.204104,-4.23333 6.424083,-8.92175 12.866687,-18.25625 6.955896,-10.09915 10.424583,-15.15269 12.348104,-19.05 2.76225,-5.58271 8.28675,-17.08679 7.794625,-32.39823 -0.301625,-9.38477 -2.725208,-15.83531 -6.249458,-25.23596 -4.050771,-10.7897 -7.445375,-14.68702 -10.805583,-17.2376 a 28.135791,28.135791 0 0 0 -7.977188,-4.11427 c -8.776229,-2.91042 -13.87475,0.14023 -25.984729,-2.57175 l -0.09525,-0.0212 a 55.094187,55.094187 0 0 1 0.963084,-8.77887 c 6.566958,-4.37357 17.377833,-8.99584 28.045833,-9.02229 a 300.61429,300.61429 0 0 1 15.205604,28.36862 c 11.930062,25.4635 12.311062,35.66583 12.348104,38.97842 0.03175,2.28335 0.01323,12.00943 -4.238625,23.54262 z"
       id="path9189"
       style="stroke-width:0.264583" />
    <path
       class="cls-12"
       d="m -75.407651,94.622603 c 1.7145,0.944562 4.966229,2.714625 6.807729,1.508125 1.764771,-1.158875 1.058333,-4.511146 1.680104,-4.587875 0.621771,-0.07673 1.748896,3.010958 2.854854,8.897937 a 66.357499,66.357499 0 0 1 0.955146,16.31421 c -0.187854,3.79148 -0.529167,15.83002 2.116667,27.52989 2.00025,8.86619 3.96875,17.99167 11.578166,23.92892 4.318,3.36285 9.649354,5.10381 9.260417,7.20196 -0.301625,1.62189 -3.775604,2.20927 -7.46125,2.83104 -5.834063,0.9869 -11.472333,1.93675 -15.695083,-1.28588 -1.5875,-1.21443 -2.606146,-3.2967 -4.632854,-7.46124 -1.232959,-2.53471 -3.283479,-6.69925 -4.630209,-12.6074 a 54.504166,54.504166 0 0 1 -1.285875,-10.033 c -0.235479,-6.08542 0.579438,-8.58573 2.397125,-20.38879 1.5875,-10.33198 2.997729,-18.33563 0.174625,-22.83619 a 21.277791,21.277791 0 0 0 -2.701395,-3.47398 c -2.410355,-2.410352 -3.775605,-2.627311 -5.659438,-4.373561 -3.222625,-2.987145 -4.325937,-7.273395 -3.786187,-7.627937 0.53975,-0.354542 2.696104,3.52425 8.027458,6.463771 z"
       id="path9191"
       style="stroke-width:0.264583" />
    <path
       class="cls-12"
       d="m 77.659097,186.20018 c -0.404813,1.23561 -1.608667,3.04007 -3.328458,4.39473 -3.952875,3.12209 -7.580313,1.48167 -14.149917,3.60363 -2.968625,0.96044 -5.04825,1.85208 -7.977187,4.11692 a 155.75491,155.75491 0 0 0 -14.663208,13.12068 c -1.661584,1.69598 -4.881563,4.47675 -11.324167,10.03565 a 11.930062,11.930062 0 0 1 -4.884208,2.57175 c -3.817938,1.05833 -7.254875,0.0503 -10.736792,-1.2409 -9.564687,-3.53483 -14.3483537,-5.29166 -17.3090411,-8.7921 q -0.2460625,-0.2884 -0.47625,-0.58738 c -6.0642499,-7.72318 -6.2282919,-19.54477 -3.1247289,-21.02643 2.8786664,-1.37319 8.6809788,6.73364 22.127104,14.14991 a 19.626791,19.626791 0 0 0 5.41602,2.16165 12.7,12.7 0 0 0 4.61698,0.1561 c 2.709333,-0.42333 4.593166,-1.67216 5.916083,-2.57175 7.580312,-5.16466 16.816916,-12.52802 21.611166,-16.21102 3.005667,-2.30452 5.580063,-4.95035 9.260417,-4.88685 1.524,0.0238 2.243666,0.73025 5.445125,1.21179 a 24.555979,24.555979 0 0 0 5.87375,0.33073 c 4.738687,-0.39423 7.104062,-2.52942 7.720541,-1.80181 0.193146,0.22754 0.177271,0.68262 -0.01323,1.2647 z"
       id="path9193"
       style="stroke-width:0.264583" />
    <path
       class="cls-28"
       d="m 17.225619,208.70829 -3.730625,7.9375 q -1.008063,2.14577 -2.018771,4.29154 c -0.293688,0.62442 -0.587375,1.25148 -0.883709,1.8759 a 105.92594,105.92594 0 0 1 -15.4252076,-5.87905 q -2.7384375,-1.30175 -5.2281664,-2.64583 c -1.524,1.85208 -6.995583,8.9535 -6.688667,19.29606 a 29.06977,29.06977 0 0 0 5.254625,15.69773 c -1.30175,0.889 -2.876021,1.905 -4.706937,2.96863 a 74.406124,74.406124 0 0 1 -53.54902,8.41375 113.13848,113.13848 0 0 1 2.574395,-26.56417 114.63337,114.63337 0 0 1 17.483667,-40.29869 74.530478,74.530478 0 0 1 -8.352896,-8.58573 75.490916,75.490916 0 0 1 -11.509375,-19.13202 14.732,14.732 0 0 0 9.950979,-5.51127 17.070916,17.070916 0 0 0 2.166938,-3.50043 c 9.68375,7.14375 17.277291,13.30854 22.547791,17.72708 2.193396,1.83885 4.082521,3.60362 5.910792,5.25462 a 10.197042,10.197042 0 0 0 -0.378354,4.13809 c 0.132291,1.13241 0.608541,5.15408 3.344333,6.04573 2.066396,0.67204 4.839229,-0.62971 6.429375,-3.33111 a 31.194375,31.194375 0 0 0 3.217333,1.40229 c 3.389312,1.25413 5.106458,1.32292 9.3080416,3.32846 0.4550833,0.21696 0.8863541,0.43127 1.3440833,0.67734 5.1990624,2.7887 9.6837498,6.35 11.8612707,8.08566 2.5347083,2.02142 6.2309374,4.88421 11.0781044,8.33438 z"
       id="path9197"
       style="stroke-width:0.264583" />
    <path
       class="cls-13"
       d="m 77.659097,186.20018 c -0.404813,1.23561 -1.608667,3.04007 -3.328458,4.39473 -3.952875,3.12209 -7.580313,1.48167 -14.149917,3.60363 -2.968625,0.96044 -5.04825,1.85208 -7.977187,4.11692 a 155.75491,155.75491 0 0 0 -14.663208,13.12068 c -1.661584,1.69598 -4.881563,4.47675 -11.324167,10.03565 a 11.930062,11.930062 0 0 1 -4.884208,2.57175 c -3.817938,1.05833 -7.254875,0.0503 -10.736792,-1.2409 A 105.92594,105.92594 0 0 1 -4.8300478,216.9236 q -2.7384375,-1.30175 -5.2281662,-2.64583 c -1.524,1.85208 -6.995584,8.9535 -6.688667,19.29606 a 29.06977,29.06977 0 0 0 5.254625,15.69773 c -1.30175,0.889 -2.876021,1.905 -4.706937,2.96862 -2.563813,-3.91318 -5.199063,-9.76577 -4.79425,-16.47825 0.277812,-4.59316 1.875895,-8.29997 2.870729,-10.5992 1.465791,-3.39725 3.481916,-6.69661 5.132916,-9.14665 1.651,-2.45004 2.931584,-4.05077 2.931584,-4.05342 0,-0.003 1.1112496,0.59532 2.8680829,1.47109 a 118.84554,118.84554 0 0 0 11.2818332,4.96093 c 2.8548541,1.04511 5.2493332,1.92088 7.3871669,2.54265 3.614208,1.05833 6.490229,1.37319 9.593791,0.54504 1.666875,-0.44714 2.876021,-1.08214 11.191875,-8.49048 10.075333,-8.97731 10.813521,-10.28435 15.308792,-13.37998 5.347229,-3.683 8.202083,-5.65414 12.824354,-6.77333 5.770562,-1.40494 8.347604,-0.0344 12.625916,-2.62202 2.209271,-1.34673 3.534833,-2.93158 4.6355,-4.01638 z"
       id="path9199"
       style="stroke-width:0.264583" />
    <path
       class="cls-12"
       d="m 69.613118,304.0112 c 2.304521,1.21973 6.818312,1.18798 8.763,-1.44991 1.322916,-1.78859 1.468437,-4.79425 0,-6.17538 -0.79375,-0.74612 -1.952625,-0.91016 -3.175,-0.6985 1.008062,-2.70668 1.688041,-6.27327 0.0926,-9.33714 -3.39725,-6.5114 -15.562791,-7.79992 -21.870458,-2.8284 -3.96875,3.13796 -4.693708,8.0354 -5.659437,14.66586 -0.80698,5.53243 -1.5875,10.94581 1.28852,13.12068 3.439584,2.6035 10.067396,-0.98954 14.403917,-3.34433 2.092854,-1.143 4.22275,-2.29923 6.156854,-3.95288 z"
       id="path9201"
       style="stroke-width:0.264583" />
    <path
       class="cls-29"
       d="m 57.971451,302.88408 -9.789583,-2.80988 a 11.641667,11.641667 0 0 0 -0.346604,3.175 c 0.05027,1.71186 0.09525,3.3073 1.119188,4.1963 1.529291,1.32291 4.468812,0.40216 6.130395,-0.70909 a 7.6147082,7.6147082 0 0 0 2.886604,-3.85233 z"
       id="path9203"
       style="stroke-width:0.264583" />
    <path
       class="cls-61"
       d="m 87.199972,301.96068 c -0.224896,4.74398 -4.672542,7.77611 -4.971521,7.97454 -0.841375,0.55828 -4.016375,2.58234 -8.149166,1.71715 a 10.31875,10.31875 0 0 1 -5.310188,-2.97921 11.337396,11.337396 0 0 1 -1.931458,-2.64583 v 0 a 18.875375,18.875375 0 0 0 2.759604,-2.01083 7.9586666,7.9586666 0 0 0 3.899958,0.76729 c 1.867959,-0.0767 3.770313,-0.73554 4.863042,-2.21721 1.322916,-1.78858 1.468437,-4.79425 0,-6.17538 -0.79375,-0.74612 -1.952625,-0.91016 -3.175,-0.6985 -0.470958,0.0582 -2.910417,0.3228 -4.196292,-1.18797 -0.862541,-1.01071 -0.769937,-2.32569 -0.685271,-4.45823 a 15.795625,15.795625 0 0 1 0.685271,-4.03225 21.751396,21.751396 0 0 1 -4.460875,2.64583 22.963187,22.963187 0 0 1 -7.032625,1.80181 c -2.061104,0.21696 -6.537854,0.68792 -10.252604,-0.26458 -2.116666,-0.52917 -3.96875,-1.51871 -5.011208,-3.26231 -0.611187,-1.02923 -0.717021,-1.94998 -0.85725,-3.175 -0.415396,-3.60363 0.677333,-8.73125 3.857625,-10.80559 4.458229,-2.91041 8.977312,2.80194 14.750521,0.17198 3.95552,-1.80181 3.026833,-5.02708 7.672916,-7.88723 0.632354,-0.39158 7.604125,-4.53496 13.589,-1.03187 2.6035,1.52664 4.394729,4.13279 5.291667,6.85271 0.9525,2.85485 0.928687,5.83406 -0.15875,7.81314 -0.79375,1.44727 -2.079625,2.20134 -1.971146,3.77296 0.153458,2.27542 2.955396,2.44475 3.516312,4.71488 0.740834,3.01095 -3.722687,4.60639 -3.86027,9.26041 -0.04498,2.56646 1.277937,2.71198 1.137708,5.33929 z"
       id="path9205"
       style="stroke-width:0.264583" />
    <path
       class="cls-62"
       d="m 87.199972,301.96068 c -0.224896,4.74398 -4.672542,7.77611 -4.971521,7.97454 -0.841375,0.55828 -4.016375,2.58234 -8.149166,1.71715 a 10.31875,10.31875 0 0 1 -5.310188,-2.97921 11.337396,11.337396 0 0 1 -1.931458,-2.64583 v 0 a 18.875375,18.875375 0 0 0 2.759604,-2.01083 7.9586666,7.9586666 0 0 0 3.899958,0.76729 c 1.259417,0.74083 2.563813,1.16416 3.833813,0.6985 2.579687,-0.94986 3.521604,-5.02709 3.685645,-5.82084 0.58473,-2.83368 -0.597958,-3.47397 0,-6.35 0.64823,-3.10356 2.156355,-2.96597 2.910417,-6.00339 0.923396,-3.69094 -1.090083,-4.7625 0,-7.80256 1.010708,-2.83634 3.021542,-2.68023 4.114271,-5.49011 a 7.6543957,7.6543957 0 0 0 0.502708,-2.92364 c 0.9525,2.85485 0.928688,5.83406 -0.15875,7.81314 -0.79375,1.44727 -2.079625,2.20134 -1.971146,3.77296 0.153459,2.27542 2.955396,2.44475 3.516313,4.71488 0.740833,3.01095 -3.722688,4.60639 -3.860271,9.26041 -0.05292,2.53471 1.27,2.68023 1.129771,5.30754 z"
       id="path9207"
       style="stroke-width:0.264583" />
    <path
       class="cls-12"
       d="m 66.87468,324.43704 c -0.79375,0.30691 -1.436687,-1.32292 -3.373437,-2.52942 A 7.3183749,7.3183749 0 0 0 62.413806,321.352 c -3.833813,-1.5875 -7.286625,0.73818 -7.974542,-0.51594 -0.687917,-1.25413 1.322917,-2.4474 3.087687,-7.20196 0.227542,-0.6059 0.399521,-1.14035 0.529167,-1.61396 0.169333,-0.57944 0.28575,-1.07685 0.386292,-1.51606 0.894291,-0.39423 1.772708,-0.83079 2.614083,-1.26471 0,0 1.243542,-0.635 2.38125,-1.26735 a 72.188916,72.188916 0 0 0 6.175375,-3.96082 31.326666,31.326666 0 0 0 -2.301875,9.35567 c -0.513292,5.94519 0.867833,10.55688 -0.436563,11.07017 z"
       id="path9209"
       style="stroke-width:0.264583" />
    <path
       class="cls-13"
       d="m 66.87468,324.43704 c -0.79375,0.30691 -1.436687,-1.32292 -3.373437,-2.52942 0.03704,-2.56381 1.058333,-5.89756 1.230312,-6.47435 1.058334,-3.43959 2.328334,-4.98211 1.629834,-5.74411 -0.923396,-1.01335 -4.439708,0.2884 -6.193896,1.16152 -0.963083,0.4789 -1.537229,0.89694 -2.100792,1.16946 0.169334,-0.57944 0.28575,-1.07685 0.386292,-1.51606 0.894292,-0.39423 1.772708,-0.83079 2.614083,-1.26471 0,0 1.243542,-0.635 2.38125,-1.26735 a 72.188916,72.188916 0 0 0 6.164792,-3.96082 31.326666,31.326666 0 0 0 -2.301875,9.35567 c -0.513292,5.94519 0.867833,10.55688 -0.436563,11.07017 z"
       id="path9211"
       style="stroke-width:0.264583" />
    <path
       class="cls-15"
       d="m 62.159806,363.79381 c -0.58473,0.30162 -1.280584,0.67733 -2.055813,1.13241 -4.325937,2.54265 -11.125729,7.56973 -14.861646,16.10784 -2.587625,5.90814 -2.936875,11.75014 -3.087687,14.66585 a 49.056395,49.056395 0 0 0 0.928687,12.34811 l -2.344208,0.26458 -4.736041,0.54769 c -3.466042,-4.34182 -8.792105,-12.45659 -9.480021,-23.58761 a 39.650458,39.650458 0 0 1 0,-4.63285 c 0.288396,-4.78367 1.838854,-15.34583 11.967104,-27.40025 l 15.84325,7.06173 5.79702,2.58498 z"
       id="path9213"
       style="stroke-width:0.264583" />
    <path
       class="cls-13"
       d="m 60.103993,364.91829 c -4.325937,2.54264 -11.125729,7.56973 -14.861646,16.10783 -2.587625,5.90815 -2.936875,11.75015 -3.087687,14.66585 a 49.056395,49.056395 0 0 0 0.928687,12.34811 l -2.344208,0.26458 c -0.407458,-1.0451 -0.846667,-2.28335 -1.322917,-5.26785 -0.428625,-2.71463 -0.902229,-5.75469 -0.679979,-9.66788 0.264584,-4.49791 1.322917,-7.76023 2.31775,-10.80558 1.251479,-3.79148 3.521604,-7.747 8.067146,-15.66069 1.291167,-2.24896 2.823104,-4.84187 5.204354,-6.61458 a 10.3505,10.3505 0 0 1 2.550583,-1.39965 c 1.140355,-0.42862 1.553105,-0.35454 1.799167,-0.26458 0.963083,0.37306 1.394354,1.8124 1.447271,4.23333 0.02381,0.64823 0.01323,1.32821 -0.01852,2.06111 z"
       id="path9215"
       style="stroke-width:0.264583" />
    <path
       class="cls-15"
       d="m 73.737972,362.76458 q -3.944937,18.76689 -7.720542,37.57083 -0.772583,3.85498 -1.545166,7.7179 l -1.516063,0.16404 -5.042958,0.55033 a 57.287583,57.287583 0 0 1 -4.736042,-52.45893 l 18.311813,5.75468 z"
       id="path9217"
       style="stroke-width:0.264583" />
    <path
       class="cls-61"
       d="m 51.126681,412.85285 c 0,0 0,0 0,0 a 7.2019582,7.2019582 0 0 1 1.251479,-1.7145 c 1.616604,-1.64042 3.627437,-2.02936 6.614583,-2.5744 a 31.75,31.75 0 0 1 5.487458,-0.51329 15.875,15.875 0 0 1 0.772584,4.45823 c 0,0.11642 0,0.23019 0,0.34396 v 0.0185 c 0,0.50271 -0.01852,0.97631 -0.05556,1.42081 L 50.922954,413.89"
       id="path9219"
       style="stroke-width:0.264583" />
    <path
       class="cls-63"
       d="M 65.194576,414.28954 H 50.827701 c 0.09525,-0.4789 0.193146,-0.96044 0.288396,-1.43934 h 14.123458 z"
       id="path9221"
       style="stroke-width:0.264583" />
    <path
       class="cls-61"
       d="m 29.737764,412.85285 c 0,0 0,0 0,0 a 7.2019582,7.2019582 0 0 1 1.251479,-1.7145 c 1.616605,-1.64042 3.627438,-2.02936 6.614584,-2.5744 a 31.75,31.75 0 0 1 5.487458,-0.51329 15.875,15.875 0 0 1 0.772583,4.45823 c 0,0.11642 0,0.23019 0,0.34396 v 0.0185 q 0,0.75406 -0.05556,1.42081 L 29.534037,413.89"
       id="path9223"
       style="stroke-width:0.264583" />
    <path
       class="cls-63"
       d="M 43.80566,414.28954 H 29.449368 c 0.09525,-0.4789 0.193146,-0.96044 0.288396,-1.43934 h 14.123458 z"
       id="path9225"
       style="stroke-width:0.264583" />
    <path
       class="cls-13"
       d="m 73.737972,362.76458 q -3.944937,18.76689 -7.720542,37.57083 -0.772583,3.85498 -1.545166,7.7179 l -1.516063,0.16404 c 0,-0.0767 0,-0.11906 0,-0.11906 0.09525,-0.84667 1.058334,-9.58321 2.098146,-16.65023 1.037167,-7.02204 2.418292,-14.15257 3.540125,-19.52361 1.121833,-5.37104 1.984375,-8.99583 1.984375,-8.99583 0,0 0.333375,-0.34925 0.899583,-0.86783 z"
       id="path9227"
       style="stroke-width:0.264583" />
    <path
       class="cls-12"
       d="m 98.114034,291.49906 c -1.756833,1.65364 -2.457979,4.69106 -1.479021,7.20196 0.113771,0.29633 1.129771,2.82575 2.645834,2.83104 0.854603,0 1.444623,-0.80963 2.508253,-2.31511 4.07987,-5.78379 4.17512,-6.04837 5.02708,-7.14375 2.19869,-2.85485 3.8391,-4.03754 3.47398,-4.6302 -0.40481,-0.65617 -2.79136,0.1561 -2.89454,0.19314 -4.25979,1.47902 -6.28121,5.77321 -6.94796,5.40279 -0.43656,-0.24341 0.42333,-2.11666 -0.19315,-2.50825 -0.478892,-0.30427 -1.537226,0.39159 -2.140476,0.96838 z"
       id="path9229"
       style="stroke-width:0.264583" />
    <path
       class="cls-12"
       d="m 27.29566,278.95516 c -0.777875,0.58738 -1.640417,1.69863 -0.886354,12.99369 0.05556,0.84138 0.15875,2.09021 1.0795,2.8284 1.008062,0.79375 2.717271,0.79375 3.667125,0 0.846667,-0.70115 0.79375,-1.76477 0.986896,-3.10886 0.687916,-4.7625 3.720041,-7.54062 3.063875,-8.08302 -0.468313,-0.38894 -1.735667,1.30175 -2.870729,0.87048 -1.740959,-0.66146 -0.687917,-5.37898 -2.542646,-6.17802 -1.016,-0.43656 -2.328334,0.55033 -2.497667,0.67733 z"
       id="path9231"
       style="stroke-width:0.264583" />
    <path
       class="cls-5"
       d="m 101.78116,299.21431 v 0 a 53.165374,53.165374 0 0 1 -6.17273,13.37204 c -7.395104,11.47498 -17.4625,17.23496 -22.785916,19.7776 0.60325,19.93636 0.918104,30.39269 0.918104,30.39269 -1.037167,0.0714 -2.087563,0.12171 -3.148542,0.1614 a 87.079666,87.079666 0 0 1 -20.28825,-1.60867 80.205791,80.205791 0 0 1 -11.641666,-3.27025 c -1.023938,-0.37042 -2.024062,-0.762 -3.005667,-1.16417 0,0 0.169334,-0.52916 0.452438,-1.43404 0.838729,-2.67229 2.680229,-8.68627 4.183062,-14.63939 0.590021,-2.33098 1.352021,-5.55625 2.116667,-9.43505 a 45.320479,45.320479 0 0 1 -16.002,-39.42291 l 5.733521,-0.28046 a 61.190187,61.190187 0 0 0 3.944937,13.98058 c 2.38125,5.74675 3.704167,8.92175 7.032625,11.32152 4.071938,2.93688 8.593667,2.85486 14.933083,2.74373 a 47.979541,47.979541 0 0 0 15.168563,-2.74373 47.320729,47.320729 0 0 0 15.695083,-9.26041 46.003104,46.003104 0 0 0 7.717896,-8.99584 z"
       id="path9233"
       style="stroke-width:0.264583" />
    <path
       class="cls-13"
       d="m 101.77851,299.22225 a 53.165374,53.165374 0 0 1 -6.172726,13.37204 c -7.395104,11.47498 -17.4625,17.23496 -22.785916,19.7776 0.60325,19.93636 0.918104,30.39269 0.918104,30.39269 -1.037167,0.0714 -2.087562,0.12171 -3.148542,0.16139 a 87.079666,87.079666 0 0 1 -20.288249,-1.60866 80.205791,80.205791 0 0 1 -11.641667,-3.27025 c -1.023937,-0.37042 -2.024062,-0.762 -3.005666,-1.16417 0,0 0.169333,-0.52917 0.452437,-1.43404 9.435042,2.39448 24.989896,6.80773 30.083125,0.65881 1.322916,-1.5875 1.632479,-4.40531 2.25425,-10.03829 a 62.314666,62.314666 0 0 0 -0.193146,-15.18973 43.449874,43.449874 0 0 0 10.374312,-4.38944 c 6.291792,-3.70416 9.972146,-8.08831 13.377333,-12.0941 a 68.617041,68.617041 0 0 0 9.776351,-15.17385 z"
       id="path9235"
       style="stroke-width:0.264583" />
    <path
       class="cls-4"
       d="m -164.7548,332.93545 c 1.12184,-1.11389 3.45282,-0.46302 4.23334,-0.24341 a 11.001375,11.001375 0 0 1 3.89466,2.01348 c 1.75948,1.37583 3.06388,3.1115 4.10898,4.52437 1.34673,1.81769 4.74663,6.858 4.82336,13.34558 0.037,3.14325 -0.74084,3.63538 -0.96044,3.7518 -1.94204,1.02658 -6.17538,-3.01361 -8.0301,-4.78632 0,0 -5.29167,-5.04825 -7.67292,-11.86391 a 20.695708,20.695708 0 0 1 -0.9525,-3.87615 c -0.12435,-0.92604 -0.19844,-2.11931 0.55562,-2.86544 z"
       id="path9059"
       style="stroke-width:0.264583" />
    <path
       class="cls-5"
       d="m -156.70617,356.04416 c -1.83092,2.19869 -5.47158,2.15636 -7.84754,1.28588 -4.28361,-1.57163 -3.47927,-5.47688 -7.98777,-7.56179 0,0 -3.89202,-1.79917 -9.5594,-1.143 v 0 c 0,0 5.9399,-3.18823 11.557,-3.99257 1.46579,-0.21166 10.18381,-1.46314 13.55196,3.42371 1.49489,2.16958 2.10608,5.80231 0.28575,7.98777 z"
       id="path9063"
       style="stroke-width:0.264583" />
    <g
       id="g3657"
       transform="translate(1.0255293,-3.7210199)">
      <path
         class="cls-4"
         d="m -145.90323,317.5711 c -0.0291,0.2196 -0.0661,0.44185 -0.10319,0.66675 -0.87842,5.07735 -2.58763,6.32883 -3.42371,6.85006 -5.04296,3.12738 -13.49375,-3.32316 -13.98323,-3.70416 a 21.132271,21.132271 0 0 1 -3.87085,-3.937 c -3.99521,-5.26257 -4.83923,-11.22627 -5.1144,-13.03602 -0.55562,-3.67771 0.15346,-7.44538 1.56634,-14.98336 1.54781,-8.2206 3.02154,-10.14148 4.70958,-10.69975 1.41287,-0.46831 2.84956,0.0635 4.13544,0.71438 6.94795,3.51102 10.97756,11.22627 12.84287,15.5522 0.59267,1.3679 4.89215,11.65755 3.24115,22.5769 z"
         id="path9031"
         style="stroke-width:0.264583" />
      <path
         class="cls-7"
         d="m -163.41071,287.2816 c 1.26471,-0.18521 1.70656,8.46667 7.27339,20.828 3.57452,7.9375 7.17021,12.77408 5.42132,14.69496 -1.42082,1.56104 -5.4954,0.21431 -5.70442,0.14287 -2.26748,-0.77258 -4.26508,-2.52677 -3.99521,-3.1406 0.33867,-0.77523 4.2545,0.39952 4.42119,-0.14023 0.15346,-0.50006 -3.11415,-1.651 -5.70442,-4.85246 -0.55827,-0.68527 -0.89958,-1.24089 -0.71437,-1.56898 0.52916,-0.92604 4.68048,0.97631 5.27843,0 0.36248,-0.59266 -0.79375,-1.91558 -0.99748,-2.14048 -2.80193,-3.11943 -6.87916,-2.0955 -7.70466,-4.27831 -0.32015,-0.85725 -0.0661,-2.01877 0.5715,-2.42623 1.74096,-1.11654 6.10658,3.556 6.70454,2.99508 0.59796,-0.56091 -3.70417,-4.40002 -5.29167,-10.41399 -1.2012,-4.66725 -0.49741,-9.56469 0.44186,-9.69963 z"
         id="path9033"
         style="stroke-width:0.264583" />
      <g
         class="cls-58"
         id="g9037"
         transform="matrix(0.26458333,0,0,0.26458333,-968.3446,-572.51897)">
        <path
           class="cls-47"
           d="m 3809.45,3790.05 c -2.58,4.8 -5.24,8.31 -7.4,7.91 -1.62,-0.29 -2.42,-2.76 -3.24,-5.39 -4.32,-13.91 2.35,-27 0.34,-28 -1.6,-0.73 -5.66,7.69 -8.42,6.92 -2.6,-0.7 -2.89,-9.15 -2.16,-16.17 2.09,-20.2 12.91,-29.86 8.09,-37.74 -1.82,-3 -5.45,-5 -6.48,-4.33 -1.03,0.67 0.93,3.47 0.59,8.14 a 14.52,14.52 0 0 1 -3.82,9.12 c -0.91,0.94 -3.74,3.86 -5.94,3.24 -3.4,-1 -3.25,-9.86 -3.76,-17.8 -1.53,-23.59 -9.13,-42.24 -10.24,-42.05 -0.42,0.07 0.11,2.55 -0.62,7 -0.45,2.71 -1.7,10.2 -4.25,10.82 -4.8,1.18 -8,-33.52 -23.18,-37.74 -0.87,-0.24 -4.57,-1.28 -7.09,0.6 -3.11,2.32 -2.67,7.72 -2.08,13.42 2.24,21.68 4.66,30.31 1.63,31.8 -3.4,1.7 -8.57,-5.07 -11.33,-3.22 -3,2 -0.08,12.24 2.7,18.87 5.17,12.33 12.39,18.41 10.78,20.48 -1.91,2.48 -12.79,-5.18 -15.63,-2.15 -2.31,2.46 1.71,10.78 6.46,16.72 9,11.24 21.18,14.51 20.5,16.72 -0.68,2.21 -14.36,-0.8 -15.11,1.61 -0.75,2.41 12.84,6.14 18.33,18.32 1,2.11 2.41,5.35 1.09,7 -2.51,3.16 -13.39,-1.26 -20.57,-4.64 -15.1,-19.89 -18.29,-42.43 -19.33,-49.27 -2.1,-13.9 0.58,-28.14 5.92,-56.63 5.85,-31.07 11.42,-38.33 17.8,-40.44 5.34,-1.77 10.77,0.24 15.63,2.7 26.26,13.27 41.49,42.43 48.54,58.78 2.24,5.24 18.49,44.13 12.25,85.4 z"
           transform="translate(-701.01,-425.93)"
           id="path9035" />
      </g>
    </g>
    <path
       class="cls-4"
       d="m -149.71059,376.38533 -1.37848,-1.09538 c -1.0795,-0.85989 -10.53306,-8.73125 -9.73666,-20.72745 0.38364,-5.75469 2.92629,-10.11767 4.99268,-12.7635 l 1.01336,-1.29911 z m -6.01927,-32.34002 a 21.62175,21.62175 0 0 0 -3.70417,10.60979 c -0.60325,9.0461 5.02709,15.63158 7.81315,18.29858 z"
       id="path9067"
       style="stroke-width:0.264583" />
    <path
       class="cls-7"
       d="m -154.70857,358.47039 c -2.97127,-1.19062 -5.91873,0.26458 -7.70466,1.14036 -1.45257,0.71702 -3.24115,1.5875 -4.56407,3.56658 -2.22779,3.31523 -2.21985,8.33967 -0.28575,9.41652 0.77788,0.43392 1.68805,0.12965 3.28084,-0.42863 2.64583,-0.92868 4.43177,-2.29658 5.99016,-3.56658 4.5138,-3.66977 6.76805,-5.53508 6.56432,-6.99029 -0.26988,-1.92881 -2.86544,-2.97127 -3.28084,-3.13796 z"
       id="path9083"
       style="stroke-width:0.264583" />
    <g
       id="g3609">
      <path
         class="cls-39"
         d="m -107.97786,388.43445 a 30.882166,30.882166 0 0 1 -14.58912,26.25196 h -32.62842 a 30.882166,30.882166 0 0 1 -14.58912,-26.25196 c 0,-0.71966 0.0212,-1.42875 0.0714,-2.13783 a 31.170562,31.170562 0 0 1 1.23561,-6.79979 30.76575,30.76575 0 0 1 4.51379,-9.12019 h 50.16764 a 30.82925,30.82925 0 0 1 4.5138,9.12019 31.167916,31.167916 0 0 1 1.23295,6.79979 c 0.0503,0.70908 0.0714,1.41817 0.0714,2.13783 z"
         id="path9075"
         style="stroke-width:0.264583" />
      <path
         class="cls-19"
         d="m -108.0493,386.29662 h -61.66379 a 31.170562,31.170562 0 0 1 1.23561,-6.79979 h 59.19523 a 31.167916,31.167916 0 0 1 1.23295,6.79979 z"
         id="path9077"
         style="stroke-width:0.264583" />
      <g
         class="cls-48"
         id="g9081"
         transform="matrix(0.26458333,0,0,0.26458333,-968.3446,-572.51897)">
        <path
           class="cls-47"
           d="m 3952.79,4057.89 a 116.69,116.69 0 0 1 -55.13,99.2 h -123.33 a 117.08,117.08 0 0 1 -43.11,-47.56 c 34.48,3.65 91.31,20.55 138.5,-11.6 42.4,-28.9 50.61,-79.37 60.88,-108.29 h 0.21 a 116.41,116.41 0 0 1 17.06,34.45 117.92,117.92 0 0 1 4.66,25.69 c 0.19,2.7 0.26,5.38 0.26,8.11 z"
           transform="translate(-701.01,-425.93)"
           id="path9079" />
      </g>
    </g>
    <path
       class="cls-5"
       d="m -157.52109,345.37616 c -1.41816,-1.15623 -0.96837,-3.79412 -0.82021,-4.68577 a 11.498792,11.498792 0 0 1 1.80446,-4.48204 c 1.35202,-2.05846 3.175,-3.64067 4.65402,-4.91331 1.905,-1.63513 7.23636,-5.80496 14.64734,-6.39763 3.59039,-0.28839 4.25185,0.52917 4.41325,0.76994 1.42081,2.07433 -2.64584,7.08819 -4.4503,9.28687 0,0 -5.09587,6.27063 -12.59152,9.44298 a 23.513521,23.513521 0 0 1 -4.31006,1.36261 c -1.04246,0.21696 -2.39977,0.39423 -3.34698,-0.38365 z"
       id="path9069"
       style="stroke-width:0.264583" />
    <g
       class="cls-58"
       id="g9073"
       transform="matrix(0.26458333,0,0,0.26458333,-968.3446,-572.51897)">
      <path
         class="cls-47"
         d="m 3794.48,3891.44 c -5.75,-3 -9.06,-5.88 -8.82,-6.67 0.5,-1.67 18.3,1.9 18.65,0.21 0.17,-0.83 -4.18,-1.68 -4.33,-3.42 -0.19,-2 5.55,-5 22.57,-9.15 6.26,-3.65 11.55,-7.26 10.94,-8.8 -0.84,-2.16 -12.55,0.93 -13,-0.64 -0.65,-2.13 20.3,-9.41 19.44,-13.16 -0.48,-2.12 -7.19,-1.41 -8.11,-3.77 -0.92,-2.36 6.25,-5.09 12.81,-13.78 2.38,-3.12 2.67,-4.35 2.27,-4.87 -0.7,-0.89 -3.58,0.26 -4.78,0.74 -10,4 -16.28,13 -17.06,12.3 -1,-0.91 4.61,-7.62 2.92,-9.49 -1.2,-1.34 -5.77,0.27 -9.13,2.66 -7.4,5.28 -8.91,14.39 -10,14.09 -1.09,-0.3 1,-10.07 -0.1,-10.41 -0.73,-0.21 -2.25,3.51 -5.34,9.37 -4.28,8.12 -6.68,12.58 -8.66,12.24 -2.63,-0.44 -4.06,-9.28 -4.06,-9.28 -3.52,8.62 -5.06,11.95 -5.06,11.95 -2.85,6.1 -4.28,9.14 -5.35,9.36 -2.45,0.5 -7.06,-3.74 -11,-10.43 5.11,-7.78 12,-13.76 17.59,-18.57 7.2,-6.18 27.35,-21.94 55.36,-24.18 13.57,-1.09 16.07,2 16.68,2.91 5.37,7.84 -10,26.79 -16.82,35.1 -0.02,0 -19.28,23.7 -47.61,35.69 z"
         transform="translate(-701.01,-425.93)"
         id="path9071" />
    </g>
  </g>
</svg>
