<?xml version="1.0" encoding="UTF-8" standalone="no"?>
<svg
   xmlns:dc="http://purl.org/dc/elements/1.1/"
   xmlns:cc="http://creativecommons.org/ns#"
   xmlns:rdf="http://www.w3.org/1999/02/22-rdf-syntax-ns#"
   xmlns:svg="http://www.w3.org/2000/svg"
   xmlns="http://www.w3.org/2000/svg"
   xmlns:sodipodi="http://sodipodi.sourceforge.net/DTD/sodipodi-0.dtd"
   xmlns:inkscape="http://www.inkscape.org/namespaces/inkscape"
   width="7.9163103mm"
   height="9.0276499mm"
   version="1.1"
   viewBox="0 0 7.9163106 9.0276495"
   id="svg18"
   sodipodi:docname="favicon.svg"
   inkscape:version="1.0.2-2 (e86c870879, 2021-01-15)"
   inkscape:export-filename="D:\Projects\comuki\home\pensarfeo.github.io\Home_files\images\favbase.png"
   inkscape:export-xdpi="96"
   inkscape:export-ydpi="96">
  <metadata
     id="metadata24">
    <rdf:RDF>
      <cc:Work
         rdf:about="">
        <dc:format>image/svg+xml</dc:format>
        <dc:type
           rdf:resource="http://purl.org/dc/dcmitype/StillImage" />
        <dc:title></dc:title>
        <dc:title></dc:title>
      </cc:Work>
    </rdf:RDF>
  </metadata>
  <defs
     id="defs22" />
  <sodipodi:namedview
     pagecolor="#ffffff"
     bordercolor="#666666"
     borderopacity="1"
     objecttolerance="10"
     gridtolerance="10"
     guidetolerance="10"
     inkscape:pageopacity="0"
     inkscape:pageshadow="2"
     inkscape:window-width="3440"
     inkscape:window-height="1377"
     id="namedview20"
     showgrid="false"
     inkscape:zoom="5.1806585"
     inkscape:cx="48.136122"
     inkscape:cy="-6.6953827"
     inkscape:window-x="-8"
     inkscape:window-y="-8"
     inkscape:window-maximized="1"
     inkscape:current-layer="g14"
     inkscape:document-rotation="0"
     fit-margin-top="0"
     fit-margin-left="0"
     fit-margin-right="0"
     fit-margin-bottom="0" />
  <g
     transform="translate(-90.06718,-140.83248)"
     id="g16"
     style="fill:#1cc0bb;fill-opacity:1">
    <g
       fill="#ffac00"
       stroke-width="0.26458"
       aria-label="Comuki"
       id="g14"
       style="fill:#1cc0bb;fill-opacity:1">
      <path
         d="m 94.184,149.86 q -1.2594,0 -2.1907,-0.45508 -0.93133,-0.46567 -1.4287,-1.3123 -0.49737,-0.84663 -0.49742,-1.9685 0,-1.5558 0.58208,-2.7622 0.59266,-1.2065 1.5981,-1.8627 1.0054,-0.66674 2.2331,-0.66674 1.143,0 1.7357,0.59266 0.59266,0.58208 0.59266,1.5452 0,0.64558 -0.23283,1.0372 -0.22225,0.39158 -0.64558,0.39158 -0.29633,0 -0.46567,-0.13758 -0.16933,-0.13759 -0.16933,-0.40217 0,-0.0952 0.04233,-0.34925 0.0635,-0.3175 0.0635,-0.508 0,-0.96308 -1.0266,-0.96308 -0.6985,0 -1.3335,0.45508 -0.635,0.45509 -1.0266,1.3441 -0.39158,0.87842 -0.39158,2.0955 0,1.27 0.70908,1.9685 0.70908,0.68791 2.0955,0.68791 0.68792,0 1.3864,-0.16933 0.70908,-0.17991 1.5663,-0.53975 0.15875,-0.0635 0.26458,-0.0635 0.16933,0 0.254,0.127 0.08467,0.127 0.08467,0.32809 0,0.64558 -0.6985,0.95249 -0.75141,0.32809 -1.5663,0.48683 -0.80433,0.14817 -1.5346,0.14817 z"
         id="path2"
         style="fill:#1cc0bb;fill-opacity:1" />
      <text
         xml:space="preserve"
         style="font-style:normal;font-weight:normal;font-size:10.5833px;line-height:1.25;font-family:sans-serif;fill:#000000;fill-opacity:1;stroke:none;stroke-width:0.0700035"
         x="92.263069"
         y="156.10069"
         id="text16"><tspan
           sodipodi:role="line"
           id="tspan14"
           x="92.263069"
           y="156.10069"
           style="stroke-width:0.0700035" /></text>
    </g>
  </g>
</svg>
