<?xml version="1.0" standalone="no"?>
<!DOCTYPE svg PUBLIC "-//W3C//DTD SVG 20010904//EN"
 "http://www.w3.org/TR/2001/REC-SVG-20010904/DTD/svg10.dtd">
<svg version="1.0" xmlns="http://www.w3.org/2000/svg"
 width="1088.000000pt" height="1088.000000pt" viewBox="0 0 1088.000000 1088.000000"
 preserveAspectRatio="xMidYMid meet">
<metadata>
Created by potrace 1.11, written by Peter Selinger 2001-2013
</metadata>
<g transform="translate(0.000000,1088.000000) scale(0.100000,-0.100000)"
fill="#000000" stroke="none">
<path d="M5718 10875 c-1 -1 -46 -6 -98 -9 -138 -10 -182 -14 -330 -32 -25 -3
-52 -7 -60 -9 -8 -2 -37 -7 -65 -11 -27 -3 -58 -8 -67 -10 -52 -11 -65 -14
-98 -19 -81 -12 -413 -99 -500 -130 -25 -9 -56 -19 -70 -21 -13 -3 -38 -11
-55 -18 -16 -8 -59 -24 -95 -36 -36 -13 -71 -28 -77 -33 -7 -5 -13 -6 -13 -2
0 4 -11 0 -25 -9 -14 -9 -25 -14 -25 -11 0 3 -15 -2 -32 -12 -18 -9 -35 -18
-38 -18 -3 -1 -21 -8 -40 -17 -128 -58 -150 -68 -153 -65 -1 1 -17 -8 -34 -21
-18 -13 -33 -20 -33 -15 0 4 -4 3 -8 -2 -4 -6 -35 -24 -69 -40 -35 -16 -63
-32 -63 -36 0 -4 -13 -10 -30 -14 -16 -4 -30 -11 -30 -16 0 -5 -5 -9 -11 -9
-6 0 -30 -13 -54 -30 -24 -16 -50 -30 -58 -30 -9 0 -17 -4 -19 -8 -1 -5 -34
-29 -73 -53 -38 -23 -73 -48 -77 -54 -5 -6 -8 -6 -8 0 0 6 -7 1 -15 -9 -8 -11
-15 -16 -15 -10 0 5 -4 4 -8 -2 -4 -6 -34 -28 -67 -49 -61 -40 -123 -86 -159
-117 -11 -10 -23 -18 -27 -18 -5 0 -21 -11 -36 -25 -44 -39 -52 -45 -58 -45
-5 0 -49 -37 -84 -70 -9 -8 -28 -25 -43 -36 -134 -105 -439 -408 -583 -579
-22 -27 -45 -53 -51 -59 -5 -6 -39 -47 -73 -91 -35 -44 -67 -81 -72 -83 -5 -2
-9 -8 -9 -13 0 -11 -69 -103 -81 -107 -5 -2 -9 -8 -9 -14 0 -6 -13 -27 -30
-48 -16 -21 -30 -41 -30 -44 0 -4 -8 -16 -18 -27 -11 -10 -25 -32 -33 -47 -8
-15 -21 -32 -29 -39 -8 -7 -10 -13 -5 -13 6 0 6 -3 0 -8 -6 -4 -26 -32 -45
-62 -19 -30 -38 -56 -42 -58 -5 -2 -8 -8 -8 -13 0 -5 -19 -39 -42 -76 -49 -81
-66 -110 -126 -223 -25 -47 -50 -86 -54 -88 -4 -2 -8 -9 -8 -15 0 -16 -73
-161 -82 -165 -5 -2 -8 -8 -8 -13 0 -6 -11 -35 -25 -65 -32 -69 -74 -163 -84
-189 -5 -11 -17 -40 -28 -65 -12 -25 -29 -67 -38 -95 -10 -27 -22 -54 -27 -59
-4 -6 -8 -16 -8 -22 0 -7 -5 -25 -12 -41 -6 -15 -12 -32 -14 -38 -2 -5 -26
-74 -53 -152 -28 -79 -48 -143 -45 -143 4 0 2 -6 -3 -12 -6 -7 -16 -35 -23
-63 -7 -27 -16 -54 -19 -60 -3 -5 -6 -14 -7 -20 -2 -5 -24 -91 -49 -190 -26
-99 -49 -191 -52 -205 -9 -43 -11 -55 -13 -55 -1 0 -3 -13 -5 -30 -2 -16 -7
-41 -11 -55 -4 -14 -8 -32 -10 -40 -11 -58 -17 -88 -20 -110 -2 -14 -9 -45
-14 -70 -5 -25 -12 -61 -15 -80 -2 -19 -7 -46 -9 -60 -5 -29 -16 -103 -21
-140 -1 -14 -5 -43 -9 -65 -3 -22 -8 -65 -12 -95 -3 -30 -7 -66 -9 -80 -12
-104 -21 -201 -30 -330 -3 -47 -8 -119 -11 -160 -9 -112 -9 -843 -1 -935 10
-113 16 -175 22 -215 12 -99 17 -138 20 -170 2 -19 6 -48 10 -65 3 -16 8 -43
10 -60 2 -16 18 -95 36 -175 17 -80 32 -152 33 -160 1 -9 5 -20 8 -26 4 -6 9
-21 12 -35 3 -13 10 -42 16 -64 6 -22 13 -50 15 -62 2 -12 7 -28 11 -35 5 -7
9 -18 10 -25 3 -18 24 -85 34 -108 5 -11 16 -40 24 -65 8 -25 20 -58 26 -75
23 -55 37 -90 50 -125 7 -19 17 -39 22 -44 4 -6 8 -18 8 -28 0 -10 5 -18 10
-18 6 0 9 -3 8 -7 -1 -5 12 -38 30 -76 17 -37 32 -70 33 -75 1 -4 10 -19 21
-34 11 -16 16 -28 12 -28 -4 0 0 -8 8 -18 8 -9 20 -32 28 -49 7 -18 16 -33 20
-33 4 0 10 -8 13 -17 15 -47 210 -354 228 -361 5 -2 9 -10 9 -18 0 -8 5 -14
11 -14 5 0 7 -5 4 -10 -3 -6 -2 -10 4 -10 5 0 19 -16 31 -35 12 -20 29 -43 38
-51 8 -9 34 -40 56 -68 96 -124 327 -365 431 -452 27 -21 55 -46 64 -54 39
-38 217 -176 296 -230 28 -19 55 -38 60 -43 24 -20 112 -77 135 -87 13 -6 27
-14 30 -18 3 -4 21 -16 40 -26 19 -11 37 -22 40 -25 3 -3 25 -17 50 -30 25
-13 68 -35 95 -50 28 -14 52 -29 53 -33 2 -5 12 -8 22 -8 9 0 23 -7 30 -15 7
-8 16 -15 21 -15 5 0 44 -17 86 -37 43 -20 80 -38 83 -38 3 -1 16 -7 30 -13
79 -34 227 -94 237 -96 7 -1 16 -5 19 -9 4 -4 18 -7 30 -7 13 0 25 -4 28 -9 4
-7 85 -34 106 -36 3 0 10 -3 15 -7 9 -5 90 -31 240 -74 59 -17 79 -22 123 -30
18 -3 35 -10 38 -15 3 -5 9 -7 13 -4 5 2 33 -2 62 -9 106 -28 260 -56 270 -51
5 4 9 2 9 -3 0 -5 6 -9 13 -9 21 -1 101 -13 127 -19 37 -8 80 -14 130 -19 25
-3 63 -7 85 -10 22 -3 60 -7 85 -10 25 -2 45 -5 45 -6 0 -1 59 -7 145 -13 30
-2 55 -4 55 -5 0 -15 804 -20 1055 -7 215 11 232 12 315 21 39 4 90 8 115 10
25 3 59 6 77 9 31 5 137 16 203 22 19 1 35 3 35 4 0 2 8 3 99 14 56 6 112 14
146 21 13 3 42 7 65 10 35 5 104 17 170 29 24 4 78 13 120 20 17 3 75 15 130
26 55 12 111 23 125 26 14 3 32 7 40 10 8 3 26 7 40 10 40 6 69 12 78 18 5 3
19 7 33 10 54 11 89 19 142 32 4 1 8 2 10 4 1 1 9 3 17 5 8 1 35 8 60 15 25 7
50 13 55 14 13 3 135 39 260 79 55 17 105 32 110 33 21 5 275 95 365 129 52
20 100 38 105 39 14 4 66 25 90 36 11 5 43 18 71 29 28 11 71 28 95 39 24 11
58 25 74 32 17 8 32 14 35 15 25 6 266 139 280 154 3 3 28 22 55 41 71 49 158
129 231 211 70 80 158 238 192 345 46 144 59 231 57 384 -1 80 -5 156 -8 170
-4 14 -12 48 -19 75 -6 28 -17 57 -22 65 -6 8 -22 37 -35 63 -45 89 -153 163
-254 173 -29 3 -54 6 -57 7 -13 3 -145 -18 -175 -27 -5 -1 -23 -6 -40 -11 -27
-7 -305 -117 -380 -150 -44 -19 -118 -46 -130 -46 -5 0 -17 -7 -25 -14 -8 -7
-19 -14 -23 -14 -4 1 -38 -11 -75 -25 -99 -37 -116 -43 -125 -45 -4 0 -24 -8
-45 -17 -20 -9 -73 -28 -117 -44 -44 -15 -127 -44 -185 -65 -58 -20 -112 -39
-120 -40 -8 -2 -16 -4 -17 -5 -2 -2 -7 -4 -13 -5 -5 -1 -12 -4 -15 -5 -3 -1
-8 -3 -12 -4 -5 -1 -53 -16 -108 -34 -178 -58 -230 -74 -250 -78 -41 -10 -50
-13 -50 -14 0 -1 -8 -3 -17 -6 -27 -6 -42 -10 -58 -17 -13 -4 -40 -12 -85 -23
-5 -1 -48 -12 -95 -24 -47 -12 -94 -24 -105 -25 -11 -2 -32 -8 -46 -13 -15 -6
-30 -8 -33 -5 -3 3 -12 1 -19 -5 -8 -7 -16 -9 -19 -7 -3 3 -16 1 -30 -4 -14
-5 -42 -12 -64 -15 -45 -8 -79 -14 -114 -21 -14 -3 -36 -7 -50 -10 -14 -3 -34
-7 -45 -9 -11 -2 -56 -9 -100 -16 -44 -6 -91 -13 -105 -16 -14 -2 -43 -6 -65
-9 -22 -3 -49 -7 -60 -9 -33 -6 -178 -20 -207 -20 -16 0 -28 -2 -28 -5 0 -3
-24 -7 -53 -7 -28 -1 -83 -5 -122 -8 -103 -10 -746 -15 -770 -6 -11 4 -30 4
-42 -1 -13 -5 -23 -5 -23 -1 0 4 -21 8 -48 9 -49 1 -165 11 -217 18 -62 8
-121 15 -170 20 -27 3 -58 8 -67 11 -10 3 -28 7 -40 9 -135 24 -215 41 -338
71 -14 3 -33 7 -42 7 -10 1 -18 5 -18 9 0 4 -3 7 -7 7 -5 -1 -10 0 -13 1 -3 1
-13 3 -24 5 -59 11 -452 158 -466 174 -3 4 -30 17 -60 31 -30 14 -57 27 -60
30 -3 3 -18 12 -35 20 -50 25 -130 74 -133 82 -2 4 -8 8 -14 8 -5 0 -37 19
-71 42 -58 41 -73 52 -117 88 -10 8 -28 22 -41 30 -12 8 -38 30 -56 48 -19 17
-37 32 -39 32 -6 0 -186 185 -224 230 -19 23 -39 47 -45 54 -64 72 -251 354
-255 384 -1 4 -9 15 -17 25 -9 9 -12 17 -7 17 5 0 4 4 -2 8 -11 7 -74 135
-102 207 -8 22 -19 45 -24 51 -5 7 -11 20 -13 30 -2 11 -25 80 -51 154 -25 74
-47 142 -49 150 -2 8 -8 35 -14 60 -7 25 -14 54 -16 65 -3 11 -8 31 -11 45 -3
14 -7 34 -9 45 -2 11 -4 22 -5 25 -1 3 -3 10 -4 15 -1 6 -5 30 -10 55 -30 163
-33 187 -62 500 -4 36 -6 207 -5 380 2 351 4 420 11 420 3 0 5 33 6 73 1 76
10 210 18 268 3 19 7 54 10 79 3 25 8 65 11 90 4 25 8 61 10 80 2 19 7 51 10
70 4 19 8 51 11 70 9 69 12 85 14 88 1 1 3 10 5 20 9 75 19 123 26 128 5 3 7
9 5 13 -3 4 0 27 5 52 6 24 12 52 14 62 2 10 6 26 9 35 3 9 8 31 11 47 4 25
16 71 40 155 2 8 9 33 15 55 20 75 21 80 24 90 2 6 6 17 9 25 20 54 81 246 79
253 -1 4 3 7 8 7 6 0 10 7 10 15 0 14 68 193 89 233 5 9 18 37 29 62 48 111
155 325 163 328 5 2 9 9 9 15 0 7 27 59 60 116 33 57 60 108 60 113 0 4 5 8
10 8 6 0 10 7 10 15 0 8 5 15 10 15 6 0 10 7 10 15 0 8 5 15 10 15 6 0 10 5
10 11 0 9 95 155 110 169 3 3 13 17 22 31 26 41 165 214 206 255 12 13 22 25
22 28 0 6 185 192 251 251 51 47 153 131 193 160 15 11 36 27 47 36 11 9 57
41 102 70 45 30 84 57 87 60 9 12 254 144 262 141 4 -1 8 2 8 6 0 8 45 30 140
69 19 8 43 19 52 24 52 27 326 113 430 135 122 25 229 42 328 51 93 8 362 9
420 2 30 -4 79 -10 107 -14 29 -3 66 -10 83 -15 17 -5 33 -9 35 -9 26 1 174
-43 207 -61 10 -6 25 -10 33 -10 8 0 15 -4 15 -10 0 -5 8 -10 18 -10 9 0 28
-9 42 -20 14 -11 29 -20 34 -20 26 0 256 -202 256 -225 0 -3 13 -25 29 -48
120 -175 179 -423 175 -728 -1 -90 -5 -182 -9 -204 -3 -22 -8 -56 -11 -75 -9
-73 -17 -130 -30 -193 -4 -24 -15 -92 -20 -122 -1 -11 -3 -21 -4 -22 -4 -5
-12 -52 -25 -153 -1 -8 -6 -44 -11 -80 -15 -117 -9 -338 12 -371 3 -5 7 -19 9
-31 15 -78 120 -222 201 -276 31 -20 170 -89 193 -95 12 -3 25 -6 29 -8 12 -5
86 -20 122 -25 55 -8 280 -9 330 -2 143 22 312 96 398 176 29 27 52 47 52 44
0 -7 63 64 100 113 35 47 150 239 150 251 0 3 12 30 26 60 14 30 27 60 28 67
2 7 9 26 15 42 7 17 14 38 16 47 2 9 9 26 15 37 6 12 8 21 6 21 -3 0 1 18 9
39 7 22 16 52 18 68 3 15 9 46 15 68 12 44 21 92 27 145 2 19 6 46 9 60 6 30
16 132 22 215 6 72 6 441 1 506 -2 25 -7 51 -11 58 -4 6 -2 11 4 11 6 0 8 5 4
11 -3 6 -8 25 -9 42 -9 89 -25 191 -42 267 -7 36 -16 76 -19 90 -3 14 -16 63
-30 110 -14 47 -27 92 -29 100 -2 8 -9 29 -16 45 -6 17 -13 35 -14 40 -14 58
-141 318 -198 407 -21 32 -37 61 -36 64 0 4 -3 10 -8 13 -4 3 -33 40 -64 81
-76 100 -106 137 -155 188 -23 23 -40 42 -38 42 5 0 -86 85 -131 124 -16 14
-34 26 -39 26 -5 0 -7 3 -3 6 10 10 -201 164 -308 224 -118 66 -335 169 -369
174 -6 1 -15 4 -21 7 -10 7 -135 48 -147 50 -4 0 -29 8 -55 16 -51 16 -154 42
-188 48 -11 2 -33 6 -50 9 -16 3 -43 8 -60 11 -16 3 -41 8 -55 11 -29 6 -76
13 -140 19 -25 2 -63 7 -85 10 -23 3 -65 8 -95 11 -61 6 -656 14 -662 9z"/>
</g>
</svg>
