<?xml version="1.0" encoding="UTF-8" standalone="no"?>
<svg
   xmlns:dc="http://purl.org/dc/elements/1.1/"
   xmlns:cc="http://creativecommons.org/ns#"
   xmlns:rdf="http://www.w3.org/1999/02/22-rdf-syntax-ns#"
   xmlns:svg="http://www.w3.org/2000/svg"
   xmlns="http://www.w3.org/2000/svg"
   xmlns:sodipodi="http://sodipodi.sourceforge.net/DTD/sodipodi-0.dtd"
   xmlns:inkscape="http://www.inkscape.org/namespaces/inkscape"
   width="621.75793mm"
   height="454.60178mm"
   viewBox="0 0 621.75794 454.60177"
   version="1.1"
   id="svg17815"
   inkscape:version="1.0.1 (1.0.1+r75)"
   sodipodi:docname="getintouch.svg">
  <defs
     id="defs17809" />
  <sodipodi:namedview
     id="base"
     pagecolor="#ffffff"
     bordercolor="#666666"
     borderopacity="1.0"
     inkscape:pageopacity="0.0"
     inkscape:pageshadow="2"
     inkscape:zoom="0.24748737"
     inkscape:cx="1361.8378"
     inkscape:cy="672.67644"
     inkscape:document-units="mm"
     inkscape:current-layer="layer1"
     inkscape:document-rotation="0"
     showgrid="false"
     inkscape:window-width="1687"
     inkscape:window-height="1385"
     inkscape:window-x="67"
     inkscape:window-y="27"
     inkscape:window-maximized="0"
     showguides="false" />
  <metadata
     id="metadata17812">
    <rdf:RDF>
      <cc:Work
         rdf:about="">
        <dc:format>image/svg+xml</dc:format>
        <dc:type
           rdf:resource="http://purl.org/dc/dcmitype/StillImage" />
        <dc:title></dc:title>
      </cc:Work>
    </rdf:RDF>
  </metadata>
  <style
     id="style5">.cls-1{fill:#f7faff;}.cls-2{fill:#e6f0fa;}.cls-3{fill:#a0d4b0;}.cls-4{fill:#527e35;}.cls-5{fill:#709f47;}.cls-6{fill:#87b272;}.cls-31,.cls-7{fill:#c5c880;}.cls-8{fill:#9c312e;}.cls-9{fill:#d29f7a;}.cls-10{fill:#fbe1c7;}.cls-11,.cls-45,.cls-47{fill:#231f20;}.cls-11,.cls-13,.cls-18,.cls-27,.cls-48,.cls-62{opacity:0.1;}.cls-12{fill:#ffc6b2;}.cls-14{fill:#003c68;}.cls-15{fill:#11343f;}.cls-16,.cls-33,.cls-38,.cls-52{fill:none;}.cls-16{stroke:#000;}.cls-16,.cls-38,.cls-52{stroke-miterlimit:10;}.cls-17,.cls-18,.cls-49{fill:#4b2603;}.cls-19{fill:#e6e6e6;}.cls-20{fill:#3d3027;}.cls-21{fill:#ffac00;}.cls-22,.cls-54{fill:#42423d;}.cls-23{fill:#83d2cd;}.cls-24{fill:#0157ad;}.cls-25{fill:#fcd7d1;}.cls-26,.cls-27{fill:#fd7d00;}.cls-28,.cls-64{fill:#ed2d19;}.cls-29{fill:#fff;}.cls-30{fill:#fbebdc;}.cls-31,.cls-64{opacity:0.5;}.cls-32{fill:#5a9cae;}.cls-34{fill:#4d4d4d;}.cls-35{fill:#333;}.cls-36{fill:#29343f;}.cls-37{fill:#b9d6f4;}.cls-38{stroke:#1a1a1a;}.cls-39{fill:#fe6e09;}.cls-40{fill:#ddecff;}.cls-41{fill:#ffc7ad;}.cls-42{fill:#85d0cd;}.cls-43{fill:#3f5e49;}.cls-44{fill:#628554;}.cls-45,.cls-46,.cls-54{opacity:0.2;}.cls-49{opacity:0.51;}.cls-50{fill:#8c6239;}.cls-51{fill:#ffe923;}.cls-52{stroke:#3f5e49;stroke-width:2px;}.cls-53{fill:url(#linear-gradient);}.cls-55{fill:url(#linear-gradient-2);}.cls-56{fill:#c1ee60;}.cls-57{fill:#1e3829;}.cls-58{opacity:0.4;}.cls-59{fill:#0ad9ff;}.cls-60{fill:#eac3b0;}.cls-61,.cls-62{fill:#41342a;}.cls-63{fill:#231d18;}</style>
  <g
     inkscape:label="Layer 1"
     inkscape:groupmode="layer"
     id="layer1"
     transform="translate(201.31007,35.536567)">
    <g
       id="_5"
       data-name="5"
       transform="matrix(0.26458333,0,0,0.26458333,-1705.1016,-569.14824)">
      <g
         id="mom-3"
         data-name="mom">
        <path
           class="cls-1"
           d="m 7278.62,2718.55 c -86.47,16 -125.89,5.56 -194.68,7.79 -223.49,7.25 -497.32,139.65 -591.8,358.2 -14.42,33.34 -59.17,136.86 -23.36,249.18 6.22,19.52 38.33,112.86 171.31,194.67 238.67,146.83 588.55,125 895.49,109 C 8330,3596 8518,3610.11 8602.39,3458.31 c 56.86,-102.25 30.72,-215 15.57,-280.33 -103.84,-447.95 -770.67,-736.66 -1051.23,-584 -51.09,27.78 -138.49,96.93 -288.11,124.57 z"
           transform="translate(-701.01,-425.93)"
           id="path9431" />
        <path
           class="cls-30"
           d="m 8734.51,3763.13 c 0,1.31 0,2.64 -0.06,4 0,2.16 -0.09,4.31 -0.16,6.47 0,1.32 -0.07,2.63 -0.12,4 a 680.27,680.27 0 0 1 -18.44,136.75 c -3,12.42 -6.14,25.23 -9.75,38.32 -0.36,1.32 -0.73,2.64 -1.1,3.95 -0.6,2.13 -1.21,4.28 -1.85,6.42 q -0.57,2 -1.17,4 c -11,36.58 -26.51,74.68 -53.52,111.31 a 309.39,309.39 0 0 1 -22.1,26.69 317.42,317.42 0 0 1 -35,32.56 q -2.86,2.28 -5.77,4.5 c -1.76,1.35 -3.53,2.68 -5.31,4 q -10.76,7.91 -22,14.81 H 6724.37 a 515,515 0 0 1 -61.93,-18.77 q -5.79,-2.19 -11.41,-4.5 c -36.89,-15.21 -68,-34.56 -94.25,-59.25 -23.12,-21.71 -42.54,-47.56 -59,-78.36 -74.73,-140.1 -93.68,-394.24 21.44,-528.21 67.39,-78.42 155.73,-88.62 197.19,-192 36.91,-92 -17.89,-131.67 -7.06,-257.19 18.94,-219.63 209,-357 217.94,-363.25 37.22,-26 167.58,-117 337.3,-88.22 131.42,22.31 253.14,110.82 307.45,222.12 36,73.86 20.28,112.42 71.36,177.46 10.38,13.21 80.12,102.06 186.81,114.16 142.2,16.12 197.73,-124.3 352.87,-119.35 95.75,3.05 164.24,60.27 243.89,129.73 140.35,122.37 249.36,302.81 290.17,495.26 q 3.6,17 6.48,34.06 c 0.66,3.89 1.28,7.77 1.88,11.68 q 1.89,12.3 3.39,24.63 c 0.27,2.13 0.52,4.25 0.75,6.38 0.16,1.31 0.31,2.64 0.45,4 a 751.24,751.24 0 0 1 4.42,91.84 z"
           transform="translate(-701.01,-425.93)"
           id="path9433" />
        <rect
           class="cls-9"
           x="6990.7402"
           y="2960.79"
           width="853.19"
           height="44.27"
           id="rect9435" />
        <rect
           class="cls-1"
           x="7034.6499"
           y="2286.28"
           width="764.69"
           height="651.47998"
           id="rect9437" />
        <path
           class="cls-22"
           d="M 7708.06,2712.21 V 3391 H 8528 v -678.8 z m 792.29,651.47 H 7735.66 V 3054.1 h 764.69 z m 0,-323.51 h -764.69 v -309.59 h 764.69 z"
           transform="translate(-701.01,-425.93)"
           id="path9439" />
        <rect
           class="cls-22"
           x="7285.3701"
           y="2286.28"
           width="15.58"
           height="665.21997"
           id="rect9441" />
        <rect
           class="cls-22"
           x="7536.3501"
           y="2295.5701"
           width="15.58"
           height="665.21997"
           id="rect9443" />
        <rect
           class="cls-15"
           x="6926.8101"
           y="2240.1899"
           width="971.58002"
           height="24.860001"
           id="rect9445" />
        <rect
           class="cls-15"
           x="6921.4302"
           y="2232.71"
           width="30.16"
           height="42.57"
           id="rect9447" />
        <rect
           class="cls-15"
           x="7878.0601"
           y="2231.3401"
           width="30.16"
           height="42.57"
           id="rect9449" />
        <rect
           class="cls-15"
           x="6956.46"
           y="2252.6201"
           width="10.7"
           height="720.52002"
           id="rect9451" />
        <rect
           class="cls-19"
           x="6980.48"
           y="2263.6201"
           width="874.38"
           height="322.56"
           id="rect9453" />
        <rect
           class="cls-64"
           x="6980.48"
           y="2263.6201"
           width="874.38"
           height="20.52"
           id="rect9455" />
        <rect
           class="cls-64"
           x="6980.48"
           y="2314.22"
           width="874.38"
           height="20.52"
           id="rect9457" />
        <rect
           class="cls-64"
           x="6980.48"
           y="2364.8101"
           width="874.38"
           height="20.52"
           id="rect9459" />
        <rect
           class="cls-64"
           x="6980.48"
           y="2415.4099"
           width="874.38"
           height="20.52"
           id="rect9461" />
        <rect
           class="cls-64"
           x="6980.48"
           y="2466"
           width="874.38"
           height="20.52"
           id="rect9463" />
        <rect
           class="cls-64"
           x="6980.48"
           y="2516.5901"
           width="874.38"
           height="20.52"
           id="rect9465" />
        <rect
           class="cls-64"
           x="6981.54"
           y="2567.3899"
           width="872.65002"
           height="20.52"
           id="rect9467" />
        <rect
           class="cls-64"
           x="7529.6099"
           y="2841.4299"
           width="324.29001"
           height="20.52"
           transform="rotate(-90,7128.285,2989.235)"
           id="rect9469" />
        <rect
           class="cls-64"
           x="7582.52"
           y="2841.4299"
           width="324.29001"
           height="20.52"
           transform="rotate(-90,7181.195,2989.235)"
           id="rect9471" />
        <rect
           class="cls-64"
           x="7636.0098"
           y="2841.4299"
           width="324.29001"
           height="20.52"
           transform="rotate(-90,7234.685,2989.235)"
           id="rect9473" />
        <rect
           class="cls-64"
           x="7689.7998"
           y="2841.3301"
           width="324.29001"
           height="20.52"
           transform="rotate(-90,7288.47,2989.13)"
           id="rect9475" />
        <rect
           class="cls-64"
           x="7743.2798"
           y="2841.3301"
           width="324.29001"
           height="20.52"
           transform="rotate(-90,7341.955,2989.135)"
           id="rect9477" />
        <rect
           class="cls-64"
           x="7795.4702"
           y="2840.6201"
           width="324.29001"
           height="20.52"
           transform="rotate(-90,7394.14,2988.42)"
           id="rect9479" />
        <rect
           class="cls-64"
           x="7848.9502"
           y="2840.6201"
           width="324.29001"
           height="20.52"
           transform="rotate(-90,7447.625,2988.425)"
           id="rect9481" />
        <rect
           class="cls-64"
           x="7902.7402"
           y="2840.52"
           width="324.29001"
           height="20.52"
           transform="rotate(-90,7501.415,2988.325)"
           id="rect9483" />
        <rect
           class="cls-64"
           x="7956.23"
           y="2840.52"
           width="324.29001"
           height="20.52"
           transform="rotate(-90,7554.9,2988.32)"
           id="rect9485" />
        <rect
           class="cls-64"
           x="8008.6299"
           y="2841.48"
           width="324.29001"
           height="20.52"
           transform="rotate(-90,7607.3,2989.29)"
           id="rect9487" />
        <rect
           class="cls-64"
           x="8062.1099"
           y="2841.48"
           width="324.29001"
           height="20.52"
           transform="rotate(-90,7660.785,2989.285)"
           id="rect9489" />
        <rect
           class="cls-64"
           x="8115.8999"
           y="2841.3799"
           width="324.29001"
           height="20.52"
           transform="rotate(-90,7714.575,2989.185)"
           id="rect9491" />
        <rect
           class="cls-64"
           x="8169.3901"
           y="2841.3799"
           width="324.29001"
           height="20.52"
           transform="rotate(-90,7768.065,2989.185)"
           id="rect9493" />
        <rect
           class="cls-64"
           x="8222.0303"
           y="2841.54"
           width="324.29001"
           height="20.52"
           transform="rotate(-90,7820.71,2989.34)"
           id="rect9495" />
        <rect
           class="cls-64"
           x="8275.5195"
           y="2841.54"
           width="324.29001"
           height="20.52"
           transform="rotate(-90,7874.195,2989.335)"
           id="rect9497" />
        <rect
           class="cls-64"
           x="8329.3096"
           y="2841.4299"
           width="324.29001"
           height="20.52"
           transform="rotate(-90,7927.985,2989.235)"
           id="rect9499" />
        <rect
           class="cls-64"
           x="8382.79"
           y="2841.4299"
           width="324.29001"
           height="20.52"
           transform="rotate(-90,7981.465,2989.235)"
           id="rect9501" />
        <path
           class="cls-37"
           d="m 8615.14,4078.24 c -26.29,26.87 -57.36,47.93 -94.25,64.47 H 6580.73 a 330.71,330.71 0 0 1 -35,-35.42 335.32,335.32 0 0 1 -22.1,-29.05 z"
           transform="translate(-701.01,-425.93)"
           id="path9503" />
        <g
           id="plant_2-5"
           data-name="plant 2">
          <path
             class="cls-3"
             d="m 6626.76,3932.06 c -11.15,-32.56 -19,-60 -24.18,-79.55 -27.24,-102.47 -22.2,-139.26 -14.64,-163.54 3.11,-10 13.44,-43.2 31.18,-44.55 6.94,-0.53 13.81,3.91 17.82,8.91 12.94,16.14 -0.42,42.36 -10.82,78.91 0,0 -13.6,47.83 -14.63,98 -0.51,24.76 3,60.9 22.91,105.64 z"
             transform="translate(-701.01,-425.93)"
             id="path9505" />
          <path
             class="cls-4"
             d="m 6626.76,3932.06 c -11.15,-32.56 -19,-60 -24.18,-79.55 -27.24,-102.47 -22.2,-139.26 -14.64,-163.54 3.11,-10 13.44,-43.2 31.18,-44.55 6.94,-0.53 13.81,3.91 17.82,8.91 12.94,16.14 -0.42,42.36 -10.82,78.91 0,0 -13.6,47.83 -14.63,98 -0.51,24.76 3,60.9 22.91,105.64 z"
             transform="translate(-701.01,-425.93)"
             id="path9507" />
          <path
             class="cls-5"
             d="m 6627.37,3943.53 a 408.57,408.57 0 0 1 -6.36,-129.82 c 2.07,-18.4 6.16,-60.94 26.72,-105.64 8.2,-17.81 15.77,-41.25 54.42,-91.32 17.93,-23.22 45,-43.36 56.31,-39.77 6.6,2.1 9.26,10.91 10.19,14 11.15,37 -37.22,80.78 -77.64,160.37 0,0 -29.34,58.81 -43.28,119.63 -3.55,15.52 -6.51,33.53 -6.51,33.53 -3.49,21.23 -6.39,46.15 -5.26,46.34 0.67,0.11 2.57,-8.4 3.24,-11.31 6.29,-27.54 19.3,-66.93 29.16,-89.87 0,0 21.62,-50.27 73.5,-99.28 a 164,164 0 0 1 31.51,-21.95 c 24.55,-13.32 35.21,-11.24 40.09,-9.55 2,0.69 9,3.11 10.5,8.59 1.21,4.34 -1.22,9.62 -7.64,16.23 -18.06,18.59 -52.57,33.73 -66.82,42 -32,18.58 -67.5,74.63 -87.82,123.14 a 346.55,346.55 0 0 0 -15.27,44.86 z"
             transform="translate(-701.01,-425.93)"
             id="path9509" />
          <path
             class="cls-6"
             d="m 6651.13,3954 c 0.05,-0.35 0.11,-0.8 0.19,-1.32 v -0.13 c 8.31,-58 40.85,-103.56 40.85,-103.56 14.16,-19.85 33,-39.12 46.68,-48.56 24.63,-17.06 28.73,-17.3 59.27,-31.19 6.95,-3.16 38.23,-8.82 45.82,3.39 4.88,7.85 2.49,20.44 -3.82,28.64 -13.07,17 -42.81,14.71 -77.06,27.49 -23,8.59 -30,13.63 -43.21,26.92 -22.93,23 -34,46.15 -41,61.09 a 248.15,248.15 0 0 0 -15.27,42 z"
             transform="translate(-701.01,-425.93)"
             id="path9511" />
          <path
             class="cls-4"
             d="m 6651.13,3954 c 0.05,-0.35 0.11,-0.8 0.19,-1.32 v -0.13 c 8.31,-58 40.85,-103.56 40.85,-103.56 14.16,-19.85 33,-39.12 46.68,-48.56 24.63,-17.06 28.73,-17.3 59.27,-31.19 6.95,-3.16 38.23,-8.82 45.82,3.39 4.88,7.85 2.49,20.44 -3.82,28.64 -13.07,17 -42.81,14.71 -77.06,27.49 -23,8.59 -30,13.63 -43.21,26.92 -22.93,23 -34,46.15 -41,61.09 a 248.15,248.15 0 0 0 -15.27,42 z"
             transform="translate(-701.01,-425.93)"
             id="path9513" />
          <path
             class="cls-6"
             d="m 6660.36,3944.87 c 6.6,-16.57 21,-45.37 50.91,-68.09 0,0 31.81,-24.16 71.91,-26.09 11.2,-0.54 15.69,2.07 17.82,5.09 2.76,3.93 2.23,9.56 0.63,13.36 -1.88,4.51 -5.65,7.38 -10.18,9.55 -15.85,7.6 -35.95,4.17 -38.18,3.82 -37.85,-5.94 -82.78,32.63 -84.64,62.36 a 34.36,34.36 0 0 0 1.91,13.37 z"
             transform="translate(-701.01,-425.93)"
             id="path9515" />
          <path
             class="cls-4"
             d="m 6660.36,3944.87 c 6.6,-16.57 21,-45.37 50.91,-68.09 0,0 31.81,-24.16 71.91,-26.09 11.2,-0.54 15.69,2.07 17.82,5.09 2.76,3.93 2.23,9.56 0.63,13.36 -1.88,4.51 -5.65,7.38 -10.18,9.55 -15.85,7.6 -35.95,4.17 -38.18,3.82 -37.85,-5.94 -82.78,32.63 -84.64,62.36 a 34.36,34.36 0 0 0 1.91,13.37 z"
             transform="translate(-701.01,-425.93)"
             id="path9517" />
          <path
             class="cls-7"
             d="m 6673.72,3934.62 c 28.21,-23.39 54.26,-33.46 70.64,-38.18 25,-7.2 36.08,-4.41 43.27,0 1.91,1.17 13,8.24 14.64,21 1.16,8.9 -2.33,20 -7.64,21 -4,0.75 -6.41,-4.78 -21,-19.09 -7,-6.89 -10.58,-10.36 -13.36,-11.46 -10.59,-4.18 -34.75,4.27 -51.17,13.37 -10.93,6 -25.2,12.73 -34.1,22.27 z"
             transform="translate(-701.01,-425.93)"
             id="path9519" />
          <path
             class="cls-6"
             d="M 6618.49,3926.33"
             transform="translate(-701.01,-425.93)"
             id="path9521" />
          <path
             class="cls-7"
             d="m 6634.36,3939.08 c -0.54,-2.63 -1.38,-6.38 -2.62,-10.82 -3.15,-11.3 -15.58,-53.63 -54.65,-85.28 -9.49,-7.68 -58.49,-47.38 -106.91,-33.09 -12.15,3.59 -22.31,10.67 -42.64,24.82 -20.33,14.15 -45.86,31.94 -42.63,40.73 3.23,8.79 32.24,1.21 88.86,0 52.68,-1.13 80.86,-1.41 107.77,14 25.72,14.72 40,37.87 47.73,54.09 z"
             transform="translate(-701.01,-425.93)"
             id="path9523" />
          <path
             class="cls-5"
             d="m 6629.78,3928.89 c -3.93,-7.79 -24.62,-46.93 -66.18,-55.36 -24.45,-5 -61.55,-0.4 -69.37,19.73 -4.41,11.38 0.6,27.57 8.91,30.54 9.33,3.34 16.69,-12.14 42.64,-22.27 6.73,-2.63 18.4,-7.18 30.55,-6.36 29.69,2 48.48,35.17 52.18,42 z"
             transform="translate(-701.01,-425.93)"
             id="path9525" />
          <path
             class="cls-5"
             d="m 6633.61,3946.71 a 859,859 0 0 0 -44.55,-135.54 c -37,-87.1 -60.55,-101.78 -70,-106.91 -31,-16.86 -70.11,-17.92 -100.55,-7 -19.76,7.08 -33.95,18.53 -33.09,20.36 1.37,2.88 37.67,-23.46 65.55,-10.82 11.32,5.13 10.89,12 37.54,47.73 15.26,20.45 22.89,30.68 30.55,37.54 24.84,22.27 40.27,19.25 59.82,41.37 2.68,3 8.24,9.71 18.45,30.54 a 426.53,426.53 0 0 1 31.82,89.73 z"
             transform="translate(-701.01,-425.93)"
             id="path9527" />
          <path
             class="cls-39"
             d="m 6791.47,4022.68 a 140.35,140.35 0 0 1 -66.3,119.31 h -148.3 a 140.36,140.36 0 0 1 -66.31,-119.31 c 0,-3.27 0.11,-6.5 0.33,-9.72 a 139.3,139.3 0 0 1 26.12,-72.35 h 228 a 139.3,139.3 0 0 1 26.12,72.35 c 0.24,3.22 0.34,6.45 0.34,9.72 z"
             transform="translate(-701.01,-425.93)"
             id="path9529" />
          <path
             class="cls-19"
             d="m 6791.14,4013 h -280.25 a 141.12,141.12 0 0 1 5.61,-30.89 h 269 a 140.53,140.53 0 0 1 5.64,30.89 z"
             transform="translate(-701.01,-425.93)"
             id="path9531" />
          <path
             class="cls-11"
             d="m 6791.14,4022.69 a 140.32,140.32 0 0 1 -66.3,119.29 h -148.3 a 140.87,140.87 0 0 1 -51.84,-57.19 c 41.46,4.39 109.8,24.71 166.55,-13.95 51,-34.75 60.85,-95.44 73.21,-130.22 h 0.25 a 139.87,139.87 0 0 1 20.51,41.43 141.54,141.54 0 0 1 5.6,30.89 c 0.23,3.25 0.32,6.47 0.32,9.75 z"
             transform="translate(-701.01,-425.93)"
             id="path9533" />
        </g>
        <rect
           class="cls-15"
           x="7540.98"
           y="2016.8"
           width="8.7600002"
           height="351.23999"
           id="rect9536" />
        <rect
           class="cls-22"
           x="7522.98"
           y="2334.96"
           width="44.759998"
           height="16.540001"
           id="rect9538" />
        <rect
           class="cls-15"
           x="7526.6299"
           y="2351.5"
           width="37.459999"
           height="6.9200001"
           id="rect9540" />
        <path
           class="cls-15"
           d="m 8272.39,2836.41 h -52 q 3.65,-26 7.3,-52.06 h 37.46 z"
           transform="translate(-701.01,-425.93)"
           id="path9542" />
        <path
           class="cls-22"
           d="m 8354.2,2863.38 h -215.67 l 81.81,-27 h 52 z"
           transform="translate(-701.01,-425.93)"
           id="path9544" />
        <path
           class="cls-15"
           d="m 8354.2,2863.38 h -215.67 q -7.57,20.64 -15.14,41.29 h 246.06 q -7.62,-20.67 -15.25,-41.29 z"
           transform="translate(-701.01,-425.93)"
           id="path9546" />
        <rect
           class="cls-15"
           x="7415.8999"
           y="2476.5801"
           width="257.29999"
           height="4.7600002"
           id="rect9548" />
        <rect
           class="cls-15"
           x="7748.1401"
           y="2080.77"
           width="8.7600002"
           height="351.23999"
           id="rect9550" />
        <rect
           class="cls-22"
           x="7730.1401"
           y="2398.9299"
           width="44.759998"
           height="16.540001"
           id="rect9552" />
        <rect
           class="cls-15"
           x="7733.79"
           y="2415.47"
           width="37.459999"
           height="6.9200001"
           id="rect9554" />
        <path
           class="cls-15"
           d="m 8479.56,2900.37 h -52.06 q 3.66,-26 7.3,-52 h 37.46 q 3.65,25.98 7.3,52 z"
           transform="translate(-701.01,-425.93)"
           id="path9556" />
        <path
           class="cls-22"
           d="m 8561.37,2927.34 h -215.68 l 81.81,-27 h 52.06 z"
           transform="translate(-701.01,-425.93)"
           id="path9558" />
        <path
           class="cls-15"
           d="m 8561.37,2927.34 h -215.68 q -7.56,20.65 -15.13,41.3 h 246.05 z"
           transform="translate(-701.01,-425.93)"
           id="path9560" />
        <rect
           class="cls-15"
           x="7623.0601"
           y="2540.55"
           width="257.29999"
           height="4.7600002"
           id="rect9562" />
        <path
           class="cls-22"
           d="m 8734.45,3763.13 c -0.07,3.48 -0.16,6.95 -0.28,10.43 a 680.08,680.08 0 0 1 -18.44,136.75 c -3.31,13.68 -6.77,27.83 -10.85,42.28 -1,3.44 -2,6.91 -3,10.38 -11,36.58 -26.51,74.67 -53.52,111.31 a 310.92,310.92 0 0 1 -22.1,26.69 318.29,318.29 0 0 1 -35,32.55 q -2.86,2.3 -5.77,4.51 c -1.76,1.34 -3.53,2.67 -5.31,4 h -877 v -521.55 h 1020.46 q 1,5.83 1.88,11.68 1.89,12.3 3.39,24.64 c 0.43,3.44 0.83,6.89 1.2,10.33 a 751.51,751.51 0 0 1 4.34,96 z"
           transform="translate(-701.01,-425.93)"
           id="path9564" />
        <path
           class="cls-2"
           d="m 8725.52,3632.16 h -618.4 a 15.55,15.55 0 0 1 -15.56,-15.57 V 3602 a 15.56,15.56 0 0 1 15.56,-15.56 h 610 q 3.6,17 6.48,34.05 1.03,5.82 1.92,11.67 z"
           transform="translate(-701.01,-425.93)"
           id="path9566" />
        <rect
           class="cls-23"
           x="7790.4302"
           y="3143.22"
           width="53.509998"
           height="17.27"
           id="rect9568" />
        <rect
           class="cls-23"
           x="7839.9502"
           y="3107.95"
           width="35.27"
           height="35.27"
           id="rect9570" />
        <rect
           class="cls-23"
           x="7760.1602"
           y="3107.95"
           width="35.27"
           height="35.27"
           id="rect9572" />
        <path
           class="cls-23"
           d="m 8524.53,3574.75 0.48,-74.92 q 0.17,-24.64 0.32,-49.29 c 0,-6.65 -1,-19.84 -9.56,-31.47 a 32.33,32.33 0 0 0 -10.38,-9.73 c -7.64,-4.31 -15.29,-4.05 -19.78,-3.89 a 39.38,39.38 0 0 0 -13.33,2.51 37.67,37.67 0 0 0 -13.27,8.52 36.79,36.79 0 0 0 -9.08,15.89 c -1.53,5.24 -0.6,6.07 -1,21.08 -0.35,14 -1.28,18 1.62,20.11 2.63,1.89 7.27,1.37 9.73,-1 3.5,-3.34 0.91,-8.76 0.65,-18.16 -0.15,-5.16 -0.61,-21.81 9.4,-30.16 6.63,-5.53 15.24,-5.25 17.19,-5.19 2.51,0.08 9.42,0.3 14.92,4.87 11.21,9.29 10.38,31.46 10.38,31.46 v 0 c 0,0 -0.32,39.91 -1,121.29 z"
           transform="translate(-701.01,-425.93)"
           id="path9574" />
        <rect
           class="cls-23"
           x="7741.46"
           y="3032.78"
           width="22.700001"
           height="25.299999"
           id="rect9576" />
        <path
           class="cls-23"
           d="M 8728.91,3656.8 H 7703.1 v -36.32 h 1020.54 q 1,5.83 1.88,11.68 1.89,12.3 3.39,24.64 z"
           transform="translate(-701.01,-425.93)"
           id="path9578" />
        <rect
           class="cls-2"
           x="7002.0801"
           y="3241.25"
           width="388.94"
           height="96"
           id="rect9580" />
        <rect
           class="cls-2"
           x="7002.0801"
           y="3347.6299"
           width="388.94"
           height="179.03"
           id="rect9582" />
        <rect
           class="cls-2"
           x="7400.4399"
           y="3241.25"
           width="336.97"
           height="96"
           id="rect9584" />
        <path
           class="cls-2"
           d="m 8734.29,3773.56 c 0,1.32 -0.07,2.63 -0.12,4 a 680.27,680.27 0 0 1 -18.44,136.75 c -3,12.42 -6.14,25.23 -9.75,38.32 h -602.53 v -179 z"
           transform="translate(-701.01,-425.93)"
           id="path9586" />
        <rect
           class="cls-2"
           x="7002.0801"
           y="3537.04"
           width="388.94"
           height="179.03"
           id="rect9588" />
        <rect
           class="cls-22"
           x="7470.8101"
           y="3277.5801"
           width="188.75999"
           height="27.24"
           id="rect9590" />
        <path
           class="cls-2"
           d="m 8734.51,3763.13 h -285.73 v -96 h 280.88 c 0.16,1.31 0.31,2.64 0.45,4 a 751.24,751.24 0 0 1 4.4,92 z"
           transform="translate(-701.01,-425.93)"
           id="path9592" />
        <rect
           class="cls-22"
           x="7814.1401"
           y="3277.52"
           width="188.75999"
           height="27.24"
           id="rect9594" />
        <rect
           class="cls-22"
           x="7103.0298"
           y="3277.5801"
           width="202.38"
           height="27.24"
           id="rect9596" />
        <rect
           class="cls-22"
           x="7095.3701"
           y="3423.52"
           width="202.38"
           height="27.24"
           id="rect9598" />
        <rect
           class="cls-22"
           x="7636.2202"
           y="3423.52"
           width="202.38"
           height="27.24"
           id="rect9600" />
        <path
           class="cls-2"
           d="m 8703,3963 q -0.57,2 -1.17,4 c -11,36.58 -26.51,74.68 -53.52,111.31 a 309.39,309.39 0 0 1 -22.1,26.69 317.42,317.42 0 0 1 -35,32.56 q -2.86,2.28 -5.77,4.5 H 8104.63 V 3963 Z"
           transform="translate(-701.01,-425.93)"
           id="path9602" />
        <rect
           class="cls-22"
           x="7639.3999"
           y="3612.9299"
           width="202.38"
           height="27.24"
           id="rect9604" />
        <rect
           class="cls-22"
           x="7103.0298"
           y="3599.3101"
           width="202.38"
           height="27.24"
           id="rect9606" />
        <path
           class="cls-1"
           d="m 7938.36,3539.24 a 81.25,81.25 0 0 1 -162.49,0 z"
           transform="translate(-701.01,-425.93)"
           id="path9608" />
        <path
           class="cls-13"
           d="m 7938.36,3539.24 a 81.25,81.25 0 0 1 -133.85,61.91 c 11.69,4.66 25.68,11.15 44.13,9.67 26.27,-2.11 44.78,-19 48,-22.06 16.14,-15.22 21.3,-33.81 25.2,-49.52 z"
           transform="translate(-701.01,-425.93)"
           id="path9610" />
        <rect
           class="cls-8"
           x="5791.3101"
           y="3714.45"
           width="2163.3101"
           height="17.370001"
           id="rect9612" />
        <path
           class="cls-4"
           d="m 8023.62,3497.64 c -11.7,12 -28.47,9.84 -30.66,9.53 -15.39,-2.2 -25.53,-13.71 -29.83,-22.79 -4.8,-10.13 -4.61,-22 -4.56,-24.87 0.15,-9 2.16,-11 0.41,-15.74 -3,-8.28 -11.22,-8.07 -20.71,-16.16 -1.91,-1.62 -16.16,-14.06 -15.75,-28.59 0.38,-13.7 13.43,-16.2 14.92,-33.57 0.64,-7.57 -1.26,-13.81 -2.49,-17.81 -3.64,-11.9 -9.69,-17.77 -13.26,-23.21 -11.37,-17.33 -7.72,-45.86 2.49,-63 11.57,-19.42 26.57,-15.78 38.12,-39.37 4.73,-9.66 6.17,-18.35 10.77,-18.64 5.25,-0.33 11.07,10.48 13.26,19.89 3.67,15.75 -4.59,20.08 -3.31,40.19 0.38,6.07 1.31,18.35 9.11,29.83 6,8.78 8.89,6.71 13.26,14.51 5.37,9.56 7.45,24.21 2.9,36.88 -2.39,6.67 -5.31,9.13 -4.14,13.67 1.67,6.49 8.69,5.59 13.67,12.43 7,9.6 4,26.29 -0.83,36.47 -3.33,7 -6.76,9.22 -6.21,14.5 0.62,6 5.52,8.05 10.77,14.09 11.55,13.28 11.68,30.58 11.61,34.39 -0.16,5.89 -0.35,17.98 -9.54,27.37 z"
           transform="translate(-701.01,-425.93)"
           id="path9614" />
        <path
           class="cls-5"
           d="m 8070.86,3502.61 c 2.37,0.54 12.67,2.59 22.79,-3.32 13.13,-7.66 19,-24.63 14.92,-35.63 -2.64,-7.16 -8.4,-8.89 -7.46,-13.26 1.56,-7.29 18.41,-6.5 19.89,-13.68 1.15,-5.55 -8.42,-8.63 -7.87,-15.33 0.62,-7.64 13.42,-7.76 17.82,-17.81 3.8,-8.7 -4,-12.64 -2.91,-24.87 1.63,-17.75 19.32,-22.35 17.41,-35.63 -1.05,-7.28 -7.53,-14 -13.68,-14.5 -4.77,-0.38 -7.84,3.16 -17.81,13.67 -23.65,24.93 -25.1,24.77 -27.35,30.66 -4.8,12.58 -0.1,18.28 -6.63,25.28 -7,7.52 -15.29,4 -18.65,10.36 -4.59,8.69 8.95,18.94 4.15,30.25 -2,4.73 -4.74,3.77 -9.95,9.94 -1.92,2.28 -12.6,14.94 -9.12,30.25 2.71,11.88 12.96,21.01 24.45,23.62 z"
           transform="translate(-701.01,-425.93)"
           id="path9616" />
        <path
           class="cls-7"
           d="m 8051.8,3210.07 c 10.54,0.32 20.5,10.7 23.62,20.72 2.74,8.79 -0.69,14.44 4.56,23.2 2.66,4.45 4.33,4.29 7.87,8.7 6.09,7.58 10.36,19.47 8.7,30.25 -2,13.25 -11.31,13.93 -13.26,28.59 a 38.21,38.21 0 0 0 2.08,18.23 c 5,13.18 13.93,12.49 18.23,22.79 7.38,17.73 -10.66,39.89 -11.61,41 -7.88,9.44 -15.11,6.67 -19.06,14.5 -4.73,9.4 2.86,15.61 3.32,31.49 0.46,16.1 -6.58,35.72 -21.55,44.75 -2.18,1.32 -13.73,8.29 -24.86,4.15 -8.58,-3.2 -12.07,-11.25 -19.06,-27.35 -7.92,-18.25 -11.88,-27.37 -8.29,-36 5.36,-13 22.12,-13.69 22,-22 -0.13,-7.37 -13.44,-7.64 -16.16,-17 -3.91,-13.45 20.53,-23.48 19.06,-43.1 -0.74,-9.88 -7.14,-10 -7.45,-20.72 -0.45,-15.18 12.19,-19.8 9.94,-31.07 -2,-10 -12.47,-9.11 -17.4,-22 -3.61,-9.4 -1.28,-18.38 0.83,-26.52 a 65.64,65.64 0 0 1 16.16,-28.59 c 7.46,-7.76 13.72,-14.29 22.33,-14.02 z"
           transform="translate(-701.01,-425.93)"
           id="path9618" />
        <path
           class="cls-15"
           d="m 8045.85,3560.24 a 278.23,278.23 0 0 1 8.92,-49.57 247.15,247.15 0 0 1 8,-23.86 c 3,-7.82 6.56,-15.41 10.18,-22.86 3.62,-7.45 7.28,-14.83 10.79,-22.3 3.51,-7.47 6.88,-15 10.13,-22.56 q 9.73,-22.76 17.92,-46.18 -6.9,23.82 -15.45,47.16 -4.28,11.67 -8.95,23.18 c -3.12,7.68 -6.4,15.3 -9.6,22.89 -3.2,7.59 -6.23,15.19 -8.77,22.93 a 236.85,236.85 0 0 0 -6.47,23.54 268.45,268.45 0 0 0 -6.05,48.29 z"
           transform="translate(-701.01,-425.93)"
           id="path9620" />
        <path
           class="cls-15"
           d="m 7958.71,3298.33 a 347.68,347.68 0 0 0 -2,35.17 237.69,237.69 0 0 0 2.7,35 177.64,177.64 0 0 0 8.62,33.81 145.65,145.65 0 0 0 15.83,30.81 c 3.26,4.79 6.77,9.47 10.26,14.23 3.49,4.76 6.93,9.63 10.16,14.65 a 213.64,213.64 0 0 1 16.78,31.68 242.14,242.14 0 0 1 18.05,69.37 l -10.59,1 a 232.74,232.74 0 0 0 -14.85,-67.32 205.31,205.31 0 0 0 -15,-31.19 c -2.95,-5 -6.12,-9.86 -9.4,-14.71 -3.28,-4.85 -6.65,-9.71 -9.83,-14.77 a 150.45,150.45 0 0 1 -15.14,-32.39 181.71,181.71 0 0 1 -7.49,-34.76 242,242 0 0 1 -1.39,-35.38 346.79,346.79 0 0 1 3.29,-35.2 z"
           transform="translate(-701.01,-425.93)"
           id="path9622" />
        <path
           class="cls-15"
           d="m 8036.86,3561.47 a 388,388 0 0 1 -1,-81.83 c 0.67,-6.79 1.45,-13.57 2.51,-20.31 1.06,-6.74 2.26,-13.46 3.7,-20.12 2.83,-13.33 6.58,-26.38 10,-39.38 1.68,-6.51 3.25,-13 4.56,-19.59 1.31,-6.59 2.34,-13.18 3.2,-19.83 a 288.18,288.18 0 0 0 2.1,-40.18 357.84,357.84 0 0 0 -10.94,-79.91 358.65,358.65 0 0 1 13.6,79.83 289.5,289.5 0 0 1 -0.8,40.69 c -0.64,6.76 -1.44,13.53 -2.58,20.24 -1.14,6.71 -2.49,13.38 -4,20 -3,13.23 -6.27,26.27 -8.61,39.44 -1.2,6.57 -2.21,13.18 -3,19.81 -0.79,6.63 -1.36,13.28 -1.8,19.94 a 378.11,378.11 0 0 0 3.57,79.79 z"
           transform="translate(-701.01,-425.93)"
           id="path9624" />
        <path
           class="cls-39"
           d="m 8082.78,3525 -1.11,8.25 q -5.55,40.9 -11.08,81.81 a 6,6 0 0 1 -5.91,5.24 h -56.85 a 6,6 0 0 1 -5.92,-5.24 q -5.41,-39.93 -10.81,-79.87 c -0.08,-0.64 -0.18,-1.29 -0.26,-1.94 -0.36,-2.75 -0.74,-5.5 -1.11,-8.25 a 6,6 0 0 1 5.91,-6.88 h 81.23 a 6,6 0 0 1 5.91,6.88 z"
           transform="translate(-701.01,-425.93)"
           id="path9626" />
        <path
           class="cls-13"
           d="m 8082.78,3525 -1.11,8.25 q -5.55,40.9 -11.08,81.81 a 6,6 0 0 1 -5.91,5.24 h -1.27 c 1.53,-8.9 4.52,-27.29 6.77,-46.31 3.34,-28.25 2.06,-32.65 -0.81,-35.81 -5.06,-5.56 -12.23,-4.17 -34,-3.29 -15.51,0.63 -31.55,1.22 -44.25,0.3 -0.08,-0.64 -0.18,-1.29 -0.26,-1.94 -0.36,-2.75 -0.74,-5.5 -1.11,-8.25 a 6,6 0 0 1 5.91,-6.88 h 81.23 a 6,6 0 0 1 5.89,6.88 z"
           transform="translate(-701.01,-425.93)"
           id="path9628" />
        <rect
           class="cls-39"
           x="7280.3701"
           y="3089.96"
           width="104.93"
           height="16.190001"
           rx="5.6199999"
           id="rect9630" />
        <path
           class="cls-17"
           d="m 7432.82,3112.43 c -6.27,-28 -5.51,-42.41 -7.78,-72.32 -5.7,-75.05 -9.72,-127.9 -40.84,-170.22 -1.36,-1.87 -2.79,-3.71 -4.27,-5.54 -8.67,-10.7 -29.22,-35.35 -62.21,-41.22 -8.71,-1.54 -29.47,-5.23 -47.44,5.45 0,0 -3.23,1.92 -25.67,21 0,0 -13.35,-5.44 -22.55,-4.66 -11.36,1 -19.13,11.63 -22.55,16.33 -6.87,9.43 -11,24.91 -13.14,43.69 -8.8,75.81 13.92,205.17 13.92,205.17 3.2,18.23 7.84,43.11 3.11,75.43 -4.46,30.44 -12.29,33.76 -10.11,48.22 6.57,43.5 88.27,85.17 155.54,67.66 32.07,-8.35 52.72,-28 60.65,-35.78 9.12,-8.89 40.79,-39.79 42,-82.43 0.69,-24.43 -9.28,-28.9 -18.66,-70.78 z m -215,-156.28 c 5.18,-11.31 19,-11.22 26,-28 5.95,-14.25 2.27,-29.14 4.67,-29.55 1.42,-0.25 2.22,7 7,13.22 6.37,8.26 15.43,9 29.54,12.44 0,0 35.24,8.64 58.3,29.59 z m 22.15,95.2 v 0 a 37.35,37.35 0 0 1 -3.73,-3.47 l -0.68,-0.75 c -0.23,-0.25 -0.45,-0.51 -0.67,-0.77 l -0.64,-0.78 -0.54,-0.7 c -0.24,-0.31 -0.47,-0.62 -0.68,-0.93 -0.21,-0.31 -0.4,-0.56 -0.59,-0.84 -0.19,-0.28 -0.38,-0.57 -0.56,-0.86 -0.37,-0.58 -0.73,-1.18 -1.08,-1.79 -0.35,-0.61 -0.69,-1.23 -1,-1.87 l -0.48,-1 c -0.29,-0.6 -0.57,-1.22 -0.85,-1.85 l -0.06,-0.15 c -0.29,-0.66 -0.57,-1.35 -0.84,-2 -0.27,-0.65 -0.54,-1.46 -0.8,-2.22 -0.26,-0.76 -0.5,-1.5 -0.74,-2.27 l -0.06,-0.19 c -0.21,-0.71 -0.42,-1.44 -0.62,-2.18 q -0.83,-3 -1.5,-6.34 c -0.55,-2.67 -1,-5.48 -1.47,-8.46 -0.14,-0.92 -0.27,-1.86 -0.39,-2.81 -0.09,-0.64 -0.17,-1.29 -0.25,-1.94 -0.12,-0.93 -0.23,-1.88 -0.34,-2.84 -0.07,-0.65 -0.15,-1.31 -0.22,-2 -0.09,-0.92 -0.19,-1.85 -0.28,-2.79 q -0.53,-5.34 -1,-11.27 c -0.12,-1.61 -0.24,-3.25 -0.36,-4.93 l -0.06,-0.89 c -0.05,-0.66 -0.1,-1.33 -0.14,-2 l -0.15,-2.13 c -0.07,-1.16 -0.15,-2.35 -0.23,-3.55 -0.23,-3.69 -0.47,-7.52 -0.72,-11.52 -0.11,-1.85 -0.23,-3.64 -0.33,-5.37 0,-0.58 -0.07,-1.15 -0.11,-1.72 0,0 0,0 0,0 5.18,-11.31 19,-11.22 26,-28 5.95,-14.25 2.27,-29.14 4.67,-29.55 1.42,-0.25 2.22,7 7,13.22 6.37,8.26 15.43,9 29.54,12.44 0,0 35.24,8.64 58.3,29.59 4.73,-1.58 9.86,-2 13.61,0.74 6.44,4.63 5.24,15.72 4.66,21 -0.42,3.92 -1,8.84 -4.66,13.22 -3.66,4.38 -8.7,5.79 -13.22,7 a 56.22,56.22 0 0 1 -11.18,2.15 c -1.19,3 -2.4,5.86 -3.6,8.73 -9.87,23.74 -18.06,43.4 -38.88,51.34 -0.53,0.2 -1.06,0.39 -1.6,0.57 l -1.63,0.53 -1.31,0.38 -0.71,0.19 -1.35,0.33 z m 0,0 v 0 a 385.75,385.75 0 0 1 -2.35,48.64 c -2.63,22.15 -6.89,38.45 -8.33,49.67 -1.1,8.48 -0.58,14.06 3.48,17.07 l 0.18,0.14 c 6.56,4.63 19,0.83 31.88,-3.11 4.65,-1.42 10.29,-3.56 14.76,-5.34 4.47,-1.78 7.8,-3.22 7.8,-3.22 0,0 -2.59,-63.08 -3.91,-95.2 z m 0,0 v 0 a 37.35,37.35 0 0 1 -3.73,-3.47 l -0.68,-0.75 c -0.23,-0.25 -0.45,-0.51 -0.67,-0.77 l -0.64,-0.78 -0.54,-0.7 c -0.24,-0.31 -0.47,-0.62 -0.68,-0.93 -0.21,-0.31 -0.4,-0.56 -0.59,-0.84 -0.19,-0.28 -0.38,-0.57 -0.56,-0.86 -0.37,-0.58 -0.73,-1.18 -1.08,-1.79 -0.35,-0.61 -0.69,-1.23 -1,-1.87 l -0.48,-1 c -0.29,-0.6 -0.57,-1.22 -0.85,-1.85 l -0.06,-0.15 c -0.29,-0.66 -0.57,-1.35 -0.84,-2 -0.27,-0.65 -0.54,-1.46 -0.8,-2.22 -0.26,-0.76 -0.5,-1.5 -0.74,-2.27 l -0.06,-0.19 c -0.21,-0.71 -0.42,-1.44 -0.62,-2.18 q -0.83,-3 -1.5,-6.34 c -0.55,-2.67 -1,-5.48 -1.47,-8.46 -0.14,-0.92 -0.27,-1.86 -0.39,-2.81 -0.09,-0.64 -0.17,-1.29 -0.25,-1.94 -0.12,-0.93 -0.23,-1.88 -0.34,-2.84 -0.07,-0.65 -0.15,-1.31 -0.22,-2 -0.09,-0.92 -0.19,-1.85 -0.28,-2.79 q -0.53,-5.34 -1,-11.27 c -0.12,-1.61 -0.24,-3.25 -0.36,-4.93 l -0.06,-0.89 c -0.05,-0.66 -0.1,-1.33 -0.14,-2 l -0.15,-2.13 c -0.07,-1.16 -0.15,-2.35 -0.23,-3.55 -0.23,-3.69 -0.47,-7.52 -0.72,-11.52 -0.11,-1.85 -0.23,-3.64 -0.33,-5.37 0,-0.58 -0.07,-1.15 -0.11,-1.72 0,0 0,0 0,0 5.18,-11.31 19,-11.22 26,-28 5.95,-14.25 2.27,-29.14 4.67,-29.55 1.42,-0.25 2.22,7 7,13.22 6.37,8.26 15.43,9 29.54,12.44 0,0 35.24,8.64 58.3,29.59 4.73,-1.58 9.86,-2 13.61,0.74 6.44,4.63 5.24,15.72 4.66,21 -0.42,3.92 -1,8.84 -4.66,13.22 -3.66,4.38 -8.7,5.79 -13.22,7 a 56.22,56.22 0 0 1 -11.18,2.15 c -1.19,3 -2.4,5.86 -3.6,8.73 -9.87,23.74 -18.06,43.4 -38.88,51.34 -0.53,0.2 -1.06,0.39 -1.6,0.57 l -1.63,0.53 -1.31,0.38 -0.71,0.19 -1.35,0.33 z"
           transform="translate(-701.01,-425.93)"
           id="path9632" />
        <path
           class="cls-13"
           d="m 7451.48,3183.2 c -1.21,42.64 -32.88,73.54 -42,82.43 -7.93,7.75 -28.58,27.43 -60.65,35.78 -67.27,17.51 -149,-24.16 -155.54,-67.66 -2.18,-14.46 5.65,-17.78 10.11,-48.22 4.73,-32.32 0.09,-57.2 -3.11,-75.43 0,0 -22.72,-129.36 -13.92,-205.17 10.21,46.74 20.55,109.58 33.89,190.71 3.2,19.42 5.94,37.55 9,54 q 1.65,8.87 3.48,17.07 c 8,35.52 19.29,61.34 43.93,72.91 32.47,15.24 84.64,4.12 109.42,-28.73 16,-21.17 16.79,-46.35 17.06,-54.95 0.91,-28.11 -9.7,-41.41 -15.56,-64.21 -11,-42.61 9.47,-60.68 15.56,-110.92 6.53,-53.74 -10.51,-85.21 -19,-110.94 31.12,42.32 35.14,95.17 40.84,170.22 2.27,29.91 1.51,44.36 7.78,72.32 9.43,41.9 19.4,46.37 18.71,70.79 z"
           transform="translate(-701.01,-425.93)"
           id="path9634" />
        <path
           class="cls-12"
           d="m 7287.39,3155.2 c 0,0 -3.32,1.43 -7.79,3.22 -3,1.2 -6.55,2.56 -10,3.75 -1.66,0.58 -3.29,1.12 -4.81,1.59 -12.88,3.94 -25.33,7.74 -31.89,3.11 -9.73,-6.88 0,-27.75 4.67,-66.88 a 344.85,344.85 0 0 0 2.29,-35.88 c 0.38,-25.09 -1.43,-39 6.26,-41.89 11.66,-4.46 36.55,19.44 36.55,19.44 z"
           transform="translate(-701.01,-425.93)"
           id="path9636" />
        <path
           class="cls-13"
           d="m 7287.39,3155.2 c 0,0 -3.32,1.43 -7.79,3.22 -3,1.2 -6.55,2.56 -10,3.75 -0.69,-16.18 1.72,-40.83 4.13,-65.56 0.5,-5.13 1.67,-16.14 -4.87,-22.38 -5.55,-5.3 -12,-2.73 -22.38,-6.81 a 42.61,42.61 0 0 1 -6.62,-3.31 c 0.38,-25.09 -1.43,-39 6.26,-41.89 11.66,-4.46 36.55,19.44 36.55,19.44 z"
           transform="translate(-701.01,-425.93)"
           id="path9638" />
        <path
           class="cls-12"
           d="m 7361.62,2975.56 c -0.42,3.92 -1,8.84 -4.66,13.22 -3.66,4.38 -8.7,5.79 -13.22,7 a 56.22,56.22 0 0 1 -11.18,2.15 c -1.19,3 -2.4,5.86 -3.6,8.73 -9.87,23.74 -18.06,43.4 -38.88,51.34 -0.53,0.2 -1.06,0.39 -1.6,0.57 l -1.63,0.53 -1.31,0.38 -0.71,0.19 -1.35,0.33 c -13.12,3.06 -28.75,1.55 -40.84,-6.67 -0.93,-0.63 -1.81,-1.29 -2.66,-2 v 0 a 37.35,37.35 0 0 1 -3.73,-3.47 l -0.68,-0.75 c -0.23,-0.25 -0.45,-0.51 -0.67,-0.77 l -0.64,-0.78 -0.54,-0.7 c -0.24,-0.31 -0.47,-0.62 -0.68,-0.93 -0.21,-0.31 -0.4,-0.56 -0.59,-0.84 -0.19,-0.28 -0.38,-0.57 -0.56,-0.86 -0.37,-0.58 -0.73,-1.18 -1.08,-1.79 -0.35,-0.61 -0.69,-1.23 -1,-1.87 l -0.48,-1 c -0.3,-0.6 -0.58,-1.22 -0.85,-1.85 l -0.06,-0.15 q -0.43,-1 -0.84,-2 c -0.28,-0.72 -0.54,-1.46 -0.8,-2.22 -0.26,-0.76 -0.5,-1.5 -0.74,-2.27 l -0.06,-0.19 c -0.21,-0.71 -0.42,-1.44 -0.62,-2.18 q -0.83,-3 -1.5,-6.34 c -0.55,-2.67 -1,-5.48 -1.47,-8.46 -0.14,-0.92 -0.27,-1.86 -0.39,-2.81 -0.09,-0.64 -0.17,-1.29 -0.25,-1.94 -0.12,-0.93 -0.23,-1.88 -0.34,-2.84 -0.07,-0.65 -0.15,-1.31 -0.22,-2 -0.09,-0.92 -0.19,-1.85 -0.28,-2.79 q -0.53,-5.34 -1,-11.27 c -0.12,-1.61 -0.24,-3.25 -0.36,-4.93 l -0.06,-0.89 c -0.05,-0.66 -0.1,-1.33 -0.14,-2 l -0.15,-2.13 c -0.07,-1.16 -0.15,-2.35 -0.23,-3.55 -0.23,-3.69 -0.47,-7.52 -0.72,-11.52 -0.11,-1.85 -0.23,-3.64 -0.33,-5.37 0,-0.59 -0.07,-1.17 -0.1,-1.74 5.18,-11.31 19,-11.22 26,-28 5.95,-14.25 2.27,-29.14 4.67,-29.55 1.42,-0.25 2.22,7 7,13.22 6.37,8.26 15.43,9 29.54,12.44 0,0 35.24,8.64 58.3,29.59 4.73,-1.58 9.86,-2 13.61,0.74 6.46,4.62 5.26,15.71 4.68,20.99 z"
           transform="translate(-701.01,-425.93)"
           id="path9640" />
        <path
           class="cls-33"
           d="m 7332.55,2997.93 a 55.48,55.48 0 0 0 11.19,-2.15 c 4.52,-1.2 9.42,-2.51 13.22,-7 3.8,-4.49 4.24,-9.29 4.66,-13.22 0.58,-5.28 1.78,-16.36 -4.66,-21 -3.76,-2.7 -8.88,-2.33 -13.61,-0.75 a 71.46,71.46 0 0 0 -4.28,-25.69 c -2.08,-5.75 -11,-30.34 -35.77,-41.22 -28.3,-12.42 -64.88,-2.62 -80.11,20.22 -7.55,11.33 -6.78,26.42 -4.94,56.13 3.18,51.15 4.77,76.72 24.39,90.07 14.19,9.66 33.28,10.06 47.44,4.67 20.82,-7.93 29,-27.59 38.88,-51.33 1.2,-2.86 2.41,-5.78 3.59,-8.73 z"
           transform="translate(-701.01,-425.93)"
           id="path9642" />
        <path
           class="cls-21"
           d="m 7345.14,3156.44 c -0.64,4.58 -1,6.87 -2.28,9.25 -6.18,11.17 -26.66,16.45 -49.2,14.76 -24.12,-1.82 -50.6,-11.63 -64.37,-30.79 -11,-15.24 -15.17,-38.18 -7.47,-44.44 4.75,-3.86 10.16,1.74 28.93,4.69 21.94,3.44 44.17,0.44 57.08,-1.3 5.83,-0.79 9.44,-1.48 12,-1.86 3.31,-0.48 5,-0.44 7.42,0.56 14.35,5.87 20.55,30.18 17.89,49.13 z"
           transform="translate(-701.01,-425.93)"
           id="path9644" />
        <path
           class="cls-13"
           d="m 7345.14,3156.44 c -0.64,4.58 -1,6.87 -2.28,9.25 -6.18,11.17 -26.66,16.45 -49.2,14.76 -28.45,-8.48 -49.85,-32.82 -46.8,-42 2.76,-8.3 27.7,-10.87 44.54,-9.08 15.75,1.67 26.45,7.38 32,1.73 4.6,-4.69 2.15,-13.61 1.73,-15.14 a 21.66,21.66 0 0 0 -5.26,-9.21 c 3.31,-0.48 5,-0.44 7.42,0.56 14.31,5.87 20.51,30.18 17.85,49.13 z"
           transform="translate(-701.01,-425.93)"
           id="path9646" />
        <path
           class="cls-12"
           d="m 7175.93,4077.15 a 79.88,79.88 0 0 1 -1.56,14.76 v 0 c -0.79,4.08 -1.59,6.79 -1.59,6.8 L 7159,4098 l -15.52,-0.84 -29.31,-1.59 c 0,0 -0.47,-2.59 -0.8,-6.43 v 0 a 76.42,76.42 0 0 1 0,-14.54 c 0.56,-5.21 1.89,-10.36 4.64,-14.08 8.41,-11.4 32.92,-13.18 46.78,-5.7 a 20.42,20.42 0 0 1 7.37,6.34 24,24 0 0 1 3.52,10.77 45.86,45.86 0 0 1 0.25,5.22 z"
           transform="translate(-701.01,-425.93)"
           id="path9648" />
        <path
           class="cls-13"
           d="m 7175.93,4077.15 a 79.88,79.88 0 0 1 -1.56,14.76 v 0 c -0.79,4.08 -1.59,6.79 -1.59,6.8 -2.69,1.36 -6.67,2.9 -9.28,1.21 -6.5,-4.21 4.68,-22.55 -2.26,-33 -9.14,-13.83 -42.63,-3.18 -43.25,-6.4 -0.62,-3.22 33.31,-13 46.78,-5.7 a 20.42,20.42 0 0 1 7.37,6.34 24,24 0 0 1 3.52,10.77 45.86,45.86 0 0 1 0.27,5.22 z"
           transform="translate(-701.01,-425.93)"
           id="path9650" />
        <path
           class="cls-22"
           d="m 7261.33,4119.1 c -0.15,5.62 -3.18,11.48 -6.17,15.94 a 60.46,60.46 0 0 1 -5.94,7.52 h -147.17 a 157.06,157.06 0 0 1 -3.19,-22.19 c -1,-17.42 3,-26.58 5.08,-30.55 v 0 a 35.61,35.61 0 0 1 9.38,-0.69 v 0 c 6.39,0.39 10.22,2.42 14.18,3.88 13,4.77 25.94,2.81 31.86,1.91 2.75,-0.42 6.49,-1.17 9.55,-1.81 3.06,-0.64 5.42,-1.17 5.42,-1.17 v 0 c 0.5,0 19,-1.24 36,-0.84 19.75,0.46 29.79,0.81 37.59,6.37 1.6,1.09 13.72,9.97 13.41,21.63 z"
           transform="translate(-701.01,-425.93)"
           id="path9652" />
        <path
           class="cls-15"
           d="m 7317.41,4094.26 v 0 c 1.95,3.63 5.6,12 4.65,28 a 143.1,143.1 0 0 1 -2.92,20.31 h -134.71 c 0,0 -10.81,-11.19 -11.08,-21.47 -0.29,-10.68 10.81,-18.81 12.25,-19.83 7.14,-5.1 16.32,-5.41 34.41,-5.84 15.8,-0.37 32.95,0.78 32.95,0.78 v 0 c 0,0 8.67,2 13.71,2.72 5.42,0.82 17.27,2.62 29.16,-1.75 3.63,-1.33 7.14,-3.19 13,-3.55 a 32.14,32.14 0 0 1 8.58,0.63 z"
           transform="translate(-701.01,-425.93)"
           id="path9654" />
        <path
           class="cls-13"
           d="m 7317.41,4094.26 v 0 c 1.95,3.63 5.6,12 4.65,28 a 143.1,143.1 0 0 1 -2.92,20.31 h -134.71 c 0,0 -10.81,-11.19 -11.08,-21.47 -0.29,-10.68 10.81,-18.81 12.25,-19.83 7.14,-5.1 16.32,-5.41 34.41,-5.84 15.8,-0.37 32.95,0.78 32.95,0.78 v 0 c 0,0 8.67,2 13.71,2.72 5.42,0.82 17.27,2.62 29.16,-1.75 3.63,-1.33 7.14,-3.19 13,-3.55 a 32.14,32.14 0 0 1 8.58,0.63 z"
           transform="translate(-701.01,-425.93)"
           id="path9656" />
        <path
           class="cls-12"
           d="m 7304.58,4067.43 c 7.51,10.17 3.5,32.08 3.5,32.08 v 0 l -53.66,2.91 v 0 c 0,0 -6.88,-23.37 0.58,-34.41 8.75,-12.93 40.16,-13.34 49.58,-0.58 z"
           transform="translate(-701.01,-425.93)"
           id="path9658" />
        <path
           class="cls-13"
           d="m 7304.58,4067.43 c 7.51,10.17 3.5,32.08 3.5,32.08 v 0 l -53.66,2.91 v 0 c 0,0 -6.88,-23.37 0.58,-34.41 8.75,-12.93 40.16,-13.34 49.58,-0.58 z"
           transform="translate(-701.01,-425.93)"
           id="path9660" />
        <path
           class="cls-32"
           d="m 7216,3469.58 c -30.58,30.05 -28.43,79.5 -27.44,102.83 10.74,251.36 5.51,217.28 9.94,249.49 17.9,130.12 44.33,257.83 44.33,257.83 h 72.33 c 0,0 15.68,-85.1 23.82,-132.32 16.69,-96.84 25,-145.26 27.52,-190.84 0,0 5,-92.4 -35,-243.82 -3.67,-13.89 -13.36,-48 -40.65,-62.36 a 51.83,51.83 0 0 0 -15.35,-5.31 c -29.56,-4.91 -54.76,19.85 -59.5,24.5 z"
           transform="translate(-701.01,-425.93)"
           id="path9662" />
        <path
           class="cls-13"
           d="m 7216,3469.58 c -30.58,30.05 -28.43,79.5 -27.44,102.83 10.74,251.36 5.51,217.28 9.94,249.49 17.9,130.12 44.33,257.83 44.33,257.83 h 72.33 c 0,0 15.68,-85.1 23.82,-132.32 16.69,-96.84 25,-145.26 27.52,-190.84 0,0 5,-92.4 -35,-243.82 -3.67,-13.89 -13.36,-48 -40.65,-62.36 a 51.83,51.83 0 0 0 -15.35,-5.31 c -29.56,-4.91 -54.76,19.85 -59.5,24.5 z"
           transform="translate(-701.01,-425.93)"
           id="path9664" />
        <path
           class="cls-12"
           d="m 7339.66,4093.62 c -0.32,3.52 -0.75,5.88 -0.75,5.88 l -7.42,0.4 -46.24,2.52 c 0,0 -0.73,-2.5 -1.46,-6.23 a 72.77,72.77 0 0 1 -1.43,-13.53 c 0,-1 0,-2 0.1,-2.93 0.27,-4.36 1.23,-8.55 3.37,-11.72 7.73,-11.43 33.15,-13.08 45.46,-4.51 a 17.53,17.53 0 0 1 4.12,3.92 c 2.41,3.26 3.63,7.74 4.18,12.31 a 68.74,68.74 0 0 1 0.07,13.89 z"
           transform="translate(-701.01,-425.93)"
           id="path9666" />
        <path
           class="cls-32"
           d="m 7369.82,3947.4 c -10.63,60.49 -22.84,127 -22.84,127 l -0.12,0.62 -0.3,1.64 c -0.1,0.55 -0.2,1.11 -0.31,1.66 0,0.2 -0.07,0.4 -0.11,0.6 l -0.12,0.69 c 0,0 0,0.06 0,0.09 h -72.33 c 0,0 -26.43,-127.71 -44.33,-257.83 -3.69,-26.84 -0.68,-7.66 -5.78,-146 -1,-27.67 -2.37,-61.64 -4.16,-103.54 -0.82,-19.4 -2.45,-56.89 14.64,-86.25 a 78.26,78.26 0 0 1 12.8,-16.57 c 4.73,-4.66 29.93,-29.41 59.5,-24.5 a 52.06,52.06 0 0 1 15.35,5.3 46.21,46.21 0 0 1 13.13,10.26 c 5.72,6.31 10.64,14.5 18.3,25.66 12,17.5 18.9,25 22.15,29.75 56.01,81.47 -5.47,431.42 -5.47,431.42 z"
           transform="translate(-701.01,-425.93)"
           id="path9668" />
        <path
           class="cls-15"
           d="m 7352.91,4122.25 a 143.1,143.1 0 0 1 -2.92,20.31 h -134.73 a 55.32,55.32 0 0 1 -5.34,-6.74 0.71,0.71 0 0 1 -0.1,-0.14 c -2.74,-4.08 -5.5,-9.46 -5.64,-14.6 -0.29,-10.67 10.81,-18.8 12.25,-19.83 7.14,-5.09 16.33,-5.41 34.41,-5.83 15.8,-0.37 32.95,0.77 32.95,0.77 0,0 2.17,0.49 5,1.08 2.83,0.59 6.22,1.27 8.74,1.65 5.42,0.82 17.27,2.62 29.16,-1.75 1.58,-0.58 3.14,-1.26 4.87,-1.87 a 29,29 0 0 1 8.13,-1.68 32.64,32.64 0 0 1 8.58,0.63 v 0 c 1.94,3.66 5.59,12.05 4.64,28 z"
           transform="translate(-701.01,-425.93)"
           id="path9670" />
        <path
           class="cls-13"
           d="m 7346,4079.73 h -6.41 a 68.74,68.74 0 0 1 0.07,13.89 32.64,32.64 0 0 1 8.58,0.63 v 0 c 1.95,3.63 5.6,12 4.65,28 a 143.1,143.1 0 0 1 -2.92,20.31 h -134.71 a 55.32,55.32 0 0 1 -5.34,-6.74 c 21.21,-5.07 115.41,7.82 120,-9.26 0.89,-3.35 1.52,-19.71 1.6,-26.66 0,-0.45 0,-2.28 0,-4.6 0,-5.84 0,-11 0,-15.57 0,-6.19 -0.14,-11.44 -0.23,-16.23 -0.18,-9.91 -0.36,-17.84 -0.11,-28 2.26,-92.17 36.21,-222.16 38.92,-385.3 1.19,-71.08 -4.25,-107.27 -15.57,-142.05 a 330.11,330.11 0 0 0 -19.71,-47.54 c 5.72,6.31 10.64,14.5 18.3,25.66 12,17.5 18.9,25 22.15,29.75 56,81.4 -5.45,431.35 -5.45,431.35 -10.63,60.49 -22.84,127 -22.84,127 l -0.12,0.62 -0.3,1.64 c -0.1,0.55 -0.2,1.11 -0.31,1.66 0,0.2 -0.07,0.4 -0.11,0.6 l -0.12,0.69 c 0,0 -0.02,0.12 -0.02,0.15 z"
           transform="translate(-701.01,-425.93)"
           id="path9672" />
        <path
           class="cls-12"
           d="m 7144.83,4077.15 a 79.88,79.88 0 0 1 -1.56,14.76 v 0 c -0.79,4.08 -1.59,6.79 -1.59,6.8 l -13.79,-0.75 -15.52,-0.84 -29.31,-1.59 c 0,0 -0.47,-2.59 -0.8,-6.43 v 0 a 76.42,76.42 0 0 1 0,-14.54 c 0.56,-5.21 1.89,-10.36 4.64,-14.08 8.41,-11.4 32.92,-13.18 46.78,-5.7 a 20.42,20.42 0 0 1 7.37,6.34 24,24 0 0 1 3.52,10.77 45.86,45.86 0 0 1 0.26,5.26 z"
           transform="translate(-701.01,-425.93)"
           id="path9674" />
        <path
           class="cls-22"
           d="m 7230.23,4119.1 c -0.15,5.62 -3.18,11.48 -6.17,15.94 a 60.46,60.46 0 0 1 -5.94,7.52 H 7071 a 157.06,157.06 0 0 1 -3.19,-22.19 c -1,-17.42 2.95,-26.58 5.08,-30.55 v 0 a 35.61,35.61 0 0 1 9.38,-0.69 v 0 c 6.39,0.39 10.22,2.42 14.18,3.88 13,4.77 25.94,2.81 31.86,1.91 2.75,-0.42 6.49,-1.17 9.55,-1.81 3.06,-0.64 5.42,-1.17 5.42,-1.17 v 0 c 0.5,0 19,-1.24 36,-0.84 19.75,0.46 29.79,0.81 37.59,6.37 1.55,1.09 13.67,9.97 13.36,21.63 z"
           transform="translate(-701.01,-425.93)"
           id="path9676" />
        <path
           class="cls-15"
           d="m 7188.62,3583.71 a 33.09,33.09 0 0 1 12.72,4.87 c 21.85,14.56 18.66,54 17.5,68.83 -8.6,110.22 -25.67,414.15 -25.67,414.15 h -52.5 c 0,0 -21.39,-93.22 -36.16,-185.49 -3.58,-22.34 -8.61,-71.28 -18.67,-169.16 -10.15,-98.76 -12.4,-129.7 6.35,-141.76 13,-8.36 40.81,-2.72 96.43,8.56 z"
           transform="translate(-701.01,-425.93)"
           id="path9678" />
        <path
           class="cls-15"
           d="m 7176.84,3881.4 c -2.1,24.72 -6.91,81.23 -15.33,133.62 -0.61,3.78 -2.9,17.91 -5,31.1 l -4.13,25.44 -7.79,0.33 -13.26,0.57 -49.05,2.1 -11.56,0.5 c -0.1,-0.4 -33,-108 -50.17,-212.33 -17.79,-108 -19.3,-215.64 -19.3,-249.19 0,-6.89 0.06,-10.65 0.06,-10.66 0,-0.01 7.3,-26.85 20.15,-37.84 8.76,-7.49 22.35,-9.51 116.93,15 l 5.17,1.35 c 16.89,4.41 25.34,6.62 26.32,7.2 31.19,18.58 26.06,68.64 6.96,292.81 z"
           transform="translate(-701.01,-425.93)"
           id="path9680" />
        <path
           class="cls-13"
           d="m 7230.23,4119.1 c -0.15,5.62 -3.18,11.48 -6.17,15.94 a 60.46,60.46 0 0 1 -5.94,7.52 h -26.35 c 2.29,-11.28 10.26,-23 3.2,-32.11 a 89.92,89.92 0 0 0 -66.68,-15.56 v 0 c 0,0 1.6,-12 3,-22.43 q 1.22,-9.09 2.37,-17.68 c 24.86,-185.65 27.25,-202.17 27.25,-202.17 0,0 12.61,-87.2 4.87,-161.51 -1.81,-17.35 -5.19,-32.2 -16.54,-42.81 -13.53,-12.66 -28.72,-10.28 -35,-22.38 -6.54,-12.53 1.43,-30.93 6.81,-37 3.66,-4.12 9.58,-7.1 17.33,-8.92 l 5.17,1.35 c 16.89,4.41 25.34,6.62 26.32,7.2 31.23,18.6 26.1,68.66 7,292.83 -2.1,24.72 -6.91,81.23 -15.33,133.62 -0.61,3.78 -2.9,17.91 -5,31.1 l -4.13,25.44 -7.79,0.33 a 45.86,45.86 0 0 1 0.28,5.26 79.88,79.88 0 0 1 -1.56,14.76 c 0.5,0 19,-1.24 36,-0.84 19.75,0.46 29.79,0.81 37.59,6.37 1.49,1.15 13.61,10.03 13.3,21.69 z"
           transform="translate(-701.01,-425.93)"
           id="path9682" />
        <path
           class="cls-16"
           d="M 7375.26,3516.05"
           transform="translate(-701.01,-425.93)"
           id="path9684" />
        <path
           class="cls-21"
           d="m 7388,3309.75 c -3.41,46.47 -12.37,85.42 -17.5,107.33 -5.57,23.83 -17.38,69.18 -17.38,69.22 a 898.53,898.53 0 0 1 -102.78,-1.56 c -11.86,-0.93 -21.17,-1.65 -28.35,-2.48 -9.51,-1.09 -15.29,-2.37 -18.32,-4.52 v 0 l -0.21,-0.16 c -2.81,-3.83 -14.92,-76.06 -9.11,-153.83 3.41,-45.6 5.26,-73.58 7.93,-92.49 3.12,-22.09 7.37,-31.82 16.57,-42.84 2,-2.4 42,-48.8 95.67,-39.67 34.78,5.92 54.94,31.69 58.33,36.17 a 82.31,82.31 0 0 1 14.84,31.8 c 5.44,23.18 3.31,51.84 0.31,93.03 z"
           transform="translate(-701.01,-425.93)"
           id="path9686" />
        <path
           class="cls-13"
           d="m 7388,3309.75 c -3.41,46.47 -12.37,85.42 -17.5,107.33 -5.57,23.83 -17.38,69.18 -17.38,69.22 a 898.53,898.53 0 0 1 -102.78,-1.56 c -11.86,-0.93 -21.17,-1.65 -28.35,-2.48 -9.51,-1.09 -15.29,-2.37 -18.32,-4.52 -8.21,-5.83 -12.67,-14.14 -14.57,-28.45 4,-48.07 9.7,-96.8 16.57,-96.78 3.21,0 10.7,10.7 10.7,10.7 v 0 c -3.47,72.5 6.81,82.7 6.81,82.7 8,8 22.22,8.56 50.6,9.73 31.87,1.31 49.88,2.05 64.67,-8.22 19.82,-13.77 21.77,-40.23 25.81,-58.92 13.35,-61.75 20.13,-128.27 23.42,-171.78 5.45,23.18 3.32,51.84 0.32,93.03 z"
           transform="translate(-701.01,-425.93)"
           id="path9688" />
        <path
           class="cls-13"
           d="m 7330.21,3263 c -48.29,25.87 -80.39,7.34 -101.06,29.68 a 16.22,16.22 0 0 0 -1.95,2.48 c -15,24.34 0.72,49.56 -8.88,56.38 -6.25,4.44 -20.77,-1.63 -25,-10.65 -3.26,-7 0.09,-14.85 1,-17.13 5.15,-12.95 8.61,-39.3 2.57,-97.08 a 62.94,62.94 0 0 0 26.64,10.61 62.26,62.26 0 0 0 12.28,0.41 c 9.52,-0.36 53.1,-2.49 103.14,-7.78 9.14,-1 23.83,-2.6 25.79,2.31 2.57,6.4 -17.42,21.59 -34.53,30.77 z"
           transform="translate(-701.01,-425.93)"
           id="path9690" />
        <path
           class="cls-5"
           d="m 7224.4,3622.59 a 304.37,304.37 0 0 1 -109.66,11.66 c -55.65,-4.36 -96.74,-23.3 -113.34,-31.31 l -0.13,-0.06 q -0.23,-3.95 -0.45,-7.75 c -7.78,-133.45 -8.17,-138.19 -8.17,-138.19 0,0 -16,-197.71 0.84,-277 1.13,-5.3 3.67,-14.92 11.6,-22.41 9,-8.53 21.9,-11.37 38.89,-10.89 33,0.93 102.39,2.88 136.87,54.44 17.34,25.92 20,55.65 24.11,101.87 0.13,1.42 0.24,2.81 0.34,4.17 1.3,16.53 1.23,28.84 1.21,33.94 -0.36,115.86 17.88,281.52 17.89,281.53 z"
           transform="translate(-701.01,-425.93)"
           id="path9692" />
        <path
           class="cls-13"
           d="m 7224.4,3622.59 a 304.37,304.37 0 0 1 -109.66,11.66 c -55.65,-4.36 -96.74,-23.3 -113.34,-31.31 l -0.13,-0.06 q -0.23,-3.95 -0.45,-7.75 c 29.79,5.69 71.78,12.26 104.63,10.35 20.15,-1.18 64.66,-3.76 83.12,-33.08 4.62,-7.32 6.68,-14.83 4.86,-62.51 -2.34,-61.54 -3.76,-92.64 -16,-108.74 -15.92,-21 -27.4,-11.13 -66.16,-35 -60.73,-37.45 -98,-102 -98,-102 a 171.89,171.89 0 0 0 64.89,4.73 c 63.52,-7.67 103.09,-49.5 114.81,-62.92 5.89,27.7 12.78,70.16 13.44,125.61 0.06,4.76 0.05,7.88 0.05,9.55 -0.31,115.8 17.93,281.46 17.94,281.47 z"
           transform="translate(-701.01,-425.93)"
           id="path9694" />
        <path
           class="cls-5"
           d="m 7366.71,3360.51 c -12.72,1.48 -105.91,30 -198,6.09 l -0.88,-0.23 c -46.41,-12.24 -77.15,-33.8 -93.56,-45.63 -27.58,-19.89 -67.81,-48.91 -79.05,-96.65 -2.31,-9.83 -7.44,-33 2.33,-58.32 2.58,-6.68 5.16,-13.36 9.28,-18.95 a 31.72,31.72 0 0 1 7.48,-7.41 c 26.75,-18.71 83.14,6.25 116.2,42.69 22.16,24.42 13.78,31.91 37.32,60.65 a 192.39,192.39 0 0 0 17.53,18.62 c 16,15 41.71,34.3 75.77,44.36 0,0 3,0.89 16.48,2.5 13.48,1.61 37.38,3.95 79.16,6.83 q 3.52,16.21 7.07,32.42 1.46,6.52 2.87,13.03 z"
           transform="translate(-701.01,-425.93)"
           id="path9696" />
        <path
           class="cls-13"
           d="m 7185.39,3261.37 c -8.63,-3.42 -19.66,-7.93 -33.88,-13.3 -47,-17.74 -44.7,-13.06 -62.92,-22.7 -36.79,-19.47 -56.94,-44.2 -64.22,-53.84 -8.11,-10.76 -14.1,-18.71 -17.51,-24.71 a 31.72,31.72 0 0 1 7.48,-7.41 c 26.75,-18.71 83.14,6.25 116.2,42.69 22.16,24.42 13.78,31.91 37.32,60.65 a 192.39,192.39 0 0 0 17.53,18.62 z"
           transform="translate(-701.01,-425.93)"
           id="path9698" />
        <path
           class="cls-15"
           d="m 7358.39,3465.82 -2,28.16 a 485.12,485.12 0 0 1 -143.92,-6.36 c -0.56,-8 -1.11,-16.25 -1.63,-24.54 a 480.7,480.7 0 0 0 147.56,2.74 z"
           transform="translate(-701.01,-425.93)"
           id="path9700" />
        <path
           class="cls-12"
           d="m 7416.74,3330.18 c -5.68,11.3 -18.18,18.88 -29.27,23.64 a 116.5,116.5 0 0 1 -20.76,6.69 c 0,0 -5.54,-5.72 -6.74,-7 a 44.55,44.55 0 0 1 -3.22,-4 c -4,-5.41 -9.8,-15.43 -6.89,-24.82 1.5,-4.84 4.78,-7.76 6.94,-9.68 9.09,-8.11 16.47,-4.22 23.52,-10 10.2,-8.29 3.76,-23.75 11.08,-26.92 5.9,-2.54 15.78,5 21.6,13.29 q 0.75,1.08 1.41,2.16 c 5.89,9.82 8.4,24.58 2.33,36.64 z"
           transform="translate(-701.01,-425.93)"
           id="path9702" />
        <line
           class="cls-16"
           x1="6400.4399"
           y1="2623.1899"
           x2="6400.4399"
           y2="2623.1799"
           id="line9704" />
        <path
           class="cls-16"
           d="m 7093.25,3025.57 c 0,0.15 0.2,1.94 0.47,4.88 v 0 c -0.34,-3.32 -0.47,-4.82 -0.47,-4.88 z"
           transform="translate(-701.01,-425.93)"
           id="path9706" />
        <path
           class="cls-12"
           d="m 7177,3180.87 c -2.7,2.6 -8.75,1.57 -15.95,-1.29 -15.25,-6.06 -22.51,-12.94 -32.27,-18.93 -7.57,-4.64 -19.42,-9.7 -37.46,-10.19 a 243.65,243.65 0 0 0 7.07,-50.92 c 0.21,-6.92 -0.83,-22.94 -2,-38.3 v 0 c -1,-12.38 -2,-24.34 -2.61,-30.78 a 131.66,131.66 0 0 1 24.45,5.84 c 13.15,4.5 28.13,12.16 35.46,24.81 a 74.27,74.27 0 0 1 7,18.64 v 0 c 4.9,32.69 2.09,43 5.44,61.44 4.62,25.75 15.43,35.25 10.87,39.68 z"
           transform="translate(-701.01,-425.93)"
           id="path9708" />
        <path
           class="cls-13"
           d="m 7093.25,3025.57 c 0,0.15 0.2,1.94 0.47,4.88 v 0 c -0.34,-3.32 -0.47,-4.82 -0.47,-4.88 z"
           transform="translate(-701.01,-425.93)"
           id="path9710" />
        <path
           class="cls-13"
           d="m 7177,3180.87 c -2.7,2.6 -8.75,1.57 -15.95,-1.29 -0.27,-4 -0.56,-8.6 -0.89,-14 -0.85,-13.74 -0.9,-15.15 -1.15,-18.41 -1.15,-14.81 -1.72,-22.22 -3.84,-26.91 -5.08,-11.29 -13.11,-7.78 -29.24,-21.74 -6.8,-5.88 -14.38,-16.36 -29.55,-37.32 v 0 c -1,-12.38 -2,-24.34 -2.61,-30.78 a 131.66,131.66 0 0 1 24.45,5.84 c 13.15,4.5 28.13,12.16 35.46,24.81 a 95.6,95.6 0 0 1 7,18.64 v 0 c 4.9,32.69 2.09,43 5.44,61.44 4.63,25.79 15.44,35.29 10.88,39.72 z"
           transform="translate(-701.01,-425.93)"
           id="path9712" />
        <path
           class="cls-12"
           d="m 7216,2993.34 c -3.4,54.73 -5.1,82.09 -26.1,96.38 q -0.39,0.27 -0.78,0.51 c -15.1,9.84 -35.09,10.15 -50,4.49 -22.28,-8.49 -31,-29.53 -41.61,-54.93 q -1.92,-4.62 -3.85,-9.35 a 60,60 0 0 1 -12,-2.3 c -4.83,-1.29 -10.08,-2.69 -14.14,-7.49 -4.06,-4.8 -4.54,-10 -5,-14.15 -0.62,-5.65 -1.91,-17.51 5,-22.47 4,-2.88 9.5,-2.48 14.56,-0.79 a 76.33,76.33 0 0 1 4.58,-27.5 c 2.23,-6.15 11.75,-32.47 38.28,-44.11 a 69.8,69.8 0 0 1 22.08,-5.53 c 25.11,-2.15 51.12,8.39 63.64,27.17 8.15,12.13 7.34,28.27 5.34,60.07 z"
           transform="translate(-701.01,-425.93)"
           id="path9714" />
        <path
           class="cls-13"
           d="m 7416.74,3330.18 c -5.68,11.3 -18.18,18.88 -29.27,23.64 a 116.5,116.5 0 0 1 -20.76,6.69 c -12.72,1.48 -105.91,30 -198,6.09 a 368.14,368.14 0 0 0 64.17,2.44 c 7.41,-0.34 19.21,-1.84 42.81,-4.86 31.55,-4 59.15,-8.55 81,-14.62 2.45,-0.67 4.82,-1.37 7.12,-2.08 20.53,-6.41 35.17,-14.46 42.14,-25.21 a 50.84,50.84 0 0 0 6.9,-15.5 39.53,39.53 0 0 0 0.09,-15.3 q 0.75,1.08 1.41,2.16 c 5.95,9.73 8.46,24.49 2.39,36.55 z"
           transform="translate(-701.01,-425.93)"
           id="path9716" />
        <path
           class="cls-13"
           d="m 7148.44,2906 c 24.68,-1.67 50,8.83 62.28,27.27 a 36,36 0 0 1 5.33,13.52 c 2.1,10.77 1.29,25.1 0,46.55 -3.4,54.73 -5.1,82.09 -26.1,96.38 q -0.39,0.27 -0.78,0.51 a 61.93,61.93 0 0 0 8,-10.59 c 2.64,-4.39 5.08,-9.55 11.24,-46.27 0,0 3.86,-23 3.38,-64.43 0,-3.23 -0.22,-10.44 -5.11,-15.36 a 17,17 0 0 0 -8,-4.34 c -9.89,-2.65 -34.33,-20.61 -46.25,-35.14 -1.12,-1.36 -2.12,-2.69 -3,-4 z"
           transform="translate(-701.01,-425.93)"
           id="path9718" />
        <path
           class="cls-19"
           d="m 7217.3,2946.08 c -3.35,2.45 -7.9,1.28 -16.23,-0.85 -8.64,-2.21 -12.43,-5.29 -25.18,-14.49 v 0 c -3.16,-2.29 -6.87,-4.94 -11.34,-8.05 -11.7,-8.13 -13.78,-9.07 -15.22,-12.9 -3.32,-8.82 3.8,-14.33 0.48,-24.83 -2.81,-8.88 -9.68,-10.51 -8.6,-15.93 1.32,-6.6 12.48,-9.17 13.23,-9.34 1.79,-0.39 5,-0.87 10.46,0.34 a 51.7,51.7 0 0 1 6.64,2 68.75,68.75 0 0 1 23.34,14.51 c 11.06,10.82 19.68,26.86 23.87,41 -1.85,7.22 -2,16.27 -1.45,28.54 z"
           transform="translate(-701.01,-425.93)"
           id="path9720" />
        <path
           class="cls-13"
           d="m 7217.3,2946.08 c -3.35,2.45 -7.9,1.28 -16.23,-0.85 -8.64,-2.21 -12.43,-5.29 -25.18,-14.49 a 92.15,92.15 0 0 0 19.08,6.63 c 10.47,2.41 13,1.18 14.27,0 8.15,-7.59 -9.11,-37.68 -10.81,-40.65 a 105.38,105.38 0 0 0 -23.35,-29 109.62,109.62 0 0 0 -10.21,-7.73 51.7,51.7 0 0 1 6.64,2 68.75,68.75 0 0 1 23.34,14.51 c 11.06,10.82 19.68,26.86 23.87,41 -1.82,7.26 -1.97,16.31 -1.42,28.58 z"
           transform="translate(-701.01,-425.93)"
           id="path9722" />
        <path
           class="cls-21"
           d="m 7375,3216.29 c -1.85,6.89 -7.69,19.05 -34.5,31.12 -65.3,29.41 -139.33,6.23 -172.61,-4.66 -26.76,-8.76 -75.31,-27.93 -121.29,-70 -24.51,-22.41 -52.71,-48.2 -46.61,-72 2.43,-9.51 8.26,-10.61 79.22,-48.9 5.95,-3.21 11.12,-6 15.7,-8.34 0.46,5.37 1,11.49 1.45,17.72 v 0 c 0.42,5.44 0.82,11 1.15,16.13 0.61,9.43 1,17.7 0.86,22.17 19.4,19.31 37.48,27.63 49.36,31.68 27.81,9.49 50.34,5.34 75,1.71 22.94,-3.39 47.76,-6.33 80.41,2.52 13.23,3.58 28,9.18 42,21 3.67,3.11 37.25,32.21 29.86,59.85 z"
           transform="translate(-701.01,-425.93)"
           id="path9724" />
        <path
           class="cls-19"
           d="m 7150.31,2905.9 c -1.21,5.37 -3.78,13.09 -9.13,24.55 -12.73,27.33 -19.1,41 -32.66,46.67 -9.45,4 -26.33,6.12 -26.38,6.12 -0.48,-0.16 -1,-0.31 -1.45,-0.44 -4.64,-1.3 -9.47,-1.38 -13.11,1.23 a 11.11,11.11 0 0 0 -3.35,3.93 v 0 c -3,5.75 -2.12,14.07 -1.63,18.53 0.45,4.2 1,9.46 5,14.15 4,4.69 9.3,6.2 14.14,7.49 a 60.16,60.16 0 0 0 12,2.3 c 6.74,3.63 13.4,-0.88 15.36,2.36 1.47,2.43 -0.54,7.76 -4.72,13 a 40.61,40.61 0 0 1 -2.87,3.26 42.34,42.34 0 0 1 -6,5.11 33.51,33.51 0 0 1 -7.12,3.78 c -22.12,8.34 -49.71,-12.37 -63,-27.23 -22.33,-25 -23.61,-55.18 -24.11,-66.88 a 125.78,125.78 0 0 1 14.78,-63 c 6.35,-11.85 14.65,-27.32 32.66,-37.33 13.79,-7.66 27,-8.63 36.55,-9.33 a 103.26,103.26 0 0 1 16,0.06 85.16,85.16 0 0 1 22.12,4.61 c 7.12,2.58 12.7,4.68 17.88,10.11 9.4,9.84 9.93,22.68 10.12,27.22 a 34.89,34.89 0 0 1 -1.08,9.73 z"
           transform="translate(-701.01,-425.93)"
           id="path9726" />
        <path
           class="cls-13"
           d="m 7150.31,2905.9 c -1.21,5.37 -3.78,13.09 -9.13,24.55 -12.73,27.33 -19.1,41 -32.66,46.67 -9.45,4 -26.33,6.12 -26.38,6.12 -0.48,-0.16 -1,-0.31 -1.45,-0.44 8.21,-3.25 20.57,-5.49 32.55,-15.59 25.31,-21.36 25.35,-56.73 25.29,-59.36 -0.15,-7.71 -0.48,-24 -11.33,-37.38 -7.9,-9.75 -17.86,-13.67 -26,-16.17 a 85.16,85.16 0 0 1 22.12,4.61 c 7.12,2.58 12.7,4.68 17.88,10.11 9.4,9.84 9.93,22.68 10.12,27.22 a 34.89,34.89 0 0 1 -1.01,9.66 z"
           transform="translate(-701.01,-425.93)"
           id="path9728" />
        <path
           class="cls-13"
           d="m 7104.33,3045.85 c -15.64,1.34 -34.18,-2.49 -42.66,-16.37 -7.88,-12.89 -6.16,-33 2.55,-41.51 -3,5.75 -2.12,14.07 -1.63,18.53 0.45,4.2 1,9.46 5,14.15 4,4.69 9.3,6.2 14.14,7.49 a 60.16,60.16 0 0 0 12,2.3 c 6.74,3.63 13.4,-0.88 15.36,2.36 1.43,2.43 -0.58,7.76 -4.76,13.05 z"
           transform="translate(-701.01,-425.93)"
           id="path9730" />
        <path
           class="cls-13"
           d="m 7222.74,3132.93 a 145.33,145.33 0 0 1 -41.72,7.14 c -22.63,0.26 -50.49,-7 -66.81,-17.19 a 166.05,166.05 0 0 0 -26.27,-13.62 108.92,108.92 0 0 0 -15.53,-5.33 c -15.58,-3.93 -27.26,-2.63 -27.28,-3.43 0,-0.35 2.34,-0.93 19.78,-2.92 13.68,-1.55 17.55,-1.79 21.73,-4.86 4.73,-3.46 5.93,-7.63 8.11,-11.68 a 23,23 0 0 1 2.74,-3.67 c 0.61,9.43 1,17.7 0.86,22.17 19.4,19.31 37.48,27.63 49.36,31.68 27.81,9.49 50.34,5.34 75.03,1.71 z"
           transform="translate(-701.01,-425.93)"
           id="path9732" />
        <path
           class="cls-13"
           d="m 7234.1,3491.34 c 0,4.49 -0.13,10 0.11,16.51 0.17,4.61 2.19,50.32 21.41,93.41 7.54,16.91 13.38,23.67 10.7,34.38 -2.44,9.72 -10.17,15.67 -25.62,27.57 -7,5.38 -12.59,9.68 -17.14,12.73 -1,-27.67 -2.37,-61.64 -4.16,-103.54 -0.78,-18.36 -2.28,-52.92 12.06,-81.46 z"
           transform="translate(-701.01,-425.93)"
           id="path9734" />
        <path
           class="cls-33"
           d="m 7303.09,3503.9 a 84.77,84.77 0 0 1 1.61,11"
           transform="translate(-701.01,-425.93)"
           id="path9736" />
        <path
           class="cls-33"
           d="m 7294.08,3505.63 a 97.43,97.43 0 0 0 2.48,10.76"
           transform="translate(-701.01,-425.93)"
           id="path9738" />
        <path
           class="cls-15"
           d="m 7304.57,3503.47 a 93.82,93.82 0 0 1 1.67,11.42 c 0.13,2 -2.95,2 -3.07,0 a 86.07,86.07 0 0 0 -1.55,-10.59 c -0.37,-1.89 2.57,-2.77 2.95,-0.83 z"
           transform="translate(-701.01,-425.93)"
           id="path9740" />
        <path
           class="cls-15"
           d="m 7292.55,3505.78 a 109.68,109.68 0 0 0 2.56,11.15 c 0.57,1.87 3.45,0.8 2.89,-1.07 a 99.4,99.4 0 0 1 -2.39,-10.38 c -0.37,-1.91 -3.43,-1.62 -3.06,0.3 z"
           transform="translate(-701.01,-425.93)"
           id="path9742" />
        <path
           class="cls-33"
           d="m 7306.36,3526.79 a 51.18,51.18 0 0 1 1.85,8.25"
           transform="translate(-701.01,-425.93)"
           id="path9744" />
        <path
           class="cls-33"
           d="m 7299.08,3528.05 a 54.05,54.05 0 0 0 1,8.35"
           transform="translate(-701.01,-425.93)"
           id="path9746" />
        <path
           class="cls-15"
           d="m 7307.85,3526.39 a 53.92,53.92 0 0 1 1.85,8.26 c 0.32,1.93 -2.65,2.73 -3,0.78 a 53.81,53.81 0 0 0 -1.85,-8.23 c -0.6,-1.87 2.36,-2.67 3,-0.81 z"
           transform="translate(-701.01,-425.93)"
           id="path9748" />
        <path
           class="cls-15"
           d="m 7297.55,3528.17 a 55.77,55.77 0 0 0 1,8.34 c 0.31,1.91 3.38,1.71 3.06,-0.22 a 55.87,55.87 0 0 1 -0.95,-8.36 c -0.09,-1.93 -3.15,-1.7 -3.11,0.24 z"
           transform="translate(-701.01,-425.93)"
           id="path9750" />
        <path
           class="cls-33"
           d="m 7310.22,3544.71 a 83.39,83.39 0 0 1 1.24,11.05"
           transform="translate(-701.01,-425.93)"
           id="path9752" />
        <path
           class="cls-33"
           d="m 7301.16,3546.14 a 100.68,100.68 0 0 0 2.11,10.84"
           transform="translate(-701.01,-425.93)"
           id="path9754" />
        <path
           class="cls-15"
           d="m 7311.71,3544.33 a 92.11,92.11 0 0 1 1.29,11.47 c 0.07,2 -3,1.88 -3.07,-0.08 a 86.42,86.42 0 0 0 -1.19,-10.63 c -0.31,-1.93 2.67,-2.71 2.97,-0.76 z"
           transform="translate(-701.01,-425.93)"
           id="path9756" />
        <path
           class="cls-15"
           d="m 7299.63,3546.24 a 107.33,107.33 0 0 0 2.18,11.22 c 0.51,1.89 3.42,0.92 2.92,-1 a 103.3,103.3 0 0 1 -2,-10.46 c -0.34,-1.88 -3.4,-1.69 -3.1,0.24 z"
           transform="translate(-701.01,-425.93)"
           id="path9758" />
        <path
           class="cls-33"
           d="m 7312.73,3567.7 a 52.46,52.46 0 0 1 1.57,8.31"
           transform="translate(-701.01,-425.93)"
           id="path9760" />
        <path
           class="cls-33"
           d="m 7305.41,3568.72 a 53.19,53.19 0 0 0 0.68,8.37"
           transform="translate(-701.01,-425.93)"
           id="path9762" />
        <path
           class="cls-15"
           d="m 7314.23,3567.35 a 55.6,55.6 0 0 1 1.57,8.31 c 0.25,2 -2.74,2.64 -3,0.69 a 54.23,54.23 0 0 0 -1.57,-8.3 c -0.56,-1.88 2.42,-2.58 3,-0.7 z"
           transform="translate(-701.01,-425.93)"
           id="path9764" />
        <path
           class="cls-15"
           d="m 7303.87,3568.78 a 55.91,55.91 0 0 0 0.68,8.37 c 0.26,1.92 3.32,1.82 3.08,-0.12 a 53.51,53.51 0 0 1 -0.68,-8.38 c 0.05,-1.97 -3.05,-1.81 -3.08,0.13 z"
           transform="translate(-701.01,-425.93)"
           id="path9766" />
        <path
           class="cls-33"
           d="m 7316,3585.74 a 87.24,87.24 0 0 1 0.87,11.08"
           transform="translate(-701.01,-425.93)"
           id="path9768" />
        <path
           class="cls-33"
           d="m 7306.89,3586.86 a 98.65,98.65 0 0 0 1.74,10.91"
           transform="translate(-701.01,-425.93)"
           id="path9770" />
        <path
           class="cls-15"
           d="m 7317.5,3585.4 a 96.64,96.64 0 0 1 0.9,11.51 c 0,2 -3.07,1.78 -3.07,-0.18 a 88.35,88.35 0 0 0 -0.84,-10.66 c -0.24,-1.94 2.76,-2.62 3.01,-0.67 z"
           transform="translate(-701.01,-425.93)"
           id="path9772" />
        <path
           class="cls-15"
           d="m 7305.35,3586.91 a 104.86,104.86 0 0 0 1.81,11.29 c 0.44,1.91 3.38,1 2.95,-0.87 a 95.8,95.8 0 0 1 -1.69,-10.51 c -0.24,-1.93 -3.31,-1.82 -3.07,0.09 z"
           transform="translate(-701.01,-425.93)"
           id="path9774" />
        <path
           class="cls-33"
           d="m 7317.73,3608.8 a 50.33,50.33 0 0 1 1.29,8.35"
           transform="translate(-701.01,-425.93)"
           id="path9776" />
        <path
           class="cls-33"
           d="m 7310.38,3609.57 a 57.24,57.24 0 0 0 0.4,8.39"
           transform="translate(-701.01,-425.93)"
           id="path9778" />
        <path
           class="cls-15"
           d="m 7319.23,3608.49 a 51.32,51.32 0 0 1 1.3,8.37 c 0.19,1.95 -2.82,2.54 -3,0.58 a 52,52 0 0 0 -1.29,-8.34 c -0.52,-1.91 2.49,-2.5 2.99,-0.61 z"
           transform="translate(-701.01,-425.93)"
           id="path9780" />
        <path
           class="cls-15"
           d="m 7308.84,3609.58 a 58.8,58.8 0 0 0 0.4,8.39 c 0.19,1.93 3.26,1.93 3.08,0 a 59,59 0 0 1 -0.41,-8.4 c 0.09,-1.98 -2.97,-1.93 -3.07,0.01 z"
           transform="translate(-701.01,-425.93)"
           id="path9782" />
        <path
           class="cls-33"
           d="m 7320.39,3626.93 a 93.49,93.49 0 0 1 0.5,11.11"
           transform="translate(-701.01,-425.93)"
           id="path9784" />
        <path
           class="cls-33"
           d="m 7311.25,3627.75 a 90.45,90.45 0 0 0 1.39,11"
           transform="translate(-701.01,-425.93)"
           id="path9786" />
        <path
           class="cls-15"
           d="m 7321.9,3626.65 a 98.76,98.76 0 0 1 0.52,11.53 c -0.05,2 -3.11,1.67 -3.06,-0.28 a 93.16,93.16 0 0 0 -0.48,-10.69 c -0.17,-1.94 2.85,-2.53 3.02,-0.56 z"
           transform="translate(-701.01,-425.93)"
           id="path9788" />
        <path
           class="cls-15"
           d="m 7309.71,3627.75 a 98.17,98.17 0 0 0 1.44,11.34 c 0.39,1.92 3.36,1.15 3,-0.77 a 93.77,93.77 0 0 1 -1.34,-10.56 c -0.19,-1.94 -3.26,-1.96 -3.1,-0.01 z"
           transform="translate(-701.01,-425.93)"
           id="path9790" />
        <path
           class="cls-33"
           d="m 7321.34,3650 a 47.7,47.7 0 0 1 1,8.4"
           transform="translate(-701.01,-425.93)"
           id="path9792" />
        <path
           class="cls-33"
           d="m 7314,3650.56 a 60.19,60.19 0 0 0 0.11,8.39"
           transform="translate(-701.01,-425.93)"
           id="path9794" />
        <path
           class="cls-15"
           d="m 7322.86,3649.79 a 49.41,49.41 0 0 1 1,8.41 c 0.11,2 -2.92,2.44 -3,0.48 a 48.31,48.31 0 0 0 -1,-8.39 c -0.47,-1.92 2.55,-2.41 3,-0.5 z"
           transform="translate(-701.01,-425.93)"
           id="path9796" />
        <path
           class="cls-15"
           d="m 7312.43,3650.52 a 61.84,61.84 0 0 0 0.12,8.39 c 0.11,1.93 3.18,2.05 3.07,0.09 a 62.11,62.11 0 0 1 -0.11,-8.41 c 0.15,-1.95 -2.92,-2 -3.08,-0.07 z"
           transform="translate(-701.01,-425.93)"
           id="path9798" />
        <path
           class="cls-33"
           d="m 7323.37,3668.26 a 86.11,86.11 0 0 1 0.08,11.13"
           transform="translate(-701.01,-425.93)"
           id="path9800" />
        <path
           class="cls-33"
           d="m 7314.21,3668.75 a 99.17,99.17 0 0 0 1,11"
           transform="translate(-701.01,-425.93)"
           id="path9802" />
        <path
           class="cls-15"
           d="m 7324.89,3668 a 92.74,92.74 0 0 1 0.09,11.55 c -0.14,2 -3.18,1.55 -3,-0.4 a 88.84,88.84 0 0 0 -0.07,-10.7 c -0.17,-1.91 2.87,-2.38 2.98,-0.45 z"
           transform="translate(-701.01,-425.93)"
           id="path9804" />
        <path
           class="cls-15"
           d="m 7312.68,3668.69 a 105.87,105.87 0 0 0 1,11.39 c 0.31,1.93 3.31,1.27 3,-0.66 a 96.57,96.57 0 0 1 -0.93,-10.6 c -0.12,-1.94 -3.19,-2.07 -3.07,-0.13 z"
           transform="translate(-701.01,-425.93)"
           id="path9806" />
        <path
           class="cls-33"
           d="m 7323.46,3691.4 a 49.78,49.78 0 0 1 0.7,8.43"
           transform="translate(-701.01,-425.93)"
           id="path9808" />
        <path
           class="cls-33"
           d="m 7316.07,3691.64 a 59,59 0 0 0 -0.19,8.4"
           transform="translate(-701.01,-425.93)"
           id="path9810" />
        <path
           class="cls-15"
           d="m 7325,3691.21 a 51.77,51.77 0 0 1 0.7,8.44 c 0,2 -3,2.33 -3.06,0.36 a 50.53,50.53 0 0 0 -0.69,-8.42 c -0.37,-1.93 2.67,-2.31 3.05,-0.38 z"
           transform="translate(-701.01,-425.93)"
           id="path9812" />
        <path
           class="cls-15"
           d="m 7314.54,3691.55 a 58.57,58.57 0 0 0 -0.19,8.38 c 0,1.94 3.1,2.17 3.06,0.21 a 60.36,60.36 0 0 1 0.2,-8.4 c 0.23,-1.96 -2.83,-2.12 -3.07,-0.19 z"
           transform="translate(-701.01,-425.93)"
           id="path9814" />
        <path
           class="cls-33"
           d="m 7324.81,3709.68 a 84.31,84.31 0 0 1 -0.31,11.12"
           transform="translate(-701.01,-425.93)"
           id="path9816" />
        <path
           class="cls-33"
           d="m 7315.64,3709.84 a 101.88,101.88 0 0 0 0.58,11"
           transform="translate(-701.01,-425.93)"
           id="path9818" />
        <path
           class="cls-15"
           d="m 7326.34,3709.51 a 92.57,92.57 0 0 1 -0.32,11.54 c -0.21,2 -3.24,1.44 -3,-0.5 a 86.86,86.86 0 0 0 0.3,-10.7 c -0.07,-1.95 2.98,-2.31 3.02,-0.34 z"
           transform="translate(-701.01,-425.93)"
           id="path9820" />
        <path
           class="cls-15"
           d="m 7314.11,3709.72 a 108.92,108.92 0 0 0 0.6,11.42 c 0.24,2 3.26,1.39 3,-0.55 a 99.33,99.33 0 0 1 -0.56,-10.63 c -0.02,-1.96 -3.08,-2.19 -3.04,-0.24 z"
           transform="translate(-701.01,-425.93)"
           id="path9822" />
        <path
           class="cls-33"
           d="m 7324.1,3732.79 a 51.92,51.92 0 0 1 0.44,8.44"
           transform="translate(-701.01,-425.93)"
           id="path9824" />
        <path
           class="cls-33"
           d="m 7316.71,3732.79 a 54.88,54.88 0 0 0 -0.45,8.39"
           transform="translate(-701.01,-425.93)"
           id="path9826" />
        <path
           class="cls-15"
           d="m 7325.63,3732.65 a 52.88,52.88 0 0 1 0.44,8.44 c 0,2 -3.08,2.24 -3.07,0.27 a 51.55,51.55 0 0 0 -0.43,-8.42 c -0.29,-1.94 2.76,-2.23 3.06,-0.29 z"
           transform="translate(-701.01,-425.93)"
           id="path9828" />
        <path
           class="cls-15"
           d="m 7315.18,3732.65 a 55.91,55.91 0 0 0 -0.45,8.38 c 0,1.95 3,2.27 3.05,0.31 a 58.9,58.9 0 0 1 0.46,-8.4 c 0.3,-1.94 -2.76,-2.21 -3.06,-0.29 z"
           transform="translate(-701.01,-425.93)"
           id="path9830" />
        <path
           class="cls-33"
           d="m 7324.9,3751.08 a 85.68,85.68 0 0 1 -0.6,11.09"
           transform="translate(-701.01,-425.93)"
           id="path9832" />
        <path
           class="cls-33"
           d="m 7315.73,3751 a 99.51,99.51 0 0 0 0.27,11"
           transform="translate(-701.01,-425.93)"
           id="path9834" />
        <path
           class="cls-15"
           d="m 7326.43,3751 a 94,94 0 0 1 -0.61,11.5 c -0.26,1.95 -3.28,1.36 -3,-0.57 a 86.65,86.65 0 0 0 0.57,-10.68 c 0,-1.99 3.06,-2.25 3.04,-0.25 z"
           transform="translate(-701.01,-425.93)"
           id="path9836" />
        <path
           class="cls-15"
           d="m 7314.2,3750.83 a 109.56,109.56 0 0 0 0.3,11.46 c 0.2,1.95 3.23,1.46 3,-0.49 a 99.6,99.6 0 0 1 -0.29,-10.65 c 0.06,-1.95 -3,-2.28 -3.01,-0.32 z"
           transform="translate(-701.01,-425.93)"
           id="path9838" />
        <path
           class="cls-33"
           d="m 7323.65,3774.14 a 54,54 0 0 1 0.27,8.43"
           transform="translate(-701.01,-425.93)"
           id="path9840" />
        <path
           class="cls-33"
           d="m 7316.26,3774 a 52.69,52.69 0 0 0 -0.62,8.4"
           transform="translate(-701.01,-425.93)"
           id="path9842" />
        <path
           class="cls-15"
           d="m 7325.18,3774 a 55.3,55.3 0 0 1 0.27,8.44 c 0,2 -3.1,2.18 -3.06,0.22 a 55.18,55.18 0 0 0 -0.28,-8.43 c -0.25,-1.93 2.81,-2.14 3.07,-0.23 z"
           transform="translate(-701.01,-425.93)"
           id="path9844" />
        <path
           class="cls-15"
           d="m 7314.73,3773.82 a 54.72,54.72 0 0 0 -0.62,8.39 c 0,1.95 3,2.32 3.05,0.35 a 56,56 0 0 1 0.63,-8.39 c 0.33,-1.94 -2.72,-2.27 -3.06,-0.35 z"
           transform="translate(-701.01,-425.93)"
           id="path9846" />
        <path
           class="cls-33"
           d="m 7324.13,3792.42 a 89.16,89.16 0 0 1 -0.72,11.06"
           transform="translate(-701.01,-425.93)"
           id="path9848" />
        <path
           class="cls-33"
           d="m 7315,3792.2 a 95.14,95.14 0 0 0 0.17,11.07"
           transform="translate(-701.01,-425.93)"
           id="path9850" />
        <path
           class="cls-15"
           d="m 7325.67,3792.31 a 100,100 0 0 1 -0.75,11.48 c -0.28,1.94 -3.29,1.33 -3,-0.61 a 90.29,90.29 0 0 0 0.7,-10.66 c 0.03,-1.94 3.09,-2.17 3.05,-0.21 z"
           transform="translate(-701.01,-425.93)"
           id="path9852" />
        <path
           class="cls-15"
           d="m 7313.43,3792 a 102.1,102.1 0 0 0 0.18,11.47 c 0.17,2 3.21,1.5 3,-0.45 a 94.77,94.77 0 0 1 -0.17,-10.66 c 0.09,-1.93 -2.96,-2.31 -3.01,-0.36 z"
           transform="translate(-701.01,-425.93)"
           id="path9854" />
        <path
           class="cls-33"
           d="m 7322.65,3815.43 a 52.8,52.8 0 0 1 0.21,8.43"
           transform="translate(-701.01,-425.93)"
           id="path9856" />
        <path
           class="cls-33"
           d="m 7315.26,3815.23 a 52.85,52.85 0 0 0 -0.67,8.4"
           transform="translate(-701.01,-425.93)"
           id="path9858" />
        <path
           class="cls-15"
           d="m 7324.18,3815.33 a 55.06,55.06 0 0 1 0.22,8.42 c 0,1.95 -3.12,2.17 -3.07,0.21 a 53.91,53.91 0 0 0 -0.22,-8.43 c -0.24,-1.95 2.82,-2.14 3.07,-0.2 z"
           transform="translate(-701.01,-425.93)"
           id="path9860" />
        <path
           class="cls-15"
           d="m 7313.73,3815.05 a 56.08,56.08 0 0 0 -0.67,8.4 c -0.05,2 3,2.33 3,0.37 a 54.8,54.8 0 0 1 0.68,-8.4 c 0.39,-1.94 -2.66,-2.29 -3.01,-0.37 z"
           transform="translate(-701.01,-425.93)"
           id="path9862" />
        <path
           class="cls-33"
           d="m 7323,3833.69 a 91,91 0 0 1 -0.74,11.06"
           transform="translate(-701.01,-425.93)"
           id="path9864" />
        <path
           class="cls-33"
           d="m 7313.87,3833.45 a 93.17,93.17 0 0 0 0.15,11.08"
           transform="translate(-701.01,-425.93)"
           id="path9866" />
        <path
           class="cls-15"
           d="m 7324.58,3833.59 a 101.94,101.94 0 0 1 -0.77,11.46 c -0.28,1.95 -3.29,1.33 -3,-0.6 a 92.6,92.6 0 0 0 0.71,-10.65 c 0.04,-1.95 3.11,-2.17 3.06,-0.21 z"
           transform="translate(-701.01,-425.93)"
           id="path9868" />
        <path
           class="cls-15"
           d="m 7312.35,3833.26 a 97.87,97.87 0 0 0 0.15,11.49 c 0.17,2 3.21,1.5 3,-0.44 a 92.83,92.83 0 0 1 -0.14,-10.68 c 0.09,-1.95 -2.96,-2.33 -3.01,-0.37 z"
           transform="translate(-701.01,-425.93)"
           id="path9870" />
        <path
           class="cls-33"
           d="m 7321.55,3856.69 a 53.89,53.89 0 0 1 0.23,8.42"
           transform="translate(-701.01,-425.93)"
           id="path9872" />
        <path
           class="cls-33"
           d="m 7314.16,3856.5 a 54,54 0 0 0 -0.66,8.4"
           transform="translate(-701.01,-425.93)"
           id="path9874" />
        <path
           class="cls-15"
           d="m 7323.08,3856.58 a 55.07,55.07 0 0 1 0.23,8.42 c -0.05,1.95 -3.11,2.18 -3.07,0.21 a 53.82,53.82 0 0 0 -0.23,-8.42 c -0.25,-1.95 2.81,-2.14 3.07,-0.21 z"
           transform="translate(-701.01,-425.93)"
           id="path9876" />
        <path
           class="cls-15"
           d="m 7312.63,3856.32 a 54.89,54.89 0 0 0 -0.66,8.4 c -0.05,2 3,2.33 3.05,0.37 a 56.31,56.31 0 0 1 0.66,-8.41 c 0.32,-1.93 -2.68,-2.28 -3.05,-0.36 z"
           transform="translate(-701.01,-425.93)"
           id="path9878" />
        <path
           class="cls-33"
           d="m 7322,3874.94 a 93.31,93.31 0 0 1 -0.7,11.06"
           transform="translate(-701.01,-425.93)"
           id="path9880" />
        <path
           class="cls-33"
           d="m 7312.82,3874.73 a 91.1,91.1 0 0 0 0.19,11.08"
           transform="translate(-701.01,-425.93)"
           id="path9882" />
        <path
           class="cls-15"
           d="m 7323.52,3874.83 a 99.74,99.74 0 0 1 -0.72,11.46 c -0.27,1.95 -3.28,1.34 -3,-0.59 a 94.87,94.87 0 0 0 0.68,-10.65 c 0.02,-1.95 3.09,-2.18 3.04,-0.22 z"
           transform="translate(-701.01,-425.93)"
           id="path9884" />
        <path
           class="cls-15"
           d="m 7311.29,3874.55 a 98.09,98.09 0 0 0 0.2,11.5 c 0.18,1.95 3.22,1.48 3,-0.47 a 90.44,90.44 0 0 1 -0.19,-10.67 c 0.09,-1.91 -2.96,-2.33 -3.01,-0.36 z"
           transform="translate(-701.01,-425.93)"
           id="path9886" />
        <path
           class="cls-33"
           d="m 7320.59,3897.94 a 53.79,53.79 0 0 1 0.28,8.41"
           transform="translate(-701.01,-425.93)"
           id="path9888" />
        <path
           class="cls-33"
           d="m 7313.2,3897.79 a 52.68,52.68 0 0 0 -0.61,8.4"
           transform="translate(-701.01,-425.93)"
           id="path9890" />
        <path
           class="cls-15"
           d="m 7322.12,3897.82 a 55.09,55.09 0 0 1 0.28,8.42 c 0,2 -3.1,2.19 -3.07,0.23 a 53.8,53.8 0 0 0 -0.28,-8.42 c -0.25,-1.95 2.81,-2.16 3.07,-0.23 z"
           transform="translate(-701.01,-425.93)"
           id="path9892" />
        <path
           class="cls-15"
           d="m 7311.67,3897.61 a 55.06,55.06 0 0 0 -0.61,8.41 c 0,1.95 3,2.31 3,0.35 a 55,55 0 0 1 0.62,-8.41 c 0.39,-1.96 -2.68,-2.27 -3.01,-0.35 z"
           transform="translate(-701.01,-425.93)"
           id="path9894" />
        <path
           class="cls-33"
           d="m 7321.13,3916.19 a 95.08,95.08 0 0 1 -0.64,11"
           transform="translate(-701.01,-425.93)"
           id="path9896" />
        <path
           class="cls-33"
           d="m 7312,3916 a 89.16,89.16 0 0 0 0.25,11.08"
           transform="translate(-701.01,-425.93)"
           id="path9898" />
        <path
           class="cls-15"
           d="m 7322.66,3916.07 a 102.3,102.3 0 0 1 -0.66,11.47 c -0.26,1.94 -3.27,1.35 -3,-0.58 a 95,95 0 0 0 0.62,-10.66 c 0.01,-1.94 3.08,-2.19 3.04,-0.23 z"
           transform="translate(-701.01,-425.93)"
           id="path9900" />
        <path
           class="cls-15"
           d="m 7310.43,3915.85 a 97.9,97.9 0 0 0 0.26,11.49 c 0.19,2 3.22,1.47 3,-0.47 a 90.67,90.67 0 0 1 -0.24,-10.68 c 0.07,-1.95 -2.99,-2.31 -3.02,-0.34 z"
           transform="translate(-701.01,-425.93)"
           id="path9902" />
        <path
           class="cls-33"
           d="m 7319.85,3939.19 a 55.16,55.16 0 0 1 0.32,8.42"
           transform="translate(-701.01,-425.93)"
           id="path9904" />
        <path
           class="cls-33"
           d="m 7312.46,3939.08 a 51.62,51.62 0 0 0 -0.57,8.41"
           transform="translate(-701.01,-425.93)"
           id="path9906" />
        <path
           class="cls-15"
           d="m 7321.38,3939.07 a 54.93,54.93 0 0 1 0.32,8.41 c 0,1.95 -3.09,2.21 -3.07,0.25 a 56.31,56.31 0 0 0 -0.31,-8.42 c -0.27,-1.95 2.79,-2.17 3.06,-0.24 z"
           transform="translate(-701.01,-425.93)"
           id="path9908" />
        <path
           class="cls-15"
           d="m 7310.93,3938.91 a 55,55 0 0 0 -0.57,8.41 c 0,1.95 3,2.3 3.05,0.33 a 56.34,56.34 0 0 1 0.58,-8.41 c 0.33,-1.94 -2.73,-2.24 -3.06,-0.33 z"
           transform="translate(-701.01,-425.93)"
           id="path9910" />
        <path
           class="cls-33"
           d="m 7320.48,3957.44 a 93.13,93.13 0 0 1 -0.58,11.06"
           transform="translate(-701.01,-425.93)"
           id="path9912" />
        <path
           class="cls-33"
           d="m 7311.31,3957.32 a 91.18,91.18 0 0 0 0.3,11.08"
           transform="translate(-701.01,-425.93)"
           id="path9914" />
        <path
           class="cls-15"
           d="m 7322,3957.31 a 99.8,99.8 0 0 1 -0.6,11.47 c -0.25,1.95 -3.27,1.37 -3,-0.56 a 94.91,94.91 0 0 0 0.56,-10.66 c 0.04,-1.95 3.04,-2.21 3.04,-0.25 z"
           transform="translate(-701.01,-425.93)"
           id="path9916" />
        <path
           class="cls-15"
           d="m 7309.78,3957.15 a 95.92,95.92 0 0 0 0.32,11.5 c 0.2,1.95 3.23,1.45 3,-0.5 a 90.48,90.48 0 0 1 -0.3,-10.67 c 0.06,-1.95 -3,-2.29 -3.02,-0.33 z"
           transform="translate(-701.01,-425.93)"
           id="path9918" />
        <path
           class="cls-33"
           d="m 7319.32,3980.45 a 53.81,53.81 0 0 1 0.36,8.41"
           transform="translate(-701.01,-425.93)"
           id="path9920" />
        <path
           class="cls-33"
           d="m 7311.93,3980.37 a 52.71,52.71 0 0 0 -0.53,8.41"
           transform="translate(-701.01,-425.93)"
           id="path9922" />
        <path
           class="cls-15"
           d="m 7320.85,3980.32 a 56.25,56.25 0 0 1 0.36,8.41 c 0,1.95 -3.08,2.22 -3.06,0.26 a 55.09,55.09 0 0 0 -0.37,-8.42 c -0.27,-1.95 2.79,-2.18 3.07,-0.25 z"
           transform="translate(-701.01,-425.93)"
           id="path9924" />
        <path
           class="cls-15"
           d="m 7310.4,3980.21 a 53.75,53.75 0 0 0 -0.53,8.41 c 0,2 3,2.28 3.05,0.32 a 55,55 0 0 1 0.54,-8.41 c 0.31,-1.95 -2.74,-2.25 -3.06,-0.32 z"
           transform="translate(-701.01,-425.93)"
           id="path9926" />
        <path
           class="cls-33"
           d="m 7320,3998.69 a 95.23,95.23 0 0 1 -0.53,11.06"
           transform="translate(-701.01,-425.93)"
           id="path9928" />
        <path
           class="cls-33"
           d="m 7310.87,3998.61 a 89.35,89.35 0 0 0 0.36,11.09"
           transform="translate(-701.01,-425.93)"
           id="path9930" />
        <path
           class="cls-15"
           d="M 7321.57,3998.56 A 102.19,102.19 0 0 1 7321,4010 c -0.24,1.95 -3.26,1.39 -3,-0.55 a 94.87,94.87 0 0 0 0.51,-10.66 c 0.02,-1.92 3.08,-2.19 3.06,-0.23 z"
           transform="translate(-701.01,-425.93)"
           id="path9932" />
        <path
           class="cls-15"
           d="m 7309.34,3998.46 a 98,98 0 0 0 0.37,11.49 c 0.21,2 3.24,1.43 3,-0.51 a 92.71,92.71 0 0 1 -0.35,-10.67 c 0.05,-1.95 -3.01,-2.28 -3.02,-0.31 z"
           transform="translate(-701.01,-425.93)"
           id="path9934" />
        <path
           class="cls-33"
           d="m 7319,4021.7 a 52.78,52.78 0 0 1 0.4,8.42"
           transform="translate(-701.01,-425.93)"
           id="path9936" />
        <path
           class="cls-33"
           d="m 7311.6,4021.66 a 52.87,52.87 0 0 0 -0.49,8.42"
           transform="translate(-701.01,-425.93)"
           id="path9938" />
        <path
           class="cls-15"
           d="m 7320.52,4021.57 a 53.67,53.67 0 0 1 0.4,8.41 c 0,1.95 -3.07,2.24 -3.06,0.27 a 56.28,56.28 0 0 0 -0.4,-8.41 c -0.29,-1.95 2.77,-2.2 3.06,-0.27 z"
           transform="translate(-701.01,-425.93)"
           id="path9940" />
        <path
           class="cls-15"
           d="m 7310.07,4021.51 a 55.1,55.1 0 0 0 -0.49,8.42 c 0,2 3.05,2.26 3.06,0.3 a 56.19,56.19 0 0 1 0.49,-8.41 c 0.31,-1.95 -2.75,-2.24 -3.06,-0.31 z"
           transform="translate(-701.01,-425.93)"
           id="path9942" />
        <path
           class="cls-33"
           d="m 7319.8,4039.94 a 95.24,95.24 0 0 1 -0.47,11.07"
           transform="translate(-701.01,-425.93)"
           id="path9944" />
        <path
           class="cls-33"
           d="M 7310.63,4039.91 A 91.13,91.13 0 0 0 7311,4051"
           transform="translate(-701.01,-425.93)"
           id="path9946" />
        <path
           class="cls-15"
           d="m 7321.33,4039.81 a 99.93,99.93 0 0 1 -0.49,11.47 c -0.23,1.95 -3.25,1.4 -3,-0.54 a 92.53,92.53 0 0 0 0.46,-10.66 c -0.02,-1.95 3.04,-2.24 3.03,-0.27 z"
           transform="translate(-701.01,-425.93)"
           id="path9948" />
        <path
           class="cls-15"
           d="m 7309.1,4039.76 a 98.09,98.09 0 0 0 0.43,11.5 c 0.22,1.95 3.25,1.41 3,-0.53 a 90.38,90.38 0 0 1 -0.4,-10.67 c 0.03,-1.95 -3.02,-2.26 -3.03,-0.3 z"
           transform="translate(-701.01,-425.93)"
           id="path9950" />
        <path
           class="cls-33"
           d="m 7318.86,4063 a 52.76,52.76 0 0 1 0.45,8.41"
           transform="translate(-701.01,-425.93)"
           id="path9952" />
        <path
           class="cls-33"
           d="m 7311.47,4063 a 54,54 0 0 0 -0.44,8.42"
           transform="translate(-701.01,-425.93)"
           id="path9954" />
        <path
           class="cls-15"
           d="m 7320.39,4062.82 a 54.94,54.94 0 0 1 0.45,8.41 c 0,1.95 -3.06,2.25 -3.06,0.29 a 54.87,54.87 0 0 0 -0.45,-8.41 c -0.33,-1.95 2.76,-2.22 3.06,-0.29 z"
           transform="translate(-701.01,-425.93)"
           id="path9956" />
        <path
           class="cls-15"
           d="m 7309.94,4062.81 a 55.13,55.13 0 0 0 -0.44,8.42 c 0,2 3.06,2.25 3.06,0.29 a 55.13,55.13 0 0 1 0.44,-8.42 c 0.3,-1.94 -2.76,-2.22 -3.06,-0.29 z"
           transform="translate(-701.01,-425.93)"
           id="path9958" />
        <path
           class="cls-29"
           d="m 7195.81,3049.11 -47.7,4.68 a 47.67,47.67 0 0 0 3.35,13.65 c 2.86,7 5.52,13.45 11.41,15.41 8.82,2.93 20.41,-5.74 26.06,-13.07 a 33.74,33.74 0 0 0 6.88,-20.67 z"
           transform="translate(-701.01,-425.93)"
           id="path9960" />
        <path
           class="cls-29"
           d="m 7289.56,3025.73 -37.73,-7.8 a 44.15,44.15 0 0 0 -0.4,12.08 c 0.67,6.44 1.3,12.44 5.41,15.5 6.14,4.57 17,0.25 22.91,-4.41 a 28.86,28.86 0 0 0 9.81,-15.37 z"
           transform="translate(-701.01,-425.93)"
           id="path9962" />
      </g>
    </g>
  </g>
</svg>
