<?xml version="1.0" encoding="UTF-8" standalone="no"?>
<svg
   xmlns:dc="http://purl.org/dc/elements/1.1/"
   xmlns:cc="http://creativecommons.org/ns#"
   xmlns:rdf="http://www.w3.org/1999/02/22-rdf-syntax-ns#"
   xmlns:svg="http://www.w3.org/2000/svg"
   xmlns="http://www.w3.org/2000/svg"
   xmlns:sodipodi="http://sodipodi.sourceforge.net/DTD/sodipodi-0.dtd"
   xmlns:inkscape="http://www.inkscape.org/namespaces/inkscape"
   width="573.4577mm"
   height="437.08658mm"
   viewBox="0 0 573.4577 437.08658"
   version="1.1"
   id="svg17815"
   inkscape:version="1.0.1 (1.0.1+r75)"
   sodipodi:docname="play.svg">
  <defs
     id="defs17809" />
  <sodipodi:namedview
     id="base"
     pagecolor="#ffffff"
     bordercolor="#666666"
     borderopacity="1.0"
     inkscape:pageopacity="0.0"
     inkscape:pageshadow="2"
     inkscape:zoom="0.24748737"
     inkscape:cx="1143.8062"
     inkscape:cy="634.3161"
     inkscape:document-units="mm"
     inkscape:current-layer="layer1"
     inkscape:document-rotation="0"
     showgrid="false"
     inkscape:window-width="1687"
     inkscape:window-height="1385"
     inkscape:window-x="67"
     inkscape:window-y="27"
     inkscape:window-maximized="0"
     showguides="false" />
  <metadata
     id="metadata17812">
    <rdf:RDF>
      <cc:Work
         rdf:about="">
        <dc:format>image/svg+xml</dc:format>
        <dc:type
           rdf:resource="http://purl.org/dc/dcmitype/StillImage" />
        <dc:title></dc:title>
      </cc:Work>
    </rdf:RDF>
  </metadata>
  <style
     id="style5">.cls-1{fill:#f7faff;}.cls-2{fill:#e6f0fa;}.cls-3{fill:#a0d4b0;}.cls-4{fill:#527e35;}.cls-5{fill:#709f47;}.cls-6{fill:#87b272;}.cls-31,.cls-7{fill:#c5c880;}.cls-8{fill:#9c312e;}.cls-9{fill:#d29f7a;}.cls-10{fill:#fbe1c7;}.cls-11,.cls-45,.cls-47{fill:#231f20;}.cls-11,.cls-13,.cls-18,.cls-27,.cls-48,.cls-62{opacity:0.1;}.cls-12{fill:#ffc6b2;}.cls-14{fill:#003c68;}.cls-15{fill:#11343f;}.cls-16,.cls-33,.cls-38,.cls-52{fill:none;}.cls-16{stroke:#000;}.cls-16,.cls-38,.cls-52{stroke-miterlimit:10;}.cls-17,.cls-18,.cls-49{fill:#4b2603;}.cls-19{fill:#e6e6e6;}.cls-20{fill:#3d3027;}.cls-21{fill:#ffac00;}.cls-22,.cls-54{fill:#42423d;}.cls-23{fill:#83d2cd;}.cls-24{fill:#0157ad;}.cls-25{fill:#fcd7d1;}.cls-26,.cls-27{fill:#fd7d00;}.cls-28,.cls-64{fill:#ed2d19;}.cls-29{fill:#fff;}.cls-30{fill:#fbebdc;}.cls-31,.cls-64{opacity:0.5;}.cls-32{fill:#5a9cae;}.cls-34{fill:#4d4d4d;}.cls-35{fill:#333;}.cls-36{fill:#29343f;}.cls-37{fill:#b9d6f4;}.cls-38{stroke:#1a1a1a;}.cls-39{fill:#fe6e09;}.cls-40{fill:#ddecff;}.cls-41{fill:#ffc7ad;}.cls-42{fill:#85d0cd;}.cls-43{fill:#3f5e49;}.cls-44{fill:#628554;}.cls-45,.cls-46,.cls-54{opacity:0.2;}.cls-49{opacity:0.51;}.cls-50{fill:#8c6239;}.cls-51{fill:#ffe923;}.cls-52{stroke:#3f5e49;stroke-width:2px;}.cls-53{fill:url(#linear-gradient);}.cls-55{fill:url(#linear-gradient-2);}.cls-56{fill:#c1ee60;}.cls-57{fill:#1e3829;}.cls-58{opacity:0.4;}.cls-59{fill:#0ad9ff;}.cls-60{fill:#eac3b0;}.cls-61,.cls-62{fill:#41342a;}.cls-63{fill:#231d18;}</style>
  <g
     inkscape:label="Layer 1"
     inkscape:groupmode="layer"
     id="layer1"
     transform="translate(143.62253,25.387061)">
    <g
       id="_4"
       data-name="4"
       transform="matrix(0.26458333,0,0,0.26458333,-1695.5678,-46.330226)">
      <g
         id="father-3"
         data-name="father">
        <path
           class="cls-2"
           d="m 8637.74,1643.06 a 119.19,119.19 0 0 0 -0.8,43.34 c 0,0.24 0.07,0.48 0.11,0.72 q 0.49,3 1.08,5.84 0.75,3.63 1.68,7.07 0.69,2.63 1.49,5.13 c 18.57,59.12 73,74.15 86.31,138.48 20.17,97.57 -75.27,207.12 -144,256.38 -167.42,119.95 -371.48,20.29 -657.28,-23.64 -681.74,-104.78 -1158.74,214.43 -1305,8.07 -60.87,-85.88 -54.51,-179.1 -54.51,-179.1 6.24,-91.5 63.07,-118.09 93.44,-200.19 q 1,-2.58 1.84,-5.13 2.39,-6.93 4.26,-13.63 a 200.1,200.1 0 0 0 7.26,-43.26 202.89,202.89 0 0 0 -2.59,-44.48 c -3.75,-22.84 -10.85,-45.44 -19.42,-69.47 -20.76,-58.21 -50.16,-124.8 -61.43,-223.43 -4.81,-42.1 -24.57,-241.18 85.65,-436.07 113,-199.83 289.66,-281.5 342.63,-303.69 194.75,-81.56 478.21,-96.24 650.21,50.3 126.62,107.88 80.52,207.43 214.72,300.61 139.41,96.79 224.84,14.13 429.44,85.88 230,80.67 446.76,299 418.75,458.7 -4.7,26.51 -15.58,48.51 -28.4,68.51 -1,1.55 -2,3.09 -3,4.62 -2.92,4.42 -5.92,8.75 -9,13 -6.09,8.57 -12.31,16.92 -18.29,25.27 a 310.75,310.75 0 0 0 -20.63,32 q -3.23,5.86 -6,11.94 c -0.34,0.75 -0.67,1.51 -1,2.27 a 126.11,126.11 0 0 0 -7.59,23.83 c 0,0 0.08,0.07 0.07,0.13 z"
           transform="translate(-701.01,-425.93)"
           id="path9239" />
        <path
           class="cls-37"
           d="m 7870.85,714 c -36.57,23.54 -68.87,22.73 -105.29,27.49 -41,5.36 -155.48,20.33 -201.83,87.65 -43.5,63.16 -31.82,179.33 31.37,216.23 27.26,15.92 69,20 100.87,5.82 23.36,-10.37 81.87,-61.18 61.78,-45.39 v 0 c 0,0 110.43,50.8 223,39.18 36.94,-3.82 87.34,-9 118.13,-46.08 20.78,-25 42.15,-76 42.15,-76 v 0 c 0,0 36.13,21.89 54.15,29 50.15,19.79 130.12,-7.71 153,-55.53 14.7,-30.74 11.48,-81.75 11.48,-81.74 v 0 c 0,0 96.28,-16.61 114.92,-65.29 14.38,-37.58 -16.94,-95.67 -17,-95.88 v 0 c 0,0 -25.85,-36.37 -55.13,-51.68 -29,-15.17 -74,-16.26 -98.37,5.58 -25.91,23.17 -31.5,74.61 -31.49,74.62 v 0 c 0,0 -97.5,-101 -197.62,-98.34 -74.61,2 -137.58,61.26 -141,64.54 -27.97,26.95 -31.42,45.43 -63.12,65.82 z"
           transform="translate(-701.01,-425.93)"
           id="path9241" />
        <path
           class="cls-4"
           d="m 8636.83,1643.06 a 119.19,119.19 0 0 0 -0.8,43.34 c 0,0.24 0.07,0.48 0.11,0.72 a 130.87,130.87 0 0 0 2.76,12.91 H 6592.57 v -13.63 h 72.83 a 200.1,200.1 0 0 0 7.26,-43.26 202.89,202.89 0 0 0 -2.59,-44.48 c -3.75,-22.84 -10.85,-45.44 -19.42,-69.47 12.06,-13 28.38,-27.61 45.3,-33.91 34.89,-13 67.78,11.06 79.36,19.53 16.71,12.23 24.84,24.28 31.41,34.53 7.29,11.38 12.64,20.53 25.69,25.2 a 30.53,30.53 0 0 0 19.09,1 c 21.69,-6 36.4,-35.06 72.81,-34.38 40.43,0.76 48,37.07 78,25 24.53,-9.86 24.11,-36.07 58.48,-54.23 13.74,-7.26 33.19,-17.55 51.64,-5.89 22.45,14.19 27.52,50.86 37.48,47.61 9.17,-3 5,-34.18 19.49,-54.24 14.72,-20.4 38.59,-15.26 50.1,-12.79 40.19,8.65 45.12,45.81 77.06,46.07 25.24,0.21 28.75,-22.94 49.36,-17.7 18.81,4.79 26.37,26.72 37.74,45.62 5.25,8.71 11.31,16.79 19.67,22.24 11.65,7.6 29,10.89 55.19,-4.34 a 173,173 0 0 0 25.74,-18.81 c 8.5,4.78 16.59,8.86 24.3,12.31 q 6.84,3.08 13.28,5.48 c 54.5,20.48 88.19,7.68 109.85,-11.33 24.24,-21.27 22.92,-41.12 45.41,-50.91 49.79,-21.65 82.93,63.94 138.39,42.57 22.63,-8.72 30.25,-28 47.35,-20.86 23.62,9.91 26.35,54 47.34,58.4 12.46,2.6 16.81,-11.85 39.15,-31.5 9,-7.9 63,-55.39 102,-28.37 18.72,13 20.43,33.78 33.09,34.8 a 10.08,10.08 0 0 0 1.24,0 c 4.56,-0.09 8.37,-2.53 11.73,-6.45 13.1,-15.22 19.63,-52.67 38.4,-60.29 26.67,-10.83 41.11,53.55 86.33,87.6 a 103.55,103.55 0 0 0 59.48,21 124.86,124.86 0 0 0 17.07,-0.54 c 16.37,-1.61 32.64,-6.24 48.09,-12.66 4.21,-1.75 8.36,-3.64 12.43,-5.63 a 262,262 0 0 0 35.38,-21.06 c 23.69,-16.69 41.66,-34.93 49.21,-46.81 1.14,-1.79 2.35,-3.61 3.69,-5.52 6,-8.65 14.47,-19.15 28.77,-36.93 12.43,-15.47 15.78,-18.74 20.82,-19.31 0,0 8.26,-0.93 37,31.49 a 233.38,233.38 0 0 1 6.56,-22.8 c 4.28,-12.47 10.54,-27.07 18.5,-35.6 16.55,-17.73 42.33,-11.28 58.49,0 22,15.35 19.95,35.29 50.13,66.75 13.66,14.24 24.58,25.61 34.62,26.41 -19.36,30.31 -43.19,56.29 -56.84,86.82 a 127.87,127.87 0 0 0 -8.69,26.3 z"
           transform="translate(-701.01,-425.93)"
           id="path9243" />
        <path
           class="cls-4"
           d="M 8707.62,1686.4 V 1700 H 8654 c -0.88,-3.85 -2,-8.54 -3.24,-13.63 z"
           transform="translate(-701.01,-425.93)"
           id="path9245" />
        <path
           class="cls-5"
           d="m 8636.83,1643.06 a 119.19,119.19 0 0 0 -0.8,43.34 c 0,0.24 0.07,0.48 0.11,0.72 a 130.87,130.87 0 0 0 2.76,12.91 H 6592.57 v -13.63 h 72.83 a 200.1,200.1 0 0 0 7.26,-43.26 202.89,202.89 0 0 0 -2.59,-44.48 c 5,-6.3 10.74,-11.31 19.85,-11.07 15.76,0.42 36.69,14.47 36.69,14.47 a 189.7,189.7 0 0 1 15.08,-22.81 c 9.26,-12 21.92,-25.22 35.58,-30 9.56,-3.37 19.72,-2.67 29.45,0.13 19.49,5.6 37.21,19.62 44.78,26.21 2.49,2.16 3.88,3.52 3.88,3.52 0,0 30.72,-25.3 62.16,-25.3 a 52.5,52.5 0 0 1 11.81,1.29 c 30.3,7 58.14,43.94 58.14,43.94 0,0 23,-31.4 47.75,-40 25.6,-9 49.74,7.62 58.24,13.45 25.9,17.79 23.71,35 41.91,41.16 25.34,8.52 33.69,-23.59 67.44,-23 29.68,0.52 35.24,25.54 57.23,17.24 18,-6.79 17.7,-24.85 42.92,-37.37 10.08,-5 24.36,-12.08 37.9,-4 16.48,9.78 20.2,35 27.51,32.8 6.73,-2.07 3.69,-23.55 14.3,-37.37 0.31,-0.4 0.63,-0.79 1,-1.17 10.86,-12.69 27.62,-9.3 35.82,-7.64 20.31,4.1 28.35,17.52 39,25.54 a 28.27,28.27 0 0 0 17.52,6.2 c 16.9,0.13 20.52,-13.14 32.52,-12.7 a 17.72,17.72 0 0 1 3.71,0.51 22.67,22.67 0 0 1 9.57,5 c 12.11,10.31 16.71,32.08 32.56,41.78 11.09,6.79 29.17,8.59 59.39,-16 56.69,29.93 88.94,20.33 108.2,4.45 17.79,-14.66 16.82,-28.33 33.33,-35.08 36.54,-14.92 60.87,44.06 101.57,29.33 16.61,-6 22.2,-19.31 34.75,-14.37 17.33,6.83 19.34,37.23 34.74,40.24 9.15,1.79 12.34,-8.16 28.74,-21.7 6.6,-5.45 46.23,-38.17 74.83,-19.55 14.18,9.23 15.06,24.2 25.19,24 13.65,-0.25 18.08,-27.51 29.24,-40.36 a 19.1,19.1 0 0 1 7.55,-5.63 11.63,11.63 0 0 1 5.42,-0.78 c 16.4,1.64 27.94,39.94 57.94,61.14 40.43,28.58 91.6,10 126.27,-12.81 17.53,-11.55 30.84,-24.21 36.41,-32.45 4.61,-6.8 11,-14.29 23.82,-29.25 9.13,-10.66 11.58,-12.91 15.28,-13.3 0,0 6.07,-0.65 27.14,21.7 a 154,154 0 0 1 4.82,-15.72 c 3.13,-8.59 7.73,-18.65 13.57,-24.53 12.15,-12.21 31.06,-7.77 42.92,0 0.67,0.44 1.3,0.88 1.91,1.33 14.14,10.4 13.64,23.89 34.88,44.67 12.46,12.18 21.79,21.32 30.66,17.24 12.93,-5.94 11.78,-34 25.27,-38.43 6.52,-2.15 12.46,2.51 19.6,8.1 12.5,9.79 19.42,23.79 22.7,31.64 22.77,35.06 39.57,40.74 51,38.94 4.58,-0.73 9.31,-2.82 13.94,-5.33 a 127.87,127.87 0 0 0 -8.64,26.1 z"
           transform="translate(-701.01,-425.93)"
           id="path9247" />
        <path
           class="cls-5"
           d="m 8698.94,1700 h -45 c -0.88,-3.85 -2,-8.54 -3.24,-13.63 h 45.94 c 0.89,5.04 1.65,9.63 2.3,13.63 z"
           transform="translate(-701.01,-425.93)"
           id="path9249" />
        <path
           class="cls-7"
           d="M 8638.9,1700 H 6594.45 c 0.25,-0.5 0.48,-1 0.7,-1.51 1.09,-2.34 2.08,-4.76 3,-7.24 0.56,-1.49 1.07,-3 1.55,-4.55 v -0.13 l 0.06,-0.2 h 65.63 a 200.1,200.1 0 0 0 7.26,-43.26 c 6.39,2.38 13,4.48 21.28,4.68 23.55,0.58 24.07,-24.34 47.26,-23.91 15,0.28 34.93,9.8 34.93,9.8 a 133.18,133.18 0 0 1 14.36,-15.44 c 8.81,-8.14 20.87,-17.08 33.87,-20.34 33.31,-8.35 74.37,20.21 74.37,20.21 0,0 29.28,-17.11 59.2,-17.11 a 69.43,69.43 0 0 1 11.24,0.88 c 28.85,4.7 55.36,29.75 55.36,29.75 0,0 21.89,-21.26 45.45,-27.12 24.38,-6.06 47.36,5.16 55.45,9.11 24.67,12 22.58,23.73 39.9,27.86 24.13,5.77 32.08,-16 64.22,-15.56 28.25,0.35 33.55,17.29 54.49,11.67 17.14,-4.59 16.85,-16.82 40.86,-25.29 9.6,-3.39 23.2,-8.19 36.08,-2.75 15.69,6.62 19.23,23.72 26.19,22.2 6.41,-1.4 3.51,-15.94 13.62,-25.29 10.29,-9.52 27,-7.13 35,-6 28.09,4 31.53,21.37 53.85,21.49 17.63,0.1 20.08,-10.7 34.49,-8.26 19.2,3.27 21.62,23.6 40.11,31.66 10.56,4.59 27.78,5.81 56.55,-10.8 54,20.26 84.68,13.76 103,3 16.94,-9.92 16,-19.18 31.73,-23.75 34.79,-10.1 57.95,29.83 96.7,19.86 15.81,-4.07 21.14,-13.07 33.08,-9.73 16.51,4.62 18.42,25.21 33.08,27.24 8.71,1.21 11.75,-5.53 27.36,-14.69 6.29,-3.69 44,-25.84 71.25,-13.23 13.5,6.25 14.34,16.38 24,16.25 15.57,-0.21 18.54,-26.67 35,-31.14 18.63,-5.05 28.72,25 60.32,40.87 57.95,29.12 139.08,-14 154.88,-30.64 2,-2.08 4.31,-4.24 7.38,-6.93 3.74,-3.27 8.6,-7.3 15.3,-12.87 8.69,-7.22 11,-8.74 14.55,-9 0,0 4.27,-0.32 18.24,9.22 2.27,1.54 4.79,3.36 7.6,5.47 a 82.2,82.2 0 0 1 4.58,-10.63 l 0.25,-0.47 c 3,-5.71 7.27,-12.27 12.68,-16.14 6.35,-4.54 14.64,-5.68 22.7,-4.92 a 56.85,56.85 0 0 1 18.16,4.92 c 15.36,7.16 13.94,16.46 35,31.13 11.86,8.25 20.75,14.44 29.19,11.68 12.31,-4 11.21,-23 24.06,-26 6.2,-1.45 11.87,1.7 18.66,5.48 a 58.06,58.06 0 0 1 21.61,21.42 c 21.68,23.74 37.68,27.59 48.54,26.36 16.61,-1.87 35.2,-17.21 43.34,-10 a 8.19,8.19 0 0 1 1.52,1.84 41.53,41.53 0 0 1 2.21,3.93 119.19,119.19 0 0 0 -0.8,43.34 c 0,0.24 0.07,0.48 0.11,0.72 a 130.87,130.87 0 0 0 2.84,12.86 z"
           transform="translate(-701.01,-425.93)"
           id="path9251" />
        <rect
           class="cls-15"
           x="6067.75"
           y="620.22998"
           width="6.6700001"
           height="440.01999"
           id="rect9253" />
        <rect
           class="cls-15"
           x="6234.2402"
           y="620.22998"
           width="6.6700001"
           height="440.01999"
           id="rect9255" />
        <rect
           class="cls-15"
           x="6351.6602"
           y="620.22998"
           width="6.6700001"
           height="440.01999"
           id="rect9257" />
        <rect
           class="cls-15"
           x="6518.1401"
           y="620.22998"
           width="6.6700001"
           height="440.01999"
           id="rect9259" />
        <rect
           class="cls-9"
           x="5959.23"
           y="579.19"
           width="686.70001"
           height="57.700001"
           rx="12.46"
           id="rect9261" />
        <rect
           class="cls-9"
           x="6005.0601"
           y="620.22998"
           width="28.33"
           height="646.70001"
           id="rect9263" />
        <rect
           class="cls-9"
           x="6560.0898"
           y="620.22998"
           width="28.33"
           height="646.70001"
           id="rect9265" />
        <rect
           class="cls-9"
           x="6057.6602"
           y="1060.25"
           width="198.34"
           height="31.67"
           rx="5.5100002"
           id="rect9267" />
        <rect
           class="cls-9"
           x="6341.5601"
           y="1060.25"
           width="198.34"
           height="31.67"
           rx="5.5100002"
           id="rect9269" />
        <path
           class="cls-21"
           d="m 8700.17,1534.66 c -2.92,4.42 -5.92,8.75 -9,13 -6.09,8.57 -12.31,16.92 -18.29,25.27 a 310.75,310.75 0 0 0 -20.63,32 c -107.14,-9.56 -205.56,-19.42 -243.76,-13.63 -4.79,0.72 -19.73,3.38 -23.33,-2.78 -2,-3.42 -0.22,-9 4,-15.56 8.72,-13.36 27.84,-30.44 46,-39.77 a 69.06,69.06 0 0 1 17.23,-6.86 c 17.17,-4 29.09,1.94 60.55,-9.81 37.4,-14 42.44,-27.36 62.23,-24.44 16.87,2.49 17.28,12.14 45.55,27.78 20.44,11.3 48.86,27 72.79,18.1 a 33.76,33.76 0 0 0 6.66,-3.3 z"
           transform="translate(-701.01,-425.93)"
           id="path9271" />
        <path
           class="cls-9"
           d="m 8691.21,1547.68 c -6.09,8.57 -12.31,16.92 -18.29,25.27 a 310.75,310.75 0 0 0 -20.63,32 q -3.23,5.86 -6,11.94 c -0.34,0.75 -0.67,1.51 -1,2.27 -137.86,-4.73 -259.48,-17.15 -260.15,-30.62 -0.17,-3.28 6.69,-9.84 15.16,-15.56 a 91.82,91.82 0 0 1 11.51,-6.66 74.89,74.89 0 0 1 23.33,-6.67 c 26.06,-3.59 59.16,-9.72 77.78,-16.67 37.4,-14 42.44,-27.36 62.23,-24.44 20,3 20.9,17.59 45.55,27.77 21.3,8.74 40.3,6.03 70.51,1.37 z"
           transform="translate(-701.01,-425.93)"
           id="path9273" />
        <path
           class="cls-26"
           d="m 8672.92,1573 a 310.75,310.75 0 0 0 -20.63,32 q -3.23,5.86 -6,11.94 c -0.34,0.75 -0.67,1.51 -1,2.27 a 126.11,126.11 0 0 0 -7.59,23.83 h -247.59 l -25,-70 z"
           transform="translate(-701.01,-425.93)"
           id="path9275" />
        <path
           class="cls-9"
           d="m 8638.13,1693 h -248 v -50 h 247.65 c 0,0 0,0.07 0,0.1 a 119.19,119.19 0 0 0 -0.8,43.34 c 0,0.24 0.07,0.48 0.11,0.72 q 0.45,2.95 1.04,5.84 z"
           transform="translate(-701.01,-425.93)"
           id="path9277" />
        <rect
           class="cls-8"
           x="5891.5601"
           y="1260.47"
           width="2115.05"
           height="18.76"
           id="rect9279" />
        <path
           class="cls-1"
           d="m 7769.59,613.68 c 28.26,-0.58 45.39,-12.73 66.75,-23.38 24.07,-12 91.23,-45.44 140.65,-26 46.37,18.29 82.22,85.18 61.53,128 -8.92,18.48 -30,35.81 -52.29,39.74 -16.35,2.87 -66.34,-3.3 -49.78,-2.07 v 0 c 0,0 -41.12,67.46 -106,102 -21.3,11.34 -50.37,26.82 -80.42,18 -20.28,-5.95 -50.29,-25.67 -50.29,-25.68 v 0 c 0,0 -11.55,24.92 -18.69,35.29 -19.86,28.87 -73,43.05 -102.64,25.56 -19.08,-11.25 -35.85,-39.93 -35.85,-39.92 v 0 c 0,0 -58,26 -85.66,6.48 -21.39,-15 -25.58,-57.74 -25.62,-57.87 v 0 c 0,0 0.74,-29 11,-47.88 10.14,-18.7 34,-35.6 55.08,-32.68 22.37,3.1 44.05,28.81 44.05,28.82 v 0 c 0,0 15.93,-89.86 70.9,-124.73 41,-26 96.42,-16.88 99.44,-16.34 24.76,4.46 33.34,13.16 57.84,12.66 z"
           transform="translate(-701.01,-425.93)"
           id="path9281" />
        <ellipse
           class="cls-13"
           cx="6500.6001"
           cy="1498.5"
           rx="266.85999"
           ry="68.480003"
           id="ellipse9283" />
        <ellipse
           class="cls-13"
           cx="7307.04"
           cy="1493.96"
           rx="272.62"
           ry="76.269997"
           id="ellipse9285" />
        <path
           class="cls-12"
           d="m 7358.9,1843.12 -3.82,25.56 c -1.13,7.57 -2.26,15.14 -3,20.06 l -0.83,5.51 a 62.73,62.73 0 0 1 -13.52,3.52 36.4,36.4 0 0 1 -4.27,0.23 53.1,53.1 0 0 1 -13.95,-2 l 1.77,-50 29.11,-2.28 z"
           transform="translate(-701.01,-425.93)"
           id="path9287" />
        <path
           class="cls-13"
           d="m 7358.9,1843.12 -3.82,25.56 c -1.13,7.57 -2.26,15.14 -3,20.06 -3.15,-0.25 -5.08,-0.33 -5.15,-0.33 q 2,-24.3 3.46,-44.63 z"
           transform="translate(-701.01,-425.93)"
           id="path9289" />
        <path
           class="cls-12"
           d="m 7097.38,1863.1 c -4.08,7.67 -7.17,11.69 -9.58,13.85 a 10.5,10.5 0 0 1 -4.52,2.6 c -3.6,1 -6.93,0.23 -10.58,-0.58 -4.15,-0.93 -10.43,-2.34 -12.93,-6.47 -2.59,-4.29 0.36,-9.06 3.53,-18.22 7.6,-22 4.31,-34.11 11.16,-36.43 2.22,-0.76 4.62,0.28 9.41,2.35 4.79,2.07 11.12,4.81 15.87,8.91 a 18.8,18.8 0 0 1 6.46,9.89 c 1.22,5.2 -2.13,11.5 -8.82,24.1 z"
           transform="translate(-701.01,-425.93)"
           id="path9291" />
        <path
           class="cls-13"
           d="m 7097.38,1863.1 c -4.08,7.67 -7.17,11.69 -9.58,13.85 -2,-1.07 -4.13,-2.17 -6.28,-3.27 0,0 5.32,-11.79 7.26,-16.19 6.17,-14 9.88,-25.29 11,-28.38 a 18.8,18.8 0 0 1 6.46,9.89 c 1.18,5.2 -2.17,11.5 -8.86,24.1 z"
           transform="translate(-701.01,-425.93)"
           id="path9293" />
        <path
           class="cls-15"
           d="m 7132.75,1937.81 c 1.32,0 2.65,0 4,-0.08 11.9,-0.46 29,-1.12 32.9,-10.57 4.42,-10.75 -11.15,-25.91 -12.34,-27 -5.19,-4.95 -12.93,-8.27 -28.2,-14.69 -18.79,-7.9 -18.66,-6.37 -27.62,-11.17 -3.4,-1.81 -6,-3.41 -8.15,-4.82 a 31.35,31.35 0 0 1 -11.83,4.24 c -4.29,0.6 -9.45,1.33 -14.11,-1.77 -5,-3.3 -6.31,-8.91 -6.66,-10.73 a 17.26,17.26 0 0 0 -7.44,4.27 c -8.59,8.55 -4.25,23.89 -3.53,26.45 4.39,15.52 17.56,23.63 28.8,30.55 a 105,105 0 0 0 54.17,15.36"
           transform="translate(-701.01,-425.93)"
           id="path9295" />
        <path
           class="cls-15"
           d="m 7412,1933.12 c -8.23,1 -20.32,0.36 -40.76,-1.85 -50.25,-5.42 -56.46,-10.11 -59.95,-15.87 -5,-8.32 -5.29,-20.78 0.59,-28.21 0.79,-1 2.67,-3.13 8.13,-5 6.36,8.42 16.59,11.43 24.2,8 a 15,15 0 0 0 2.88,-1.71 20,20 0 0 0 6.42,-9.25 c 3.38,0.34 6.89,0.84 11.19,1.42 4.3,0.58 9.39,1.24 15.94,1.9 27.07,2.71 34.76,1.91 45.25,8.82 4.06,2.66 12.24,8 12.93,16.45 0.86,10.41 -10.35,18.54 -12.34,20 -3.89,2.82 -8,4.61 -14.48,5.38"
           transform="translate(-701.01,-425.93)"
           id="path9297" />
        <path
           class="cls-13"
           d="m 7426.48,1927.74 c -3.89,2.82 -8,4.61 -14.48,5.38 4.81,-8.75 7.62,-18 4.13,-24.81 -3.74,-7.35 -13.71,-10 -30.27,-14.28 -17.27,-4.5 -36.86,-5.53 -38.77,-5.61 a 20,20 0 0 0 6.42,-9.25 c 3.38,0.34 6.89,0.84 11.19,1.42 4.3,0.58 9.39,1.24 15.94,1.9 27.07,2.71 34.76,1.91 45.25,8.82 4.06,2.66 12.24,8 12.93,16.45 0.86,10.41 -10.35,18.54 -12.34,19.98 z"
           transform="translate(-701.01,-425.93)"
           id="path9299" />
        <path
           class="cls-13"
           d="m 7169.66,1927.16 c -3.87,9.45 -21,10.11 -32.9,10.57 -1.36,0 -2.69,0.08 -4,0.08 8.87,-4.74 17,-10.93 16.79,-17.84 -0.07,-2.4 -1.17,-5.94 -19.76,-18.48 0,0 -4.73,-3.19 -13.13,-8.26 -8.4,-5.07 -20.46,-12 -35.13,-19.55 a 31.35,31.35 0 0 0 11.83,-4.24 c 2.15,1.41 4.75,3 8.15,4.82 9,4.8 8.83,3.27 27.62,11.17 15.27,6.42 23,9.74 28.2,14.69 1.18,1.13 16.75,16.29 12.33,27.04 z"
           transform="translate(-701.01,-425.93)"
           id="path9301" />
        <path
           class="cls-32"
           d="m 7259.59,1345.28 c -0.15,1.59 -0.38,4 -0.67,6.88 -9.94,100.91 -15.34,155.68 -24.5,198.72 -7.11,33.42 -22.49,69.59 -53.59,141.79 -32.62,75.73 -74.68,158.41 -74.68,158.42 l -13.42,-3 -27.89,-6.19 c 0,0 0.76,-24.33 0.81,-25.83 0.38,-11.84 2.88,-49.39 14.69,-98.72 13.82,-57.76 21.37,-52.17 27.17,-87.16 5.42,-32.68 -0.34,-38.91 -5.29,-105.76 -0.71,-9.71 -13.14,-74.69 7.05,-141 8.24,-27.06 26.59,-70.26 26.59,-70.26 0,0 31.74,0.76 62.43,13.57 a 91.41,91.41 0 0 1 9.62,4.73 c 0,0 3.53,2 12.41,6.13 5.84,2.71 16.43,4.69 25.21,6 6.75,0.95 12.47,1.51 14.06,1.68 z"
           transform="translate(-701.01,-425.93)"
           id="path9303" />
        <path
           class="cls-32"
           d="m 7358.9,1865.45 c -3.66,0 -7,-0.1 -10.11,-0.22 -4.85,-0.2 -8.91,-0.49 -12.07,-0.76 -7.69,-0.66 -19,-2 -19,-2 0,0 -5.92,-33.21 -9.4,-57 -4.69,-32 -6.08,-54.47 -6.8,-62.57 -7,-78.94 -69.65,-131 -93.69,-249.49 -8.95,-44.07 -7.54,-72.62 -0.59,-98.14 10.67,-39.21 36.88,-80.34 55.41,-82.63 a 12,12 0 0 1 4,0.14 c 13.68,2.89 11.57,31.46 26.42,91.89 16.48,67.09 29.2,73.1 52.89,152.8 15.51,52.18 23.29,78.34 27,116.36 9.46,95.73 -14.05,191.53 -14.06,191.62 z"
           transform="translate(-701.01,-425.93)"
           id="path9305" />
        <path
           class="cls-13"
           d="m 7259.59,1345.28 c -0.15,1.59 -0.38,4 -0.67,6.88 -9.94,100.91 -15.34,155.68 -24.5,198.72 -7.11,33.42 -22.49,69.59 -53.59,141.79 -32.62,75.73 -74.68,158.41 -74.68,158.42 l -13.42,-3 c 3.83,-9.48 6.19,-16.63 7,-19 11.71,-33.56 74.88,-135.08 104.5,-236.26 8.91,-30.45 15.67,-75.22 29.19,-164.76 6.71,-44.44 11.08,-76.86 12.1,-84.53 6.76,1.01 12.48,1.57 14.07,1.74 z"
           transform="translate(-701.01,-425.93)"
           id="path9307" />
        <path
           class="cls-13"
           d="m 7358.9,1865.45 c -3.66,0 -7,-0.1 -10.11,-0.22 9.43,-121.46 7.24,-155.63 7.24,-155.63 -2.18,-34 -6.57,-72.55 -19.46,-118.7 -9.65,-34.53 -16.54,-45.82 -40.87,-118.7 -14.72,-44.1 -22.14,-66.5 -25.3,-83.68 -3.28,-17.85 -7.33,-48.6 -7.71,-75.84 a 12,12 0 0 1 4,0.14 c 13.68,2.89 11.57,31.46 26.42,91.89 16.48,67.09 29.2,73.1 52.89,152.8 15.51,52.18 23.29,78.34 27,116.36 9.42,95.69 -14.09,191.49 -14.1,191.58 z"
           transform="translate(-701.01,-425.93)"
           id="path9309" />
        <path
           class="cls-22"
           d="m 7358.9,931.93 c -2.6,12.41 -13,22.35 -23.67,27.16 -7.19,3.25 -14.48,4.17 -19.53,1.93 -9.32,-4.14 -9.32,-18.29 -21.15,-21.16 -5.2,-1.26 -9.73,0.46 -13.23,1.77 -2.47,0.92 -18.14,6.77 -19.42,20.75 -4,-2.35 -8.77,-3.22 -13.19,-1.36 -8.63,3.63 -10.49,15.36 -7.05,22.92 0.28,0.62 4.41,9.32 13.22,9.69 a 14.2,14.2 0 0 0 9.75,-3.45 242.69,242.69 0 0 0 9.64,30.78 98.52,98.52 0 0 0 5.95,13.32 c 6.73,12.25 12.66,14.28 15.21,14.89 8.94,2.14 17.77,-3.38 22.72,-7.32 2.64,9.15 4.76,22.17 0.2,35.53 -9.43,27.61 -41.17,38.36 -59.62,46.49 -48.39,21.34 -29.29,35.24 -135.19,125.4 0,0 -70.76,58.84 -126.29,65 a 86.92,86.92 0 0 1 -15.64,0.22 c -10.42,-0.7 -39.41,-3.09 -63.47,-24.68 -18.93,-17 -26.91,-38.77 -30.13,-56.87 a 133.69,133.69 0 0 1 -1.6,-33.93 c 0.23,-2.93 3.24,-36 26.44,-65.23 8.47,-10.68 20.47,-25.81 36.15,-25.56 7.55,0.12 12.66,3.76 15.86,0.88 5.21,-4.67 -4.38,-17.79 -4.4,-32.61 0,-19 15.67,-33.53 26.44,-43.2 45.5,-40.85 82.54,-18.74 122.53,-56.41 15.75,-14.84 28.93,-36.11 38.78,-52 18.66,-30.08 19.29,-40.69 33.5,-47.6 20.8,-10.09 48.69,-1.59 62.59,2.65 15.78,4.81 14.88,7.71 26.45,9.7 26.24,4.5 35.51,-9.67 53.77,-5.29 18.53,4.42 38.87,26.15 34.38,47.59 z"
           transform="translate(-701.01,-425.93)"
           id="path9311" />
        <path
           class="cls-13"
           d="m 7318.35,1077.38 c -9.43,27.61 -41.17,38.36 -59.62,46.49 -48.39,21.34 -29.29,35.24 -135.19,125.4 0,0 -70.76,58.84 -126.29,65 a 86.92,86.92 0 0 1 -15.64,0.22 c -10.42,-0.7 -39.41,-3.09 -63.47,-24.68 -18.93,-17 -26.91,-38.77 -30.13,-56.87 a 120.62,120.62 0 0 0 39.91,23.25 c 32.37,11.13 79,11.16 98.59,-13 17.06,-21 0.76,-44.15 15.57,-67.46 19.72,-31 66.54,-17.44 114.16,-28.54 67.36,-15.69 89.29,-69 124,-112.94 6.73,12.25 12.66,14.28 15.21,14.89 8.94,2.14 17.77,-3.38 22.72,-7.32 2.62,9.18 4.74,22.18 0.18,35.56 z"
           transform="translate(-701.01,-425.93)"
           id="path9313" />
        <path
           class="cls-12"
           d="m 7537.84,1345.36 a 10.35,10.35 0 0 1 -2.89,3.9 c -6.74,5.83 -21.49,5.82 -35.89,5.79 -11.87,0 -32.51,0 -41.68,-6.86 a 11,11 0 0 1 -4.16,-5.48 c -1.92,-6 2.18,-13.57 7.05,-17.63 8.5,-7.08 16.28,-0.93 43.11,-2.07 15.58,-0.66 20.49,-3 26.53,1.19 6.55,4.6 10.77,14.44 7.93,21.16 z"
           transform="translate(-701.01,-425.93)"
           id="path9315" />
        <path
           class="cls-13"
           d="m 7535,1349.26 c -6.74,5.83 -21.49,5.82 -35.89,5.79 -11.87,0 -32.51,0 -41.68,-6.86 a 95.27,95.27 0 0 0 25.13,0.44 c 15.37,-1.8 19.93,-5.89 32.11,-4.87 a 62.52,62.52 0 0 1 20.33,5.5 z"
           transform="translate(-701.01,-425.93)"
           id="path9317" />
        <path
           class="cls-28"
           d="m 7487.6,1321.56 a 64.14,64.14 0 0 1 -5.29,18.51 53.61,53.61 0 0 1 -5.93,9.07 c -1.11,1.47 -3.95,5.11 -3.95,5.11 v 0 c 0,0 -45.16,-1.61 -83.56,-17.71 -15,-6.3 -35.19,-14.75 -51.13,-34.38 -13.54,-16.67 -17.87,-33.81 -21.91,-61.61 -0.9,-6.22 -1.79,-13 -2.77,-20.37 -5.72,-43.39 1.67,-45 -5.15,-94.31 -2.87,-20.75 -6,-33.63 -1.68,-35.64 6.72,-3.11 25.89,22.69 37.68,42.68 15.45,26.2 16.37,39.29 27.33,67.88 14.13,36.86 37,96.56 78.45,110.19 7.89,2.59 37.91,10.58 37.91,10.58 z"
           transform="translate(-701.01,-425.93)"
           id="path9319" />
        <path
           class="cls-13"
           d="m 7476.38,1349.14 -3.95,5.11 v 0 c 0,0 -45.16,-1.61 -83.56,-17.71 -15,-6.3 -35.19,-14.75 -51.13,-34.38 -13.54,-16.67 -17.87,-33.81 -21.91,-61.61 A 101.25,101.25 0 0 0 7321,1227 c 3.42,-11.34 3.08,-17 2.92,-60.33 -0.14,-37.73 -0.2,-56.59 0.6,-56.69 3.41,-0.39 23.63,59.43 12.44,105.85 a 99,99 0 0 0 -3.31,29.65 97.5,97.5 0 0 0 10.7,39.9 105.69,105.69 0 0 0 25.3,31.13 c 23.93,20.3 50.3,25.08 73,29.19 12.64,2.3 22.21,4.04 33.73,3.44 z"
           transform="translate(-701.01,-425.93)"
           id="path9321" />
        <path
           class="cls-12"
           d="m 7261.9,962.38 c -4,-2.35 -8.77,-3.22 -13.19,-1.36 -5.95,2.5 -8.68,8.85 -8.68,15 a 19.28,19.28 0 0 0 1.63,7.9 19.7,19.7 0 0 0 3.83,5.37 14,14 0 0 0 9.39,4.32 14.2,14.2 0 0 0 9.75,-3.45 211.65,211.65 0 0 0 7.2,24.09 c 0.87,2.45 1.7,4.7 2.44,6.69 4.49,12.14 9,19 12.71,22.91 a 19.47,19.47 0 0 0 6,4.43 13.71,13.71 0 0 0 2.5,0.87 17.6,17.6 0 0 0 4.11,0.48 c 0.33,0 0.67,0 1,0 0.33,0 0.55,0 0.82,-0.06 0.27,-0.06 0.72,-0.08 1.07,-0.13 0.35,-0.05 0.72,-0.11 1.07,-0.18 l 0.84,-0.18 0.28,-0.07 0.8,-0.22 0.77,-0.23 0.77,-0.26 0.64,-0.23 c 0.42,-0.16 0.84,-0.33 1.25,-0.51 0.41,-0.18 0.67,-0.29 1,-0.45 l 1,-0.47 0.83,-0.44 c 1.1,-0.59 2.14,-1.23 3.1,-1.87 0.41,-0.27 0.81,-0.54 1.19,-0.82 0.2,-0.13 0.39,-0.27 0.57,-0.4 l 0.58,-0.44 c 0.37,-0.27 0.72,-0.55 1.06,-0.81 1.84,-1.47 3.14,-2.71 3.72,-3.26 19.57,-18.65 16.37,-50 14.11,-72.28 -0.26,-2.55 -0.51,-4.95 -0.75,-7.22 -7.19,3.25 -14.48,4.17 -19.53,1.93 -9.32,-4.14 -9.32,-18.29 -21.15,-21.16 -5.2,-1.26 -9.73,0.46 -13.23,1.77 -2.47,0.92 -18.14,6.77 -19.42,20.75 -4,-2.35 -8.77,-3.22 -13.19,-1.36 -5.95,2.5 -8.68,8.85 -8.68,15 a 19.28,19.28 0 0 0 1.63,7.9 19.7,19.7 0 0 0 3.83,5.37 14,14 0 0 0 9.39,4.32 14.2,14.2 0 0 0 9.75,-3.45 211.65,211.65 0 0 0 7.2,24.09 c 0.87,2.45 1.7,4.7 2.44,6.69 4.49,12.14 9,19 12.71,22.91 a 19.47,19.47 0 0 0 6,4.43 13.71,13.71 0 0 0 2.5,0.87 17.6,17.6 0 0 0 4.11,0.48 c 0.33,0 0.67,0 1,0 0.33,0 0.55,0 0.82,-0.06 0.27,-0.06 0.71,-0.07 1.07,-0.13 0.36,-0.06 0.72,-0.11 1.07,-0.18 l 0.84,-0.18 0.28,-0.07 0.8,-0.22 0.77,-0.23 0.77,-0.26 0.64,-0.23 c 0.42,-0.16 0.84,-0.33 1.25,-0.51 0.41,-0.18 0.67,-0.29 1,-0.45 l 1,-0.47 0.83,-0.44 c 1.1,-0.59 2.14,-1.23 3.1,-1.87 0.41,-0.27 0.81,-0.54 1.19,-0.82 0.2,-0.13 0.39,-0.27 0.57,-0.4 l 0.58,-0.44 c 0.37,-0.27 0.72,-0.55 1.06,-0.81"
           transform="translate(-701.01,-425.93)"
           id="path9323" />
        <path
           class="cls-12"
           d="m 7306.89,1102.06 c -0.08,16.39 -32.72,36.54 -62.59,31.73 -26,-4.18 -49.33,-27.18 -45.84,-40.55 2.71,-10.33 19.17,-6.12 39.67,-22.91 18.29,-15 26.37,-35.69 29.95,-44.92 a 125,125 0 0 0 5.75,-19.24 c 2.87,-13.24 2.62,-21 7.48,-22.19 7.71,-1.92 23.18,14 24.68,31.73 a 31.79,31.79 0 0 1 -0.46,8.76 c -3.72,19 -23.89,29.56 -20.05,47.88 3,14.41 17.43,17.06 20.72,25.88 a 10.62,10.62 0 0 1 0.69,3.83 z"
           transform="translate(-701.01,-425.93)"
           id="path9325" />
        <path
           class="cls-13"
           d="m 7306.22,1098.19 c -15.46,-7.28 -27.57,-15.56 -27.6,-23.18 a 116.59,116.59 0 0 1 1.3,-17.73 c 1.07,-6.42 2.18,-8.89 1.29,-13 -1.15,-5.35 -4.47,-7.67 -8.21,-12.11 a 62,62 0 0 1 -4.92,-6.79 c 1.54,-4 2.75,-7.67 3.73,-11.1 0.87,2.45 1.7,4.7 2.44,6.69 4.49,12.14 9,19 12.71,22.91 a 19.47,19.47 0 0 0 6,4.43 c -5.14,7.42 -9.38,14.71 -7.43,24 2.99,14.41 17.4,17.06 20.69,25.88 z"
           transform="translate(-701.01,-425.93)"
           id="path9327" />
        <path
           class="cls-28"
           d="m 7332.45,1214 c -1.6,14.35 -2.8,25 -7.93,38.79 a 72.24,72.24 0 0 1 -4.69,10.36 c -3.24,5.85 -7.22,11.23 -15.59,27.54 -9.26,18.06 -14.09,27.62 -17.63,41.43 -0.88,3.43 -1.49,6.37 -1.92,8.91 a 83,83 0 0 0 -1.13,12.94 c 0,0.06 0,0.13 0,0.19 a 379.17,379.17 0 0 1 -110.43,-22.08 372.89,372.89 0 0 1 -37.62,-16 q 1,-7.62 1.86,-14.74 a 0.13,0.13 0 0 1 0,-0.06 q 0.39,-3.15 0.78,-6.21 c 1.4,-11 2.69,-21 3.83,-29.78 0,0 0.28,-2.18 0.83,-6.06 2.1,-14.79 8.07,-54.25 17,-91.6 q 1,-4.32 2.11,-8.6 c 8.56,-33.72 19.52,-63.94 32.17,-70.18 a 103.65,103.65 0 0 1 28.27,-8.71 h 0.07 a 269,269 0 0 0 25.43,14 c 8,3.65 33.58,15.37 43.19,6.17 4.51,-4.32 2.14,-10 6.1,-11.87 6.4,-3 20,8.46 27.4,21.56 4.45,7.9 5.6,14.57 7,40.55 1.79,31.7 2.65,47.88 0.9,63.45 z"
           transform="translate(-701.01,-425.93)"
           id="path9329" />
        <path
           class="cls-12"
           d="m 6974.62,959.12 c -0.15,0.4 -0.31,0.81 -0.5,1.24 -2,4.77 -6.4,11 -12.47,11.73 -5.83,0.69 -10.74,-4 -15.56,-9.06 v 0 c -19.83,-20.79 -29.75,-31.19 -35,-48.26 -2.73,-8.91 -7.13,-24.07 -0.18,-38.65 3.2,-6.69 9.59,-14.93 14.39,-13.85 4.8,1.08 3.57,10.87 12.24,23.24 5,7.08 12.27,13.71 15,12.22 3.22,-1.75 -1.42,-14 1.29,-15.13 v 0 c 1.65,-0.66 5.25,3 7.55,7 5.68,9.94 -0.3,15.69 2.73,28.65 2.42,10.32 7.14,10.49 10.11,22.53 0.12,0.48 0.24,1 0.35,1.51 1.19,5.23 2.3,10.71 0.05,16.83 z"
           transform="translate(-701.01,-425.93)"
           id="path9331" />
        <path
           class="cls-13"
           d="m 7319.83,1263.16 c -3.24,5.85 -7.22,11.23 -15.59,27.54 -9.26,18.06 -14.09,27.62 -17.63,41.43 -0.88,3.43 -1.49,6.37 -1.92,8.91 a 83,83 0 0 0 -1.13,12.94 c 0,0.06 0,0.13 0,0.19 a 379.17,379.17 0 0 1 -110.43,-22.08 372.89,372.89 0 0 1 -37.62,-16 q 1,-7.62 1.86,-14.74 a 0.13,0.13 0 0 1 0,-0.06 q 0.39,-3.15 0.78,-6.21 c 14.11,1.42 34.84,5.65 70.46,14.29 42.56,10.33 53.15,14 64.22,6.81 6.17,-4 14.07,-14.41 29.88,-35.17 8.89,-11.72 11.21,-15.7 17.12,-17.85 z"
           transform="translate(-701.01,-425.93)"
           id="path9333" />
        <path
           class="cls-13"
           d="m 7161.89,1159 c 4.66,0.22 8.28,0.75 14.61,-1.44 10.88,-3.77 16.92,-11.14 20.43,-8.76 2.23,1.52 1.71,5.83 1.63,6.36 v 0 c -1.26,9.33 -13.87,11.59 -24,19.9 -8.26,6.77 -11.67,16.51 -18.49,36 -11.53,33 -8.67,47.42 -13.26,48.13 2.1,-14.79 8.07,-54.25 17,-91.6 a 100.69,100.69 0 0 1 -23,-3.31"
           transform="translate(-701.01,-425.93)"
           id="path9335" />
        <path
           class="cls-28"
           d="m 7198.56,1155.18 v 0 a 55.74,55.74 0 0 1 -7.29,5 c -9.45,5.43 -20.16,7.64 -31.49,7.42 a 100.69,100.69 0 0 1 -23,-3.31 c -35.06,-8.94 -72,-34.22 -94.73,-54.71 -61.75,-55.64 -95.47,-145.18 -96,-146.57 v 0 a 38.37,38.37 0 0 0 19.46,-10.38 37.09,37.09 0 0 0 3.13,-3.58 38,38 0 0 0 5.09,-9 l 0.51,0.65 c 53.08,67.59 92.44,116.53 97.65,122.16 a 88,88 0 0 0 10.87,9.78 c 1.44,1.07 3,2.13 4.7,3.19 10.67,6.63 29.18,14.3 76.94,9.73 39.83,-3.82 50.21,-11.36 57,-6.33 a 9.74,9.74 0 0 1 1,0.86 v 0 c 11.75,11.65 1.94,54.33 -23.84,75.09 z"
           transform="translate(-701.01,-425.93)"
           id="path9337" />
        <path
           class="cls-13"
           d="m 7221.39,1079.27 c -15.53,10.83 -43.34,19.5 -66.77,22.22 -12.2,1.42 -33,3.62 -57.41,-3.89 -42.42,-13 -65.57,-47.93 -111.89,-117.73 a 188.64,188.64 0 0 1 -11.2,-19.51 c -1.72,-3.37 -3.56,-7.14 -5.45,-11.31 -2.19,-4.79 -4.45,-10.1 -6.7,-15.88 -2.91,-7.48 -4.33,-12.53 -4.65,-18.59 -0.58,-11.06 3.1,-13.83 1.49,-21.65 a 25.13,25.13 0 0 0 -4.93,-10.36 c 1.65,-0.66 5.25,3 7.55,7 5.68,9.94 -0.3,15.69 2.73,28.65 2.42,10.32 7.14,10.49 10.11,22.53 53.08,67.59 92.44,116.53 97.65,122.16 a 88,88 0 0 0 10.87,9.78 c 1.44,1.07 3,2.13 4.7,3.19 10.67,6.63 29.18,14.3 76.94,9.73 39.83,-3.83 50.21,-11.37 56.96,-6.34 z"
           transform="translate(-701.01,-425.93)"
           id="path9339" />
        <path
           class="cls-17"
           d="m 7284.69,1341 c -0.37,4.32 -0.75,8.62 -1.13,12.94 0,0.06 0,0.13 0,0.19 a 379.17,379.17 0 0 1 -110.43,-22.08 372.89,372.89 0 0 1 -37.62,-16 l -0.71,-0.35 q 1.29,-7.2 2.57,-14.39 a 0.13,0.13 0 0 1 0,-0.06 q 38.39,11.26 78.56,22.06 34.87,9.38 68.76,17.69 z"
           transform="translate(-701.01,-425.93)"
           id="path9341" />
        <path
           class="cls-12"
           d="m 7787.31,1291.58 c -3.15,4.25 -8.74,1 -23.84,2.23 a 79.48,79.48 0 0 0 -11.91,1.84 c -6.49,1.52 -11.36,3.55 -16,5.17 -5.27,1.8 -10.31,3.08 -17.2,2.49 -0.78,-0.06 -1.58,-0.15 -2.41,-0.27 a 50.16,50.16 0 0 1 -10.62,-2.4 c -3.77,-1.41 -7.28,-3.65 -8.77,-7.29 -3.4,-8.28 4.91,-19.62 12.78,-24.68 a 25.75,25.75 0 0 1 4.68,-2.38 c 0.76,-0.3 1.55,-0.58 2.37,-0.82 4.09,-1.26 8.95,-2 15.43,-3 5,-0.76 5.12,-0.45 12.24,-1.25 20.91,-2.34 21.85,-3.86 26.1,-2.72 10.12,2.71 18.09,16 18.8,25.61 0.19,3.02 -0.3,5.65 -1.65,7.47 z"
           transform="translate(-701.01,-425.93)"
           id="path9343" />
        <path
           class="cls-12"
           d="m 7648.9,1659 c -1.13,2.91 -2.27,5.57 -3.22,7.8 a 110.15,110.15 0 0 1 -14.1,23.5 c -16.59,22.24 -26.84,22.83 -29.38,36.44 -0.12,0.62 0,-0.08 0,24.68 0,10.42 -0.1,15.69 -3.53,18.81 -3.76,3.41 -10.14,3.77 -14.69,1.76 -3.92,-1.73 -6.44,-5.19 -8.07,-9.1 -2.61,-6.24 -2.95,-13.59 -3.1,-16.76 -0.66,-14.32 5.07,-25.33 8.82,-32.32 7.9,-14.76 12.83,-14.4 18.21,-24.1 4.67,-8.41 5.31,-16.5 4.55,-24.14 -1.52,-15.25 -8.62,-28.72 -0.43,-39.32 9,-11.61 31.77,-14.08 43.13,-6.43 a 16.72,16.72 0 0 1 3.29,2.9 c 7.62,8.79 3.08,24.59 -1.48,36.28 z"
           transform="translate(-701.01,-425.93)"
           id="path9345" />
        <path
           class="cls-12"
           d="m 7824.6,1626.73 c 0,1.11 -1.12,2 -3.25,2.93 -3.29,1.47 -8.89,3.1 -15.82,6 -17.22,7.24 -22.44,13.9 -27.62,11.16 -2.85,-1.5 -3.07,-4.48 -5.29,-12.34 -4.34,-15.37 -6.57,-23.25 -11.75,-29.38 -9.22,-10.91 -26.32,-14.51 -30,-15.28 -7.78,-1.64 -12.42,-1.06 -14.7,-4.7 -3.89,-6.22 3.72,-17.37 4.71,-18.81 7.22,-10.58 20,-17 20,-17 a 58.81,58.81 0 0 1 10.44,1.94 c 1.65,0.45 3.4,1 5.2,1.68 a 41.78,41.78 0 0 1 13.74,8.13 35,35 0 0 1 7,9.41 c 4.51,8.14 5.4,16 6.47,26.44 1.07,10.44 0.29,14.1 3.52,19.4 1.62,2.65 3.68,6 7.64,7.63 7.66,3.1 13.5,-4.11 23.52,-1.18 1.11,0.24 6.09,1.73 6.19,3.97 z"
           transform="translate(-701.01,-425.93)"
           id="path9347" />
        <path
           class="cls-24"
           d="m 7738.54,1575.73 a 87.55,87.55 0 0 1 -7.64,14.1 c 0,0 -1.37,-0.14 -3.59,-0.32 v 0 c -4.26,-0.34 -11.66,-0.85 -18.74,-0.86 -6.63,0 -12.07,0 -19.11,1.27 -8.5,1.55 -15,2.73 -20.14,7.15 -3.22,2.75 -4.91,5.87 -9.52,24.49 -2.36,9.49 -4.41,18.75 -5.88,25.64 -1.47,6.89 -2.35,11.39 -2.35,11.39 l -2.66,0.43 c -2.18,0.35 -5.54,0.9 -9.52,1.52 -9.37,1.48 -22.13,3.43 -30.72,4.51 l -4.27,0.54 -0.86,0.1 -4.27,0.54 a 333.57,333.57 0 0 1 -6.47,-47.6 c -0.2,-3.69 0.07,-15.78 0.59,-40 0.43,-19.91 0.59,-20.64 1.35,-22 11.23,-20.43 61.63,-14.9 82.1,-12.65 17.26,1.9 24.68,2.94 24.68,2.94 10.53,1.48 12.23,2 18.22,2.35 0,0 1.82,0.1 8.09,0.1 3.14,0 7.38,0 13.07,-0.1 -0.01,0.03 2.44,14.04 -2.36,26.46 z"
           transform="translate(-701.01,-425.93)"
           id="path9349" />
        <path
           class="cls-12"
           d="m 7730.9,1291.29 c -12.07,53.25 -18.1,79.88 -29.39,103.43 l -0.1,0.21 a 417.81,417.81 0 0 1 -31.63,54.61 c -9.49,13.66 -17.16,22.17 -19.4,21 -4.84,-2.53 14.38,-51.08 27.74,-78.92 l 0.29,-0.59 c 1,-2 1.88,-3.85 2.77,-5.59 l 0.35,-0.7 c 6.19,-12.08 13.83,-25.55 24.1,-48.78 16.33,-37 17.06,-48.33 13.51,-55.82 -0.87,-1.85 -5.12,-10 -2.94,-18.22 a 10.83,10.83 0 0 1 2.94,-5.29 12.18,12.18 0 0 1 7.77,-3.07 8.34,8.34 0 0 1 4,0.72 c 7.33,3.82 2.09,27.72 -0.01,37.01 z"
           transform="translate(-701.01,-425.93)"
           id="path9351" />
        <path
           class="cls-12"
           d="m 7611,1470.53 c -10.71,5.91 -39.5,-23.37 -55.24,-45.25 -6,-8.39 -11.78,-18.39 -23.27,-38.38 -13.67,-23.78 -8,-16.38 -16,-29.71 -5.19,-8.64 -9.66,-15.24 -11.82,-25.94 -1.33,-6.6 -2.73,-14 1.76,-18.21 a 12.38,12.38 0 0 1 14.72,-0.8 c 4.62,3.42 4.44,10.42 4.68,14.9 0.63,12 7.47,24.09 21.15,48.19 9.51,16.73 14.26,25.1 23.51,34.08 10.7,10.39 20.24,14.8 27.84,19.14 6.74,3.86 11.95,7.66 15.06,15.54 3.84,9.8 3.41,23.25 -2.39,26.44 z"
           transform="translate(-701.01,-425.93)"
           id="path9353" />
        <path
           class="cls-12"
           d="m 7635.1,1447 a 16.26,16.26 0 0 1 -4.09,5.74 c -6.75,6.28 -18.49,8.83 -22.94,4.84 -1.94,-1.74 -2,-4.32 -0.59,-21.74 1.11,-13.4 1.51,-16.19 1.77,-20 0.22,-3.16 0.28,-6.1 0.22,-8.82 -0.22,-11.75 -2.49,-19.61 -3.05,-24.2 -0.3,-2.4 -0.13,-3.91 1.06,-4.59 1.19,-0.68 2.71,-0.45 4.67,0.35 5.93,2.39 14.66,10.59 18.25,20.8 3.06,8.69 -0.32,11.13 2.35,28.21 1.93,12.41 4.25,14.7 2.35,19.41 z"
           transform="translate(-701.01,-425.93)"
           id="path9355" />
        <path
           class="cls-13"
           d="m 7635.1,1447 a 16.26,16.26 0 0 1 -4.09,5.74 c -0.89,-5.8 -1.18,-11.82 -1.25,-13.21 -0.24,-4.68 -0.13,-10.73 -3,-17.73 a 21.28,21.28 0 0 0 -5.62,-8.22 22.6,22.6 0 0 0 -6.92,-3.89 29,29 0 0 1 -4.72,-2.65 c -0.22,-11.75 -2.49,-19.61 -3.05,-24.2 a 35.3,35.3 0 0 1 5.73,-4.24 c 5.93,2.39 14.66,10.59 18.25,20.8 3.06,8.69 -0.32,11.13 2.35,28.21 1.9,12.39 4.22,14.68 2.32,19.39 z"
           transform="translate(-701.01,-425.93)"
           id="path9357" />
        <path
           class="cls-12"
           d="m 7602.71,1385.61 c -3.51,0.05 -7.94,-2.31 -10.51,-4.4 a 17.87,17.87 0 0 1 -5.87,-9.41 c -0.44,-1.67 -2.3,-8.86 1.17,-11.75 1.79,-1.48 4.58,-1.5 7.43,-0.62 -2.15,-11 -1.8,-21.43 5.5,-28.76 9.46,-9.5 27.89,-11.08 38.79,-2.94 8.82,6.58 9.4,17.31 10.58,38.78 0.92,16.9 1.37,28.49 -6.82,36.75 -4.65,4.69 -12.84,9.06 -20.81,7.33 -10.44,-2.27 -15.62,-14 -19.46,-25 v 0"
           transform="translate(-701.01,-425.93)"
           id="path9359" />
        <path
           class="cls-21"
           d="m 7675.52,1449.89 c -1.07,4.88 -1.73,12.5 12.36,50.41 4.24,11.41 7.1,18.24 6.58,28.41 -0.22,4.34 -0.55,10.71 -4.11,17 -9.51,16.88 -33.76,18.85 -40.55,19.4 -11.21,0.9 -20.81,-1 -32.92,-3.47 -7.83,-1.58 -22.15,-5 -22.15,-5 -0.11,-1.1 -0.22,-2.18 -0.34,-3.23 -3.61,-35 -4.54,-41.15 -4.54,-41.15 -3.83,-25.5 -5.75,-38.25 -12.92,-52.89 -7.6,-15.51 -21.16,-34.09 -21.16,-34.09 l 14.69,-15.87 17,12.34 c 17.22,11 35.76,11.18 38.79,11.17 9.11,0 19.85,-0.05 29.38,-7.05 7.83,-5.74 12.22,-14.26 18.81,-27 0.81,-1.57 2.26,-4.46 3.64,-7.23 l 0.29,-0.59 c 1.17,-2.34 2.24,-4.51 2.77,-5.59 l 0.35,-0.7 c 0,0 1.09,1 2.51,2.3 a 43.39,43.39 0 0 0 4.54,3.58 28.31,28.31 0 0 0 8.34,3.33 35,35 0 0 0 4.59,0.78 l -0.1,0.21 c -1,2.1 -9,19.45 -17.53,37.4 -8.29,17.5 -8.15,16.79 -8.32,17.53 z"
           transform="translate(-701.01,-425.93)"
           id="path9361" />
        <path
           class="cls-17"
           d="m 7661.55,1349.47 c -7.73,6.32 -19.71,4.53 -26.45,3.53 a 95.57,95.57 0 0 1 -28.21,-10 c 0,0 1.44,8.29 -1.76,12.34 -3.2,4.05 -9.49,2 -10.2,4.08 -2.85,-0.88 -5.64,-0.86 -7.43,0.62 -3.47,2.89 -1.61,10.08 -1.17,11.75 a 17.87,17.87 0 0 0 5.87,9.41 c 2.57,2.09 7,4.45 10.5,4.4 v 0 c 2,5.61 4.27,11.41 7.44,16 -2,2.21 -4.17,3.6 -6.19,3.65 -3.07,0.08 -4.22,-3 -9.41,-8.23 -10.41,-10.59 -15.81,-8.53 -26.44,-17.63 -6.33,-5.41 -15,-12.82 -15.87,-24.09 -1,-12.52 8.24,-22.3 9.4,-23.51 2.47,-2.55 5.77,-4.63 12.35,-8.82 10,-6.37 11.42,-5.79 14.69,-8.81 8,-7.42 4.56,-15.47 9.4,-21.75 9.61,-12.44 47.6,-12.33 63.47,10 10.23,14.43 11.21,37.91 0.01,47.06 z"
           transform="translate(-701.01,-425.93)"
           id="path9363" />
        <path
           class="cls-13"
           d="m 7727.3,1589.51 c -4.26,-0.34 -11.66,-0.85 -18.74,-0.86 -6.63,0 -12.07,0 -19.11,1.27 -8.5,1.55 -15,2.73 -20.14,7.15 -3.22,2.75 -4.91,5.87 -9.52,24.49 -2.36,9.49 -4.41,18.75 -5.88,25.64 -1.47,6.89 -2.35,11.39 -2.35,11.39 l -2.66,0.43 c -1.13,2.91 -2.27,5.57 -3.22,7.8 a 110.15,110.15 0 0 1 -14.1,23.5 c -16.59,22.24 -26.84,22.83 -29.38,36.44 -0.12,0.62 0,-0.08 0,24.68 0,10.42 -0.1,15.69 -3.53,18.81 -3.76,3.41 -10.14,3.77 -14.69,1.76 -3.92,-1.73 -6.44,-5.19 -8.07,-9.1 a 37.48,37.48 0 0 1 4.87,0.21 c 4.89,0.53 10.73,2.22 13.62,-1 4.43,-4.89 -4.2,-14.42 -1.94,-28.21 1,-5.85 3.89,-10.14 9.73,-18.49 10.78,-15.42 17.3,-19.3 24.32,-28.22 6.6,-8.38 10,-16.56 12.87,-26.68 1.24,-4.32 2.39,-9 3.67,-14.18 a 137.48,137.48 0 0 0 4,-26.52 c 0.7,-13.55 -0.86,-20 5.69,-27 12.39,-13.23 36.6,-9.85 51.56,-7.76 7.86,1.12 15.7,2.22 23,4.45 z"
           transform="translate(-701.01,-425.93)"
           id="path9365" />
        <path
           class="cls-13"
           d="m 7824.6,1626.73 c 0,1.11 -1.12,2 -3.25,2.93 a 43.31,43.31 0 0 0 -17.11,-0.49 c -8.31,1.35 -13,4.19 -17.51,1.3 -3.14,-2 -3.63,-5.26 -6.49,-18.81 -1.22,-5.78 -3.38,-16 -5.19,-23.35 -3,-12 -4.43,-18 -7.13,-22.71 a 40.82,40.82 0 0 0 -11.39,-12.7 41.78,41.78 0 0 1 13.74,8.13 35,35 0 0 1 7,9.41 c 4.51,8.14 5.4,16 6.47,26.44 1.07,10.44 0.29,14.1 3.52,19.4 1.62,2.65 3.68,6 7.64,7.63 7.66,3.1 13.5,-4.11 23.52,-1.18 1.1,0.27 6.08,1.76 6.18,4 z"
           transform="translate(-701.01,-425.93)"
           id="path9367" />
        <path
           class="cls-13"
           d="m 7730.9,1291.29 c -12.07,53.25 -18.1,79.88 -29.39,103.43 l -0.1,0.21 c -1,2.1 -9,19.45 -17.53,37.4 -8.33,17.53 -8.19,16.82 -8.36,17.56 -1.07,4.88 -1.73,12.5 12.36,50.41 4.24,11.41 7.1,18.24 6.58,28.41 -0.22,4.34 -0.55,10.71 -4.11,17 -9.51,16.88 -33.76,18.85 -40.55,19.4 -11.21,0.9 -20.81,-1 -32.92,-3.47 -7.83,-1.58 -22.15,-5 -22.15,-5 -0.11,-1.1 -0.22,-2.18 -0.34,-3.23 3.28,0.34 7.24,0.74 12,1.17 40.84,3.64 55.8,8.28 68.76,-1.3 1.69,-1.25 8.3,-6.27 11,-14.92 1.39,-4.42 1.52,-9 -2.73,-25.29 -4.41,-17 -7,-21.5 -10.25,-35 -2.5,-10.45 -3.75,-15.67 -3.89,-21.4 a 37.07,37.07 0 0 1 0.46,-7.09 c 1.75,-10.59 8.38,-18.41 19.65,-40.26 2.8,-5.42 5.29,-10.56 7.49,-15.34 a 280.75,280.75 0 0 0 14.57,-37.85 c 0.81,-2.8 1.52,-5.43 2.17,-8 0,0 2.51,-9.8 4.31,-19.93 3.7,-20.81 5.15,-56.35 8.94,-74.65 a 8.34,8.34 0 0 1 4,0.72 c 7.37,3.83 2.13,27.73 0.03,37.02 z"
           transform="translate(-701.01,-425.93)"
           id="path9369" />
        <path
           class="cls-13"
           d="m 7598.3,1428.55 a 50,50 0 0 1 -17.29,-5 42.47,42.47 0 0 1 -13.3,-11.14 c -20,-23.47 -29.41,-42.67 -29.41,-42.67 -11.31,-23 -22.43,-45.64 -24.47,-59.51 a 11.64,11.64 0 0 1 7.29,2 c 4.62,3.42 4.44,10.42 4.68,14.9 0.63,12 7.47,24.09 21.15,48.19 9.51,16.73 14.26,25.1 23.51,34.08 10.7,10.4 20.24,14.81 27.84,19.15 z"
           transform="translate(-701.01,-425.93)"
           id="path9371" />
        <path
           class="cls-12"
           d="m 7535.78,1357.88 c -8.88,9.82 -25.14,7.31 -32.37,-1.6 a 20.84,20.84 0 0 1 -2.87,-20.83 c 0.06,-0.15 0.13,-0.29 0.2,-0.44 a 20.43,20.43 0 0 1 8.51,-9.1 c 6.56,-3.71 15.9,-4.22 22.77,0.67 a 20.26,20.26 0 0 1 6.16,7.2 c 3.91,7.47 3.69,17.36 -2.4,24.1 z"
           transform="translate(-701.01,-425.93)"
           id="path9373" />
        <path
           class="cls-13"
           d="m 7535.78,1357.88 c -8.88,9.82 -25.14,7.31 -32.37,-1.6 a 20.84,20.84 0 0 1 -2.87,-20.83 c 0.06,-0.15 0.13,-0.29 0.2,-0.44 a 17,17 0 0 0 2.76,7.52 c 5.35,7.86 18.38,11.89 26.1,7.5 5.77,-3.27 7.45,-10.61 8.58,-16.25 3.91,7.47 3.69,17.36 -2.4,24.1 z"
           transform="translate(-701.01,-425.93)"
           id="path9375" />
        <path
           class="cls-12"
           d="m 8207.12,1829.68 c 0,5.15 -1.75,11.61 -4.14,18 a 172.43,172.43 0 0 1 -8,17.76 v 0 c -1.64,3.22 -3.09,5.85 -4.06,7.56 -0.76,1.35 -1.22,2.12 -1.22,2.12 0,0 -10.27,6.42 -18.95,4 a 36.41,36.41 0 0 1 -5.17,-2.1 c -1.58,-0.77 -2.76,-1.42 -2.76,-1.42 l 2.66,-16.35 c 0,-0.24 0.07,-0.48 0.11,-0.72 0.85,-5.21 1.79,-11 2.67,-16.42 l 3.37,-20.73 c 0,0 14.45,-4.2 24.76,-3 3.47,0.41 6.48,1.43 8.3,3.43 1.82,2 2.43,4.6 2.43,7.87 z"
           transform="translate(-701.01,-425.93)"
           id="path9377" />
        <path
           class="cls-15"
           d="m 8255.69,1574 c -1.76,137.23 -49.37,273.86 -49.37,273.86 -1.15,0 -2.27,-0.06 -3.34,-0.11 -4.72,-0.22 -8.64,-0.64 -11.56,-1 h -0.37 a 206.24,206.24 0 0 1 -22.77,-4.54 c -3,-0.76 -4.79,-1.29 -4.79,-1.29 0,0 0.16,-6.45 0.33,-13 0.17,-6.55 0.33,-13.16 0.34,-13.5 0.65,-26.14 -8.29,-229.6 -50.69,-397.85 -2.42,-9.6 -20,-78.75 -20,-78.75 l 59.94,-19.4 59.95,-19.39 c 0,0 2.48,7.77 6.24,21.42 12.1,43.82 37.4,148.84 36.09,253.55 z"
           transform="translate(-701.01,-425.93)"
           id="path9379" />
        <path
           class="cls-22"
           d="m 8165.85,1859.17 -0.35,0.07 a 14.32,14.32 0 0 0 -6.63,3.12 c -5.93,5.07 -5.77,13.79 -5.73,15 0.06,1.83 0.52,8.22 9.7,18.07 3.38,3.63 12.79,12.79 30.41,19.39 3.6,1.35 7.24,2.72 11,3.83 7.87,2.34 16.12,3.53 25.18,1 10.8,-3 23.29,-11.4 22.48,-19 -0.14,-1.24 -0.78,-3.89 -13.22,-11.9 a 210.45,210.45 0 0 0 -23.36,-12.78 c -13.16,-6.47 -17.45,-9 -20.28,-10.56 v 0 a 15.53,15.53 0 0 1 -7.92,5.71 15.75,15.75 0 0 1 -10.14,-0.44 c -7.13,-2.58 -10.2,-9.25 -11.09,-11.57 l -0.24,-0.65 v 0"
           transform="translate(-701.01,-425.93)"
           id="path9381" />
        <path
           class="cls-12"
           d="m 7957.69,1835.23 c 0,4.83 -2.7,11 -6.39,17.25 a 158.79,158.79 0 0 1 -13.47,18.76 v 0 c -2.1,2.56 -3.94,4.67 -5.23,6.13 -1.29,1.46 -2,2.18 -2,2.18 0,0 -11.4,4.1 -19.36,-0.15 a 35.86,35.86 0 0 1 -4.61,-3.15 c -1.38,-1.09 -2.39,-2 -2.39,-2 l 6.07,-15.41 0.27,-0.69 3.1,-7.88 10.68,-27.12 c 0,0 26.81,-1.86 32.21,7.45 0.09,0.16 0.18,0.32 0.26,0.49 a 9.37,9.37 0 0 1 0.86,4.14 z"
           transform="translate(-701.01,-425.93)"
           id="path9383" />
        <path
           class="cls-22"
           d="m 7910.68,1858.89 h -0.36 a 14.34,14.34 0 0 0 -7.14,1.65 c -6.88,3.69 -8.57,12.24 -8.78,13.42 -0.33,1.81 -1.24,8.15 5.63,19.72 2.54,4.27 9.79,15.22 25.6,25.41 5.87,3.78 11.85,7.63 18.55,10 a 39.09,39.09 0 0 0 15.74,2.38 c 11.19,-0.62 25.18,-6.19 26,-13.74 0.13,-1.24 0.07,-4 -10.39,-14.44 a 212.05,212.05 0 0 0 -20.11,-17.45 c -5.74,-4.55 -9.53,-7.69 -12.18,-9.95 -2.65,-2.26 -4.18,-3.63 -5.4,-4.67 v 0 a 15.22,15.22 0 0 1 -18.75,1.29 c -6.43,-4 -8,-11.2 -8.38,-13.66 -0.05,-0.32 -0.07,-0.55 -0.09,-0.7"
           transform="translate(-701.01,-425.93)"
           id="path9385" />
        <path
           class="cls-15"
           d="m 8161.66,1474.06 c -35.66,81.17 -53.49,121.75 -199.81,374.93 a 65.56,65.56 0 0 1 -19.26,5 63.24,63.24 0 0 1 -6.6,0.33 65.3,65.3 0 0 1 -22.3,-4 c -2.36,-0.86 -4.34,-1.74 -5.9,-2.49 0,0 36.54,-91.86 56.46,-151.61 0,0 31.37,-94.1 63.42,-318.53 2.67,-11.84 11.78,-44.61 42.31,-67 3.92,-2.87 45.63,-32.65 77.76,-18.13 1.13,0.5 2.24,1.06 3.34,1.68 11.8,6.65 19.25,18.34 24.69,34.08 21.53,62.35 -7.96,131.74 -14.11,145.74 z"
           transform="translate(-701.01,-425.93)"
           id="path9387" />
        <path
           class="cls-13"
           d="m 7951.3,1852.48 a 158.79,158.79 0 0 1 -13.47,18.76 c 1.22,1 2.74,2.42 5.4,4.67 2.66,2.25 6.44,5.4 12.18,9.95 a 212.05,212.05 0 0 1 20.11,17.45 c 10.46,10.48 10.52,13.2 10.39,14.44 -0.81,7.55 -14.8,13.12 -26,13.74 a 39.09,39.09 0 0 1 -15.74,-2.38 c 10.48,-6.72 16.49,-11.42 17,-18.1 0,-0.33 0,-0.66 0,-1 0,-13 -20.17,-27.23 -28.67,-32.63 -2.27,-1.45 -3.7,-2.26 -3.71,-2.26 -0.01,0 5.06,-7.53 13.72,-21.18 4,-6.33 8.82,-14 14.25,-22.82 33.15,-54 89.82,-151.88 136.7,-261.64 47.94,-112.25 71.91,-168.38 62.7,-212.93 -2.85,-13.78 -10.24,-40.31 -8.5,-64 1.13,0.5 2.24,1.06 3.34,1.68 11.8,6.65 19.25,18.34 24.69,34.08 21.53,62.36 -8,131.75 -14.11,145.75 -35.66,81.17 -53.49,121.75 -199.81,374.93 a 64.76,64.76 0 0 1 -10.47,3.49 z"
           transform="translate(-701.01,-425.93)"
           id="path9389" />
        <path
           class="cls-13"
           d="m 8203,1847.71 a 172.43,172.43 0 0 1 -8,17.76 c 2.83,1.51 7.12,4.09 20.28,10.56 a 210.45,210.45 0 0 1 23.36,12.78 c 12.44,8 13.08,10.66 13.22,11.9 0.81,7.55 -11.68,16 -22.48,19 -9.06,2.51 -17.31,1.32 -25.18,-1 11.06,-4 27.74,-11.49 27.49,-20.28 0,0 0,-1.49 -5.64,-5.64 -5.27,-3.9 -15.44,-10.14 -35.12,-19.69 l -3.86,-1.85 q 2.27,-12.73 4.34,-24.49 2.64,-14.91 5,-28.31 c 27.21,-154.58 27.51,-164.24 27.51,-164.24 1.58,-51.13 0.48,-232.26 -22.4,-299.67 -1.33,-3.92 -5.55,-15.75 0,-24.33 3.45,-5.3 10,-8.36 18.08,-9.79 12.08,43.92 37.41,148.94 36.07,253.61 -1.76,137.23 -49.37,273.86 -49.37,273.86 -1.13,-0.1 -2.25,-0.13 -3.3,-0.18 z"
           transform="translate(-701.01,-425.93)"
           id="path9391" />
        <path
           class="cls-32"
           d="m 8001.74,1148.72 c -2.81,7.92 -5.92,15.73 -9.33,23.27 a 274.79,274.79 0 0 1 -17.95,34.4 c -11.3,18 -27.49,37.47 -51.39,52.58 -14.45,9.13 -27.56,13.43 -53.78,22 -28.76,9.44 -57.62,15.68 -79.3,19.56 -21.68,3.88 -36.17,5.41 -36.17,5.41 l -2.26,-10.33 -0.9,-4.11 -6.64,-30.29 31.62,-12.53 27.54,-10.91 c 14.29,-5.74 62.84,-28.92 97.55,-72.87 26,-32.89 15,-40.38 44.67,-83.45 8.23,-11.93 36.15,-52.43 55,-60.24 3.36,-1.4 6.43,-1.76 9.05,-0.73 16.97,6.69 12.78,70.41 -7.71,128.24 z"
           transform="translate(-701.01,-425.93)"
           id="path9393" />
        <path
           class="cls-13"
           d="m 8005,1203.66 a 156.13,156.13 0 0 1 -17.54,56.28 c -6.14,-22 -10.35,-40.71 -13,-53.55 -11.3,18 -27.49,37.47 -51.39,52.58 -14.45,9.13 -27.56,13.43 -53.78,22 -28.76,9.44 -57.62,15.68 -79.3,19.56 -21.68,3.88 -36.17,5.41 -36.17,5.41 l -2.26,-10.33 c -6.49,1.52 -11.36,3.55 -16,5.17 a 22.71,22.71 0 0 1 -2.86,5.75 c -9,13 -29.7,13.43 -41.11,3.85 a 22.53,22.53 0 0 1 -3,-3 22.1,22.1 0 0 1 -1.56,-2.14 c 4.14,-1.38 10,-2.86 18.27,-4.67 4.63,-1 10,-2.14 16.24,-3.39 4.6,-0.93 9.67,-1.93 15.25,-3 l 13.88,-2.69 21.8,-4.21 16.46,-3.19 c 50.12,-9.76 78.08,-16 105.16,-28.92 41.79,-19.91 54.08,-37.93 59.35,-51.56 3.15,-8.13 2.61,-11.65 4.87,-39.9 1.33,-16.71 2.44,-30.68 3.5,-41.92 2.14,-22.82 4.07,-34.41 7.2,-34.94 7.59,-1.29 24.79,25.31 32.74,61.82 a 172.26,172.26 0 0 1 3.25,54.99 z"
           transform="translate(-701.01,-425.93)"
           id="path9395" />
        <path
           class="cls-12"
           d="m 8466.08,1061.51 a 209.13,209.13 0 0 1 -13.39,16.74 c -9.4,10.39 -14.65,12.41 -19.23,13.23 -12,2.14 -26.83,-2.65 -29.09,-10.58 -2,-6.88 6.95,-11.27 12.94,-22.9 a 43.75,43.75 0 0 0 3.81,-10.59 70.4,70.4 0 0 0 0.88,-22.92 c -1.59,-10.56 -5.13,-14.46 -3.32,-22 1.81,-7.54 7.93,-14.17 11.25,-13.29 2.37,0.62 3.35,5.41 5.29,15 1.69,8.3 1.54,11.24 2.65,11.46 2.58,0.51 4.6,-15.08 15,-29.09 5.35,-7.21 17.19,-19.79 27.33,-19.9 a 10.82,10.82 0 0 1 3.53,0.51 c 12.48,4 13.2,30.41 13.22,31.73 0.32,19.54 -10.07,34.16 -30.87,62.6 z"
           transform="translate(-701.01,-425.93)"
           id="path9397" />
        <path
           class="cls-32"
           d="m 8454.62,1078.26 c 0,0 -6.39,10 -15.64,24.71 -9.25,14.71 -21.37,34.1 -32.85,52.86 -36.37,59.49 -41.41,72 -58.18,76.69 -9,2.5 -18.41,1.89 -38.82,-6.54 -3.95,-1.62 -8.32,-3.55 -13.18,-5.8 -53.67,-24.85 -86.93,-45 -112,-72.28 -49.57,-54 -57.53,-139.83 -41.48,-148.24 3.76,-2 10.15,1.64 22.93,8.87 19.59,11.07 24.72,20.48 52,40.89 5.61,4.21 6.16,4.4 13.19,9.7 5.69,4.28 13.2,10.25 29.21,23.55 0,0 23.76,19.73 63.47,53.77 0,0 7.7,-6 19.15,-15.68 11.45,-9.68 26.65,-23.15 41.68,-38.09 11.8,-11.74 29.08,-30 29.09,-30 1.49,1.94 2.86,3.7 4.12,5.3 4.64,5.84 7.81,9.44 9.91,11.64 a 21.63,21.63 0 0 0 3.6,3.33 39.59,39.59 0 0 0 11.78,4.17 57.22,57.22 0 0 0 10.09,1.11 c 0.8,0.05 1.46,0.05 1.93,0.04 z"
           transform="translate(-701.01,-425.93)"
           id="path9399" />
        <path
           class="cls-13"
           d="m 8466.08,1061.51 a 209.13,209.13 0 0 1 -13.39,16.74 c 1.22,0 1.93,0 1.93,0 0,0 -6.39,10 -15.64,24.71 -9.25,14.71 -21.37,34.1 -32.85,52.86 -36.37,59.49 -41.41,72 -58.18,76.69 -9,2.5 -18.41,1.89 -38.82,-6.54 a 65.14,65.14 0 0 0 12.08,-0.92 c 15.46,-2.64 26,-10.22 30.36,-13.35 29.4,-21.11 52.13,-72.11 81.89,-120.23 3.21,-5.2 6.26,-10 9.14,-14.34 27.13,-41.28 39.77,-49.43 41.13,-76.89 0.6,-12.18 -1.24,-23.72 -3.55,-33.57 a 10.82,10.82 0 0 1 3.53,0.51 c 12.48,4 13.2,30.41 13.22,31.73 0.34,19.54 -10.05,34.16 -30.85,62.6 z"
           transform="translate(-701.01,-425.93)"
           id="path9401" />
        <path
           class="cls-12"
           d="m 8098.49,1029.78 a 27,27 0 0 1 -2,3.76 32,32 0 0 1 -20.93,13.87 c -18.33,3.23 -36,-12.42 -40.55,-27.33 -3.15,-10.33 2.49,-12.18 1.76,-32.62 0,-0.77 -0.06,-1.52 -0.1,-2.24 -1,-16.6 -5.25,-19.84 -2.54,-30.37 3.56,-13.84 15.48,-25.72 21.15,-23.8 2.95,1 3.45,5.47 4.64,10.15 4.28,17 13.38,20.24 24.45,37.45 7.89,12.24 21.63,33.61 14.12,51.13 z"
           transform="translate(-701.01,-425.93)"
           id="path9403" />
        <path
           class="cls-13"
           d="m 8098.49,1029.78 a 27,27 0 0 1 -2,3.76 c -1.17,-4.18 -2.57,-9 -4.26,-14.75 0,0 -7.38,-24.84 -26.59,-52.54 -1.38,-2 -4.14,-5.85 -7.79,-5.84 -4.77,0 -7.29,6.65 -15.56,17.52 -2.19,2.87 -4,5.31 -5.62,7.29 -1,-16.6 -5.25,-19.84 -2.54,-30.37 3.56,-13.84 15.48,-25.72 21.15,-23.8 2.95,1 3.45,5.47 4.64,10.15 4.28,17 13.38,20.24 24.45,37.45 7.89,12.24 21.63,33.61 14.12,51.13 z"
           transform="translate(-701.01,-425.93)"
           id="path9405" />
        <path
           class="cls-12"
           d="M 8054.24,880.33 A 18,18 0 0 1 8065,879 c 5.25,1 11.56,4.91 13.22,11.46 1.93,7.59 -3.65,13.9 -6.17,16.75 a 36.31,36.31 0 0 1 -8.48,7 72.17,72.17 0 0 1 -1.22,17.64 c -4.3,22.23 -17.3,35.76 -22,40.55 -7.37,7.45 -13.3,13.46 -21.16,13.22 -14,-0.43 -23.45,-20.44 -30.85,-36.14 -4.42,-9.36 -10.89,-23.47 -11.46,-43.2 -0.44,-15.05 -0.91,-31.23 10.57,-44.07 9.47,-10.59 26.81,-18.64 41.43,-13.23 8.88,3.29 14.46,12.84 20.28,22 a 91.41,91.41 0 0 1 5.08,9.35 z"
           transform="translate(-701.01,-425.93)"
           id="path9407" />
        <path
           class="cls-39"
           d="m 8054.24,880.33 a 31.35,31.35 0 0 1 -21.48,3.14 c -14.78,-3.33 -20.92,-16.66 -21.59,-18.18 0,0 -9.95,-0.33 -12.3,-0.36 -15.39,-0.16 -20.5,9.31 -30.85,7.94 -9.61,-1.28 -18.42,-11.2 -20.27,-21.16 -2.95,-15.82 12.29,-28.38 18.51,-33.49 17.13,-14.11 45.3,-21.37 56.41,-10.59 8,7.79 3.52,21.44 11.47,24.69 4.51,1.84 7.51,-2 17.63,-5.29 5.8,-1.92 25.47,-8.42 38.78,0.88 9.17,6.41 11.28,17.49 11.46,18.51 2.08,11.83 -5.61,15.42 -3.53,26.45 2,10.32 9.18,9.77 13.23,22 4.05,12.23 0.43,23.39 -0.88,27.33 a 50.43,50.43 0 0 1 -13.22,20.27 c -5.75,5.4 -13.4,12.56 -22,11.47 -6.32,-0.81 -12.29,-5.41 -16.12,-11.39 a 73.12,73.12 0 0 0 2.89,-10.65 72.17,72.17 0 0 0 1.22,-17.64 36.31,36.31 0 0 0 8.48,-7 c 2.52,-2.85 8.1,-9.16 6.17,-16.75 -1.66,-6.55 -8,-10.42 -13.22,-11.46 a 18,18 0 0 0 -10.79,1.28 z"
           transform="translate(-701.01,-425.93)"
           id="path9409" />
        <path
           class="cls-32"
           d="m 8229.83,1345.94 c 0,0 -48.93,6.72 -96.38,14.11 0,0 -32.06,5 -105.78,17.63 0,0 -3,-7.49 -7.47,-19.5 -7.59,-20.24 -19.53,-53.32 -29,-85.11 q -2,-6.73 -3.78,-13.13 c -6.14,-22 -10.35,-40.71 -13,-53.55 -1.67,-8.16 -2.71,-14 -3.21,-16.77 -4.7,-26.64 -8.44,-48.38 -9.45,-67.78 -1.15,-21.87 1.16,-40.76 9.45,-60.33 4.55,-10.72 13.16,-31.07 29.15,-40.26 a 35.82,35.82 0 0 1 8.71,-3.59 c 12.88,-3.37 17.62,3.45 42.07,0.36 a 164.92,164.92 0 0 0 36.43,-9.4 c 16.09,-6 15,-8.18 24.69,-10.58 a 70.36,70.36 0 0 1 31.77,-0.2 53.17,53.17 0 0 1 12.89,4.9 c 13.63,7.38 20.69,19.36 24.68,27 42.52,81.66 47,212.73 47,212.73 1.5,42.04 1.23,103.47 1.23,103.47 z"
           transform="translate(-701.01,-425.93)"
           id="path9411" />
        <path
           class="cls-13"
           d="m 8229.83,1345.94 c 0,0 -48.93,6.72 -96.38,14.11 0,0 -32.06,5 -105.78,17.63 0,0 -3,-7.49 -7.47,-19.5 24.74,-4.79 45.4,-2.92 95.72,-14.42 55.17,-12.6 72,-24.4 81.51,-39.67 6.63,-10.68 8.21,-20.72 10.92,-39.14 a 267.89,267.89 0 0 0 -0.78,-80.56 c -12.57,-84.09 -18.86,-126.14 -34.25,-151 a 170.37,170.37 0 0 0 -29.25,-35.55 53.17,53.17 0 0 1 12.89,4.9 c 13.63,7.38 20.69,19.36 24.68,27 42.52,81.66 47,212.73 47,212.73 1.46,42.04 1.19,103.47 1.19,103.47 z"
           transform="translate(-701.01,-425.93)"
           id="path9413" />
        <path
           class="cls-15"
           d="m 8024.73,1370.13 v 0 c 78.3,-12.42 91.51,-14.69 91.51,-14.69 58.23,-10 113.6,-21.4 113.61,-21.4 v 0 l -0.23,25.78 v 0 c 0,0 -43.49,5.61 -88.73,11.19 0,0 -46.31,5.71 -103,12.38 l -11.21,1.32 v 0 z"
           transform="translate(-701.01,-425.93)"
           id="path9415" />
        <path
           class="cls-13"
           d="m 8024.73,1370.13 v 0 c 78.3,-12.42 91.51,-14.69 91.51,-14.69 58.23,-10 113.6,-21.4 113.61,-21.4 v 0 l -0.23,25.78 v 0 c 0,0 -43.49,5.61 -88.73,11.19 0,0 -46.31,5.71 -103,12.38 l -11.21,1.32 v 0 z"
           transform="translate(-701.01,-425.93)"
           id="path9417" />
        <path
           class="cls-12"
           d="m 7736.78,1294.23 a 25.11,25.11 0 0 1 -1.26,6.59 22.71,22.71 0 0 1 -2.86,5.75 c -9,13 -29.7,13.43 -41.11,3.85 a 22.53,22.53 0 0 1 -3,-3 22.1,22.1 0 0 1 -1.56,-2.14 26.6,26.6 0 0 1 -1.34,-26.09 c 6,-11.78 18.77,-13.83 20.53,-14.08 a 30,30 0 0 1 6.51,-0.2 28.41,28.41 0 0 1 3.63,0.53 24.32,24.32 0 0 1 9.26,4.08 c 7.42,5.42 11.75,15.28 11.2,24.71 z"
           transform="translate(-701.01,-425.93)"
           id="path9419" />
        <path
           class="cls-13"
           d="m 7736.78,1294.23 a 25.11,25.11 0 0 1 -1.26,6.59 22.71,22.71 0 0 1 -2.86,5.75 c -9,13 -29.7,13.43 -41.11,3.85 6.95,1.82 14.84,2.49 21.23,-1.68 a 20.72,20.72 0 0 0 5.54,-5.43 26.61,26.61 0 0 0 3.21,-6.06 28.81,28.81 0 0 0 1.9,-11.58 c -0.41,-8.37 -4.91,-14.41 -9.45,-19.38 q -0.63,-0.69 -1.26,-1.35 a 28.41,28.41 0 0 1 3.63,0.53 24.32,24.32 0 0 1 9.26,4.08 c 7.39,5.39 11.72,15.25 11.17,24.68 z"
           transform="translate(-701.01,-425.93)"
           id="path9421" />
        <path
           class="cls-29"
           d="m 7328.13,1020.22 -37.5,-8.84 a 44.56,44.56 0 0 0 -0.74,12.07 c 0.5,6.45 1,12.47 5,15.64 6,4.74 16.95,0.72 23,-3.78 a 28.88,28.88 0 0 0 10.24,-15.09 z"
           transform="translate(-701.01,-425.93)"
           id="path9423" />
        <path
           class="cls-29"
           d="m 8037.19,947.19 -37.74,7.69 a 44.24,44.24 0 0 0 4.38,11.27 c 3.16,5.65 6.1,10.92 11.08,12.11 7.45,1.78 15.69,-6.45 19.32,-13.08 a 28.81,28.81 0 0 0 2.96,-17.99 z"
           transform="translate(-701.01,-425.93)"
           id="path9425" />
        <path
           class="cls-29"
           d="m 7644,1388.65 -23.42,0.52 a 27,27 0 0 0 1.41,7.22 c 1.28,3.72 2.47,7.19 5.32,8.44 4.26,1.87 10.08,-2.16 13,-5.74 a 17.53,17.53 0 0 0 3.69,-10.44 z"
           transform="translate(-701.01,-425.93)"
           id="path9427" />
      </g>
    </g>
  </g>
</svg>
