<?xml version="1.0" encoding="UTF-8" standalone="no"?>
<svg
   xmlns:dc="http://purl.org/dc/elements/1.1/"
   xmlns:cc="http://creativecommons.org/ns#"
   xmlns:rdf="http://www.w3.org/1999/02/22-rdf-syntax-ns#"
   xmlns:svg="http://www.w3.org/2000/svg"
   xmlns="http://www.w3.org/2000/svg"
   xmlns:sodipodi="http://sodipodi.sourceforge.net/DTD/sodipodi-0.dtd"
   xmlns:inkscape="http://www.inkscape.org/namespaces/inkscape"
   width="607.80316mm"
   height="422.10315mm"
   viewBox="0 0 607.80316 422.10315"
   version="1.1"
   id="svg17815"
   inkscape:version="1.0.1 (1.0.1+r75)"
   sodipodi:docname="discuss.svg">
  <defs
     id="defs17809" />
  <sodipodi:namedview
     id="base"
     pagecolor="#ffffff"
     bordercolor="#666666"
     borderopacity="1.0"
     inkscape:pageopacity="0.0"
     inkscape:pageshadow="2"
     inkscape:zoom="0.24748737"
     inkscape:cx="1272.6734"
     inkscape:cy="624.1184"
     inkscape:document-units="mm"
     inkscape:current-layer="layer1"
     inkscape:document-rotation="0"
     showgrid="false"
     inkscape:window-width="1687"
     inkscape:window-height="1385"
     inkscape:window-x="67"
     inkscape:window-y="27"
     inkscape:window-maximized="0"
     showguides="false" />
  <metadata
     id="metadata17812">
    <rdf:RDF>
      <cc:Work
         rdf:about="">
        <dc:format>image/svg+xml</dc:format>
        <dc:type
           rdf:resource="http://purl.org/dc/dcmitype/StillImage" />
        <dc:title></dc:title>
      </cc:Work>
    </rdf:RDF>
  </metadata>
  <style
     id="style5">.cls-1{fill:#f7faff;}.cls-2{fill:#e6f0fa;}.cls-3{fill:#a0d4b0;}.cls-4{fill:#527e35;}.cls-5{fill:#709f47;}.cls-6{fill:#87b272;}.cls-31,.cls-7{fill:#c5c880;}.cls-8{fill:#9c312e;}.cls-9{fill:#d29f7a;}.cls-10{fill:#fbe1c7;}.cls-11,.cls-45,.cls-47{fill:#231f20;}.cls-11,.cls-13,.cls-18,.cls-27,.cls-48,.cls-62{opacity:0.1;}.cls-12{fill:#ffc6b2;}.cls-14{fill:#003c68;}.cls-15{fill:#11343f;}.cls-16,.cls-33,.cls-38,.cls-52{fill:none;}.cls-16{stroke:#000;}.cls-16,.cls-38,.cls-52{stroke-miterlimit:10;}.cls-17,.cls-18,.cls-49{fill:#4b2603;}.cls-19{fill:#e6e6e6;}.cls-20{fill:#3d3027;}.cls-21{fill:#ffac00;}.cls-22,.cls-54{fill:#42423d;}.cls-23{fill:#83d2cd;}.cls-24{fill:#0157ad;}.cls-25{fill:#fcd7d1;}.cls-26,.cls-27{fill:#fd7d00;}.cls-28,.cls-64{fill:#ed2d19;}.cls-29{fill:#fff;}.cls-30{fill:#fbebdc;}.cls-31,.cls-64{opacity:0.5;}.cls-32{fill:#5a9cae;}.cls-34{fill:#4d4d4d;}.cls-35{fill:#333;}.cls-36{fill:#29343f;}.cls-37{fill:#b9d6f4;}.cls-38{stroke:#1a1a1a;}.cls-39{fill:#fe6e09;}.cls-40{fill:#ddecff;}.cls-41{fill:#ffc7ad;}.cls-42{fill:#85d0cd;}.cls-43{fill:#3f5e49;}.cls-44{fill:#628554;}.cls-45,.cls-46,.cls-54{opacity:0.2;}.cls-49{opacity:0.51;}.cls-50{fill:#8c6239;}.cls-51{fill:#ffe923;}.cls-52{stroke:#3f5e49;stroke-width:2px;}.cls-53{fill:url(#linear-gradient);}.cls-55{fill:url(#linear-gradient-2);}.cls-56{fill:#c1ee60;}.cls-57{fill:#1e3829;}.cls-58{opacity:0.4;}.cls-59{fill:#0ad9ff;}.cls-60{fill:#eac3b0;}.cls-61,.cls-62{fill:#41342a;}.cls-63{fill:#231d18;}</style>
  <g
     inkscape:label="Layer 1"
     inkscape:groupmode="layer"
     id="layer1"
     transform="translate(177.71865,22.688918)">
    <g
       id="chair-2"
       data-name="chair"
       transform="matrix(0.26458333,0,0,0.26458333,-177.73827,-574.80277)">
      <path
         class="cls-30"
         d="m 2937.81,3947.12 c -16.44,30.8 -35.86,56.65 -59,78.37 -26.29,24.69 -57.36,44 -94.25,59.24 q -5.61,2.33 -11.41,4.51 A 516.87,516.87 0 0 1 2711.22,4108 H 877.47 q -14,-8.64 -27.28,-18.76 c -2,-1.48 -3.86,-3 -5.77,-4.51 a 318.29,318.29 0 0 1 -35,-32.55 313,313 0 0 1 -22.11,-26.69 c -40.33,-54.71 -55,-112.68 -67.38,-164 -72,-298 70.45,-628.82 288.74,-819.15 79.64,-69.46 148.14,-126.68 243.89,-129.73 155.14,-4.95 210.67,135.47 352.87,119.35 106.69,-12.1 176.43,-100.95 186.81,-114.16 51.08,-65 35.31,-103.6 71.36,-177.46 54.31,-111.3 176,-199.81 307.45,-222.11 169.72,-28.81 300.08,62.23 337.3,88.21 8.92,6.24 199,143.62 217.94,363.25 10.83,125.52 -44,165.15 -7.06,257.19 41.46,103.39 129.8,113.58 197.19,192 115.07,134.01 96.12,388.12 21.39,528.24 z"
         transform="translate(-701.01,-425.93)"
         id="path6227" />
      <path
         class="cls-9"
         d="m 2878.83,4025.49 c -26.29,26.87 -57.36,47.93 -94.25,64.47 H 844.42 a 330.71,330.71 0 0 1 -35,-35.42 336,336 0 0 1 -22.11,-29.05 z"
         transform="translate(-701.01,-425.93)"
         id="path6229" />
      <rect
         class="cls-1"
         x="709.34998"
         y="2231.1799"
         width="883.08002"
         height="911.21997"
         id="rect6231" />
      <rect
         class="cls-2"
         x="739.08002"
         y="2622.97"
         width="299.01001"
         height="484.20001"
         id="rect6233" />
      <rect
         class="cls-40"
         x="784.04999"
         y="2422.8301"
         width="154.89999"
         height="684.34003"
         id="rect6235" />
      <rect
         class="cls-2"
         x="1106.25"
         y="2813.4199"
         width="123.92"
         height="292.29001"
         id="rect6237" />
      <rect
         class="cls-2"
         x="1273.55"
         y="2480.9299"
         width="154.89999"
         height="640.56"
         id="rect6239" />
      <path
         class="cls-22"
         d="m 1410.37,2657.1 v 911.22 h 883.08 V 2657.1 Z m 853.35,874.53 H 1440.1 v -415.57 h 823.62 z m 0,-434.28 H 1440.1 v -415.58 h 823.62 z"
         transform="translate(-701.01,-425.93)"
         id="path6241" />
      <rect
         class="cls-22"
         x="739.08002"
         y="2671.4299"
         width="823.62"
         height="18.709999"
         id="rect6243" />
      <rect
         class="cls-22"
         x="1141.54"
         y="2255.8501"
         width="18.709999"
         height="849.85999"
         id="rect6245" />
      <rect
         class="cls-40"
         x="1351"
         y="2734.3101"
         width="209.24001"
         height="372.85999"
         id="rect6247" />
      <path
         class="cls-4"
         d="m 1100.88,3892.62 c -19,19.38 -46.13,16 -49.68,15.44 -24.93,-3.56 -41.35,-22.21 -48.33,-36.92 -7.78,-16.41 -7.46,-35.62 -7.38,-40.27 0.24,-14.64 3.5,-17.81 0.67,-25.51 -4.92,-13.42 -18.18,-13.08 -33.57,-26.18 -3.08,-2.63 -26.16,-22.78 -25.5,-46.32 0.62,-22.19 21.76,-26.23 24.16,-54.37 1,-12.28 -2,-22.38 -4,-28.87 -5.89,-19.27 -15.7,-28.78 -21.48,-37.59 -18.41,-28.08 -12.5,-74.3 4,-102 18.75,-31.46 43.05,-25.56 61.76,-63.77 7.66,-15.65 10,-29.73 17.45,-30.2 8.5,-0.54 17.93,17 21.48,32.22 6,25.53 -7.44,32.54 -5.37,65.11 0.63,9.83 2.13,29.73 14.77,48.33 9.66,14.21 14.39,10.87 21.48,23.5 8.7,15.49 12.07,39.23 4.7,59.74 -3.88,10.81 -8.61,14.79 -6.71,22.15 2.71,10.51 14.08,9.06 22.15,20.14 11.32,15.55 6.54,42.59 -1.34,59.07 -5.4,11.29 -11,14.94 -10.07,23.5 1,9.66 9,13 17.45,22.82 18.71,21.52 18.92,49.55 18.8,55.72 -0.19,9.47 -0.57,29.06 -15.44,44.26 z"
         transform="translate(-701.01,-425.93)"
         id="path6249" />
      <path
         class="cls-5"
         d="m 1177.4,3900.68 c 3.84,0.87 20.52,4.2 36.92,-5.37 21.27,-12.41 30.74,-39.91 24.17,-57.73 -4.28,-11.59 -13.6,-14.4 -12.08,-21.48 2.53,-11.81 29.81,-10.53 32.22,-22.16 1.86,-9 -13.64,-14 -12.76,-24.83 1,-12.38 21.75,-12.58 28.87,-28.87 6.16,-14.09 -6.52,-20.47 -4.7,-40.27 2.64,-28.77 31.29,-36.22 28.19,-57.73 -1.69,-11.79 -12.19,-22.72 -22.15,-23.5 -7.74,-0.6 -12.71,5.13 -28.86,22.15 -38.31,40.39 -40.66,40.13 -44.31,49.68 -7.77,20.37 -0.16,29.6 -10.74,40.95 -11.36,12.19 -24.76,6.48 -30.21,16.78 -7.44,14.09 14.5,30.68 6.72,49 -3.26,7.67 -7.68,6.11 -16.11,16.11 -3.12,3.7 -20.42,24.21 -14.77,49 4.38,19.26 20.99,34.04 39.6,38.27 z"
         transform="translate(-701.01,-425.93)"
         id="path6251" />
      <path
         class="cls-7"
         d="m 1146.52,3426.76 c 17.08,0.53 33.21,17.33 38.27,33.56 4.44,14.25 -1.12,23.39 7.38,37.59 4.32,7.22 7,7 12.76,14.1 9.86,12.28 16.77,31.53 14.09,49 -3.29,21.47 -18.33,22.58 -21.48,46.32 a 62.18,62.18 0 0 0 3.36,29.54 c 8.12,21.34 22.58,20.22 29.53,36.92 12,28.72 -17.26,64.62 -18.79,66.45 -12.78,15.31 -24.49,10.81 -30.88,23.5 -7.67,15.22 4.63,25.29 5.37,51 0.75,26.08 -10.66,57.86 -34.91,72.5 -3.53,2.13 -22.24,13.43 -40.27,6.72 -13.9,-5.18 -19.56,-18.22 -30.88,-44.31 -12.83,-29.55 -19.24,-44.33 -13.43,-58.4 8.68,-21 35.83,-22.18 35.58,-35.58 -0.22,-11.93 -21.77,-12.38 -26.18,-27.52 -6.34,-21.79 33.26,-38 30.88,-69.81 -1.2,-16 -11.58,-16.15 -12.08,-33.57 -0.72,-24.6 19.75,-32.09 16.11,-50.34 -3.23,-16.18 -20.21,-14.75 -28.2,-35.58 -5.83,-15.22 -2.07,-29.77 1.35,-43 a 106.59,106.59 0 0 1 26.18,-46.32 c 12.15,-12.63 22.29,-23.21 36.24,-22.77 z"
         transform="translate(-701.01,-425.93)"
         id="path6253" />
      <path
         class="cls-15"
         d="m 1140.17,3994.25 a 446.42,446.42 0 0 1 13.57,-79.91 396.84,396.84 0 0 1 12.42,-38.55 c 2.36,-6.33 5,-12.55 7.66,-18.73 2.66,-6.18 5.53,-12.27 8.4,-18.33 5.74,-12.12 11.55,-24.15 17.11,-36.3 5.56,-12.15 10.91,-24.4 16.05,-36.75 q 15.39,-37 28.26,-75.11 -11.58,38.46 -25.79,76.09 -7.11,18.81 -14.87,37.37 c -5.17,12.37 -10.61,24.63 -15.91,36.89 q -4,9.2 -7.73,18.45 c -2.42,6.19 -4.82,12.38 -6.93,18.67 a 390.4,390.4 0 0 0 -10.94,38.24 436.61,436.61 0 0 0 -10.68,78.63 z"
         transform="translate(-701.01,-425.93)"
         id="path6255" />
      <path
         class="cls-15"
         d="m 995.71,3569.74 a 565.72,565.72 0 0 0 -3.6,57 387.81,387.81 0 0 0 4,56.81 288.36,288.36 0 0 0 13.61,55.06 248,248 0 0 0 11.23,26 l 1.57,3.16 c 0.55,1.05 1.14,2.07 1.7,3.1 1.15,2.06 2.25,4.14 3.44,6.18 l 3.67,6 c 1.22,2 2.55,4 3.83,5.94 5.25,7.84 10.9,15.48 16.48,23.22 5.58,7.74 11.08,15.63 16.22,23.75 5.14,8.12 10,16.48 14.41,25 4.41,8.52 8.46,17.3 12.24,26.15 a 389.9,389.9 0 0 1 28.25,111.75 l -10.59,1 a 380.1,380.1 0 0 0 -25.05,-109.7 c -3.49,-8.75 -7.21,-17.42 -11.38,-25.87 -4.17,-8.45 -8.66,-16.73 -13.53,-24.82 -4.87,-8.09 -10.08,-16 -15.46,-23.8 -5.38,-7.8 -10.88,-15.65 -16,-23.76 -1.26,-2 -2.57,-4.07 -3.77,-6.16 l -3.6,-6.26 c -1.17,-2.11 -2.24,-4.26 -3.37,-6.39 -0.55,-1.07 -1.12,-2.12 -1.66,-3.2 l -1.53,-3.27 a 250.71,250.71 0 0 1 -10.81,-26.71 292.21,292.21 0 0 1 -12.49,-56 391.9,391.9 0 0 1 -2.66,-57.19 567.61,567.61 0 0 1 4.85,-56.99 z"
         transform="translate(-701.01,-425.93)"
         id="path6257" />
      <path
         class="cls-15"
         d="m 1125.59,3995.59 a 625.27,625.27 0 0 1 -2.4,-131.92 c 0.22,-2.75 0.54,-5.48 0.81,-8.22 0.27,-2.74 0.52,-5.48 0.88,-8.21 0.68,-5.46 1.31,-10.93 2.16,-16.37 0.85,-5.44 1.71,-10.87 2.62,-16.3 0.91,-5.43 2,-10.82 3.15,-16.19 2.25,-10.77 4.79,-21.46 7.51,-32.07 l 8.21,-31.76 c 2.67,-10.57 5.14,-21.17 7.2,-31.85 2.06,-10.68 3.67,-21.45 5,-32.25 a 466.09,466.09 0 0 0 3,-65.25 c -1,-43.63 -7.76,-87.07 -18.54,-129.44 11.63,42.14 19.31,85.52 21.2,129.36 a 470.45,470.45 0 0 1 -1.69,65.76 c -1.11,10.92 -2.47,21.83 -4.38,32.66 -1.91,10.83 -4.15,21.58 -6.61,32.26 l -7.57,31.92 c -2.49,10.63 -4.8,21.26 -6.8,32 -1,5.33 -1.89,10.7 -2.79,16.06 -0.9,5.36 -1.63,10.74 -2.26,16.13 -0.63,5.39 -1.24,10.79 -1.81,16.19 -0.3,2.7 -0.46,5.41 -0.7,8.11 -0.24,2.7 -0.47,5.41 -0.63,8.13 a 615.84,615.84 0 0 0 5,129.88 z"
         transform="translate(-701.01,-425.93)"
         id="path6259" />
      <path
         class="cls-39"
         d="m 1196.72,3936.89 q -0.92,6.69 -1.81,13.37 -9,66.25 -17.94,132.52 a 9.72,9.72 0 0 1 -9.58,8.5 h -92.1 a 9.73,9.73 0 0 1 -9.59,-8.5 q -8.76,-64.68 -17.51,-129.38 c -0.13,-1.05 -0.29,-2.09 -0.42,-3.14 q -0.88,-6.69 -1.81,-13.37 a 9.77,9.77 0 0 1 9.57,-11.16 h 131.6 a 9.78,9.78 0 0 1 9.59,11.16 z"
         transform="translate(-701.01,-425.93)"
         id="path6261" />
      <path
         class="cls-13"
         d="m 1196.72,3936.89 q -0.92,6.69 -1.81,13.37 -9,66.25 -17.94,132.52 a 9.72,9.72 0 0 1 -9.58,8.5 h -2.06 c 2.47,-14.43 7.33,-44.21 11,-75 5.41,-45.76 3.34,-52.88 -1.31,-58 -8.2,-9 -19.81,-6.75 -55.11,-5.33 -25.13,1 -51.12,2 -71.69,0.49 -0.13,-1.05 -0.29,-2.09 -0.42,-3.14 q -0.88,-6.69 -1.81,-13.37 a 9.77,9.77 0 0 1 9.57,-11.16 h 131.6 a 9.78,9.78 0 0 1 9.56,11.12 z"
         transform="translate(-701.01,-425.93)"
         id="path6263" />
      <rect
         class="cls-39"
         x="331.44"
         y="3496.26"
         width="169.98"
         height="26.219999"
         rx="5.6199999"
         id="rect6265" />
      <path
         class="cls-19"
         d="m 2167.51,3224.7 q -3.9,60.65 -7.79,121.3 h -60 q -0.48,-7.38 -0.95,-14.76 -3.42,-53.28 -6.83,-106.54 z"
         transform="translate(-701.01,-425.93)"
         id="path6267" />
      <path
         class="cls-13"
         d="m 2167.51,3224.7 q -3.9,60.65 -7.79,121.3 h -60 q -0.48,-7.38 -0.95,-14.76 c 26.2,-2.61 39.3,-3.92 47.65,-11.64 13,-12 11.38,-34.84 6.81,-79.78 -0.57,-5.65 -1.15,-10.66 -1.68,-15.12 z"
         transform="translate(-701.01,-425.93)"
         id="path6269" />
      <path
         class="cls-19"
         d="m 2023.05,3305.74 q -3.9,60.65 -7.79,121.3 h -60 c -0.2,-3.18 -0.41,-6.36 -0.61,-9.54 l -7.17,-111.76 z"
         transform="translate(-701.01,-425.93)"
         id="path6271" />
      <path
         class="cls-13"
         d="m 2023.05,3305.74 q -3.9,60.65 -7.79,121.3 h -60 c -0.2,-3.18 -0.41,-6.36 -0.61,-9.54 1.84,-0.1 3.82,-0.29 5.93,-0.6 2.11,-0.31 13.69,-2.1 21.26,-6.22 24.91,-13.55 24.59,-61.7 24.47,-79.4 a 224.62,224.62 0 0 0 -1.61,-25.54 z"
         transform="translate(-701.01,-425.93)"
         id="path6273" />
      <path
         class="cls-16"
         d="m 1925.14,4084.14 a 57.09,57.09 0 0 1 -0.06,6.79 l -123.24,-1.3 c -0.35,-1.52 -0.67,-3.16 -1,-4.9"
         transform="translate(-701.01,-425.93)"
         id="path6275" />
      <rect
         class="cls-28"
         x="1383.8199"
         y="2792.9299"
         width="89.190002"
         height="9.4099998"
         id="rect6277" />
      <rect
         class="cls-28"
         x="1389.99"
         y="2785.47"
         width="76.860001"
         height="7.46"
         id="rect6279" />
      <rect
         class="cls-28"
         x="1239.36"
         y="2873.97"
         width="89.190002"
         height="9.4099998"
         id="rect6281" />
      <rect
         class="cls-28"
         x="1245.53"
         y="2866.51"
         width="76.860001"
         height="7.46"
         id="rect6283" />
      <rect
         class="cls-9"
         x="1088.13"
         y="3001.1101"
         width="402.16"
         height="67.480003"
         id="rect6285" />
      <rect
         class="cls-22"
         x="1117.48"
         y="3068.5901"
         width="343.45999"
         height="20.440001"
         id="rect6287" />
      <rect
         class="cls-13"
         x="1117.48"
         y="3068.5901"
         width="343.45999"
         height="10.22"
         id="rect6289" />
      <rect
         class="cls-22"
         x="1274.61"
         y="3088.53"
         width="29.190001"
         height="576.47998"
         id="rect6291" />
      <rect
         class="cls-13"
         x="1294.3101"
         y="3088.53"
         width="9.4899998"
         height="576.47998"
         id="rect6293" />
      <rect
         class="cls-9"
         x="1707.01"
         y="2272.6699"
         width="289.67001"
         height="368.42999"
         id="rect6295" />
      <path
         class="cls-41"
         d="m 2265.4,3923.59 c -2,2.67 -6.14,3.27 -11.33,3.21 -2.22,0 -4.63,-0.14 -7.15,-0.29 -5.35,-0.31 -8,-0.46 -10.71,-2 -6.59,-3.67 -7.4,-11.91 -9.73,-21.4 -6.36,-26 -16,-28.54 -12.64,-37.95 3.22,-9 15.14,-15.32 24.42,-15.46 a 13.69,13.69 0 0 1 7.68,1.84 c 4.19,2.67 2.64,6.38 8.76,28.21 4.5,16 6.81,23.36 6.81,23.36 4.31,13.63 6.17,17.45 3.89,20.48 z"
         transform="translate(-701.01,-425.93)"
         id="path6297" />
      <path
         class="cls-13"
         d="m 2265.4,3923.59 c -2,2.67 -6.14,3.27 -11.33,3.21 0.13,-0.34 0.26,-0.69 0.38,-1 6,-17.33 0.79,-29.24 -16.19,-76 a 13.69,13.69 0 0 1 7.68,1.84 c 4.19,2.67 2.64,6.38 8.76,28.21 4.5,16 6.81,23.36 6.81,23.36 4.31,13.53 6.17,17.35 3.89,20.38 z"
         transform="translate(-701.01,-425.93)"
         id="path6299" />
      <path
         class="cls-15"
         d="m 2283.89,3941.1 -54.49,34.54 -54.48,34.54 a 60.23,60.23 0 0 1 -7.48,-6 35.11,35.11 0 0 1 -4.2,-4.68 25.79,25.79 0 0 1 -4.86,-12.65 c -0.54,-10.9 14.23,-15.42 33.08,-32.11 21.38,-18.93 36.85,-43.67 36.85,-43.67 0,0 8.07,-0.55 12.82,-1.31 8.27,-1.34 11.82,-4.18 14.94,-5.71 a 7.94,7.94 0 0 1 5.44,-0.87 c 5.65,1.09 8.83,6.86 13.62,15.56 a 98.31,98.31 0 0 1 6.5,15 c 1.48,4.33 2.26,7.36 2.26,7.36 z"
         transform="translate(-701.01,-425.93)"
         id="path6301" />
      <path
         class="cls-13"
         d="m 2283.89,3941.1 -54.49,34.54 -54.48,34.54 a 60.23,60.23 0 0 1 -7.48,-6 324.47,324.47 0 0 0 28.63,-20 c 34.86,-27.17 52.28,-40.76 58.38,-58.38 a 40.34,40.34 0 0 0 1.62,-21.73 7.94,7.94 0 0 1 5.44,-0.87 c 5.65,1.09 8.83,6.86 13.62,15.56 a 98.31,98.31 0 0 1 6.5,15 c 1.48,4.31 2.26,7.34 2.26,7.34 z"
         transform="translate(-701.01,-425.93)"
         id="path6303" />
      <path
         class="cls-41"
         d="m 2352.57,3805.48 c -0.28,3.36 -3.51,6.1 -8,8.85 -1.85,1.15 -3.93,2.29 -6.09,3.49 -4.69,2.59 -7,3.89 -10.09,4.06 -7.53,0.42 -12.62,-6.12 -19.65,-12.91 -19.26,-18.6 -28.79,-15.59 -30.94,-25.35 -2.27,-10.26 6.09,-23.46 14.81,-27.44 a 12,12 0 0 1 5.07,-1.21 c 5,0 5.64,4 22.47,19.19 12.36,11.18 18.21,16.12 18.21,16.12 10.9,9.19 14.52,11.44 14.21,15.2 z"
         transform="translate(-701.01,-425.93)"
         id="path6305" />
      <path
         class="cls-13"
         d="m 2352.57,3805.48 c -0.28,3.36 -3.51,6.1 -8,8.85 -0.19,-0.48 -0.39,-0.95 -0.61,-1.43 a 40.7,40.7 0 0 0 -12,-14.85 c -1.82,-1.46 -14.5,-15.09 -39.3,-41.87 a 12,12 0 0 1 5.07,-1.21 c 5,0 5.64,4 22.47,19.19 12.36,11.18 18.21,16.12 18.21,16.12 10.85,9.19 14.47,11.44 14.16,15.2 z"
         transform="translate(-701.01,-425.93)"
         id="path6307" />
      <path
         class="cls-15"
         d="m 2377.55,3810.43 q -12.74,28.37 -27.66,58.29 -14.26,28.5 -28.7,54.54 c 0,0 -7.18,2 -13.13,1.18 a 13,13 0 0 1 -1.41,-0.26 c -5.9,-1.39 -9.61,-6.32 -10.86,-8.1 -6.27,-8.94 3.81,-20.64 10.85,-44.81 8,-27.42 7.87,-56.6 7.87,-56.6 0,0 6.53,-4.77 10.14,-8 a 34.67,34.67 0 0 0 7.27,-8.67 c 2.23,-3.78 2.94,-6.4 6.45,-7.77 5.37,-2.09 11.14,1.1 19.83,5.9 a 111.71,111.71 0 0 1 19.35,14.3 z"
         transform="translate(-701.01,-425.93)"
         id="path6309" />
      <path
         class="cls-13"
         d="m 2377.55,3810.43 q -12.74,28.37 -27.66,58.29 -14.26,28.5 -28.7,54.54 c 0,0 -7.18,2 -13.13,1.18 3.46,-13.17 12.49,-29.36 20.34,-43.43 8.4,-15.07 16.47,-25.6 18.48,-43.79 0.9,-8.07 0.76,-16.33 -2.91,-24.32 a 40.7,40.7 0 0 0 -12,-14.85 c 2.23,-3.78 2.94,-6.4 6.45,-7.77 5.37,-2.09 11.14,1.1 19.83,5.9 a 111.71,111.71 0 0 1 19.3,14.25 z"
         transform="translate(-701.01,-425.93)"
         id="path6311" />
      <path
         class="cls-39"
         d="m 2327.67,3776.67 c 0,0 -3.08,4.25 -7.11,9.59 -1.43,1.9 -3,3.95 -4.56,6 -5.72,7.37 -11.68,14.59 -11.68,14.59 0,0 -46.85,-25 -96.67,-56.21 -5.71,-3.57 -11.45,-7.22 -17.17,-10.92 -48.05,-31.11 -69,-49.52 -79.77,-65.43 a 76.32,76.32 0 0 1 -8.77,-17.28 c -3.25,-8.89 -9.19,-25.83 -3.89,-44.75 2,-7.15 6.92,-19.26 27.7,-34.7 a 224.12,224.12 0 0 1 32.67,-19.66 c 7.17,-3.62 14.12,-7.13 20.9,-10.46 42.56,-20.9 78.1,-34.69 114.3,-22.75 52.91,17.45 91.44,84.64 91.46,84.65 0.02,0.01 -58.9,17.71 -124.54,36 -32.08,8.93 -43.5,11.81 -44.76,19.46 -0.69,4.21 2.07,7.61 7.46,11.68 v 0 c 10,7.54 29,17.39 51.89,38.9 28.04,26.32 52.54,61.29 52.54,61.29 z"
         transform="translate(-701.01,-425.93)"
         id="path6313" />
      <path
         class="cls-13"
         d="m 2207.65,3750.62 c -5.71,-3.57 -11.45,-7.22 -17.17,-10.92 -48.05,-31.11 -69,-49.52 -79.77,-65.43 -0.49,-6.33 -0.86,-12.69 -1.23,-19 -1.42,-24.34 -2.09,-38.7 4.86,-56.44 a 108.23,108.23 0 0 1 11.41,-21.3 224.12,224.12 0 0 1 32.67,-19.66 c 7.17,-3.62 14.12,-7.13 20.9,-10.46 6.64,5.14 9.33,15.59 10.92,22.23 6.76,28.21 31.55,131.95 17.41,180.98 z"
         transform="translate(-701.01,-425.93)"
         id="path6315" />
      <path
         class="cls-9"
         d="m 2480,3610.45 v 36.23 a 9.51,9.51 0 0 1 -9.51,9.52 h -208.91 a 9.52,9.52 0 0 1 -9.52,-9.52 v -36.23 a 9.51,9.51 0 0 1 9.52,-9.51 h 208.87 a 9.51,9.51 0 0 1 9.55,9.51 z"
         transform="translate(-701.01,-425.93)"
         id="path6317" />
      <rect
         class="cls-17"
         x="1560.24"
         y="3230.27"
         width="209.50999"
         height="13.5"
         id="rect6319" />
      <rect
         class="cls-13"
         x="1560.24"
         y="3230.27"
         width="209.50999"
         height="6.75"
         id="rect6321" />
      <path
         class="cls-13"
         d="m 2480,3610.45 v 36.23 a 9.51,9.51 0 0 1 -9.51,9.52 h -208.91 a 9.52,9.52 0 0 1 -9.52,-9.52 v -36.23 a 9.51,9.51 0 0 1 9.52,-9.51 c -0.62,8.18 -2.49,32.87 4.61,42.72 6.3,8.73 20.62,7.13 38.27,6.48 49.7,-1.82 99.47,0.51 149.19,-0.65 3.94,-0.09 10.62,-0.23 14.88,-4.81 5.49,-5.9 3.2,-15.09 1.92,-43.74 a 9.51,9.51 0 0 1 9.55,9.51 z"
         transform="translate(-701.01,-425.93)"
         id="path6323" />
      <path
         class="cls-22"
         d="m 2350.66,3216.07 c -3.77,13.95 -8.64,29.44 -13.9,46.21 -23.36,74.44 -47,83.6 -53.19,85.63 -4.46,1.45 -23.48,6.92 -40.22,-3.9 -17.69,-11.43 -19.37,-32.38 -19.46,-33.73 a 29.31,29.31 0 0 1 0.66,-8.26 c 1.15,-5.54 4,-13.65 11,-25.47 17.92,-30.39 29.66,-29.12 36.32,-46.7 9.91,-26.11 -11.65,-40.35 -2.59,-61 11.14,-25.37 59.35,-39.32 79.14,-23.35 14.17,11.5 11.49,36.34 2.24,70.57 z"
         transform="translate(-701.01,-425.93)"
         id="path6325" />
      <path
         class="cls-13"
         d="m 2350.66,3216.07 c -3.77,13.95 -8.64,29.44 -13.9,46.21 -23.36,74.44 -47,83.6 -53.19,85.63 -4.46,1.45 -23.48,6.92 -40.22,-3.9 -17.69,-11.43 -19.37,-32.38 -19.46,-33.73 a 29.31,29.31 0 0 1 0.66,-8.26 28.27,28.27 0 0 0 11.42,3.75 c 10.07,1 18.13,-3.61 21.62,-5.62 23.68,-13.63 27.42,-45.72 28.54,-55.35 1.87,-16 -0.63,-29.1 -2.16,-36.76 -4.82,-24.19 -13.42,-32.94 -10.81,-35.46 4.91,-4.74 49.98,12.13 77.5,43.49 z"
         transform="translate(-701.01,-425.93)"
         id="path6327" />
      <path
         class="cls-28"
         d="m 2493.22,3508.22 c -1.92,0 -4.62,0.05 -7.88,0 h -1.59 c -4.59,-0.14 -8.74,-0.42 -12.64,-0.83 -16.86,-1.76 -28.94,-5.84 -50.92,-10.84 -42.06,-9.58 -58.65,-8.47 -66.6,-6.92 -2.68,0.52 -16.83,3.52 -16.83,3.64 0,0.12 -2.73,-34.35 -4.12,-46.18 -3.71,-31.62 -14.89,-48.15 -23.43,-62 a 98.43,98.43 0 0 1 -7.28,-13.43 39.92,39.92 0 0 1 -2.79,-22.37 c 3,-19.9 23.87,-37.16 64.86,-72.65 21.65,-18.74 32.69,-28.09 42.81,-27.24 20.22,1.71 32.92,30.83 53.14,88.64 l 0.09,0.26 q 4.78,13.71 10.21,29.56 c 0.85,2.9 1.86,6.46 3,10.59 1.47,5.45 3.1,11.88 4.75,19.12 0.45,1.94 0.89,3.95 1.34,6 11.38,52.72 13.88,104.64 13.88,104.65 z"
         transform="translate(-701.01,-425.93)"
         id="path6329" />
      <path
         class="cls-28"
         d="m 2364,3297.27 c 0,0 0,0 0,0 0,0 -5.44,16.69 -43.26,66.25 l -8.26,-6.41 -20.43,-15.85 -2.31,-1.79 -6.33,-4.92 -1.9,-1.47 -15.93,-12.36 2.68,-4.75 c 6.69,-11.92 12.77,-23 15.31,-27.78 16.25,-30.38 18.28,-42.29 32.37,-52.86 a 24,24 0 0 1 5.25,-2.92 c 12.58,-5.27 30.17,-4.32 40.22,5.19 16.84,15.96 5.94,49.46 2.59,59.67 z"
         transform="translate(-701.01,-425.93)"
         id="path6331" />
      <path
         class="cls-41"
         d="m 2320.74,3363.56 -16.49,19.72 c -7.66,8 -13.65,14.55 -17.45,18.78 -9.3,10.33 -32.33,36.51 -46,38 -1.33,0.14 -2.74,0.19 -2.74,0.19 a 38.12,38.12 0 0 1 -4.44,-0.08 39,39 0 0 1 -12.28,-2.87 c -30.44,-12.67 -45.66,-66.87 -57.08,-107.51 -2,-7.11 -4.82,-17.84 -14.27,-24.65 -9.81,-7.06 -15.94,-2.11 -33.73,-9.08 -6.8,-2.66 -20.63,-8.28 -28.11,-21.62 a 32.41,32.41 0 0 1 -4.32,-14.7 c -0.08,-2.1 -0.53,-13.82 5.19,-16.87 4.86,-2.58 10.39,3.16 24.64,10.38 13.9,7 26.93,13.25 38.92,9.08 1.13,-0.39 11.62,-4.18 13.41,-12.1 1.74,-7.71 -5.84,-14.51 -3,-17.73 1.58,-1.81 5.48,-1.42 8.07,-0.06 5.55,2.93 6.44,11.07 7.07,18.22 1.62,18.55 1.53,31.26 1.73,36.32 0.79,20.08 16.82,38.32 48.86,74.81 1.49,1.7 4.63,5.18 8.3,4.82 4,-0.39 6.43,-4.89 9.43,-10.44 10,-18.52 19.2,-35.36 19.2,-35.36 l 15.93,12.36 1.9,1.47 6.33,4.92 2.31,1.79 20.43,15.85 z"
         transform="translate(-701.01,-425.93)"
         id="path6333" />
      <path
         class="cls-13"
         d="m 2364,3297.27 c 0,0 0,0 0,0 0,0 -5.44,16.69 -43.26,66.25 l -16.49,19.72 c -7.66,8 -13.65,14.55 -17.45,18.78 -9.3,10.33 -32.33,36.51 -46,38 -1.33,0.14 -2.74,0.19 -2.74,0.19 a 38.12,38.12 0 0 1 -4.44,-0.08 c 3.56,-2.43 9.35,-5.24 15.8,-9.37 16.92,-10.85 26.15,-23 43.24,-45.41 9.24,-12.13 15.21,-20 19.86,-28.19 a 98.94,98.94 0 0 0 5.22,-10.73 c 12.57,-30.22 6.59,-50.48 20.32,-57.51 6.5,-3.32 16.09,-3 21.63,1.73 a 15.08,15.08 0 0 1 4.31,6.62 z"
         transform="translate(-701.01,-425.93)"
         id="path6335" />
      <path
         class="cls-13"
         d="m 2493.22,3508.22 c -1.92,0 -4.62,0.05 -7.88,0 a 212,212 0 0 1 -5.2,-22.54 c 0.12,-4.42 0.25,-11.19 0.15,-19.44 -0.12,-10.49 -0.54,-18.36 -1.29,-32 -1.87,-33.95 -2,-36.47 -1,-36.73 0.45,1.94 0.89,3.95 1.34,6 11.38,52.78 13.88,104.7 13.88,104.71 z"
         transform="translate(-701.01,-425.93)"
         id="path6337" />
      <path
         class="cls-13"
         d="m 2473.22,3378.36 a 99.91,99.91 0 0 1 -26.93,8.29 c -25.41,4 -45.46,-3.08 -55.94,-6.93 a 129.52,129.52 0 0 1 -45.56,-28.78 c -1.84,-6.83 -3.46,-12.14 -4.6,-15.76 -0.89,-2.79 -1.3,-4 -1.26,-5.87 0.15,-5.92 4.69,-10.4 6.35,-12.42 a 18.57,18.57 0 0 1 4.42,-3.77 c 15.06,-9.63 31.06,-0.59 98.16,21.19 4.41,1.43 8.46,2.72 12.18,3.9 q 4.78,13.71 10.21,29.56 c 0.85,2.9 1.86,6.46 2.97,10.59 z"
         transform="translate(-701.01,-425.93)"
         id="path6339" />
      <path
         class="cls-41"
         d="m 2334,3218.36 a 90.24,90.24 0 0 1 -2.47,16.68 c -2.87,11.66 -10.28,31.69 -16.86,31.14 -5.21,-0.44 -5.21,-13.32 -13,-38.92 -5.45,-18 -11.43,-31.32 -15,-41.32 -3.44,-9.75 -4.55,-16.33 -0.6,-21 2.43,-2.86 3.5,-1.78 13,-9.08 12.9,-10 13.41,-14.26 16.94,-14.08 10.7,0.56 17.63,40.66 18.09,68.56 0.1,2.24 0.11,4.93 -0.1,8.02 z"
         transform="translate(-701.01,-425.93)"
         id="path6341" />
      <path
         class="cls-13"
         d="m 2334,3218.36 c -6,7.77 -11.58,12.43 -13.31,11.74 -0.95,-0.38 -1.39,-2.56 -0.44,-8.65 l -11.67,-55.79 c -10.63,10.61 -17.47,16.75 -21.85,20.28 -3.44,-9.75 -4.55,-16.33 -0.6,-21 2.43,-2.86 3.5,-1.78 13,-9.08 12.9,-10 13.41,-14.26 16.94,-14.08 10.7,0.56 17.63,40.66 18.09,68.56 0.04,2.24 0.05,4.93 -0.16,8.02 z"
         transform="translate(-701.01,-425.93)"
         id="path6343" />
      <path
         class="cls-41"
         d="m 2326.38,3136.45 c -1.65,2.8 -7,11.89 -14.27,11.67 -4.28,12.05 -11.59,19.37 -25.94,33.73 -13.43,13.43 -23.11,23.12 -31.14,20.76 -5.38,-1.58 -9.63,-8.45 -14.27,-46.7 -1.78,-14.66 -3.27,-27.11 -4.17,-37.6 -2.07,-24.13 -1,-37.87 6.76,-44.13 13.12,-10.55 36.44,-5.91 50.6,3.89 11.25,7.79 17.56,19.42 20.29,31.69 l 0.06,0.28 c 5.19,-0.29 12,1.78 15.11,7.32 3.99,7.15 -0.85,15.37 -3.03,19.09 z"
         transform="translate(-701.01,-425.93)"
         id="path6345" />
      <path
         class="cls-13"
         d="m 2314.24,3109.76 c -3.82,0.75 -7.45,1.36 -10.54,1.88 -18.78,3.14 -25.24,-1.06 -26.81,-2.16 a 51.16,51.16 0 0 1 -8.4,-8.21 c -2.43,-2.85 -4.14,-5.2 -4.14,-5.2 0,0 -9.27,9.74 -17.3,15.57 a 104.08,104.08 0 0 1 -10.46,6.67 c -2.07,-24.13 -1,-37.87 6.76,-44.13 13.12,-10.55 36.44,-5.91 50.6,3.89 11.25,7.79 17.56,19.42 20.29,31.69 z"
         transform="translate(-701.01,-425.93)"
         id="path6347" />
      <path
         class="cls-22"
         d="m 2482.06,3357 c -14.66,18.91 -39.38,20.93 -53.19,22.05 -54.4,4.43 -92.63,-35.31 -96,-38.92 a 137.18,137.18 0 0 1 -23.82,-35 c -6.14,-13.26 -10.52,-29.34 -8.61,-46.71 1.73,-15.82 7.26,-19.65 12.43,-31.49 a 86.3,86.3 0 0 0 5.73,-19.1 c 2.44,-12.1 -5.51,-36.1 -6.49,-59.68 7.28,0.22 12.62,-8.87 14.27,-11.67 2.18,-3.72 7,-11.94 3,-19.09 -3.1,-5.54 -9.92,-7.61 -15.11,-7.32 a 75.89,75.89 0 0 1 -11.26,0.83 55.23,55.23 0 0 1 -10.85,-1 c -3.57,-0.72 -13.16,-2.68 -19.66,-10.32 -4.8,-5.65 -8.42,-15 -8.42,-15 -11.39,16 -21.12,23.83 -28,27.6 -6.88,3.77 -10.92,3.54 -10.92,3.54 -12.42,-0.74 -22.68,-17 -25.94,-29.84 -7.48,-29.44 18,-55.56 22.05,-59.67 a 88.78,88.78 0 0 1 79.14,-24.65 86,86 0 0 1 25.59,9.44 v 0 c 20,11.19 34.87,29.5 41.92,47.65 12,30.75 -1.6,52.91 15.57,67.46 11.89,10.06 21.78,2.34 40.22,14.27 2.61,1.69 23.35,15.52 28.54,38.92 6.43,29 -17.57,42.77 -9.08,64.86 6.28,16.34 20.72,12.19 35,31.14 16.2,21.42 21.74,58.64 3.89,81.7 z"
         transform="translate(-701.01,-425.93)"
         id="path6349" />
      <path
         class="cls-13"
         d="m 2482.06,3357 c -14.66,18.91 -39.38,20.93 -53.19,22.05 -54,4.38 -96.58,-37.91 -96,-38.92 0.42,-0.72 22.43,21.15 49.58,17.35 35.39,-5 65.22,-51.58 55.25,-71.16 -7.6,-14.92 -35.69,-9.18 -40.22,-24 -3.06,-10 9,-15.39 14.92,-34.38 7,-22.27 0.62,-47.54 -10.38,-63.56 -16.43,-24 -34,-13.84 -46.7,-33.73 -18.69,-29.35 12.93,-61.87 -8.43,-93.41 0,0 -1,-1.55 -20.92,-26.27 20,11.19 34.87,29.5 41.92,47.65 12,30.75 -1.6,52.91 15.57,67.46 11.89,10.06 21.78,2.34 40.22,14.27 2.61,1.69 23.35,15.52 28.54,38.92 6.43,29 -17.57,42.77 -9.08,64.86 6.28,16.34 20.72,12.19 35,31.14 16.23,21.45 21.77,58.67 3.92,81.73 z"
         transform="translate(-701.01,-425.93)"
         id="path6351" />
      <path
         class="cls-26"
         d="m 2486,3550.29 c -12.93,36 -43.37,53.54 -54.49,59.68 a 98,98 0 0 1 -16.32,7.32 c -41.79,14 -73.45,11 -108.22,13.44 -42.72,3 -81.81,5.69 -95.61,29 -11.06,18.7 6,30.65 24.91,116.92 7.82,35.6 16.22,85 16.22,85 l -8.37,4 -3,1.46 -28.18,13.62 c 0,0 -19.06,-39 -30.49,-63.24 -16.91,-35.92 -27.58,-58.59 -38.59,-88.54 -18.15,-49.37 -27.11,-74.68 -21.41,-105.08 5,-26.82 18.41,-45.13 24.51,-53.28 12.28,-16.41 41.66,-48.22 189.87,-77.43 79.09,-15.58 115.77,-15.39 133.57,-11.13 a 39.28,39.28 0 0 1 9.8,3.58 c 0.34,0.19 0.67,0.37 1,0.56 a 20.57,20.57 0 0 1 2.36,1.65 c 0.13,0.1 0.27,0.21 0.4,0.33 0.13,0.12 0.39,0.34 0.59,0.52 0.2,0.18 0.45,0.42 0.67,0.65 v 0.05 l 0.14,0.15 a 1.36,1.36 0 0 0 0.12,0.12 17.48,17.48 0 0 1 1.39,1.66 q 0.21,0.27 0.42,0.57 c 13.04,18.45 2.53,47.66 -1.29,58.42 z"
         transform="translate(-701.01,-425.93)"
         id="path6353" />
      <path
         class="cls-13"
         d="m 2486,3550.29 c -12.93,36 -43.37,53.54 -54.49,59.68 a 98,98 0 0 1 -16.32,7.32 c -41.79,14 -73.45,11 -108.22,13.44 -42.72,3 -81.81,5.69 -95.61,29 -11.06,18.7 6,30.65 24.91,116.92 7.82,35.6 16.22,85 16.22,85 l -8.37,4 c -7.44,-20.52 -18.18,-49.43 -32.27,-92.74 -2,-6.07 -3.57,-11 -4.57,-14.19 0,0 -1.85,-5.95 -3.37,-10.93 -14,-46.21 -21,-69.32 -15.28,-91.28 A 67.21,67.21 0 0 1 2199,3634 c 28.31,-38.53 88.46,-13.07 173.19,-38.92 28.34,-8.65 66.15,-20.89 89.51,-56.43 12.83,-19.54 17,-39.53 18.43,-53 0.31,0.16 0.63,0.34 1,0.56 0.37,0.22 0.83,0.51 1.26,0.81 0.43,0.3 0.76,0.56 1.1,0.84 0.13,0.1 0.27,0.21 0.4,0.33 0.13,0.12 0.39,0.34 0.59,0.52 0.2,0.18 0.45,0.42 0.67,0.65 v 0.05 l 0.14,0.15 a 1.36,1.36 0 0 0 0.12,0.12 c 0.31,0.35 0.84,1 1.39,1.66 q 0.21,0.27 0.42,0.57 c 13.11,18.41 2.6,47.62 -1.22,58.38 z"
         transform="translate(-701.01,-425.93)"
         id="path6355" />
      <path
         class="cls-13"
         d="m 2327.67,3776.67 c 0,0 -3.08,4.25 -7.11,9.59 -9.33,-10 -24.41,-26.26 -45.68,-49.25 -13.72,-14.84 -26.63,-30 -36.11,-41.4 -9.48,-11.4 -15.53,-19.14 -15.53,-19.14 10,7.54 29,17.39 51.89,38.9 28.04,26.33 52.54,61.3 52.54,61.3 z"
         transform="translate(-701.01,-425.93)"
         id="path6357" />
      <path
         class="cls-10"
         d="m 2416.18,2707.52 v 350.58 h 273.73 v -350.58 z m 252.22,327 h -227.58 l -1.29,-303.44 h 228.87 z"
         transform="translate(-701.01,-425.93)"
         id="path6359" />
      <rect
         class="cls-1"
         x="1738.52"
         y="2305.1699"
         width="228.87"
         height="303.44"
         id="rect6361" />
      <path
         class="cls-17"
         d="m 1674.44,4090.93 h -8.92 l -13.41,-416.75 h 22.33 z"
         transform="translate(-701.01,-425.93)"
         id="path6363" />
      <path
         class="cls-13"
         d="M 1674.44,4090.93 H 1670 l -6.71,-416.75 h 11.17 z"
         transform="translate(-701.01,-425.93)"
         id="path6365" />
      <path
         class="cls-41"
         d="m 1841,4064.21 a 4,4 0 0 1 -3.17,0.72 64,64 0 0 0 -8.46,-0.91 c -12.12,-0.25 -15.73,4.51 -20.1,1.95 -1.71,-1 -2.75,-2.66 -5.19,-19.46 -1.83,-12.59 -3.23,-25.29 -3.23,-25.3 h 41.5 c 0,7.13 -0.17,14.27 0,21.41 0.38,15.45 1.57,19.44 -1.35,21.59 z"
         transform="translate(-701.01,-425.93)"
         id="path6367" />
      <path
         class="cls-13"
         d="m 1841,4064.21 a 4,4 0 0 1 -3.17,0.72 c -5.56,-4.73 -7.65,-13.9 -8.6,-18.52 -1.66,-8.07 -3,-16.55 -4,-25.2 h 17.13 c 0,7.13 -0.17,14.27 0,21.41 0.37,15.45 1.56,19.44 -1.36,21.59 z"
         transform="translate(-701.01,-425.93)"
         id="path6369" />
      <path
         class="cls-15"
         d="m 1842.38,4021.21 a 60.05,60.05 0 0 1 -16.66,3.78 c -1.06,0.08 -2.13,0.12 -3.22,0.12 h -0.88 c -9.62,-0.2 -20.74,-3.88 -20.74,-3.89 v 0 c 0,0 -18.78,-65.6 -24.65,-85.62 -7.69,-26.29 -24,-81.3 -50.66,-149.08 q -5,-12.74 -10.53,-26.06 c -5.59,-13.48 -11.57,-27.35 -17.94,-41.51 -19,-42.29 -30.94,-68.7 -43,-87.61 a 138.49,138.49 0 0 0 -12.32,-16.68 254,254 0 0 0 -30,-29.11 c -52.66,-43.38 -107.41,-55.23 -104.08,-67.68 1.57,-5.86 14.69,-7 88.22,-7.79 64.06,-0.69 96.25,-1 103.78,1.3 27.83,8.45 49.7,26.4 66.82,46.93 24,28.84 38.7,62.79 47.35,82.8 18.9,43.78 22.46,77.77 28.54,141.41 11.66,122.4 -0.03,238.69 -0.03,238.69 z"
         transform="translate(-701.01,-425.93)"
         id="path6371" />
      <path
         class="cls-17"
         d="m 1925.08,4090.94 -7.54,-0.08 -115.7,-1.22 a 79.12,79.12 0 0 1 -1.95,-15.89 80,80 0 0 1 4.22,-27.24 75.25,75.25 0 0 0 26.94,6.91 62.29,62.29 0 0 0 11.71,-0.47 c 10.85,-1.48 12.54,-4.69 24.41,-6.57 9.18,-1.46 31.13,-4.94 45.59,8.24 13.52,12.32 12.61,32.03 12.32,36.32 z"
         transform="translate(-701.01,-425.93)"
         id="path6373" />
      <path
         class="cls-22"
         d="m 1800.88,4084.73 115.61,-0.55 h 8.65 v 0 a 59.39,59.39 0 0 1 -0.06,6.79 l -7.54,-0.08 -115.7,-1.22 c -0.34,-1.53 -0.67,-3.16 -0.95,-4.9"
         transform="translate(-701.01,-425.93)"
         id="path6375" />
      <path
         class="cls-13"
         d="m 1842.38,4021.21 a 60.05,60.05 0 0 1 -16.66,3.78 c -7.44,-56.89 -2.29,-122.58 -2.29,-122.58 0,0 3.44,-44 -7.14,-141.4 -0.8,-7.4 -3,-25.71 -12.32,-28.54 -12.49,-3.79 -27,23.32 -70.06,49.29 -3.24,1.95 -6,3.51 -8.36,4.75 q -5,-12.74 -10.53,-26.06 c 5.06,-14 12.9,-31.91 21.49,-51.34 15.45,-35 21,-42.58 16.86,-51.89 -6.24,-13.94 -27,-15.3 -68.76,-21.4 q -16.56,-2.42 -30.5,-4.49 a 138.49,138.49 0 0 0 -12.32,-16.68 254,254 0 0 0 -30,-29.11 c 28.1,-13.74 70,-27.24 108.54,-29.51 a 221.17,221.17 0 0 1 46.2,2.27 c 24,28.84 38.7,62.79 47.35,82.8 18.9,43.78 22.46,77.77 28.54,141.41 11.65,122.41 -0.04,238.7 -0.04,238.7 z"
         transform="translate(-701.01,-425.93)"
         id="path6377" />
      <path
         class="cls-13"
         d="m 1925.08,4090.94 -7.54,-0.08 c -2.71,-10.32 -5.74,-22.15 -16.93,-28.23 -9.17,-5 -20.26,-4.17 -24,-3.89 -18.64,1.38 -25.82,11.88 -35,8.43 -5.65,-2.12 -8.76,-8.27 -10.54,-13.75 a 62.29,62.29 0 0 0 11.71,-0.47 c 10.85,-1.48 12.54,-4.69 24.41,-6.57 9.18,-1.46 31.13,-4.94 45.59,8.24 13.5,12.32 12.59,32.03 12.3,36.32 z"
         transform="translate(-701.01,-425.93)"
         id="path6379" />
      <path
         class="cls-9"
         d="m 1707.68,3603.26 v 36.23 a 9.51,9.51 0 0 1 -9.51,9.52 H 1489.3 a 9.52,9.52 0 0 1 -9.52,-9.52 v -36.23 a 9.51,9.51 0 0 1 9.52,-9.51 h 208.87 a 9.51,9.51 0 0 1 9.51,9.51 z"
         transform="translate(-701.01,-425.93)"
         id="path6381" />
      <rect
         class="cls-17"
         x="787.96997"
         y="3223.0801"
         width="209.50999"
         height="13.5"
         id="rect6383" />
      <rect
         class="cls-13"
         x="787.96997"
         y="3223.0801"
         width="209.50999"
         height="6.75"
         id="rect6385" />
      <path
         class="cls-13"
         d="m 1707.68,3603.26 v 36.23 a 9.51,9.51 0 0 1 -9.51,9.52 H 1489.3 a 9.52,9.52 0 0 1 -9.52,-9.52 v -36.23 a 9.51,9.51 0 0 1 9.52,-9.51 c -0.62,8.18 -2.49,32.87 4.61,42.72 6.3,8.73 20.62,7.13 38.27,6.48 49.7,-1.82 99.47,0.51 149.19,-0.65 3.94,-0.09 10.62,-0.23 14.88,-4.81 5.49,-5.9 3.2,-15.09 1.92,-43.74 a 9.51,9.51 0 0 1 9.51,9.51 z"
         transform="translate(-701.01,-425.93)"
         id="path6387" />
      <path
         class="cls-41"
         d="m 1736,3899.26 c -6.92,11.68 -13.17,22.06 -19,31.77 -1.58,2.64 -4.22,7 -8,7.88 a 5.38,5.38 0 0 1 -1,0.14 c -3.45,0.18 -4,-2.55 -9.8,-6.26 -10.2,-6.56 -15.76,-4.4 -18.15,-8.88 a 3.92,3.92 0 0 1 -0.31,-0.75 c -1.83,-6.54 2.72,-13.32 6.09,-18.54 6.31,-9.77 10,-21 15.43,-31.3 a 35.32,35.32 0 0 0 12.74,18.93 34.31,34.31 0 0 0 8.11,4.54 35.42,35.42 0 0 0 13.89,2.47 z"
         transform="translate(-701.01,-425.93)"
         id="path6389" />
      <path
         class="cls-13"
         d="m 1736,3899.26 c -6.92,11.68 -13.17,22.06 -19,31.77 -1.58,2.64 -4.22,7 -8,7.88 a 7.19,7.19 0 0 1 -2.57,-3.85 c -0.82,-3.13 0.55,-6.24 1.87,-8.41 q 6.51,-14.79 13.83,-29.86 a 35.42,35.42 0 0 0 13.87,2.47 z"
         transform="translate(-701.01,-425.93)"
         id="path6391" />
      <path
         class="cls-41"
         d="m 1673.73,3213 a 169.81,169.81 0 0 0 -2.93,21.39 c -1,11.54 -1.06,18.06 -7.45,22.71 -9.83,7.16 -24.41,2.55 -32.43,0 -13.8,-4.37 -37.47,-17 -38.92,-35 -1,-12.88 10.14,-18.17 33.73,-44.11 a 444.44,444.44 0 0 0 33.48,-42 q 1.68,-2.34 3.2,-4.41 c 7.92,-10.84 12.72,-16.42 18.08,-14.92 7.44,2.08 10,16.12 10.91,25.25 0.37,3.67 0.46,6.55 0.49,7.54 0.84,25.26 -11.34,30.36 -18.16,63.55 z"
         transform="translate(-701.01,-425.93)"
         id="path6393" />
      <path
         class="cls-13"
         d="m 1662.41,3131.55 c 5.82,0.09 17.15,3.42 29,10.33 0.37,3.67 0.46,6.55 0.49,7.54 0.84,25.29 -11.34,30.39 -18.16,63.57 a 169.81,169.81 0 0 0 -2.93,21.39 c -4.47,-3.56 -7.52,-7.55 -8.34,-11.63 -0.42,-2.07 0,-2.86 10.38,-36.33 1,-3.15 4.35,-10.28 2.59,-18.81 a 27.5,27.5 0 0 0 -2.69,-7.28 c -7,-13.72 -11.69,-20.68 -13.53,-24.37 z"
         transform="translate(-701.01,-425.93)"
         id="path6395" />
      <path
         class="cls-41"
         d="m 1661.53,3135.64 c -9.81,-0.26 -20.09,-7.88 -24.12,-17.36 -4.36,-10.25 -2.54,-25.37 7.78,-31.13 a 17.61,17.61 0 0 1 8.5,-2.19 52.42,52.42 0 0 1 55.07,-45.81 c 4.69,0.22 21.22,1.61 33.48,14 16.18,16.32 13.6,40.29 10.7,67.14 -2.07,19.2 -6.85,63.58 -27.32,68.08 -8.69,1.91 -16.89,-3.82 -29.83,-14.27 -12.79,-10.35 -25.98,-21.01 -34.26,-38.46 z"
         transform="translate(-701.01,-425.93)"
         id="path6397" />
      <path
         class="cls-17"
         d="m 1660.4,3135.57 c -9.46,-0.78 -19.11,-8.17 -23,-17.29 -4.36,-10.25 -2.54,-25.37 7.78,-31.13 a 17.61,17.61 0 0 1 8.5,-2.19 c 20.31,1.84 23.69,0.27 23.69,0.27 8.45,-3.93 5.86,-12.75 14.34,-14.45 5.44,-1.09 19.37,0.8 19.63,0.8 3.47,0 7.61,0 11.67,-0.09 4.06,-0.09 8,-0.28 11.15,-0.66 5.65,-0.69 11.75,-1.43 16.66,-4.85 3.45,-2.4 9.31,-8.2 10.87,-27.45 2,-24.05 4.3,-50.59 -16.54,-66.16 -19.19,-14.34 -47,-14.18 -61.3,-1.95 -14.3,12.23 -7.73,29.66 -25.3,45.73 a 65.77,65.77 0 0 1 -28.94,15.22 c -0.86,0.16 -1.18,0.19 -1.91,0.32 -6.81,1.24 -25.92,5.58 -38.3,19.13 -18.43,20.18 -16.69,55 -2.6,77.84 3.93,6.37 14.84,24.05 33.73,26 15.63,1.52 31.24,-7.55 39.87,-19.09 z"
         transform="translate(-701.01,-425.93)"
         id="path6399" />
      <path
         class="cls-42"
         d="m 1682.81,3334.94 c -0.75,4.93 -1.45,9.28 -2.12,13.16 -6.61,38.11 -10.11,31 -17.34,77.65 -5.14,33.14 -5.76,52.07 -20.76,62.27 -2.92,2 -6.08,3.44 -37.62,5.19 -49.39,2.74 -44.7,-0.65 -79.13,1.3 -17.56,1 -21.22,2 -25.95,-1.3 -5.71,-4 -8.9,-11.45 -8.9,-27.15 0,-9.57 1.18,-22.22 3.71,-39 3.75,-24.91 7.68,-55.16 23.35,-98.6 a 495.89,495.89 0 0 1 24.38,-56.57 c 38.63,-75.85 68.39,-84.38 76,-86.14 a 39.84,39.84 0 0 1 11.15,-1.29 c 26.65,1 47.43,30.74 55.78,50.6 9.07,21.44 5.32,47.88 -2.55,99.88 z"
         transform="translate(-701.01,-425.93)"
         id="path6401" />
      <path
         class="cls-13"
         d="m 1680.69,3348.1 c -6.61,38.11 -10.11,31 -17.34,77.65 -5.14,33.14 -5.76,52.07 -20.76,62.27 -2.92,2 -6.08,3.44 -37.62,5.19 -49.39,2.74 -44.7,-0.65 -79.13,1.3 -17.56,1 -21.22,2 -25.95,-1.3 -5.71,-4 -8.9,-11.45 -8.9,-27.15 5.64,0.65 12.27,1.46 20.11,2.41 16.26,2 43.25,5.15 74.92,4.54 19.94,-0.39 29.37,-2.05 35,-9.09 5.19,-6.45 5.12,-14.85 2.59,-32.43 -4,-27.85 -9.15,-43.79 -14.27,-65.19 a 492.12,492.12 0 0 1 -10.38,-58.05 c -2.64,-22.89 -3.91,-34.64 -1.29,-49.95 0.83,-4.89 7.88,-46.15 21.54,-47.9 17.39,-2.23 49.94,58.65 61.48,137.7 z"
         transform="translate(-701.01,-425.93)"
         id="path6403" />
      <path
         class="cls-41"
         d="m 1907.5,3312.06 c -4.61,10.5 -29.68,24.77 -79.64,52.9 -3.82,2.14 -8.52,4.74 -13.35,6 -4.08,1.09 -8.26,1.26 -12.08,-0.56 -7,-3.34 -11.9,-13 -10.71,-21.4 2.12,-15 21.46,-12.56 32.11,-33.08 a 153.58,153.58 0 0 0 11.68,-34.06 c 1,-4.57 2.64,-12.86 6.81,-13.62 2.61,-0.47 5,2.23 5.25,2.44 3.35,3.79 1.37,9 0.64,20.11 -0.65,10.07 -1,15.32 1.89,17.34 3.55,2.5 10.09,-1.22 15.63,-4.37 4.94,-2.8 14.55,-8.43 20.75,-20.1 1.93,-3.62 3.43,-8.85 6.43,-19.31 3.62,-12.63 4.31,-18.22 6.81,-18.48 3.34,-0.36 6.79,8.22 7.78,10.7 a 70.92,70.92 0 0 1 4.19,15 78.25,78.25 0 0 1 -4.19,40.49 z"
         transform="translate(-701.01,-425.93)"
         id="path6405" />
      <path
         class="cls-13"
         d="m 1907.5,3312.06 c -4.61,10.5 -29.68,24.77 -79.64,52.9 -3.82,2.14 -8.52,4.74 -13.35,6 q 4.31,-5.89 8.83,-12.29 l 8,-4.64 c 4.26,-2.46 9,-5.18 10.86,-6.25 34.62,-19.83 39.58,-16.39 49.29,-27.25 8.8,-9.83 12.36,-21 16.22,-33.08 a 124.07,124.07 0 0 0 3.94,-15.86 78.25,78.25 0 0 1 -4.15,40.47 z"
         transform="translate(-701.01,-425.93)"
         id="path6407" />
      <path
         class="cls-42"
         d="m 1827.86,3365 c -9,17.16 -10.46,19.6 -10.46,19.6 -6.61,11.26 -13.62,18.28 -19.46,24.33 -28.77,29.77 -25.14,31.58 -45.73,50.59 -22.88,21.13 -39.9,36.4 -60.32,33.73 a 33.33,33.33 0 0 1 -16.86,-6.49 73.78,73.78 0 0 1 -8.3,-7.07 c -19.22,-19 -34.59,-54 -51.38,-124 -7.24,-30.19 -10.3,-48.38 -11.68,-68.76 -3.6,-53.57 8,-69.52 15.57,-76.54 3.37,-3.14 7.83,-7.19 14.27,-7.78 21.24,-2 40,35.78 45.41,46.7 21.3,42.89 24.24,92 24.65,99.89 1.16,22.38 -0.47,41 7.78,44.11 5,1.87 10.3,-3.26 20.76,-11.68 22.69,-18.28 48.79,-31.91 72.65,-48.65 l 18.58,25.72 z"
         transform="translate(-701.01,-425.93)"
         id="path6409" />
      <path
         class="cls-13"
         d="m 1827.86,3365 c -9,17.16 -10.46,19.6 -10.46,19.6 -6.61,11.26 -13.62,18.28 -19.46,24.33 -28.77,29.77 -25.14,31.58 -45.73,50.59 -22.88,21.13 -39.9,36.4 -60.32,33.73 a 33.33,33.33 0 0 1 -16.86,-6.49 73.78,73.78 0 0 1 -8.3,-7.07 103.89,103.89 0 0 0 15.94,-0.16 c 21.41,-1.87 36.71,-10.07 46.7,-15.57 0,0 32,-17.56 94,-105.21 z"
         transform="translate(-701.01,-425.93)"
         id="path6411" />
      <path
         class="cls-19"
         d="m 1620.08,3168.14 c 11.5,-5.47 22.17,19.4 61.3,41.51 6.95,3.93 16.81,8.91 17.18,16.54 0.4,8.12 -10,18.86 -9.94,18.86 v 0 c 0,0 -20.34,-35.32 -52.65,-47.07 -10,-3.64 -28.85,-7.83 -28.85,-7.83 v 0 c 0,0 4.6,-18.04 12.96,-22.01 z"
         transform="translate(-701.01,-425.93)"
         id="path6413" />
      <path
         class="cls-15"
         d="m 1900.76,3625.53 c -2.6,54.59 -30.87,92.17 -110.28,199.79 -6,8.19 -25.86,35.06 -54.48,73.94 -1.63,0.51 -7.12,-0.26 -13.91,-2.35 a 89.74,89.74 0 0 1 -9.88,-3.7 c -10.41,-4.64 -14,-8.5 -15.13,-10.81 1.1,-8.3 3.06,-21.55 6.49,-37.62 11.66,-54.78 31.44,-101.3 42.81,-125.84 22.54,-48.64 32,-54.09 27.24,-66.16 -6.68,-16.81 -28.71,-15.32 -118,-35 -22.45,-4.95 -65.44,-14.14 -111.57,-38.92 -15.2,-8.16 -26.83,-15.44 -36.33,-28.54 -16.32,-22.51 -17,-48.6 -15.85,-63.72 0.17,-2.12 0.37,-4 0.57,-5.68 a 804.49,804.49 0 0 1 150.2,7.13 c 36.68,5.22 72.45,15.16 144,35 65.84,18.28 92.65,28.6 106.38,54.48 8.98,17.08 8.43,33.47 7.74,48 z"
         transform="translate(-701.01,-425.93)"
         id="path6415" />
      <path
         class="cls-13"
         d="m 1900.76,3625.53 c -2.6,54.59 -30.87,92.17 -110.28,199.79 -6,8.19 -25.86,35.06 -54.48,73.94 -1.63,0.51 -7.12,-0.26 -13.91,-2.35 0.26,-0.54 0.52,-1.09 0.79,-1.63 a 871.4,871.4 0 0 1 99.9,-158.27 c 0,0 14.38,-22.14 32.27,-58.46 19,-38.5 22,-53.47 19,-68 -2.55,-12.35 -9.34,-24 -22.23,-36.19 -34.07,-32.32 -86.82,-46.3 -161.34,-61.76 -104,-21.58 -156.77,-26.59 -198.63,-26 0.17,-2.12 0.37,-4 0.57,-5.68 a 804.49,804.49 0 0 1 150.2,7.13 c 36.68,5.22 72.45,15.16 144,35 65.84,18.28 92.65,28.6 106.38,54.48 9,17.08 8.45,33.47 7.76,48 z"
         transform="translate(-701.01,-425.93)"
         id="path6417" />
      <path
         class="cls-17"
         d="m 1765.63,4005.85 -8.9,-5.61 -95.39,-60.07 a 79.31,79.31 0 0 1 24.53,-35.55 c 4.63,6.85 11.81,15.56 22.45,22 a 63.07,63.07 0 0 0 7.09,3.71 c 10,4.42 13.15,2.57 24.24,7.19 8.59,3.57 29.1,12.11 34.51,30.9 5.07,17.58 -6.03,33.93 -8.53,37.43 z"
         transform="translate(-701.01,-425.93)"
         id="path6419" />
      <path
         class="cls-22"
         d="m 1663.1,3935.5 c -0.67,1.63 -1.25,3.19 -1.76,4.67 l 95.39,60.07 8.9,5.61 c 0.35,-0.49 0.87,-1.24 1.5,-2.21 0.63,-0.97 1.35,-2.16 2.11,-3.55 q -3.69,-2.25 -7.39,-4.49 l -5.14,-3.13 -93.61,-57"
         transform="translate(-701.01,-425.93)"
         id="path6421" />
      <path
         class="cls-13"
         d="m 1765.63,4005.85 -8.9,-5.61 c 0.45,-16.1 -1.76,-39.8 -17,-50 -12.46,-8.39 -30.87,-5.9 -33.3,-15.14 -0.82,-3.13 0.55,-6.24 1.87,-8.41 a 63.07,63.07 0 0 0 7.09,3.71 c 10,4.42 13.15,2.57 24.24,7.19 8.59,3.57 29.1,12.11 34.51,30.9 5.09,17.51 -6.01,33.86 -8.51,37.36 z"
         transform="translate(-701.01,-425.93)"
         id="path6423" />
      <rect
         class="cls-17"
         x="823.19"
         y="3423.6001"
         width="140.89"
         height="15.57"
         id="rect6425" />
      <rect
         class="cls-17"
         x="812.02002"
         y="3236.5801"
         width="161.39999"
         height="11.68"
         id="rect6427" />
      <rect
         class="cls-13"
         x="812.02002"
         y="3236.5801"
         width="161.39999"
         height="11.68"
         id="rect6429" />
      <path
         class="cls-17"
         d="m 1513,4090.93 h 9 l 13.41,-416.75 H 1513 Z"
         transform="translate(-701.01,-425.93)"
         id="path6431" />
      <path
         class="cls-13"
         d="m 1535.35,3674.18 -12.25,0.56 q -1.95,208.1 -3.89,416.2 h 2.79 z"
         transform="translate(-701.01,-425.93)"
         id="path6433" />
      <rect
         class="cls-17"
         x="1595.46"
         y="3430.79"
         width="140.89"
         height="15.57"
         id="rect6435" />
      <path
         class="cls-17"
         d="m 2446.71,4098.12 h -8.92 l -13.4,-416.75 h 22.32 z"
         transform="translate(-701.01,-425.93)"
         id="path6437" />
      <path
         class="cls-13"
         d="m 2446.71,4098.12 h -4.46 l -6.7,-416.75 h 11.16 z"
         transform="translate(-701.01,-425.93)"
         id="path6439" />
      <rect
         class="cls-17"
         x="1584.3"
         y="3243.77"
         width="161.39999"
         height="11.68"
         id="rect6441" />
      <rect
         class="cls-13"
         x="1584.3"
         y="3243.77"
         width="161.39999"
         height="11.68"
         id="rect6443" />
      <path
         class="cls-17"
         d="m 2285.31,4098.12 h 8.92 l 13.4,-416.75 h -22.32 z"
         transform="translate(-701.01,-425.93)"
         id="path6445" />
      <path
         class="cls-13"
         d="m 2307.63,3681.37 -12.25,0.56 q -2,208.09 -3.89,416.2 h 2.74 z"
         transform="translate(-701.01,-425.93)"
         id="path6447" />
      <rect
         class="cls-8"
         x="44.990002"
         y="3663.3201"
         width="2115.05"
         height="18.76"
         id="rect6449" />
      <path
         class="cls-29"
         d="M 2281.51,3158.1 2243,3159 a 44.19,44.19 0 0 0 2.31,11.87 c 2.1,6.12 4.06,11.82 8.75,13.88 7,3.08 16.59,-3.56 21.34,-9.44 a 28.79,28.79 0 0 0 6.11,-17.21 z"
         transform="translate(-701.01,-425.93)"
         id="path6451" />
      <path
         class="cls-29"
         d="m 1704.79,3146.54 38.51,0.86 a 44.28,44.28 0 0 1 -2.32,11.87 c -2.1,6.12 -4.06,11.82 -8.75,13.88 -7,3.08 -16.58,-3.56 -21.33,-9.44 a 28.79,28.79 0 0 1 -6.11,-17.17 z"
         transform="translate(-701.01,-425.93)"
         id="path6453" />
    </g>
  </g>
</svg>
