<?xml version="1.0" encoding="UTF-8" standalone="no"?>
<svg
   xmlns:dc="http://purl.org/dc/elements/1.1/"
   xmlns:cc="http://creativecommons.org/ns#"
   xmlns:rdf="http://www.w3.org/1999/02/22-rdf-syntax-ns#"
   xmlns:svg="http://www.w3.org/2000/svg"
   xmlns="http://www.w3.org/2000/svg"
   xmlns:sodipodi="http://sodipodi.sourceforge.net/DTD/sodipodi-0.dtd"
   xmlns:inkscape="http://www.inkscape.org/namespaces/inkscape"
   width="668.198mm"
   height="470.17001mm"
   viewBox="0 0 668.198 470.17001"
   version="1.1"
   id="svg17815"
   inkscape:version="1.0.1 (1.0.1+r75)"
   sodipodi:docname="meet.svg">
  <defs
     id="defs17809" />
  <sodipodi:namedview
     id="base"
     pagecolor="#ffffff"
     bordercolor="#666666"
     borderopacity="1.0"
     inkscape:pageopacity="0.0"
     inkscape:pageshadow="2"
     inkscape:zoom="0.24748737"
     inkscape:cx="1314.643"
     inkscape:cy="744.74998"
     inkscape:document-units="mm"
     inkscape:current-layer="layer1"
     inkscape:document-rotation="0"
     showgrid="false"
     inkscape:window-width="1687"
     inkscape:window-height="1385"
     inkscape:window-x="67"
     inkscape:window-y="27"
     inkscape:window-maximized="0"
     showguides="false" />
  <metadata
     id="metadata17812">
    <rdf:RDF>
      <cc:Work
         rdf:about="">
        <dc:format>image/svg+xml</dc:format>
        <dc:type
           rdf:resource="http://purl.org/dc/dcmitype/StillImage" />
        <dc:title></dc:title>
      </cc:Work>
    </rdf:RDF>
  </metadata>
  <style
     id="style5">.cls-1{fill:#f7faff;}.cls-2{fill:#e6f0fa;}.cls-3{fill:#a0d4b0;}.cls-4{fill:#527e35;}.cls-5{fill:#709f47;}.cls-6{fill:#87b272;}.cls-31,.cls-7{fill:#c5c880;}.cls-8{fill:#9c312e;}.cls-9{fill:#d29f7a;}.cls-10{fill:#fbe1c7;}.cls-11,.cls-45,.cls-47{fill:#231f20;}.cls-11,.cls-13,.cls-18,.cls-27,.cls-48,.cls-62{opacity:0.1;}.cls-12{fill:#ffc6b2;}.cls-14{fill:#003c68;}.cls-15{fill:#11343f;}.cls-16,.cls-33,.cls-38,.cls-52{fill:none;}.cls-16{stroke:#000;}.cls-16,.cls-38,.cls-52{stroke-miterlimit:10;}.cls-17,.cls-18,.cls-49{fill:#4b2603;}.cls-19{fill:#e6e6e6;}.cls-20{fill:#3d3027;}.cls-21{fill:#ffac00;}.cls-22,.cls-54{fill:#42423d;}.cls-23{fill:#83d2cd;}.cls-24{fill:#0157ad;}.cls-25{fill:#fcd7d1;}.cls-26,.cls-27{fill:#fd7d00;}.cls-28,.cls-64{fill:#ed2d19;}.cls-29{fill:#fff;}.cls-30{fill:#fbebdc;}.cls-31,.cls-64{opacity:0.5;}.cls-32{fill:#5a9cae;}.cls-34{fill:#4d4d4d;}.cls-35{fill:#333;}.cls-36{fill:#29343f;}.cls-37{fill:#b9d6f4;}.cls-38{stroke:#1a1a1a;}.cls-39{fill:#fe6e09;}.cls-40{fill:#ddecff;}.cls-41{fill:#ffc7ad;}.cls-42{fill:#85d0cd;}.cls-43{fill:#3f5e49;}.cls-44{fill:#628554;}.cls-45,.cls-46,.cls-54{opacity:0.2;}.cls-49{opacity:0.51;}.cls-50{fill:#8c6239;}.cls-51{fill:#ffe923;}.cls-52{stroke:#3f5e49;stroke-width:2px;}.cls-53{fill:url(#linear-gradient);}.cls-55{fill:url(#linear-gradient-2);}.cls-56{fill:#c1ee60;}.cls-57{fill:#1e3829;}.cls-58{opacity:0.4;}.cls-59{fill:#0ad9ff;}.cls-60{fill:#eac3b0;}.cls-61,.cls-62{fill:#41342a;}.cls-63{fill:#231d18;}</style>
  <g
     inkscape:label="Layer 1"
     inkscape:groupmode="layer"
     id="layer1"
     transform="translate(188.82312,54.606023)">
    <g
       id="g11370"
       transform="matrix(0.26458333,0,0,0.26458333,-909.68877,-64.973227)">
      <path
         class="cls-1"
         d="m 3533.72,114.16 c -20.07,18 -73.86,66.13 -82.81,119.35 -24.13,143.42 280.34,305.28 599.59,475 151.27,80.42 215.21,103.45 288.12,116.81 99.4,18.22 307.62,56.38 438.19,-77 109.89,-112.2 93.55,-273.13 91.83,-287.83 -3.18,-27.17 -14.41,-139.65 -105.08,-214.06 -93.85,-77 -209.58,-73.53 -288,-70 -234.49,10.39 -278.85,131.35 -397,89.51 -109.21,-38.68 -109.72,-155.69 -268.54,-210.16 -22.11,-7.58 -65.79,-20.3 -120.65,-15.57 -81.93,7.07 -135.94,56.29 -155.65,73.95 z"
         id="path18" />
      <path
         class="cls-2"
         d="m 5128.05,1459.07 c -0.53,2.65 -1.14,5.29 -1.8,7.92 -5.23,21 -14.13,41.5 -24.59,60.59 -3.7,6.76 -7.6,13.34 -11.6,19.7 -15.21,24.12 -31.93,45.08 -45.17,60.59 -6.36,7.44 -11.91,13.63 -16.12,18.31 -0.86,1 -1.73,1.91 -2.6,2.86 a 434.94,434.94 0 0 1 -68.44,60.59 q -15.84,11.31 -32.37,21.14 c -45.86,27.35 -95.46,46.61 -146.25,60.59 -65.76,18.1 -133.54,27.34 -197.82,33.81 -264.69,26.63 -417.82,1 -568.22,-33.81 -56.62,-13.09 -112.86,-27.49 -174.53,-40.87 -32,-7 -65.48,-13.64 -101.22,-19.72 -49.86,-8.5 -104.13,-15.83 -165.05,-21.14 -62,-5.4 -130.85,-8.7 -208.9,-9 -5,0 -10.24,0 -15.68,0 -84,-0.12 -216.5,-0.66 -335.5,-51.58 a 458.06,458.06 0 0 1 -43.17,-21.17 399.19,399.19 0 0 1 -81.1,-59.43 l -1.22,-1.16 c -5.23,-5 -12.18,-11.66 -19.76,-19.7 -14.9,-15.78 -32.25,-36.8 -43.91,-60.59 q -1.92,-3.92 -3.62,-7.92 c -8,-18.78 -12,-39 -8.37,-59.65 0.06,-0.32 0.11,-0.63 0.18,-0.94 a 80.82,80.82 0 0 1 5.13,-17.08 c 11.48,-27 36.36,-44.45 64,-60.58 9.58,-5.59 19.49,-11 29.28,-16.65 a 367.82,367.82 0 0 0 31.16,-19.58 c 15.81,-11.31 29.77,-24.36 39.48,-41 1.39,-2.38 2.7,-4.83 3.9,-7.36 0.25,-0.5 0.48,-1 0.7,-1.51 1.09,-2.34 2.08,-4.76 3,-7.24 0.56,-1.49 1.07,-3 1.55,-4.55 v -0.13 a 86.72,86.72 0 0 0 3.09,-40 c -1.84,-11.78 -6,-23.5 -12,-35.74 a 341,341 0 0 0 -19.88,-34.37 c -26.13,-40.62 -64.15,-90.42 -100.21,-164.68 -29.1,-59.93 -112.23,-222.43 -81.63,-394.54 3.07,-17.23 52.37,-271.5 272.1,-380.93 224.49,-111.8 469.2,6.14 625.82,81.63 147.14,70.92 254.07,162 367.32,258.49 204.61,174.3 277.31,293 408.15,285.7 82.82,-4.6 84.39,-53.85 204.07,-81.63 25.78,-6 251.34,-55.28 367.32,68 66.19,70.36 80.27,181.47 66.76,273.72 a 405.39,405.39 0 0 1 -10.86,51.36 313.61,313.61 0 0 1 -15.08,42.24 c -7.33,16.46 -19,36.23 -20.92,65.42 -0.12,1.79 -0.2,3.61 -0.24,5.47 0,1.53 0,3 0,4.55 0,2.46 0.14,4.87 0.31,7.24 0,0.51 0.07,1 0.12,1.51 q 0.32,3.75 0.86,7.36 c 3.54,23.72 14,42.83 26.38,60.59 4,5.65 8.12,11.17 12.33,16.65 14.68,19.1 29.93,37.81 39.16,60.58 1.36,3.3 2.56,6.7 3.63,10.19 0.71,2.29 1.33,4.59 1.88,6.89 4.81,19.98 4.26,40.45 0.15,60.56 z"
         id="path20" />
      <g
         id="plant_2"
         data-name="plant 2">
        <path
           class="cls-3"
           d="m 5479.19,1603.28 c -23.94,-69.89 -40.75,-128.76 -51.92,-170.77 -58.48,-220 -47.64,-299 -31.42,-351.11 6.68,-21.45 28.86,-92.73 66.94,-95.63 14.9,-1.14 29.64,8.38 38.26,19.13 27.79,34.64 -0.91,90.94 -23.23,169.4 0,0 -29.21,102.69 -31.42,210.39 -1.09,53.15 6.39,130.73 49.18,226.79 z"
           transform="translate(-701.01,-425.93)"
           id="path22" />
        <path
           class="cls-4"
           d="m 5479.19,1603.28 c -23.94,-69.89 -40.75,-128.76 -51.92,-170.77 -58.48,-220 -47.64,-299 -31.42,-351.11 6.68,-21.45 28.86,-92.73 66.94,-95.63 14.9,-1.14 29.64,8.38 38.26,19.13 27.79,34.64 -0.91,90.94 -23.23,169.4 0,0 -29.21,102.69 -31.42,210.39 -1.09,53.15 6.39,130.73 49.18,226.79 z"
           transform="translate(-701.01,-425.93)"
           id="path24" />
        <path
           class="cls-5"
           d="m 5480.5,1627.91 a 877.12,877.12 0 0 1 -13.66,-278.7 c 4.45,-39.51 13.22,-130.83 57.38,-226.79 17.6,-38.25 33.84,-88.57 116.82,-196.05 38.5,-49.86 96.63,-93.1 120.9,-85.38 14.16,4.5 19.86,23.42 21.86,30 23.94,79.5 -79.9,173.42 -166.68,344.28 0,0 -63,126.25 -92.9,256.84 -7.63,33.31 -14,72 -14,72 -7.49,45.58 -13.72,99.09 -11.29,99.49 1.43,0.23 5.51,-18 6.94,-24.29 13.52,-59.12 41.44,-143.68 62.62,-192.93 0,0 46.4,-107.93 157.79,-213.13 0,0 26,-24.55 67.63,-47.13 52.71,-28.6 75.6,-24.12 86.07,-20.5 4.29,1.49 19.24,6.67 22.54,18.45 2.61,9.3 -2.62,20.65 -16.39,34.84 -38.77,39.91 -112.86,72.41 -143.45,90.16 -68.74,39.89 -144.92,160.23 -188.54,264.36 a 744.91,744.91 0 0 0 -32.79,96.32 z"
           transform="translate(-701.01,-425.93)"
           id="path26" />
        <path
           class="cls-6"
           d="m 5531.51,1650.37 c 0.1,-0.74 0.24,-1.7 0.4,-2.83 0,0 0,-0.13 0,-0.27 17.83,-124.41 87.69,-222.32 87.69,-222.32 30.41,-42.62 70.93,-84 100.21,-104.26 52.89,-36.62 61.68,-37.14 127.26,-67 14.92,-6.78 82.07,-18.94 98.36,7.28 10.48,16.86 5.34,43.88 -8.19,61.48 -28.07,36.51 -91.92,31.58 -165.44,59 -49.44,18.45 -64.38,29.27 -92.77,57.79 -49.23,49.43 -73.07,99.09 -88.12,131.15 a 533.52,533.52 0 0 0 -32.79,90.17 z"
           transform="translate(-701.01,-425.93)"
           id="path28" />
        <path
           class="cls-4"
           d="m 5531.51,1650.37 c 0.1,-0.74 0.24,-1.7 0.4,-2.83 0,0 0,-0.13 0,-0.27 17.83,-124.41 87.69,-222.32 87.69,-222.32 30.41,-42.62 70.93,-84 100.21,-104.26 52.89,-36.62 61.68,-37.14 127.26,-67 14.92,-6.78 82.07,-18.94 98.36,7.28 10.48,16.86 5.34,43.88 -8.19,61.48 -28.07,36.51 -91.92,31.58 -165.44,59 -49.44,18.45 -64.38,29.27 -92.77,57.79 -49.23,49.43 -73.07,99.09 -88.12,131.15 a 533.52,533.52 0 0 0 -32.79,90.17 z"
           transform="translate(-701.01,-425.93)"
           id="path30" />
        <path
           class="cls-6"
           d="m 5551.32,1630.79 c 14.17,-35.58 45.1,-97.42 109.3,-146.18 0,0 68.28,-51.87 154.38,-56 24,-1.15 33.69,4.45 38.25,10.93 5.93,8.43 4.79,20.53 1.36,28.69 -4,9.67 -12.13,15.83 -21.85,20.5 -34,16.31 -77.2,8.94 -82,8.19 -81.25,-12.74 -177.7,70.06 -181.7,133.89 a 73.9,73.9 0 0 0 4.1,28.69 z"
           transform="translate(-701.01,-425.93)"
           id="path32" />
        <path
           class="cls-5"
           d="m 5551.32,1630.79 c 14.17,-35.58 45.1,-97.42 109.3,-146.18 0,0 68.28,-51.87 154.38,-56 24,-1.15 33.69,4.45 38.25,10.93 5.93,8.43 4.79,20.53 1.36,28.69 -4,9.67 -12.13,15.83 -21.85,20.5 -34,16.31 -77.2,8.94 -82,8.19 -81.25,-12.74 -177.7,70.06 -181.7,133.89 a 73.9,73.9 0 0 0 4.1,28.69 z"
           transform="translate(-701.01,-425.93)"
           id="path34" />
        <path
           class="cls-7"
           d="m 5580,1608.78 c 60.55,-50.22 116.48,-71.84 151.65,-82 53.65,-15.45 77.45,-9.48 92.9,0 4.1,2.52 27.86,17.69 31.42,45.08 2.49,19.11 -5,43 -16.39,45.09 -8.61,1.6 -13.78,-10.26 -45.09,-41 -15.06,-14.78 -22.72,-22.23 -28.69,-24.59 -22.72,-9 -74.6,9.17 -109.85,28.69 -23.47,13 -54.09,27.32 -73.22,47.82 z"
           transform="translate(-701.01,-425.93)"
           id="path36" />
        <path
           class="cls-6"
           d="M 5461.43,1591"
           transform="translate(-701.01,-425.93)"
           id="path38" />
        <path
           class="cls-7"
           d="m 5495.51,1618.35 c -1.16,-5.63 -3,-13.69 -5.63,-23.23 -6.77,-24.26 -33.45,-115.13 -117.32,-183.07 -20.37,-16.5 -125.57,-101.72 -229.52,-71 -26.09,7.7 -47.9,22.89 -91.54,53.28 -43.35,30.2 -98.46,68.58 -91.53,87.44 6.93,18.86 69.22,2.6 190.78,0 113.09,-2.42 173.59,-3 231.37,30 55.21,31.6 85.85,81.3 102.46,116.13 z"
           transform="translate(-701.01,-425.93)"
           id="path40" />
        <path
           class="cls-5"
           d="m 5485.68,1596.49 c -8.44,-16.74 -52.86,-100.76 -142.09,-118.86 -52.48,-10.65 -132.14,-0.85 -148.91,42.35 -9.48,24.43 1.28,59.19 19.13,65.58 20,7.15 35.82,-26.07 91.53,-47.82 14.46,-5.65 39.5,-15.42 65.58,-13.66 63.74,4.3 104.08,75.52 112,90.17 z"
           transform="translate(-701.01,-425.93)"
           id="path42" />
        <path
           class="cls-5"
           d="m 5493.89,1634.74 a 1843.93,1843.93 0 0 0 -95.63,-291 c -79.39,-187 -130,-218.49 -150.28,-229.52 -66.61,-36.19 -150.52,-38.46 -215.86,-15 -42.42,15.22 -72.9,39.8 -71,43.72 2.92,6.19 80.86,-50.36 140.72,-23.22 24.3,11 23.37,25.75 80.6,102.46 32.76,43.91 49.14,65.87 65.58,80.61 53.32,47.79 86.45,41.31 128.42,88.8 5.76,6.51 17.69,20.85 39.62,65.58 21,42.93 48,107.13 68.31,192.63 z"
           transform="translate(-701.01,-425.93)"
           id="path44" />
      </g>
      <g
         id="plant_2-2"
         data-name="plant 2">
        <path
           class="cls-3"
           d="m 3834.86,1610.07 c -18.85,-55 -32.08,-101.4 -40.88,-134.48 -46.05,-173.23 -37.51,-235.43 -24.74,-276.48 5.26,-16.89 22.72,-73 52.71,-75.3 11.73,-0.9 23.34,6.6 30.13,15.06 21.88,27.28 -0.72,71.62 -18.29,133.4 0,0 -23,80.86 -24.75,165.67 -0.86,41.85 5,102.94 38.73,178.58 z"
           transform="translate(-701.01,-425.93)"
           id="path47" />
        <path
           class="cls-4"
           d="m 3834.86,1610.07 c -18.85,-55 -32.08,-101.4 -40.88,-134.48 -46.05,-173.23 -37.51,-235.43 -24.74,-276.48 5.26,-16.89 22.72,-73 52.71,-75.3 11.73,-0.9 23.34,6.6 30.13,15.06 21.88,27.28 -0.72,71.62 -18.29,133.4 0,0 -23,80.86 -24.75,165.67 -0.86,41.85 5,102.94 38.73,178.58 z"
           transform="translate(-701.01,-425.93)"
           id="path49" />
        <path
           class="cls-5"
           d="M 3835.9,1629.46 A 690.61,690.61 0 0 1 3825.14,1410 c 3.5,-31.11 10.41,-103 45.18,-178.59 13.86,-30.12 26.65,-69.74 92,-154.37 30.32,-39.27 76.09,-73.31 95.2,-67.24 11.15,3.54 15.64,18.45 17.21,23.67 18.86,62.6 -62.91,136.55 -131.24,271.1 0,0 -49.61,99.42 -73.16,202.25 -6,26.23 -11,56.67 -11,56.67 -5.9,35.89 -10.8,78 -8.89,78.34 1.13,0.19 4.34,-14.2 5.47,-19.13 10.64,-46.55 32.63,-113.14 49.31,-151.92 0,0 36.54,-85 124.25,-167.83 0,0 20.47,-19.33 53.25,-37.11 41.51,-22.52 59.54,-19 67.78,-16.14 3.38,1.17 15.15,5.25 17.75,14.53 2.05,7.32 -2.06,16.26 -12.91,27.43 -30.53,31.43 -88.87,57 -113,71 -54.13,31.41 -114.11,126.17 -148.46,208.17 a 584.39,584.39 0 0 0 -25.82,75.84 z"
           transform="translate(-701.01,-425.93)"
           id="path51" />
        <path
           class="cls-6"
           d="m 3876.06,1647.15 c 0.08,-0.58 0.19,-1.34 0.32,-2.23 0,0 0,-0.11 0,-0.21 14,-98 69,-175.07 69,-175.07 24,-33.56 55.86,-66.13 78.91,-82.1 41.65,-28.83 48.57,-29.24 100.21,-52.72 11.75,-5.35 64.63,-14.92 77.46,5.73 8.25,13.27 4.2,34.55 -6.46,48.41 -22.1,28.75 -72.38,24.87 -130.27,46.47 -38.93,14.53 -50.69,23 -73.05,45.51 -38.76,38.93 -57.54,78 -69.39,103.28 a 420.3,420.3 0 0 0 -25.82,71 z"
           transform="translate(-701.01,-425.93)"
           id="path53" />
        <path
           class="cls-4"
           d="m 3876.06,1647.15 c 0.08,-0.58 0.19,-1.34 0.32,-2.23 0,0 0,-0.11 0,-0.21 14,-98 69,-175.07 69,-175.07 24,-33.56 55.86,-66.13 78.91,-82.1 41.65,-28.83 48.57,-29.24 100.21,-52.72 11.75,-5.35 64.63,-14.92 77.46,5.73 8.25,13.27 4.2,34.55 -6.46,48.41 -22.1,28.75 -72.38,24.87 -130.27,46.47 -38.93,14.53 -50.69,23 -73.05,45.51 -38.76,38.93 -57.54,78 -69.39,103.28 a 420.3,420.3 0 0 0 -25.82,71 z"
           transform="translate(-701.01,-425.93)"
           id="path55" />
        <path
           class="cls-6"
           d="m 3891.66,1631.73 c 11.16,-28 35.51,-76.71 86.07,-115.11 0,0 53.77,-40.85 121.56,-44.11 18.93,-0.91 26.53,3.5 30.12,8.61 4.68,6.63 3.77,16.16 1.08,22.59 -3.19,7.61 -9.56,12.46 -17.21,16.13 -26.8,12.85 -60.79,7.05 -64.55,6.46 -64,-10 -139.93,55.17 -143.08,105.43 a 58,58 0 0 0 3.23,22.59 z"
           transform="translate(-701.01,-425.93)"
           id="path57" />
        <path
           class="cls-4"
           d="m 3891.66,1631.73 c 11.16,-28 35.51,-76.71 86.07,-115.11 0,0 53.77,-40.85 121.56,-44.11 18.93,-0.91 26.53,3.5 30.12,8.61 4.68,6.63 3.77,16.16 1.08,22.59 -3.19,7.61 -9.56,12.46 -17.21,16.13 -26.8,12.85 -60.79,7.05 -64.55,6.46 -64,-10 -139.93,55.17 -143.08,105.43 a 58,58 0 0 0 3.23,22.59 z"
           transform="translate(-701.01,-425.93)"
           id="path59" />
        <path
           class="cls-7"
           d="m 3914.26,1614.4 c 47.67,-39.55 91.71,-56.57 119.41,-64.55 42.25,-12.17 61,-7.46 73.15,0 3.23,2 21.94,13.93 24.75,35.5 2,15 -3.94,33.83 -12.91,35.5 -6.78,1.26 -10.85,-8.07 -35.5,-32.27 -11.87,-11.65 -17.89,-17.51 -22.6,-19.37 -17.89,-7.08 -58.74,7.22 -86.5,22.6 -18.48,10.23 -42.59,21.51 -57.65,37.65 z"
           transform="translate(-701.01,-425.93)"
           id="path61" />
        <path
           class="cls-6"
           d="M 3820.88,1600.39"
           transform="translate(-701.01,-425.93)"
           id="path63" />
        <path
           class="cls-7"
           d="m 3847.72,1621.93 c -0.92,-4.43 -2.34,-10.78 -4.44,-18.29 -5.33,-19.1 -26.34,-90.66 -92.38,-144.16 -16,-13 -98.88,-80.1 -180.74,-55.94 -20.54,6.06 -37.72,18 -72.08,42 -34.14,23.77 -77.53,54 -72.07,68.85 5.46,14.85 54.5,2.05 150.23,0 89.05,-1.91 136.69,-2.38 182.19,23.67 43.48,24.88 67.6,64 80.68,91.44 z"
           transform="translate(-701.01,-425.93)"
           id="path65" />
        <path
           class="cls-5"
           d="m 3840,1604.71 c -6.64,-13.17 -41.62,-79.34 -111.88,-93.59 -41.33,-8.38 -104.06,-0.67 -117.26,33.35 -7.47,19.24 1,46.61 15.06,51.64 15.76,5.63 28.21,-20.52 72.08,-37.65 11.38,-4.45 31.1,-12.15 51.64,-10.76 50.19,3.39 81.95,59.47 88.21,71 z"
           transform="translate(-701.01,-425.93)"
           id="path67" />
        <path
           class="cls-5"
           d="m 3846.44,1634.84 a 1450.36,1450.36 0 0 0 -75.31,-229.15 c -62.51,-147.23 -102.35,-172 -118.33,-180.73 -52.45,-28.5 -118.53,-30.29 -170,-11.83 -33.41,12 -57.4,31.33 -55.94,34.42 2.3,4.87 63.68,-39.66 110.81,-18.29 19.13,8.68 18.4,20.28 63.47,80.69 25.79,34.58 38.69,51.86 51.64,63.47 42,37.64 68.07,32.53 101.12,69.93 4.54,5.13 13.93,16.41 31.2,51.63 16.57,33.81 37.79,84.37 53.79,151.69 z"
           transform="translate(-701.01,-425.93)"
           id="path69" />
      </g>
      <g
         id="plant_2-3"
         data-name="plant 2">
        <path
           class="cls-3"
           d="m 4379.6,1612.32 c 18.85,-55 32.09,-101.4 40.88,-134.48 46.05,-173.24 37.52,-235.43 24.74,-276.48 -5.26,-16.89 -22.72,-73 -52.71,-75.3 -11.73,-0.9 -23.34,6.6 -30.12,15.06 -21.89,27.28 0.71,71.62 18.28,133.4 0,0 23,80.86 24.75,165.67 0.86,41.85 -5,102.94 -38.73,178.58 z"
           transform="translate(-701.01,-425.93)"
           id="path72" />
        <path
           class="cls-4"
           d="m 4379.6,1612.32 c 18.85,-55 32.09,-101.4 40.88,-134.48 46.05,-173.24 37.52,-235.43 24.74,-276.48 -5.26,-16.89 -22.72,-73 -52.71,-75.3 -11.73,-0.9 -23.34,6.6 -30.12,15.06 -21.89,27.28 0.71,71.62 18.28,133.4 0,0 23,80.86 24.75,165.67 0.86,41.85 -5,102.94 -38.73,178.58 z"
           transform="translate(-701.01,-425.93)"
           id="path74" />
        <path
           class="cls-5"
           d="m 4378.56,1631.71 a 690.66,690.66 0 0 0 10.76,-219.47 c -3.5,-31.1 -10.41,-103 -45.18,-178.58 -13.86,-30.12 -26.64,-69.74 -92,-154.38 -30.32,-39.26 -76.09,-73.3 -95.2,-67.23 -11.15,3.54 -15.64,18.44 -17.21,23.67 -18.85,62.6 62.91,136.55 131.24,271.1 0,0 49.61,99.41 73.16,202.25 6,26.23 11,56.67 11,56.67 5.9,35.89 10.8,78 8.89,78.34 -1.13,0.18 -4.34,-14.2 -5.47,-19.13 -10.64,-46.55 -32.63,-113.14 -49.3,-151.92 0,0 -36.55,-85 -124.26,-167.83 0,0 -20.47,-19.33 -53.25,-37.11 -41.51,-22.52 -59.54,-19 -67.78,-16.14 -3.38,1.17 -15.15,5.25 -17.75,14.52 -2.05,7.33 2.06,16.27 12.91,27.44 30.53,31.43 88.87,57 113,71 54.13,31.41 114.12,126.17 148.46,208.17 a 584.39,584.39 0 0 1 25.82,75.84 z"
           transform="translate(-701.01,-425.93)"
           id="path76" />
        <path
           class="cls-6"
           d="m 4338.4,1649.4 c -0.08,-0.59 -0.19,-1.34 -0.31,-2.23 0,0 0,-0.11 0,-0.21 -14,-98 -69.05,-175.07 -69.05,-175.07 -23.95,-33.56 -55.85,-66.14 -78.91,-82.1 -41.65,-28.84 -48.57,-29.24 -100.21,-52.73 -11.75,-5.34 -64.63,-14.91 -77.46,5.74 -8.25,13.27 -4.2,34.54 6.46,48.41 22.1,28.75 72.38,24.86 130.27,46.47 38.93,14.53 50.69,23 73.05,45.51 38.77,38.92 57.54,78 69.39,103.27 a 419.78,419.78 0 0 1 25.82,71 z"
           transform="translate(-701.01,-425.93)"
           id="path78" />
        <path
           class="cls-4"
           d="m 4338.4,1649.4 c -0.08,-0.59 -0.19,-1.34 -0.31,-2.23 0,0 0,-0.11 0,-0.21 -14,-98 -69.05,-175.07 -69.05,-175.07 -23.95,-33.56 -55.85,-66.14 -78.91,-82.1 -41.65,-28.84 -48.57,-29.24 -100.21,-52.73 -11.75,-5.34 -64.63,-14.91 -77.46,5.74 -8.25,13.27 -4.2,34.54 6.46,48.41 22.1,28.75 72.38,24.86 130.27,46.47 38.93,14.53 50.69,23 73.05,45.51 38.77,38.92 57.54,78 69.39,103.27 a 419.78,419.78 0 0 1 25.82,71 z"
           transform="translate(-701.01,-425.93)"
           id="path80" />
        <path
           class="cls-6"
           d="m 4322.8,1634 c -11.16,-28 -35.51,-76.71 -86.07,-115.11 0,0 -53.77,-40.84 -121.56,-44.1 -18.93,-0.91 -26.53,3.5 -30.12,8.6 -4.67,6.64 -3.77,16.17 -1.08,22.59 3.19,7.61 9.56,12.47 17.21,16.14 26.8,12.85 60.79,7.05 64.55,6.46 64,-10 139.93,55.16 143.08,105.42 a 58.1,58.1 0 0 1 -3.22,22.6 z"
           transform="translate(-701.01,-425.93)"
           id="path82" />
        <path
           class="cls-4"
           d="m 4322.8,1634 c -11.16,-28 -35.51,-76.71 -86.07,-115.11 0,0 -53.77,-40.84 -121.56,-44.1 -18.93,-0.91 -26.53,3.5 -30.12,8.6 -4.67,6.64 -3.77,16.17 -1.08,22.59 3.19,7.61 9.56,12.47 17.21,16.14 26.8,12.85 60.79,7.05 64.55,6.46 64,-10 139.93,55.16 143.08,105.42 a 58.1,58.1 0 0 1 -3.22,22.6 z"
           transform="translate(-701.01,-425.93)"
           id="path84" />
        <path
           class="cls-7"
           d="m 4300.21,1616.65 c -47.68,-39.55 -91.72,-56.58 -119.42,-64.55 -42.25,-12.17 -61,-7.46 -73.15,0 -3.23,2 -21.94,13.93 -24.74,35.5 -2,15 3.93,33.83 12.9,35.5 6.78,1.26 10.85,-8.08 35.51,-32.27 11.86,-11.65 17.89,-17.51 22.59,-19.37 17.89,-7.08 58.74,7.22 86.5,22.59 18.48,10.24 42.59,21.52 57.65,37.66 z"
           transform="translate(-701.01,-425.93)"
           id="path86" />
        <path
           class="cls-6"
           d="M 4393.58,1602.63"
           transform="translate(-701.01,-425.93)"
           id="path88" />
        <path
           class="cls-4"
           d="m 4366.74,1624.18 c 0.92,-4.44 2.34,-10.78 4.44,-18.29 5.33,-19.11 26.34,-90.66 92.39,-144.16 16,-13 98.87,-80.1 180.73,-55.94 20.54,6.06 37.72,18 72.08,42 34.14,23.77 77.53,54 72.08,68.85 -5.45,14.85 -54.51,2.05 -150.23,0 -89.06,-1.91 -136.7,-2.38 -182.2,23.66 -43.47,24.89 -67.6,64 -80.68,91.45 z"
           transform="translate(-701.01,-425.93)"
           id="path90" />
        <path
           class="cls-5"
           d="m 4374.49,1607 c 6.64,-13.17 41.62,-79.34 111.88,-93.59 41.33,-8.39 104.06,-0.67 117.26,33.35 7.47,19.24 -1,46.61 -15.06,51.64 -15.76,5.63 -28.21,-20.53 -72.08,-37.66 -11.38,-4.44 -31.1,-12.14 -51.63,-10.75 -50.19,3.39 -82,59.47 -88.22,71 z"
           transform="translate(-701.01,-425.93)"
           id="path92" />
        <path
           class="cls-5"
           d="m 4368,1637.09 a 1451.4,1451.4 0 0 1 75.31,-229.15 c 62.51,-147.24 102.35,-172 118.33,-180.73 52.45,-28.5 118.53,-30.29 170,-11.84 33.41,12 57.4,31.34 55.94,34.43 -2.3,4.87 -63.67,-39.66 -110.8,-18.29 -19.14,8.68 -18.41,20.28 -63.48,80.68 -25.79,34.58 -38.69,51.87 -51.64,63.48 -42,37.64 -68.07,32.53 -101.12,69.92 -4.53,5.13 -13.93,16.42 -31.2,51.64 -16.57,33.81 -37.79,84.37 -53.79,151.69 z"
           transform="translate(-701.01,-425.93)"
           id="path94" />
      </g>
      <path
         class="cls-4"
         d="m 5090.35,1058.46 a 405.39,405.39 0 0 1 -10.86,51.36 313.61,313.61 0 0 1 -15.08,42.24 c -7.33,16.46 -19,36.23 -20.92,65.42 -0.12,1.79 -0.2,3.61 -0.24,5.47 0,1.53 0,3 0,4.55 H 2987.81 c 0.56,-1.49 1.07,-3 1.55,-4.55 v -0.13 a 86.72,86.72 0 0 0 3.09,-40 c -1.84,-11.78 -6,-23.5 -12,-35.74 a 341,341 0 0 0 -19.88,-34.37 64.35,64.35 0 0 1 18.34,-7 c 31.3,-7.56 41.88,20.59 66.71,21.66 34.07,1.5 48.22,-50.08 81.6,-89.19 70.1,-82.15 164.48,-38.91 190.53,-26.17 a 173,173 0 0 1 51,37.41 c 54.78,58.13 68.39,109.23 92.11,101.09 25.79,-8.83 26.19,-79.77 56.23,-88.75 17.15,-5.14 25.13,15.57 43.72,25.28 41.07,21.46 66.41,-46 125.46,-85.88 52.1,-35.2 148.54,-61.2 195.18,16.5 16.15,26.91 29.27,71.15 51.49,69.38 12.92,-1 14.08,-16.41 29.77,-26.13 a 32.9,32.9 0 0 1 21.83,-8.25 c 17,0 40.59,12.15 73.86,49.32 0,0 44,-47.52 74.43,-63.48 40.2,-21.11 66.91,7.54 123.33,33.53 14.75,6.8 90.34,40.51 157.37,33.68 116.16,-11.85 125.09,-98.55 208.39,-119.49 76.46,-19.23 125.88,130.6 169.12,85.16 13.63,-14.32 16.69,-34.24 40.69,-55.29 12.29,-10.78 40.3,-35.34 66.62,-19.91 32.24,18.88 31,79.54 55.3,84.64 26.32,5.55 37.93,-63.73 66.57,-56.59 21.49,5.35 44,51.62 44,51.62 0,0 12.06,-10.78 26.13,-17.39 z"
         id="path97" />
      <path
         class="cls-5"
         d="m 5043.25,1222.95 c 0,1.53 0,3 0,4.55 0,2.46 0.14,4.87 0.31,7.24 H 2984.84 c 1.09,-2.34 2.08,-4.76 3,-7.24 0.56,-1.49 1.07,-3 1.55,-4.55 v -0.13 a 86.72,86.72 0 0 0 3.09,-40 c -1.84,-11.78 -6,-23.5 -12,-35.74 2.45,-0.58 4.55,-1 6.16,-1.25 30.56,-5.52 40.89,15 65.13,15.81 33.27,1.09 47.08,-36.56 79.66,-65.11 68.44,-60 160.59,-28.41 186,-19.11 21.44,7.84 37.21,17.3 49.83,27.31 53.48,42.44 66.77,79.74 89.93,73.81 25.17,-6.46 25.57,-58.24 54.89,-64.8 16.75,-3.75 24.54,11.37 42.69,18.46 40.1,15.66 64.84,-33.57 122.49,-62.7 50.87,-25.7 145,-44.68 190.56,12 15.76,19.64 28.57,51.94 50.27,50.65 12.61,-0.75 13.74,-12 29.06,-19.08 a 38.88,38.88 0 0 1 21.31,-6 c 16.59,0 39.63,8.87 72.12,36 0,0 43,-34.69 72.66,-46.34 39.24,-15.41 65.33,5.51 120.4,24.48 14.4,5 88.21,29.58 153.64,24.59 113.42,-8.65 122.13,-72 203.45,-87.24 56.4,-10.6 97.74,49.25 132.79,64.83 11.34,5 22,5.45 32.33,-2.66 a 51.82,51.82 0 0 0 7.75,-7.62 c 7.93,-9.4 13.81,-20.82 32,-32.74 12,-7.87 39.35,-25.8 65.05,-14.54 31.47,13.79 30.3,58.07 54,61.8 25.71,4 37,-46.53 65,-41.32 21,3.91 43,37.69 43,37.69 0,0 24,-16.13 43.7,-16.35 a 39.16,39.16 0 0 1 13.16,2.18 313.61,313.61 0 0 1 -15.08,42.24 c -7.33,16.46 -19,36.23 -20.92,65.42 -0.14,1.78 -0.22,3.58 -0.26,5.46 z"
         id="path99" />
      <path
         class="cls-7"
         d="M 5043.66,1236.25 H 2984.14 c 0.25,-0.5 0.48,-1 0.7,-1.51 1.09,-2.34 2.08,-4.76 3,-7.24 0.56,-1.49 1.07,-3 1.55,-4.55 v -0.13 a 86.72,86.72 0 0 0 3.09,-40 c 11.13,-7.42 24.21,-9.22 30.09,-10 28.65,-3.94 38.33,10.73 61,11.29 31.18,0.78 44.13,-26.1 74.67,-46.48 64.15,-42.81 150.52,-20.28 174.36,-13.64 20.1,5.59 34.88,12.35 46.7,19.5 50.13,30.29 62.59,56.92 84.3,52.68 23.59,-4.61 24,-41.57 51.45,-46.25 15.7,-2.68 23,8.11 40,13.17 37.58,11.18 60.78,-24 114.81,-44.75 47.68,-18.35 135.93,-31.9 178.61,8.6 14.78,14 26.79,37.07 47.12,36.15 11.82,-0.53 12.89,-8.55 27.25,-13.62 a 45.21,45.21 0 0 1 20,-4.29 c 15.55,0 37.14,6.33 67.6,25.7 0,0 40.3,-24.77 68.1,-33.08 36.79,-11 61.24,3.93 112.86,17.47 13.5,3.54 82.68,21.11 144,17.55 106.3,-6.17 114.48,-51.35 190.7,-62.27 70,-10 115.2,68.06 154.77,44.38 12.47,-7.46 15.27,-17.84 37.23,-28.81 1.55,-0.78 3.38,-1.69 5.44,-2.67 9.68,-4.58 24.49,-10.56 40.08,-10.28 a 51.51,51.51 0 0 1 15.45,2.57 c 29.5,9.84 28.4,41.45 50.6,44.11 24.09,2.89 34.71,-33.21 60.92,-29.49 19.67,2.79 40.27,26.9 40.27,26.9 0,0 22.5,-11.51 41,-11.67 28,-0.25 49,25.64 52.44,29.83 14.27,17.56 14.81,32.64 19.18,42.13 -0.12,1.79 -0.2,3.61 -0.24,5.47 0,1.53 0,3 0,4.55 0,2.46 0.14,4.87 0.31,7.24 0.02,0.44 0.06,0.94 0.11,1.44 z"
         id="path101" />
      <rect
         class="cls-8"
         x="2959.3601"
         y="1217.49"
         width="2115.05"
         height="18.76"
         id="rect103" />
      <rect
         class="cls-9"
         x="3011.6201"
         y="1018.79"
         width="801.72998"
         height="38.919998"
         rx="12.32"
         id="rect105" />
      <rect
         class="cls-9"
         x="3032.3799"
         y="801.67999"
         width="760.21997"
         height="27.24"
         id="rect107" />
      <rect
         class="cls-9"
         x="3032.3799"
         y="838.01001"
         width="760.21997"
         height="27.24"
         id="rect109" />
      <rect
         class="cls-9"
         x="3032.3799"
         y="874.33002"
         width="760.21997"
         height="27.24"
         id="rect111" />
      <rect
         class="cls-9"
         x="3032.3799"
         y="910.65997"
         width="760.21997"
         height="27.24"
         id="rect113" />
      <rect
         class="cls-9"
         x="3032.3799"
         y="944.06"
         width="760.21997"
         height="27.24"
         id="rect115" />
      <rect
         class="cls-9"
         x="3032.3799"
         y="981.67999"
         width="760.21997"
         height="27.24"
         id="rect117" />
      <path
         class="cls-9"
         d="m 3064.99,1279.07 h -16.87 q -3.88,-113.19 -7.78,-226.38 h 24.65 z"
         id="path119" />
      <rect
         class="cls-9"
         x="3765.3501"
         y="793.90002"
         width="18.809999"
         height="239.35001"
         id="rect121" />
      <rect
         class="cls-9"
         x="3044.25"
         y="794.45001"
         width="18.809999"
         height="239.35001"
         id="rect123" />
      <path
         class="cls-9"
         d="m 3784.17,1279.07 h -16.87 q -3.89,-113.19 -7.78,-226.38 h 24.65 z"
         id="path125" />
      <path
         class="cls-10"
         d="m 5128.05,1459.07 c -0.53,2.65 -1.14,5.29 -1.8,7.92 -5.23,21 -14.13,41.5 -24.59,60.59 -3.7,6.76 -7.6,13.34 -11.6,19.7 -15.21,24.12 -31.93,45.08 -45.17,60.59 -6.36,7.44 -11.91,13.63 -16.12,18.31 -0.86,1 -1.73,1.91 -2.6,2.86 a 434.94,434.94 0 0 1 -68.44,60.59 q -15.84,11.31 -32.37,21.14 c -45.86,27.35 -95.46,46.61 -146.25,60.59 -65.76,18.1 -133.54,27.34 -197.82,33.81 -264.69,26.63 -417.82,1 -568.22,-33.81 -56.62,-13.09 -112.86,-27.49 -174.53,-40.87 -32,-7 -65.48,-13.64 -101.22,-19.72 -49.86,-8.5 -104.13,-15.83 -165.05,-21.14 -62,-5.4 -130.85,-8.7 -208.9,-9 -5,0 -10.24,0 -15.68,0 -84,-0.12 -216.5,-0.66 -335.5,-51.58 a 458.06,458.06 0 0 1 -43.17,-21.17 399.19,399.19 0 0 1 -81.1,-59.43 l -1.22,-1.16 c -5.23,-5 -12.18,-11.66 -19.76,-19.7 -14.9,-15.78 -32.25,-36.8 -43.91,-60.59 q -1.92,-3.92 -3.62,-7.92 c -8,-18.78 -12,-39 -8.37,-59.65 0.06,-0.32 0.11,-0.63 0.18,-0.94 a 80.82,80.82 0 0 1 5.13,-17.08 c 11.48,-27 36.36,-44.45 64,-60.58 9.58,-5.59 19.49,-11 29.28,-16.65 a 367.82,367.82 0 0 0 31.16,-19.58 c 15.81,-11.31 29.77,-24.36 39.48,-41 1.39,-2.38 2.7,-4.83 3.9,-7.36 h 2059.49 q 0.32,3.75 0.86,7.36 c 3.54,23.72 14,42.83 26.38,60.59 4,5.65 8.12,11.17 12.33,16.65 14.68,19.1 29.93,37.81 39.16,60.58 1.36,3.3 2.56,6.7 3.63,10.19 0.71,2.29 1.33,4.59 1.88,6.89 4.81,19.99 4.26,40.46 0.15,60.57 z"
         id="path127" />
      <ellipse
         class="cls-11"
         cx="3274.26"
         cy="1507.48"
         rx="251.25999"
         ry="67.959999"
         id="ellipse129" />
      <ellipse
         class="cls-11"
         cx="3704.0801"
         cy="1528.64"
         rx="168.97"
         ry="45.82"
         id="ellipse131" />
      <ellipse
         class="cls-11"
         cx="4564.2998"
         cy="1547.34"
         rx="168.97"
         ry="45.82"
         id="ellipse133" />
      <ellipse
         class="cls-11"
         cx="4160.0098"
         cy="1530.55"
         rx="226.72"
         ry="62.610001"
         id="ellipse135" />
      <path
         class="cls-12"
         d="m 4216.14,1471.53 c -2.32,3.8 -5.59,5.41 -10.79,8 -1.65,0.82 -3.58,1.66 -5.64,2.44 -8.42,3.19 -19,5.37 -22.47,0.84 -0.95,-1.25 -1.12,-2.73 0,-10.3 1.72,-11.62 3.05,-14.6 3.74,-19.68 2.08,-15.22 -5.46,-21 -0.93,-26.72 3.46,-4.35 10.5,-4.28 15.93,-4.21 l 15.78,3.77 5.77,1.38 c 0,0 -0.67,11.44 -0.46,22.49 0.27,14.53 1.86,17.42 -0.93,21.99 z"
         id="path137" />
      <path
         class="cls-13"
         d="m 4216.14,1471.53 c -2.32,3.8 -5.59,5.41 -10.79,8 -1.65,0.82 -3.58,1.66 -5.64,2.44 9.8,-17 10.82,-35.54 11.29,-43.89 q 0.36,-6.21 0.76,-12.41 l 5.77,1.38 c 0,0 -0.67,11.44 -0.46,22.49 0.27,14.53 1.86,17.42 -0.93,21.99 z"
         id="path139" />
      <path
         class="cls-14"
         d="m 4164.59,1525.43 a 105.7,105.7 0 0 1 -19.05,4.73 c -10.8,1.56 -19.92,1 -28.29,0.42 -8.09,-0.53 -17.76,-2 -25.77,-8.9 -3.14,-2.74 -6.48,-5.62 -6.55,-9.38 a 5.63,5.63 0 0 1 0.35,-2.19 c 2.15,-6.13 14.24,-11 36.66,-21.24 29.42,-13.38 57.2,-27.07 57.2,-27.07 0,0 2.31,4.3 4.19,6 3.48,3.11 9.91,1.22 16.56,-0.73 0,0 1.13,-0.34 3.9,-1.41 0.9,-0.35 2,-0.77 3.23,-1.29 2.63,-1.07 6.07,-2.56 10.49,-4.55 5.87,10 6.13,10.8 6.13,10.8 a 36.44,36.44 0 0 1 -1.19,15.54 c -6.87,22.12 -35.03,31.59 -57.86,39.27 z"
         id="path141" />
      <path
         class="cls-12"
         d="m 4020.45,823.35 a 13.72,13.72 0 0 1 -1.48,3.62 c -2.06,3.41 -5.28,4.9 -8.44,6.32 -10.79,4.85 -17.32,1.45 -30.22,2.12 -12.15,0.63 -10.75,3.87 -34.44,8.43 -11.17,2.14 -16.86,3.21 -21.83,2.32 -16.84,-3 -25.75,-17.19 -27.38,-19.9 -0.47,-0.78 -8.29,-14.08 -4.22,-18.27 2.13,-2.19 5.87,-0.24 15.47,1.41 4.69,0.8 16.47,2.73 28.11,0.69 7.87,-1.36 19.62,-5.23 19.69,-9.84 0.07,-4.61 -10.92,-5 -13.36,-13.35 -1.42,-4.85 0.47,-11 3.52,-11.95 2.58,-0.82 5.46,2.21 8.43,4.92 0.79,0.73 16.18,14.55 30.22,17.58 12.08,2.59 15,-4.57 23.21,-0.71 9.03,4.25 15.03,17.33 12.72,26.61 z"
         id="path143" />
      <path
         class="cls-13"
         d="m 4020.45,823.35 a 13.72,13.72 0 0 1 -1.48,3.62 c -2.06,3.41 -5.28,4.9 -8.44,6.32 -10.79,4.85 -17.32,1.45 -30.22,2.12 -12.15,0.63 -10.75,3.87 -34.44,8.43 -11.17,2.14 -16.86,3.21 -21.83,2.32 -16.84,-3 -25.75,-17.19 -27.38,-19.9 5.55,-4.72 14.14,4.53 33.88,6.57 26.46,2.73 35.51,-11.37 65.37,-12.65 8.87,-0.39 12.78,0.65 24.54,3.17 z"
         id="path145" />
      <path
         class="cls-14"
         d="m 4634.42,778.55 a 0.46,0.46 0 0 1 -0.07,0.07 c -1.6,1.74 -5.06,1.16 -16.5,-2.26 -61.62,-18.48 -94.48,-41.72 -146.9,-58.35 -15.49,-4.91 -13.33,1.37 -28.12,-7.72 -11,-6.75 -20.8,-12.73 -29.55,-18 -65.77,-39.78 -72.54,-41.67 -75.19,-54.39 0,0 -3.07,-14.83 47.8,-96.3 h 0.05 c 0,0 53.73,33.11 101.18,71.67 61.87,50.26 158.12,152.61 147.3,165.28 z"
         id="path147" />
      <path
         class="cls-13"
         d="m 4164.59,1525.43 a 105.91,105.91 0 0 1 -19.05,4.73 c -10.8,1.56 -19.92,1 -28.29,0.42 -8.09,-0.53 -17.76,-2 -25.77,-8.9 -3.14,-2.74 -6.48,-5.62 -6.55,-9.38 a 5.63,5.63 0 0 1 0.35,-2.19 101.68,101.68 0 0 0 35.05,8.07 c 8.5,0.42 45.87,1.23 69.58,-23.2 9.15,-9.41 14.23,-20.5 17.11,-30.63 2.63,-1.07 6.07,-2.56 10.49,-4.55 5.87,10 6.13,10.8 6.13,10.8 a 37.14,37.14 0 0 1 -1.42,16.26 c -7.11,21.6 -34.14,30.68 -57.63,38.57 z"
         id="path149" />
      <path
         class="cls-15"
         d="m 4320.83,1048.52 c -9.29,32.26 -23.12,71.21 -37.56,118.66 a 1985.34,1985.34 0 0 0 -62,272 l -10.31,-0.67 -33.26,-2.15 c 0,-0.13 -0.12,-0.37 -0.22,-0.66 -42.43,-133.41 -23,-260.21 -3.36,-380 2.81,-17.1 11.24,-66.62 14.77,-87.35 1,-5.77 1.59,-9.31 1.59,-9.31 1.74,-12.72 6.52,-29.08 19.68,-39.37 17.71,-13.85 45.88,-13 70.36,-3.51 15.15,5.85 28.88,15 37.88,26 20.04,24.57 16.37,57.91 2.43,106.36 z"
         id="path151" />
      <path
         class="cls-13"
         d="m 4320.83,1048.52 c -9.29,32.26 -23.12,71.21 -37.56,118.66 a 1985.34,1985.34 0 0 0 -62,272 l -10.31,-0.67 v -0.49 c 4.43,-77.61 13.9,-154.91 17.07,-232.58 5.59,-137.06 41.82,-214.35 10.35,-233.47 -11.23,-6.81 -22.53,-1.44 -49.52,-3.57 1,-5.77 1.59,-9.31 1.59,-9.31 1.74,-12.72 6.52,-29.08 19.68,-39.37 17.71,-13.85 45.88,-13 70.36,-3.51 6.51,16.11 13,37.26 21.15,64.21 7.43,24.41 13.96,45.95 19.19,68.1 z"
         id="path153" />
      <path
         class="cls-12"
         d="m 4356.84,1487.71 c -2.31,3.79 -5.58,5.41 -10.78,8 -0.66,0.32 -1.38,0.66 -2.11,1 -8.67,3.86 -22.08,7.48 -26,2.3 -1,-1.26 -1.12,-2.73 0,-10.3 1.71,-11.62 3.05,-14.6 3.75,-19.69 2.08,-15.21 -5.47,-21 -0.95,-26.71 3.47,-4.35 10.51,-4.28 15.93,-4.22 l 11.33,2.71 10.24,2.45 c 0,0 -0.67,11.43 -0.48,22.49 0.27,14.52 1.87,17.4 -0.93,21.97 z"
         id="path155" />
      <path
         class="cls-13"
         d="m 4356.84,1487.71 c -2.31,3.79 -5.58,5.41 -10.78,8 -0.66,0.32 -1.38,0.66 -2.11,1 a 78.31,78.31 0 0 0 4.83,-23.47 c 0.25,-5.71 -0.34,-7.76 -0.71,-16.17 -0.27,-6.09 -0.23,-11.48 -0.06,-16.27 l 10.24,2.45 c 0,0 -0.67,11.43 -0.48,22.49 0.27,14.52 1.87,17.4 -0.93,21.97 z"
         id="path157" />
      <path
         class="cls-15"
         d="m 4402.77,953.5 v 0 c -4.09,125.32 -11.93,220.84 -14.07,247.4 -5.68,70.89 -14.05,156.66 -26.7,254.46 l -14,-0.9 -29.57,-1.91 c 0,-0.2 -53.51,-163.75 -56.23,-344.43 -1.1,-73.12 5.63,-181.36 5.63,-181.36 15.6,-15.6 30.07,-19.73 38,-21.09 20.77,-3.55 41.19,4.47 58.07,15.08 18.83,11.82 33.26,26.86 38.86,32.65 z"
         id="path159" />
      <path
         class="cls-14"
         d="m 4345.42,1519.82 c -18.46,11.74 -28,17.53 -40.13,21.78 -19.8,7 -34.46,6 -47.32,5.16 -8.11,-0.53 -17.78,-2 -25.78,-8.91 a 25.46,25.46 0 0 1 -5.47,-5.8 7.24,7.24 0 0 1 -1.09,-3.57 c -0.16,-7.26 12,-12 37,-23.43 29.41,-13.38 57.19,-27.07 57.19,-27.07 0,0 2.31,4.3 4.2,6 3.48,3.11 9.91,1.22 16.56,-0.73 0,0 1.12,-0.34 3.9,-1.41 q 1.47,-0.57 3.6,-1.44 c 2.56,-1.07 5.89,-2.5 10.12,-4.4 5.86,10 6.12,10.8 6.12,10.8 0.8,4.27 1.38,11.16 -1.82,18 -2.39,5.07 -5.88,7.89 -17.08,15.02 z"
         id="path161" />
      <path
         class="cls-13"
         d="m 4402.77,953.5 v 0 c -4.09,125.32 -11.93,220.84 -14.07,247.4 -5.68,70.89 -14.05,156.66 -26.7,254.46 l -14,-0.9 a 244,244 0 0 1 1.26,-31.34 c 21.86,-255.86 22,-360.45 22,-360.45 -1.63,-68.26 -5.94,-113.11 -7.43,-141.92 18.83,11.82 33.26,26.86 38.86,32.65 z"
         id="path163" />
      <path
         class="cls-13"
         d="m 4345.42,1519.82 c -18.46,11.74 -28,17.53 -40.13,21.78 -19.8,7 -34.46,6 -47.32,5.16 -8.11,-0.53 -17.78,-2 -25.78,-8.91 a 25.46,25.46 0 0 1 -5.47,-5.8 c 14.34,4.81 33.47,9.94 58.79,5.11 7.76,-1.48 41.88,-8 54.83,-32.34 a 77.84,77.84 0 0 0 7.76,-24.44 c 2.56,-1.07 5.89,-2.5 10.12,-4.4 5.86,10 6.12,10.8 6.12,10.8 0.8,4.27 1.38,11.16 -1.82,18 -2.41,5.09 -5.9,7.91 -17.1,15.04 z"
         id="path165" />
      <path
         class="cls-12"
         d="m 4322.16,553.3 c -1.7,1.86 -3.54,1.08 -10.54,0.66 -2,-0.12 -4.36,-0.21 -7.26,-0.2 -11.09,0 -26.29,1.49 -30.46,1.88 -7.45,0.71 -8.69,1 -10.42,-0.09 -4.2,-2.69 -3.84,-9.06 -2.24,-31.31 a 205.69,205.69 0 0 1 4.16,-29.17 c 0.24,-1.14 0.46,-2.17 0.64,-3.1 0.64,-3.33 1.16,-5.95 1.59,-8 a 35.9,35.9 0 0 1 1.48,-5.64 c 6.82,-16.59 27.54,-29.33 35.71,-24.38 3.85,2.33 2.72,7.28 3,19.28 a 166.21,166.21 0 0 0 1.72,20.55 207.15,207.15 0 0 0 5.62,28.12 c 5.28,19.08 10.83,27.17 7,31.4 z"
         id="path167" />
      <path
         class="cls-13"
         d="m 4267.63,483.97 c 7.87,-0.93 14.26,-4.72 20.22,-5.64 a 109,109 0 0 0 19.94,-5.1 166.21,166.21 0 0 0 1.72,20.55 207.15,207.15 0 0 0 5.62,28.12 c 5.31,19.08 10.84,27.21 7,31.4 -1.7,1.86 -3.54,1.08 -10.54,0.66 -4.65,-9.88 -6.15,-22 -7.36,-34.87 -1.55,-16.37 -0.16,-25.91 -5.16,-28.12 -4.3,-1.89 -7.85,4.06 -15.93,6.09 -5.89,1.49 -12,0.37 -17.77,-2 z"
         id="path169" />
      <path
         class="cls-14"
         d="m 4229.85,814.32 c -22.11,29.51 -77.3,57.27 -234.08,25.3 0,0 -0.69,-9.16 -1.46,-19.35 -1,-12.72 -2,-27 -2,-27 0,0 23.66,-3.73 26.71,-4.23 15.52,-2.5 55.22,-11.62 88.57,-35.14 5.36,-3.77 11.85,-10.36 32.33,-40.77 26.48,-39.29 48.71,-78.63 63.25,-105.88 11.71,-21.92 18.44,-36 18.44,-36 0,0 60.26,173.62 8.24,243.07 z"
         id="path171" />
      <path
         class="cls-13"
         d="m 4229.85,814.32 c -22.11,29.51 -77.3,57.27 -234.08,25.3 0,0 -0.69,-9.16 -1.46,-19.35 0.53,0 1.06,-0.07 1.6,-0.09 11.93,-0.52 14.89,1.54 40.07,6.32 13.55,2.57 74.83,25 105.44,4.23 14.53,-9.87 18.78,-26.87 22.14,-41.13 16.72,-71 29.93,-134 39.56,-182.39 11.71,-21.92 18.44,-36 18.44,-36 0,0 60.31,173.66 8.29,243.11 z"
         id="path173" />
      <path
         class="cls-14"
         d="m 4409.79,918.35 c -0.14,0.74 -1.9,9.52 -3.62,18.12 l -3.4,17 -212.28,5.62 c 0,0 -0.5,-3.7 -1.27,-10.32 -0.2,-1.65 -0.4,-3.5 -0.62,-5.51 -3.3,-29.89 -9.48,-98 -6.56,-166.93 1.75,-41 8.66,-75.15 22.5,-143.4 10.06,-49.64 18.1,-77.29 39.36,-85.76 17.82,-7.08 30.47,5 59.05,-5.62 19.14,-7.14 20.74,-15.3 36.55,-16.87 23.95,-2.38 43.13,14.07 46.39,16.87 13.78,11.81 19.77,26.24 22.5,33.75 8.37,23 13.19,56.16 15.43,93.28 0.22,3.41 0.4,6.86 0.57,10.34 4.07,85.9 -4.62,189.47 -14.6,239.43 z"
         id="path177" />
      <path
         class="cls-13"
         d="m 4634.35,778.62 c -1.6,1.74 -5.06,1.16 -16.5,-2.26 -61.62,-18.48 -94.48,-41.72 -146.9,-58.35 -15.49,-4.91 -13.33,1.37 -28.12,-7.72 -11,-6.75 -20.8,-12.73 -29.55,-18 -2.18,-11.85 -2.33,-26.44 2.61,-28.39 5.13,-2 12.47,10.82 28.13,24.49 12.88,11.25 24.4,17 44.37,26.19 46.76,21.56 101.09,44.49 145.96,64.04 z"
         id="path179" />
      <path
         class="cls-13"
         d="m 4409.79,918.35 c -0.14,0.74 -1.9,9.52 -3.62,18.12 l -3.4,17 -212.28,5.62 c 0,0 -0.5,-3.7 -1.27,-10.32 -0.2,-1.65 -0.4,-3.5 -0.62,-5.51 8,-0.38 18,-0.63 30.84,-0.8 72.3,-1 90.16,2.1 118.09,-8.44 16.48,-6.23 29.61,-11.17 41.13,-24.25 17.52,-19.89 20.18,-53 24.82,-118.3 0.82,-11.48 1.11,-18.43 2.58,-37.75 2.87,-37.49 4.38,-56.42 7.72,-65.6 a 94.33,94.33 0 0 1 10,-19.54 c 0.22,3.41 0.4,6.86 0.57,10.34 4.11,85.9 -4.58,189.47 -14.56,239.43 z"
         id="path181" />
      <path
         class="cls-12"
         d="m 4319.99,450.65 v 0 c 3.95,-1.72 11.1,-4.82 15.08,-12.65 0.82,-1.64 5.8,-11.47 0.93,-18.29 a 13,13 0 0 0 -7,-4.68 15.49,15.49 0 0 0 -7.55,-0.27 90.68,90.68 0 0 0 -10.26,-26.91 c -4.41,-7.18 -14.65,-23.85 -30.46,-24.37 -11.34,-0.37 -19.84,7.76 -22,9.84 -11.11,10.62 -11.93,29.56 -13.13,67 -0.87,27.61 0.79,37.23 8,44.51 a 30,30 0 0 0 16.41,8.43 c 19.72,2.83 38.1,-17.9 45.92,-32.8 a 62,62 0 0 0 4.13,-9.83 v 0"
         id="path183" />
      <path
         class="cls-17"
         d="m 4350.1,414.55 c -1.66,18.21 -2.51,27.48 -9.84,35.16 -9.43,9.88 -23.61,10.8 -28.58,23.89 -1.07,2.83 -1.68,6.11 -2.81,6.09 -0.88,0 -2,-2 -2.72,-4.89 a 80.73,80.73 0 0 0 9.75,-14.32 62,62 0 0 0 4.12,-9.8 v 0 0 0 c 3.94,-1.72 11.1,-4.82 15.07,-12.66 0.73,-1.44 4.67,-9.22 2.29,-15.71 a 10.91,10.91 0 0 0 -1.35,-2.57 13,13 0 0 0 -7,-4.68 15.49,15.49 0 0 0 -7.55,-0.27 c -1.2,-3.14 -6.1,-15 -17.76,-22.23 -8.62,-5.36 -22,-8.91 -22,-8.91 0,0 -10.7,6.43 -18.75,8 -10,1.93 -24.69,-2.08 -29.05,-11.71 -5.59,-12.33 8.21,-28.23 17.34,-35.15 12,-9.08 25.05,-9.59 31.39,-9.84 a 66.73,66.73 0 0 1 35.13,8.64 64.94,64.94 0 0 1 5.65,3.54 66.79,66.79 0 0 1 22,26.25 c 7.04,15.35 5.79,29.02 4.67,41.17 z"
         id="path185" />
      <path
         class="cls-18"
         d="m 4350.1,414.55 c -1.66,18.21 -2.51,27.48 -9.84,35.16 -9.43,9.88 -23.61,10.8 -28.58,23.89 -1.07,2.83 -1.68,6.11 -2.81,6.09 -0.88,0 -2,-2 -2.72,-4.89 a 80.73,80.73 0 0 0 9.75,-14.32 62,62 0 0 0 4.12,-9.8 v 0 0 0 c 3.94,-1.72 11.1,-4.82 15.07,-12.66 0.73,-1.44 4.67,-9.22 2.29,-15.71 a 35.18,35.18 0 0 0 3.88,-11 c 1.78,-9.67 -0.35,-17.4 -3.28,-27.65 -5.74,-20 -14.56,-32.13 -20.25,-40.13 a 64.94,64.94 0 0 1 5.65,3.54 66.79,66.79 0 0 1 22,26.25 c 7.09,15.41 5.84,29.08 4.72,41.23 z"
         id="path187" />
      <path
         class="cls-19"
         d="m 4240.06,540.65 c 5.5,-5.89 15.17,-0.34 30.93,0.47 0,0 29.83,1.52 57.17,-16.87 l 11.71,-8 10.21,8.54 v 0 c 0,0 -6.36,6.43 -7.69,7.59 -9.83,8.57 -33.61,14 -33.61,14 a 191.63,191.63 0 0 1 -48,5.2 c -6.7,-0.15 -23.44,-0.93 -23.44,-0.93 v 0 c 0,0 -0.16,-6.93 2.72,-10 z"
         id="path189" />
      <path
         class="cls-12"
         d="m 4539.14,1297.93 c 0,0 -4.55,27.94 -9.85,194 l -16.87,15.46 -0.08,-0.56 -39.29,-266.54 c 0,0 11,-27.54 29.53,-39.37 7.57,-4.82 18.64,-8.47 28.41,-8.26 5.2,0.12 10,1.32 13.76,4 16.01,11.67 3.55,44.88 -5.61,101.27 z"
         id="path191" />
      <path
         class="cls-13"
         d="m 4539.14,1297.93 c 0,0 -4.55,27.94 -9.85,194 l -16.87,15.46 -0.08,-0.56 c 2,-2.28 3.92,-4.64 5.56,-6.82 3.54,-4.72 5.9,-8.55 5.9,-8.55 0,0 -3.92,-81 -3.51,-142.68 0.56,-84 1,-134.43 10.7,-156.12 5.2,0.12 10,1.32 13.76,4 16.01,11.67 3.55,44.88 -5.61,101.27 z"
         id="path193" />
      <path
         class="cls-17"
         d="m 4529.99,1513.37 c -3.27,7.48 -13.47,9.31 -32,12.65 -11.41,2.06 -20.71,2.21 -39.31,2.53 0,0 -12,0.2 -20.09,-1.82 l -2.12,-0.54 -2.09,-0.52 c 0,0 0.82,-1.44 2.36,-3.67 3.81,-5.53 12,-16 22.94,-22 6.58,-3.58 14.11,-4.85 29.18,-7.38 7.74,-1.3 20.92,-3 20.92,-3 a 31.58,31.58 0 0 0 10.71,3 h 0.2 c 0.31,0 1,0 2.42,-0.12 1.42,-0.12 3.31,-0.27 6.16,-0.58 0.02,0.01 4.11,13.71 0.72,21.45 z"
         id="path195" />
      <path
         class="cls-13"
         d="m 4529.99,1513.37 c -3.27,7.48 -13.47,9.31 -32,12.65 -11.41,2.06 -20.71,2.21 -39.31,2.53 0,0 -12,0.2 -20.09,-1.82 l -2.12,-0.54 -2.09,-0.52 c 0,0 0.82,-1.44 2.36,-3.67 11.94,-0.64 24.74,-0.87 32.92,-1 15.14,-0.27 25.5,0.25 35.15,-7 4.78,-3.6 9.51,-9.23 13.07,-14 2.42,-3.23 4.29,-6 5.23,-7.5 1.33,-0.09 3.31,-0.27 6.16,-0.58 0.02,0.01 4.11,13.71 0.72,21.45 z"
         id="path197" />
      <path
         class="cls-12"
         d="m 4443.07,602.97 c -1.1,0.36 -4.81,2 -9.38,22.49 -1.69,7.59 -2,10.89 -4.68,12.19 -3.52,1.67 -6.28,-2.32 -10.78,-0.94 -4.5,1.38 -6.47,6.55 -8.9,12.65 a 44.65,44.65 0 0 0 -2.82,11.25 55.87,55.87 0 0 0 0,11.25 c 0.76,15.27 -7.68,21.12 -4.21,26.24 3.66,5.42 17.3,5.07 22.49,-0.94 1.82,-2.11 1.65,-3.82 3.28,-10.31 1.79,-7.14 3,-8.87 5.62,-16.87 3.6,-10.78 3.5,-13.69 7,-26.71 6.85,-25.25 12.86,-35.16 8.39,-39.17 a 6.5,6.5 0 0 0 -6.01,-1.13 z"
         id="path199" />
      <path
         class="cls-12"
         d="m 4430.99,645.95 c 0,0 0,0 0,0 a 30.33,30.33 0 0 1 -1.48,6.21 c -0.66,2 -2.17,6.54 -6.57,9.37 a 16.66,16.66 0 0 1 -7,2.34 c -3.29,0.55 -6.35,1.06 -9.62,-0.49 -0.41,-0.2 -5.37,-2.64 -6.46,-7.9 0,0 0,0 0,-0.06 -0.74,-3.61 0.77,-6.49 2.5,-9.82 1.32,-2.54 3.15,-6.07 6.87,-8.49 5.67,-3.71 15.54,-4.76 19.83,0.53 1.93,2.43 2.2,5.5 1.93,8.31 z"
         id="path201" />
      <path
         class="cls-13"
         d="m 4430.99,645.96 a 30.33,30.33 0 0 1 -1.48,6.21 c -0.66,2 -2.17,6.54 -6.57,9.37 a 16.66,16.66 0 0 1 -7,2.34 c -3.29,0.55 -6.35,1.06 -9.62,-0.49 -0.41,-0.2 -5.37,-2.64 -6.46,-7.9 0,0 0,0 0,-0.06 a 114.52,114.52 0 0 0 11.77,0 c 5.43,-0.26 9.89,-0.82 14.06,-3.75 a 19,19 0 0 0 5.3,-5.72 z"
         id="path203" />
      <path
         class="cls-12"
         d="m 4443.53,656.86 a 6.77,6.77 0 0 1 -2.34,4.68 c -0.83,0.64 -1.92,1 -11.24,-0.46 l -1.4,-0.23 c -2,-0.36 -2.56,-0.59 -2.91,-1.18 -1.08,-1.87 1.16,-5.56 3.84,-7.5 3.5,-2.54 9.19,-3.11 12.1,-0.55 a 4.76,4.76 0 0 1 0.55,0.55 6.91,6.91 0 0 1 1.4,4.69 z"
         id="path205" />
      <path
         class="cls-13"
         d="m 4443.53,656.86 a 6.77,6.77 0 0 1 -2.34,4.68 c -0.83,0.64 -1.92,1 -11.24,-0.46 l -1.4,-0.23 a 15.69,15.69 0 0 1 3.64,-1.17 c 3.3,-0.61 4.47,0.57 6.33,-0.48 2.61,-1.46 2.66,-5.16 3.06,-7.58 a 4.76,4.76 0 0 1 0.55,0.55 6.91,6.91 0 0 1 1.4,4.69 z"
         id="path207" />
      <path
         class="cls-19"
         d="m 4528.82,653.58 c -4,33.54 -6.05,50.31 -9.84,59.51 a 43.92,43.92 0 0 1 -4.95,8.63 c -8.39,11.79 -25.07,27.39 -52.69,53.23 -12.53,11.71 -29.86,27.38 -54.36,33.27 -5,1.2 -9.84,1.88 -14.09,1.1 a 14.94,14.94 0 0 1 -6.06,-2.5 c -8.34,-6 -8,-19.31 -7.49,-30.46 0.62,-15 3.69,-19.75 15,-59 0.22,-0.79 8.66,-30.73 9.38,-33.27 9.66,4 10.07,4.11 10.07,4.11 a 46.15,46.15 0 0 0 13,1.76 44.13,44.13 0 0 0 5,-0.25 l -5.16,50.15 c -0.69,1 -1.19,1.64 -1.51,2.1 3.42,-4.66 23.69,-32.48 31.51,-43.35 a 564.58,564.58 0 0 1 59.51,-67.94 c 2.42,-2.33 7.42,-7 10.78,-5.63 4.65,1.91 3.6,14.37 1.9,28.54 z"
         id="path209" />
      <path
         class="cls-13"
         d="m 4513.99,721.72 c -8.39,11.79 -25.07,27.39 -52.69,53.23 -12.53,11.71 -29.86,27.38 -54.36,33.27 -5,1.2 -9.84,1.88 -14.09,1.1 5,-1.88 10.31,-4.09 15.87,-6.72 18,-8.49 28.36,-16.42 38,-23.89 9.64,-7.47 16,-16.32 24.36,-26.25 7.18,-8.54 11.93,-14.19 17.34,-22.49 12.26,-18.79 13,-28.35 16.41,-28.11 3.05,0.21 7.16,8.21 9.16,19.86 z"
         id="path211" />
      <path
         class="cls-12"
         d="m 4592.55,1355.57 c -12,70.06 -19.68,137.77 -19.68,137.77 l -3.17,1.59 -13.7,6.84 c 0,0 -0.75,-17.51 -2.53,-42.78 -1.78,-25.27 -4.59,-58.32 -8.72,-89.36 -10.36,-78 -27.89,-134.86 -16.86,-139.18 7.15,-2.81 17,20.21 43.57,23.89 a 43.48,43.48 0 0 0 15.09,-0.49 c 4,-0.75 6.91,-1.38 10.22,0.49 14.22,8.05 5.45,44.63 -4.22,101.23 z"
         id="path213" />
      <path
         class="cls-13"
         d="m 4592.55,1355.57 c -12,70.06 -19.68,137.77 -19.68,137.77 l -3.17,1.59 c 0,-0.41 0,-0.65 0,-0.65 0.27,-15.17 1,-38.71 3.35,-67.48 4.67,-57.78 9.87,-64.6 12.65,-109.66 2,-32 0.74,-51.3 0.89,-63.29 4,-0.75 6.91,-1.38 10.22,0.49 14.18,8.05 5.41,44.63 -4.26,101.23 z"
         id="path215" />
      <path
         class="cls-17"
         d="m 4578.99,1513.65 c -1.32,8.05 -10.75,12.36 -27.85,20.18 -10.54,4.83 -19.51,7.29 -37.46,12.2 0,0 -11.56,3.16 -19.91,3.21 h -4.34 a 80.29,80.29 0 0 1 4.18,-10.91 c 2.94,-6.31 7.5,-14.19 14,-20.23 5.48,-5.11 12.47,-8.2 26.43,-14.38 7.19,-3.17 19.54,-8.09 19.54,-8.09 a 31.68,31.68 0 0 0 11.11,0.25 44.7,44.7 0 0 0 5,-1.63 v 0 c 0.94,-0.33 2,-0.74 3.33,-1.22 -0.03,0.04 7.34,12.27 5.97,20.62 z"
         id="path217" />
      <path
         class="cls-20"
         d="m 4653.47,580.47 c -5.41,18.49 -11.83,19.89 -21.55,39.37 -18.21,36.46 -6.77,53.61 -22,64.67 -15.23,11.06 -44.51,6.29 -59.52,-10.31 -14.24,-15.77 -12.37,-38.32 -12.18,-40.3 0.52,-5.39 1.72,-7.9 3.83,-19.76 0.27,-1.52 0.55,-3.22 0.86,-5.08 1.31,-8 2.21,-13.51 2.81,-20.62 2.3,-26.78 -3.05,-34.85 -2.81,-49.67 a 15.94,15.94 0 0 0 -2.35,-9.37 14,14 0 0 0 -4.19,-4.06 c -5.92,-4.07 -12.08,-21 -5.65,-36.24 7.22,-17.13 25.37,-20.61 28.13,-21.09 10.51,-1.83 23.6,0.47 31.39,8.43 5.16,5.28 10.72,15.84 10.78,15.93 v 0 c 0.65,0 18.1,-1.8 31.79,3.58 a 32.81,32.81 0 0 1 6.63,3.45 c 11.18,7.7 13.73,21.81 16.4,36.56 a 97.62,97.62 0 0 1 -2.37,44.51 z"
         id="path219" />
      <path
         class="cls-13"
         d="m 4653.47,580.47 c -5.41,18.49 -11.83,19.89 -21.55,39.37 -18.21,36.46 -6.77,53.61 -22,64.67 -15.23,11.06 -44.51,6.29 -59.52,-10.31 -14.24,-15.77 -12.37,-38.32 -12.18,-40.3 0.52,-5.39 1.72,-7.9 3.83,-19.76 14.77,4 35.88,17.6 59.81,8.52 a 59.5,59.5 0 0 0 13.59,-7.5 c 16.33,-11.8 22.62,-28.13 27.65,-41.71 5.44,-14.7 9.18,-24.79 8,-38 -1.85,-19.93 -13.76,-32.91 -18.25,-39.54 a 32.81,32.81 0 0 1 6.63,3.45 c 11.18,7.7 13.73,21.81 16.4,36.56 a 97.62,97.62 0 0 1 -2.41,44.55 z"
         id="path221" />
      <path
         class="cls-12"
         d="m 4601.46,634.83 c 0,1.62 -1.77,3.47 -4.75,5.23 -10.8,6.42 -37,11.83 -45.86,1.8 -2,-2.23 -4,-6.22 -5.46,-9.64 -1.46,-3.42 -2.51,-6.29 -2.51,-6.29 9.28,-11.57 9.37,-11.71 9.37,-11.71 a 24.85,24.85 0 0 0 4,-13.79 c 0.14,-8.31 -2.51,-15.43 2.54,-19.49 4.59,-3.68 10.91,-1.12 19.68,-5.61 0.35,-0.2 2,-1 3.52,-1.84 l 3,-1.54 c -7.77,43.21 1.49,53.59 1.49,53.59 6.56,7.34 14.89,5.86 14.98,9.29 z"
         id="path223" />
      <path
         class="cls-13"
         d="m 4601.46,634.83 c 0,1.62 -1.77,3.47 -4.75,5.23 -5.72,-0.42 -10.7,-2.09 -14.1,-5.68 -10.71,-11.37 0.12,-35.93 -8.89,-39.84 -3.79,-1.64 -6.66,2.25 -17.44,5.89 0.14,-8.31 -2.51,-15.43 2.54,-19.49 4.59,-3.68 10.91,-1.12 19.68,-5.61 0.35,-0.2 2,-1 3.52,-1.84 l 3,-1.54 c -7.77,43.21 1.49,53.59 1.49,53.59 6.53,7.34 14.86,5.86 14.95,9.29 z"
         id="path225" />
      <path
         class="cls-12"
         d="m 4584.99,571.95 c 1,0 10.43,-0.18 15.06,-7.87 3.26,-5.43 4,-14.3 -0.93,-17.82 a 10.1,10.1 0 0 0 -10,-0.46 c -0.11,-1 -0.24,-1.93 -0.36,-2.81 -1.4,-10.27 -3.23,-23.74 -13.59,-30.46 -7.58,-4.93 -18.21,-5.23 -26.23,-1.41 -11.72,5.58 -14.79,18.45 -18.75,35.14 -2.49,10.5 -8.66,36.42 4.21,47.34 a 20.24,20.24 0 0 0 5.63,3.28 c 14.89,5.79 31.18,-7.61 33.27,-9.37 a 43.68,43.68 0 0 0 11.69,-15.56 z"
         id="path227" />
      <path
         class="cls-21"
         d="m 4661.99,1144.9 c 0,0 -0.11,3.54 -1.45,22.41 -1.34,18.87 -3.94,53.1 -8.89,114.45 -104.9,-6.11 -127.23,-4.92 -127.23,-4.92 -21.33,1.13 -44.06,3.58 -61.51,5.74 -17.45,2.16 -29.63,4.07 -29.87,4.1 0,0 -1.67,-7.56 -4.05,-20.16 -5.72,-30.19 -15.54,-89.33 -16.33,-142.92 -1.63,-110.55 35.17,-200.9 54.12,-247.42 a 750.43,750.43 0 0 1 34.45,-73.11 272.72,272.72 0 0 0 -4.92,-33 c -4.64,-20.42 -9.7,-23.17 -12,-41.47 a 116,116 0 0 1 -0.7,-18.27 c 0.53,-10.88 13.46,-45.27 41.72,-85.55 a 31.13,31.13 0 0 1 14.52,0.22 c 1.16,0.3 2,0.61 3,1 8.39,3 15.42,5.84 16.64,6.33 4.06,1.61 14.82,5.89 26.94,4.22 5.38,-0.74 14.22,-3.09 14.22,-3.09 0,0 33.85,15.86 40.29,18.41 0.25,0.1 1.09,0.42 1.05,0.68 -0.11,0.65 -5.72,-0.3 -8,0.17 -9.89,2 -1,39.93 -15.65,76.9 -7.35,18.57 -13.52,34.14 -20.2,42.59 a 28.7,28.7 0 0 0 -5.62,11.25 28.4,28.4 0 0 0 0,12.65 c 13.31,62.58 53.43,164.48 53.43,164.48 20.04,50.68 18.66,95.23 16.04,184.31 z"
         id="path229" />
      <path
         class="cls-13"
         d="m 4661.99,1144.9 c 0,0 -0.11,3.54 -1.45,22.41 -1.34,18.87 -3.94,53.1 -8.89,114.45 -104.9,-6.11 -127.23,-4.92 -127.23,-4.92 -21.33,1.13 -44.06,3.58 -61.51,5.74 -17.45,2.16 -29.63,4.07 -29.87,4.1 0,0 -1.67,-7.56 -4.05,-20.16 33.5,-7.85 85.1,-8.4 109.62,-9.82 31.09,-1.81 46.64,-2.71 57.64,-9.84 15.81,-10.26 30,-31 36,-98 5.67,-63.37 10.46,-116.81 -12.21,-181.55 -10.77,-30.75 -38.53,-121.07 -40.8,-141.85 a 96.73,96.73 0 0 1 1.93,-30.56 86.87,86.87 0 0 1 7.14,-18.51 c 5.11,-10.24 14.29,-26.61 30.13,-46.81 -7.35,18.57 -13.52,34.14 -20.2,42.59 a 28.7,28.7 0 0 0 -5.62,11.25 28.4,28.4 0 0 0 0,12.65 c 13.31,62.58 53.43,164.48 53.43,164.48 19.94,50.72 18.56,95.27 15.94,184.35 z"
         id="path231" />
      <path
         class="cls-12"
         d="m 4588.64,870.17 a 10.91,10.91 0 0 1 -1.24,5.53 c -1.59,2.82 -3.2,1.62 -13.59,8.44 -1.74,1.14 -4,2.66 -5.76,3.9 l -3.14,2.19 c -2.27,21.11 -5.63,23.9 -5.63,23.9 -6.28,5.22 -20.46,2.88 -27.18,-5.63 a 18.57,18.57 0 0 1 -1.56,-2.33 c -3.15,-5.54 -2.78,-11.52 -2.65,-13.6 a 25.8,25.8 0 0 1 5.15,-14 c 2.6,-3.36 4.24,-3.62 12.65,-8.91 12.45,-7.84 13.49,-10.21 20.63,-12.65 5.33,-1.83 9.41,-3.23 13.58,-1.41 5.3,2.28 8.64,8.9 8.74,14.57 z"
         id="path233" />
      <path
         class="cls-13"
         d="m 4588.64,870.17 a 10.91,10.91 0 0 1 -1.24,5.53 c -1.59,2.82 -3.2,1.62 -13.59,8.44 -1.74,1.14 -4,2.66 -5.76,3.9 l -3.14,2.19 c -2.27,21.11 -5.63,23.9 -5.63,23.9 -6.28,5.22 -20.46,2.88 -27.18,-5.63 a 18.57,18.57 0 0 1 -1.56,-2.33 24.28,24.28 0 0 0 7.09,3.27 c 2.12,0.61 9.34,2.65 13.59,-0.93 3.07,-2.58 2.17,-6 4.21,-11.71 2.2,-6.09 5.63,-10.1 10.55,-14.06 a 84.5,84.5 0 0 1 22.66,-12.57 z"
         id="path235" />
      <path
         class="cls-19"
         d="m 4601.21,830.25 c 23,-17.63 49,-37.48 49,-37.5 a 625.92,625.92 0 0 1 -31.82,-63.18 v 0 c 14.64,-37 5.76,-74.9 15.65,-76.9 2.28,-0.47 7.89,0.48 8,-0.17 6.68,4.56 13.38,12.92 20.39,23.8 7.5,11.65 15.34,26.18 23.87,42 19.28,35.72 23.38,52.58 22.49,69.82 -0.4,7.63 -0.82,15.66 -5.15,24.84 -5.92,12.53 -15.75,20 -62.8,41.7 -9.61,4.44 -19.41,8.83 -28.23,12.73 -18.16,8 -32.22,14 -32.22,14 a 57,57 0 0 0 -8,-16.86 c -2.27,-3.15 -6.08,-7.5 -6.1,-7.5 l 34.9,-26.71"
         id="path237" />
      <line
         class="cls-16"
         x1="4618.3701"
         y1="729.57001"
         x2="4618.3701"
         y2="729.56"
         id="line239" />
      <path
         class="cls-13"
         d="m 4708.77,788.07 c -0.4,7.63 -0.82,15.66 -5.15,24.84 -5.92,12.53 -15.75,20 -62.8,41.7 -29.4,13.56 -60.45,26.71 -60.45,26.71 a 53.12,53.12 0 0 0 -2.25,-6.43 96.31,96.31 0 0 1 19.49,-7.62 c 32.59,-8.56 56.34,-25.5 73.81,-38 14.36,-10.24 21.63,-15.56 26,-25.31 6.5,-14.47 3.41,-29.5 -4.22,-52.72 -12.3,-37.41 -25.09,-61.66 -30.79,-75 7.49,11.65 15.33,26.18 23.86,42 19.29,35.73 23.39,52.59 22.5,69.83 z"
         id="path241" />
      <path
         class="cls-22"
         d="m 4495.09,814.6 q 6.36,0.72 13.18,1.2 c 3.53,0.24 6.08,0.34 7.33,0.39 0,0 1.92,0.09 3.91,0.13 8.86,0.17 21.34,-0.38 70.6,-2.94 l 6.45,-0.33 q -2,-8.51 -4,-17 a 323.07,323.07 0 0 1 -91.38,7 z"
         id="path243" />
      <path
         class="cls-12"
         d="m 4623.48,793.92 c -9.64,7.62 -20.76,6.61 -23.19,6.33 -1.8,-0.2 -18.33,-2.34 -22.5,-14 a 15.61,15.61 0 0 1 -0.66,-2.49 18.06,18.06 0 0 1 0.66,-8.76 c 2.43,-6.75 8.67,-9.67 10.55,-10.54 7,-3.29 13.92,-1.76 27.41,1.4 8.31,2 13.53,3.22 16.3,5.3 a 6,6 0 0 1 2,2.43 c 2.82,6.63 -5.06,16.03 -10.57,20.33 z"
         id="path245" />
      <path
         class="cls-13"
         d="m 4623.48,793.92 c -9.64,7.62 -20.76,6.61 -23.19,6.33 -1.8,-0.2 -18.33,-2.34 -22.5,-14 a 15.61,15.61 0 0 1 -0.66,-2.49 c 4.39,2.72 10.33,10.12 20.95,10.46 8.29,0.26 14.7,-3.92 18.74,-6.56 a 46.38,46.38 0 0 0 15.23,-16.5 6,6 0 0 1 2,2.43 c 2.82,6.63 -5.06,16.03 -10.57,20.33 z"
         id="path247" />
      <path
         class="cls-13"
         d="m 4578.99,1513.65 c -1.32,8.05 -10.75,12.36 -27.85,20.18 -10.54,4.83 -19.51,7.29 -37.46,12.2 0,0 -11.56,3.16 -19.91,3.21 h -4.34 a 80.29,80.29 0 0 1 4.18,-10.91 c 36.77,-8.21 62.93,-11.63 71,-23 a 27.8,27.8 0 0 0 4.92,-11.25 44.82,44.82 0 0 0 0.28,-5.52 c 0,-2.38 -0.11,-4.32 -0.11,-4.32 v 0 c 0.94,-0.33 2,-0.74 3.33,-1.22 -0.04,0.05 7.33,12.28 5.96,20.63 z"
         id="path249" />
      <path
         class="cls-23"
         d="m 3668.92,603.44 c -14.65,20.21 -18.81,34 -24.16,45.17 -3.68,7.74 -7.94,14.28 -16.61,20.9 -5.27,4 -14.38,10.81 -27.18,11.71 -12.08,0.87 -21.67,-3.92 -38,-14.05 -12,-7.46 -21.47,-13.34 -29,-18.31 v 0 c -10.39,-6.87 -17,-11.93 -21.17,-16.84 -33.37,-39 -26.3,-87.45 -24.84,-97.47 1.6,-11 3.41,-12.51 4.68,-13.11 17.37,-8.35 82.94,82.39 118.56,84.34 a 45.88,45.88 0 0 0 14.06,-1.4 c 12.36,-3.69 14.76,-11.6 26.25,-18.28 11.83,-6.89 27.62,-9.16 30.46,-4.68 2.32,3.56 -4.44,10.12 -13.05,22.02 z"
         id="path251" />
      <path
         class="cls-12"
         d="m 3488.05,1474.97 a 0.44,0.44 0 0 1 0,0.1 c -2.24,6.69 -26,9.41 -38,-1.88 -5.29,-5 -7.06,-11.5 -8.9,-18.28 -1.38,-5 -1.48,-8 -1.87,-24.84 -0.54,-22.74 -0.52,-25.64 1.87,-27.18 5.42,-3.47 13.48,6.2 23.33,4.3 a 13.52,13.52 0 0 0 2,-0.55 c 7,-2.45 9,-9.2 10.78,-8.43 4.06,1.77 -15.75,34.62 -3.75,58.11 5.86,11.5 15.94,14.05 14.54,18.65 z"
         id="path253" />
      <path
         class="cls-13"
         d="m 3488.05,1474.97 c -8.91,-4.55 -18.39,-9.73 -23.55,-20.05 -4,-8 -3.74,-15.78 -2.82,-25.31 0.69,-7 1.65,-14.57 2.82,-22.42 a 13.52,13.52 0 0 0 2,-0.55 c 7,-2.45 9,-9.2 10.78,-8.43 4.06,1.77 -15.75,34.62 -3.75,58.11 5.84,11.5 15.92,14.05 14.52,18.65 z"
         id="path255" />
      <path
         class="cls-24"
         d="m 3524.46,1215.68 c 0,0 -5.8,39.41 -47.62,197.7 a 23,23 0 0 1 -3.12,2.55 22.18,22.18 0 0 1 -5.07,2.57 23.78,23.78 0 0 1 -5.86,1.22 c -13,1.11 -27.07,-6.86 -27.28,-6.93 -9.49,-87 -15.19,-168 -18.52,-227.1 -3.33,-59.1 -4.29,-96.53 -4.29,-96.53 -3.67,-143.15 5.87,-186.75 35.85,-203.5 20.41,-11.4 45.07,-7.46 64.45,-1.23 0.91,0.28 1.8,0.58 2.67,0.88 0,0 14.25,92.52 17.23,171.17 a 860.24,860.24 0 0 1 -8.44,159.2 z"
         id="path257" />
      <path
         class="cls-13"
         d="m 3524.46,1215.68 c 0,0 -5.8,39.41 -47.62,197.7 a 23,23 0 0 1 -3.12,2.55 22.18,22.18 0 0 1 -5.07,2.57 23.78,23.78 0 0 1 -5.86,1.22 c 7.12,-57.54 29,-140.32 32.64,-154.59 12,-46.61 16.11,-83.35 19.68,-115.28 2.81,-25.18 7.53,-66.43 7,-118.09 -0.79,-80.63 -13.5,-128.38 -9.14,-147.33 0.91,0.28 1.8,0.58 2.67,0.88 0,0 14.25,92.52 17.23,171.17 a 860.24,860.24 0 0 1 -8.41,159.2 z"
         id="path259" />
      <path
         class="cls-12"
         d="m 3366.66,1481.74 c -3.74,5.28 -17.69,4.77 -25.31,-2.11 -4.55,-4.11 -5.72,-9.46 -7.73,-19.33 -1.78,-8.69 -1.28,-12.11 -2.11,-21.44 -2.07,-23.34 -7.51,-28.73 -3.16,-34.09 3.53,-4.37 10.26,-4.66 20.93,-4.9 h 1.21 c 6.65,-0.14 10.59,-0.17 12.66,2.46 2.62,3.35 -0.58,7.42 -2.16,18.82 -1,7.4 -0.7,13.09 -0.3,20.19 a 147.42,147.42 0 0 0 2.46,19.68 c 1.47,7.64 3,12.11 3.73,15.06 0.72,2.71 0.83,4.17 -0.22,5.66 z"
         id="path261" />
      <path
         class="cls-13"
         d="m 3366.88,1476.07 c -15.46,-23.22 -17.32,-51.41 -17.6,-76.19 h 1.21 c 6.65,-0.14 10.59,-0.17 12.66,2.46 2.62,3.35 -0.58,7.42 -2.16,18.82 -1,7.4 -0.7,13.09 -0.3,20.19 a 147.42,147.42 0 0 0 2.46,19.68 c 1.47,7.61 2.97,12.04 3.73,15.04 z"
         id="path263" />
      <path
         class="cls-22"
         d="m 3331.73,1441.62 a 10.68,10.68 0 0 0 -2.69,1.11 c -6.08,3.55 -7.34,11.36 -7.72,13.71 -0.61,3.72 -0.08,8.54 4.56,20.73 a 100.6,100.6 0 0 0 12,22.14 c 14.46,20.83 21.56,31.34 31.63,34.8 a 39.74,39.74 0 0 0 8,1.79 c 11.4,1.38 24.48,-1.65 30.33,-10.93 5.37,-8.49 2.5,-18.73 2.11,-20 -2.66,-9 -8.12,-9.07 -19.67,-21.79 -5.87,-6.44 -13.07,-15.9 -24.26,-30.57 a 31,31 0 0 0 -4.8,-5.2 108.66,108.66 0 0 1 0.11,18.89 q -0.26,3.29 -0.76,6.69 c -0.2,1.43 -0.44,2.84 -0.69,4.22 a 58.06,58.06 0 0 1 -14.83,-12.28 67.76,67.76 0 0 1 -7.67,-11.27 83.82,83.82 0 0 1 -5.58,-12"
         id="path265" />
      <path
         class="cls-13"
         d="m 3407.77,1524.97 c -5.85,9.28 -18.93,12.31 -30.33,10.93 10.55,-5.24 20.35,-11.41 21,-20.53 0.75,-10.84 -12,-16.49 -23.91,-29.52 a 83.77,83.77 0 0 1 -13.26,-19.59 108.66,108.66 0 0 0 -0.11,-18.89 31,31 0 0 1 4.8,5.2 c 11.19,14.67 18.39,24.13 24.26,30.57 11.55,12.72 17,12.79 19.67,21.79 0.39,1.31 3.25,11.55 -2.12,20.04 z"
         id="path267" />
      <path
         class="cls-24"
         d="m 3448.19,1094.07 q -6.49,23.7 -13,47.44 -37.52,138.1 -72.95,276.75 a 15.68,15.68 0 0 1 -6.17,5.47 14.26,14.26 0 0 1 -5.61,1.42 24.38,24.38 0 0 1 -10.2,-2.11 28.12,28.12 0 0 1 -11.68,-8.93 c -0.22,-0.28 -0.48,-0.64 -0.53,-0.7 a 59,59 0 0 1 -3.8,-5.95 c -0.89,-1.6 -1.38,-2.63 -1.38,-2.63 v -0.1 c -5.29,-42.17 -9.45,-75.58 -9.67,-77.29 -6.17,-49.86 -4.71,-221.73 -10.07,-317.3 -4.15,-74.31 -13,-170.12 -13,-170.13 21.13,-8.26 66.5,-22.56 121.43,-11.65 16.54,3.29 49.12,8.78 71.05,27.28 a 66.49,66.49 0 0 1 9.09,9.28 c 31.45,39.28 -0.39,97.15 -43.51,229.15 z"
         id="path269" />
      <path
         class="cls-13"
         d="m 3448.19,1094.07 q -6.49,23.7 -13,47.44 -37.52,138.1 -72.95,276.75 a 15.68,15.68 0 0 1 -6.17,5.47 14.26,14.26 0 0 1 -5.61,1.42 c -1.21,-12 -1.25,-24 -1.28,-34.91 a 218.12,218.12 0 0 1 10.44,-66.53 c 23.82,-77.87 44.95,-156.55 67.48,-234.8 26.12,-90.76 39.18,-136.14 41.09,-154.06 3.72,-35 3.22,-66 14.46,-79.21 a 66.49,66.49 0 0 1 9.09,9.28 c 31.41,39.28 -0.43,97.15 -43.55,229.15 z"
         id="path271" />
      <line
         class="cls-16"
         x1="3471.1201"
         y1="1451.95"
         x2="3471.1101"
         y2="1451.95"
         id="line273" />
      <path
         class="cls-22"
         d="m 3471.12,1451.96 v 0 a 26.25,26.25 0 0 1 3.49,14.95 14.82,14.82 0 0 1 -0.17,1.59 c 0,0.31 -1.41,4.22 -1.41,4.22 a 40.4,40.4 0 0 1 -33.41,-30.49 c -3.47,2.41 -4.34,7.46 -4.34,12.15 a 59.54,59.54 0 0 0 0.73,8.5 c 1.66,11.58 7.62,19.52 11.72,24.83 a 75.91,75.91 0 0 0 20.61,18.28 c 4.94,3 14.88,9.12 25.68,11.58 7.08,1.6 14.53,1.66 21.19,-1.74 2.13,-1.09 10.31,-5.66 11.25,-13.12 0.58,-4.73 -1.89,-9.59 -16.88,-23 -14.77,-13.18 -27,-21.56 -38.46,-27.79"
         id="path275" />
      <path
         class="cls-13"
         d="m 3526.46,1502.71 c -0.94,7.46 -9.12,12 -11.25,13.12 -6.66,3.4 -14.11,3.34 -21.19,1.74 4.54,-1.5 8.9,-3.83 11.89,-8.67 0.56,-0.92 4.5,-7.5 3,-15.09 -2.74,-14 -21,-16.62 -34.31,-26.9 a 26.25,26.25 0 0 0 -3.49,-14.95 c 11.44,6.23 23.69,14.61 38.46,27.79 15,13.37 17.47,18.23 16.89,22.96 z"
         id="path277" />
      <path
         class="cls-23"
         d="m 3533.99,772.85 c -0.45,20.77 -1.72,63.73 -18.28,112.46 -2.76,8.15 -4.19,12.28 -6.31,15.46 -25.63,38.26 -110.45,26.45 -163.79,19 l -7,-1 -42.16,-6.12 c -0.44,-2.55 -0.91,-5.3 -1.39,-8.25 -2.66,-16.43 -5.7,-38.76 -7.63,-65.2 -3.95,-54.14 1.31,-63.24 0,-111.19 -2.71,-97.05 -27,-139.67 2.17,-172.84 7.53,-8.58 18,-15.88 23.74,-19.88 12.26,-8.54 39.16,-27.27 74.52,-28.81 20.63,-0.9 17,5.23 42.88,4.92 20.74,-0.26 35.15,-4.35 54.44,3.4 a 83.3,83.3 0 0 1 8.79,4.31 c 1.11,0.63 2.26,1.31 3.4,2 28.74,18.63 33.57,77.58 35.29,102 3.39,49.96 2.74,83.89 1.33,149.74 z"
         id="path279" />
      <path
         class="cls-13"
         d="m 3554.15,742.41 c -1.05,0.57 -2.16,1.11 -3.32,1.61 -9.56,4.13 -18.8,3.5 -31.64,2.82 -2.74,-0.15 -7.24,-0.5 -13.37,-0.32 0,1.06 0,1.81 0,2.17 v 0 c 0,0 -41.46,14.56 -78.73,26.24 -73.57,23.07 -90.36,22.25 -101.68,20.62 -13.2,-1.89 -32.4,-4.66 -48.74,-19.21 A 67.17,67.17 0 0 1 3259.85,753 c -8.69,-19.73 -9.33,-43.37 -9.89,-66.64 -1,-41.58 10,-70.73 16.87,-88.57 9.87,-25.45 17.48,-44.21 36.55,-52 a 48.63,48.63 0 0 1 25.9,-2.94 33.76,33.76 0 0 0 8.94,6.71 c 5.75,2.93 7.59,1.72 12.59,4.72 v 0 c 19.87,12 19.84,48.68 19.81,71.87 0,14.39 -0.9,52.64 9.27,66.85 a 21.22,21.22 0 0 0 2.33,2.73 c 7.07,7.17 15.46,9 26.9,11.25 45.84,9.19 67.15,-13.15 96,-6.56 a 55.52,55.52 0 0 1 12,4.29 c 1.39,0.67 2.77,1.4 4.12,2.19 a 85.28,85.28 0 0 1 27,25.34 76.48,76.48 0 0 1 5.91,10.17 z"
         id="path281" />
      <path
         class="cls-13"
         d="m 3533.99,772.85 c -0.45,20.77 -1.72,63.73 -18.28,112.46 -2.76,8.15 -4.19,12.28 -6.31,15.46 -25.63,38.26 -110.45,26.45 -163.79,19 l -7,-1 -42.16,-6.12 c -0.44,-2.55 -0.91,-5.3 -1.39,-8.25 16.24,1.48 42.64,5.91 85.16,8.61 75.76,4.8 92.24,-2.91 102.28,-10.55 17,-12.93 22.08,-32.35 31.63,-70.64 3.77,-15.17 17.87,-75 12.64,-161.33 -2.64,-43.69 -4,-65.55 -12.64,-93.83 -8.31,-27.07 -18.47,-45.56 -20.2,-57.55 1.11,0.63 2.26,1.31 3.4,2 28.74,18.63 33.57,77.58 35.29,102 3.43,49.96 2.78,83.89 1.37,149.74 z"
         id="path283" />
      <path
         class="cls-12"
         d="m 3579.64,708.88 a 32.89,32.89 0 0 1 -1.5,6.36 c -2.44,7.08 -6.82,12.08 -9.75,15.43 a 50.58,50.58 0 0 1 -14.24,11.74 c -1.05,0.57 -2.16,1.11 -3.32,1.61 -9.56,4.13 -18.8,3.5 -31.64,2.82 -2.74,-0.15 -7.24,-0.5 -13.37,-0.32 -1.84,0 -3.82,0.16 -6,0.32 -3.41,0.26 -4.83,0.52 -6.67,0.69 a 67.76,67.76 0 0 1 -20.29,-1.21 v 0 c -5.29,-1.24 -9.54,-3.32 -10.63,-6.51 -2.06,-6 7.6,-14.42 16.16,-21.8 5.57,-4.79 8.37,-6.18 14.79,-10 3,-1.79 6.74,-4.11 11.92,-7.54 14.82,-9.81 20.86,-15.23 23.2,-13.35 1.79,1.43 0.65,6.51 -1.41,9.84 -3.61,5.84 -10,6.25 -9.84,7.73 a 0.19,0.19 0 0 0 0,0.07 c 0.18,0.69 1.73,1.54 4.12,2.19 5.34,1.43 14.88,1.83 22.57,-3 7.69,-4.83 7.33,-10.68 18.27,-17.58 3.83,-2.4 8.47,-5.25 12,-3.51 3.1,1.55 3.82,6 4.92,12.65 0.73,4.44 1.38,8.36 0.71,13.37 z"
         id="path285" />
      <path
         class="cls-13"
         d="m 3578.14,715.24 c -2.44,7.08 -6.82,12.08 -9.75,15.43 a 50.58,50.58 0 0 1 -14.24,11.74 c -1.05,0.57 -2.16,1.11 -3.32,1.61 -9.56,4.13 -18.8,3.5 -31.64,2.82 -2.74,-0.15 -7.24,-0.5 -13.37,-0.32 -1.84,0 -3.82,0.16 -6,0.32 -3.41,0.26 -4.83,0.52 -6.67,0.69 a 67.76,67.76 0 0 1 -20.29,-1.21 c 1.92,-0.71 3.81,-1.4 5.71,-2.06 0.95,-0.35 1.9,-0.67 2.84,-1 0.94,-0.33 1.95,-0.67 2.94,-1 0.99,-0.33 1.84,-0.61 2.76,-0.9 h 0.07 l 2.8,-0.85 h 0.06 l 2.86,-0.83 v 0 l 2.64,-0.7 c 1.2,-0.31 2.41,-0.61 3.63,-0.89 0.9,-0.21 1.81,-0.41 2.72,-0.6 0.91,-0.19 2.07,-0.41 3.14,-0.6 a 132.77,132.77 0 0 1 17.38,-2 c 10,-0.52 15,0.24 24.26,-2.17 l 1.5,-0.4 c 13.68,-3.91 23.25,-11.11 29.97,-17.08 z"
         id="path287" />
      <path
         class="cls-12"
         d="m 3471.74,565.83 c -14.1,12.29 -61.09,-9.47 -73.45,-35.5 -1.84,-3.87 -10.54,-23.89 -10.54,-23.89 a 39.45,39.45 0 0 0 6.2,-0.75 c 3.44,-0.69 7.58,-2 10.31,-4.53 2.89,-2.66 3.67,-6.14 4.57,-12.65 2.57,-18.66 2.11,-28.82 2.11,-28.82 a 246.2,246.2 0 0 0 -2.83,-27.56 c -0.46,-2.9 -1,-5.93 -1.6,-9 1.32,-0.63 3.39,-1.67 5.83,-3.11 a 55,55 0 0 0 5.48,-3.58 c 2.63,-2 3.36,-2.92 4.72,-3.09 2.18,-0.28 4.85,1.59 7.62,5 6.49,8 13.56,24.27 16.28,41 1.6,9.91 4.13,19.66 6,29.52 a 36.83,36.83 0 0 0 3.87,11.25 36.29,36.29 0 0 0 7.91,9.84 c 3.48,3.22 7,10 9.46,17.76 4.44,13.99 5.73,31.43 -1.94,38.11 z"
         id="path289" />
      <path
         class="cls-13"
         d="m 3473.65,527.71 c -10.49,-1.3 -19.3,-4.87 -22.51,-10.49 -4.39,-7.73 2.5,-18.12 -5.62,-30.93 -1.26,-2 -1.63,-2.06 -9.54,-12.7 -2.08,-2.79 -5.94,-8 -8.73,-11.91 -12.23,-17.19 -11.94,-21.38 -19.14,-29.55 -0.39,-0.44 -0.8,-0.9 -1.25,-1.38 -8.08,-8.64 -13.27,-9.89 -12.66,-11.94 0.82,-2.65 10.49,-3.79 23.62,-2.42 3.86,0.42 8,1 12.34,1.91 6.49,8 13.56,24.27 16.28,41 1.6,9.91 4.13,19.66 6,29.52 a 36.83,36.83 0 0 0 3.87,11.25 36.29,36.29 0 0 0 7.91,9.84 c 3.45,3.26 6.94,10 9.43,17.8 z"
         id="path291" />
      <path
         class="cls-12"
         d="m 3473.5,471.99 c -4.85,6.49 -8.58,8.53 -12,9.14 -12.69,2.31 -25.15,-14.84 -36.55,-30.92 -7.26,-10.25 -13.52,-19.09 -18.48,-27.13 -0.81,0.51 -8.68,5.4 -17.37,1.81 -6.24,-2.57 -11.3,-8.86 -11.25,-16.16 0,-0.69 0.21,-8.88 6.33,-12.65 a 13.23,13.23 0 0 1 10.52,-1.12 40.12,40.12 0 0 1 0.73,-15.76 c 0.27,-1.11 6.62,-26.77 26.71,-32.33 14.12,-3.9 27.87,4.1 31.45,6.2 a 45.66,45.66 0 0 1 6.11,4.24 55.94,55.94 0 0 1 9.27,9.62 85.81,85.81 0 0 1 13.22,26.4 c 8.17,26.08 6.8,57.92 -8.69,78.66 z"
         id="path293" />
      <path
         class="cls-13"
         d="m 3482.23,393.33 a 79.4,79.4 0 0 1 -8.59,-0.53 c -23.87,-2.8 -47.93,-17.81 -47.94,-17.81 -0.01,0 15.41,-11.9 34,-17.68 a 55.94,55.94 0 0 1 9.27,9.62 85.81,85.81 0 0 1 13.26,26.4 z"
         id="path295" />
      <path
         class="cls-16"
         d="M 3472.8,499.76"
         id="path297" />
      <path
         class="cls-19"
         d="m 3464.19,509.95 c -0.31,12.87 -4.94,17.34 -7.21,19 -9.16,6.6 -24.85,-0.53 -45.34,-9.84 a 223.72,223.72 0 0 1 -23.9,-12.66 c 5,19.12 10.91,39.09 17.93,59.75 a 871.74,871.74 0 0 0 49.55,117 188.73,188.73 0 0 0 10,-25.42 c 8.76,-28.1 8.68,-50.94 8.44,-71.7 a 347.34,347.34 0 0 0 -9.47,-76.13 z"
         id="path299" />
      <path
         class="cls-22"
         d="m 3491.78,383.42 c -9.26,5.48 -19.58,3.93 -31.63,2.11 0,0 -8.22,-1.23 -34.45,-10.54 0,0 -17.95,12.44 -18.86,27.85 a 15.78,15.78 0 0 0 -2.23,-2.55 25.36,25.36 0 0 0 -5.71,-3.77 c -4.52,-2.2 -10.1,-3.26 -14.68,-0.44 -6.12,3.77 -6.31,12 -6.33,12.65 -0.05,7.3 5,13.59 11.25,16.16 a 17.34,17.34 0 0 0 8.52,1.2 21.6,21.6 0 0 0 8.87,-3 24.32,24.32 0 0 1 1.65,16.33 20.84,20.84 0 0 1 -3.92,8 c -6.73,8.21 -20.31,9.48 -30.2,5.94 -0.39,-0.13 -0.77,-0.27 -1.14,-0.43 -2.07,-0.84 -9.9,-4.28 -14.47,-12.23 -0.31,-0.54 -0.53,-1 -0.67,-1.24 -6.51,-12.61 -3.08,-30 -3.08,-30 0,0 -13.14,-5.32 -19,-14.06 -5.08,-7.59 -5.5,-19.06 -0.71,-28.11 0.75,-1.42 5.9,-10.84 15.47,-13.36 0,0 1.94,-0.51 15.46,-0.7 -12.42,-8.11 -13.36,-9.84 -13.36,-9.84 -4.26,-7.9 2.3,-23 13.3,-29.14 a 25.37,25.37 0 0 1 14.82,-3.2 c 7.24,0.84 15.47,5.62 15.47,5.62 0,0 4.55,-10.52 5.49,-12.38 5.7,-11.21 37.63,-16.57 64.95,-5.34 l 2,0.85 c 6.59,2.94 35.95,16 39.36,43.59 1.69,13.73 -2.96,32.19 -16.17,40.03 z"
         id="path301" />
      <path
         class="cls-13"
         d="m 3644.76,648.61 c -3.68,7.74 -7.94,14.28 -16.61,20.9 -5.27,4 -14.38,10.81 -27.18,11.71 -12.08,0.87 -21.67,-3.92 -38,-14.05 -12,-7.46 -21.47,-13.34 -29,-18.31 36.67,9.81 42.84,20.25 58,20.54 27.53,0.54 42,-33 49.56,-28.47 1.8,1.03 2.87,3.81 3.23,7.68 z"
         id="path303" />
      <path
         class="cls-13"
         d="m 3406.53,423.07 a 24.32,24.32 0 0 1 1.65,16.33 20.84,20.84 0 0 1 -3.92,8 c -6.73,8.21 -20.31,9.48 -30.2,5.94 9.68,-3.24 17.87,-8.39 21.55,-17 a 27.41,27.41 0 0 0 2.05,-10.29 21.6,21.6 0 0 0 8.87,-2.98 z"
         id="path305" />
      <path
         class="cls-13"
         d="m 3491.78,383.42 c -9.26,5.48 -19.58,3.93 -31.63,2.11 0,0 -8.22,-1.23 -34.45,-10.54 0,0 -17.95,12.44 -18.86,27.85 a 15.78,15.78 0 0 0 -2.23,-2.55 25.36,25.36 0 0 0 -5.71,-3.77 c 0.53,-4.22 1.28,-8.94 2.34,-14.26 1.37,-6.86 4.26,-15.07 11.25,-21.09 a 30.89,30.89 0 0 1 17.57,-7 c 19.4,-1.19 26.13,18.5 44.28,16.87 0.55,-0.05 12.54,-1.29 17.58,-9.84 5.04,-8.55 0.73,-20.58 -3.52,-30.22 a 106.57,106.57 0 0 0 -21.78,-32 l 2,0.85 c 6.59,2.94 35.95,16 39.36,43.59 1.66,13.7 -2.99,32.16 -16.2,40 z"
         id="path307" />
      <path
         class="cls-16"
         d="M 3335.87,558.69"
         id="path309" />
      <path
         class="cls-24"
         d="m 3456.16,664.83 c 0.94,-6.51 2.11,-15.14 3.28,-25.31 6.14,-53.28 5.81,-92.3 5.63,-103.56 -0.11,-6.31 -0.33,-15.25 -0.88,-26 a 68.42,68.42 0 0 1 26.2,7.27 c 0.88,7.65 1.9,18.63 2.32,31.86 0.26,7.83 1.18,42.83 -7,89.5 a 490,490 0 0 1 -26.94,95.25 q -17.68,-48.55 -35.38,-97.12 c -15.21,-41.79 -24.44,-67 -45,-97.47 a 295.51,295.51 0 0 0 -20.76,-27.27 117.13,117.13 0 0 1 11.86,-3.18 115.63,115.63 0 0 1 18.27,-2.36 729.43,729.43 0 0 1 68.42,158.4 z"
         id="path311" />
      <path
         class="cls-23"
         d="m 3505.83,748.69 v 0 c 0,0 -41.46,14.56 -78.73,26.24 -73.57,23.07 -90.36,22.25 -101.68,20.62 -13.2,-1.89 -32.4,-4.66 -48.74,-19.21 A 67.17,67.17 0 0 1 3259.86,753 c -8.69,-19.73 -9.33,-43.37 -9.89,-66.64 -1,-41.58 10,-70.73 16.87,-88.57 9.87,-25.45 17.48,-44.21 36.55,-52 a 48.63,48.63 0 0 1 25.9,-2.94 38.23,38.23 0 0 1 14.87,5.75 36.86,36.86 0 0 1 6.66,5.68 v 0 a 88.09,88.09 0 0 1 11.76,26.09 c 10.72,40.83 -10.23,87.28 -3,110.21 a 43.91,43.91 0 0 0 14.07,21.08 c 0,0 1.19,0.87 2.5,1.65 16,9.55 59.68,0.75 70.6,-0.7 19.31,-2.56 45,-6.57 45,-6.57 0,0 0.58,0.74 1.43,1.92 a 69.05,69.05 0 0 1 9.82,19.17 60.72,60.72 0 0 1 2.07,9.69 86.68,86.68 0 0 1 0.76,11.87 z"
         id="path313" />
      <path
         class="cls-13"
         d="m 3505.83,748.69 v 0 c 0,0 -41.46,14.56 -78.73,26.24 -73.57,23.07 -90.36,22.25 -101.68,20.62 -13.2,-1.89 -32.4,-4.66 -48.74,-19.21 a 67.17,67.17 0 0 1 -16.82,-23.34 109.88,109.88 0 0 0 19.06,11.62 c 29.08,13.87 57.38,10.4 90,7 43.86,-4.52 83.14,-17.92 89.27,-20 5.17,-1.79 10,-3.6 14.72,-5.32 v 0 c 1.92,-0.71 3.81,-1.4 5.71,-2.06 0.95,-0.35 1.9,-0.67 2.84,-1 0.94,-0.33 1.95,-0.67 2.94,-1 0.99,-0.33 1.84,-0.61 2.76,-0.9 h 0.07 l 2.8,-0.85 h 0.06 l 2.86,-0.83 v 0 l 2.64,-0.7 c 1.2,-0.31 2.41,-0.61 3.63,-0.89 0.9,-0.21 1.8,-0.4 2.72,-0.6 0.92,-0.2 2.07,-0.41 3.14,-0.6 a 82.42,82.42 0 0 1 0.72,9.68 c 0.04,1.03 0.03,1.78 0.03,2.14 z"
         id="path315" />
      <path
         class="cls-25"
         d="m 3710.99,1504.84 a 4.78,4.78 0 0 1 -1.32,3.26 c -3,3.12 -9.36,1.54 -13.6,0.46 -2.63,-0.66 -12.63,-3.16 -17.34,-11.47 -3.12,-5.52 -2.1,-10.38 -1.64,-18.28 1.61,-27.32 -6.81,-33.9 -0.7,-41.7 4.69,-6 14.55,-8.37 22.32,-7.17 3.82,0.59 7.13,2 9.08,4.35 3.46,4.11 0.07,7.91 -0.47,27.42 -0.33,12.11 -0.51,18.56 0.94,27.41 1.22,7.61 2.92,12.45 2.73,15.72 z"
         id="path317" />
      <path
         class="cls-25"
         d="m 3774.99,1470.61 c 0.53,5 -8.05,10.6 -15.46,12.65 -9.07,2.51 -22.19,1.23 -26.47,-6.32 -1.55,-2.74 -1.11,-7.29 -0.24,-16.41 0.85,-8.84 1.78,-9.81 2.35,-16.63 1.06,-13 -1.82,-15.12 0.46,-19 3,-5 11.2,-7.23 19.13,-7.09 7.77,0.13 15.26,2.53 17.19,6.85 1.68,3.75 -2.2,5.89 -4.92,20.14 -2.27,11.9 -0.57,15.65 0.24,17.11 2.84,5.19 7.28,5.19 7.71,8.59 0.01,0.06 0.01,0.08 0.01,0.11 z"
         id="path319" />
      <path
         class="cls-13"
         d="m 3774.99,1470.53 a 21,21 0 0 1 -7.63,-2.5 c -8.51,-4.78 -12,-13.6 -13.07,-16.44 -4,-10.28 -2.49,-22.85 0.48,-33.75 7.77,0.13 15.26,2.53 17.19,6.85 1.68,3.75 -2.2,5.89 -4.92,20.14 -2.27,11.9 -0.57,15.65 0.24,17.11 2.8,5.19 7.24,5.19 7.71,8.59 z"
         id="path321" />
      <path
         class="cls-22"
         d="m 3837.61,905.69 c -2.82,216.7 -66.06,525.86 -66.08,526.21 0.06,-0.57 -18.57,1 -19,1.06 h -0.55 c -4.24,0.36 -10.12,0.72 -17.23,0.82 -8.63,-31.85 -18.74,-73.64 -27.56,-123.17 a 1433.27,1433.27 0 0 1 -21.09,-195.06 1280.9,1280.9 0 0 1 1.07,-133.91 c 3.11,-50.49 10.54,-120.19 10.54,-120.2 9,-19.1 19.73,-26.35 27.41,-29.52 15.67,-6.47 28.39,-2.65 67.48,2.1 7.8,1 15,1.72 21.42,2.32 9.26,0.89 16.94,1.47 22.53,1.83 1.31,29.67 1.24,53.35 1.06,67.52 z"
         id="path323" />
      <path
         class="cls-13"
         d="m 3837.61,905.69 c -2.82,216.7 -66.06,525.86 -66.08,526.21 0.06,-0.57 -18.57,1 -19,1.06 h -0.55 c 0.24,-1.78 0.59,-4.47 1,-7.72 14.34,-106.21 26.35,-163.92 35,-216.22 16.2,-98.19 20.47,-177.11 23.2,-229.88 3.63,-70.25 2.28,-115.34 2.83,-142.8 9.26,0.89 16.94,1.47 22.53,1.83 1.32,29.67 1.25,53.35 1.07,67.52 z"
         id="path325" />
      <path
         class="cls-20"
         d="m 3767.26,1462.07 v 0 c 1.22,0.12 2.74,0.28 5.68,0.63 6.21,0.75 12.06,1.6 15,2.1 5.77,1 8.63,2 38,12.66 7.75,2.83 11.71,4.32 15.22,8.43 1.09,1.26 5.74,6.7 5.16,13.59 -0.8,9.57 -11.11,15.09 -13.12,16.17 a 29,29 0 0 1 -16.23,3.18 c -7.83,-0.5 -16.87,-3.19 -28.29,-6.69 -28,-8.6 -39.41,-19.47 -53.43,-22.26 a 12,12 0 0 1 -5.61,-2.58 c -6.24,-5.39 -4.11,-16.66 -3.75,-18.51 0.56,-3 2.16,-11.45 7.52,-13.16 a 19.89,19.89 0 0 0 5.13,11.51 c 7.34,7.74 18.42,5.44 22,4.69 5.16,-1.07 6.39,-3 6.79,-3.75 1.22,-2.34 0.34,-5 -0.05,-6 v 0 a 0.31,0.31 0 0 0 0,-0.08"
         id="path327" />
      <path
         class="cls-13"
         d="m 3846.28,1499.43 c -0.8,9.57 -11.11,15.09 -13.12,16.17 a 29,29 0 0 1 -16.23,3.18 c 7.42,-6 13.33,-12.85 12.15,-20.28 -0.81,-5.14 -4.68,-8.54 -9.37,-12.65 -11.62,-10.2 -28.25,-12.8 -39.36,-14.53 -6,-0.93 -8.91,-1 -13,-3.29 1.22,-2.34 0.34,-5 -0.05,-6 1.22,0.12 2.74,0.28 5.68,0.63 6.21,0.75 12.06,1.6 15,2.1 5.77,1 8.63,2 38,12.66 7.75,2.83 11.71,4.32 15.22,8.43 1.01,1.22 5.66,6.69 5.08,13.58 z"
         id="path329" />
      <path
         class="cls-22"
         d="m 3759.11,1049.63 c -5.19,165.79 -49.08,392.74 -49.08,392.74 a 82.7,82.7 0 0 1 -12.56,1.21 c -2,0 -4.2,0 -6.42,-0.15 a 168.73,168.73 0 0 0 -18.5,-0.27 c -8.46,-31.93 -18.25,-73.29 -26.84,-122 a 1455.78,1455.78 0 0 1 -21.08,-195.09 1280.15,1280.15 0 0 1 1.06,-133.91 c 3.11,-50.48 10.54,-120.19 10.54,-120.2 9,-19.11 19.74,-26.35 27.41,-29.52 16.72,-6.9 25.27,3 67.48,2.11 5.34,-0.11 15.4,-0.46 22.52,-0.73 l 8.06,-0.33 v 0.41 c 0,0 0.5,107.38 -2.59,205.73 z"
         id="path331" />
      <path
         class="cls-13"
         d="m 3759.11,1049.63 c -5.19,165.79 -49.08,392.74 -49.08,392.74 a 82.7,82.7 0 0 1 -12.56,1.21 c 0.42,-13.08 3,-23.69 4.62,-30.84 9.19,-40.19 10.11,-81.9 18.28,-122.31 13.2,-65.32 16.53,-117.52 22.48,-210.87 2.63,-41.09 6,-111.19 8.45,-174.33 1,-26.87 1.72,-46.72 2.34,-61.42 l 8.06,-0.33 v 0.41 c 0,0 0.5,107.39 -2.59,205.74 z"
         id="path333" />
      <line
         class="cls-16"
         x1="3708.27"
         y1="1483.76"
         x2="3708.26"
         y2="1483.76"
         id="line335" />
      <path
         class="cls-20"
         d="m 3708.27,1483.77 v 0 a 12.42,12.42 0 0 1 -2.34,5.82 10.4,10.4 0 0 1 -1,1.18 12.41,12.41 0 0 1 -9.76,3.74 c -4.23,-0.36 -6.88,-3.09 -9.13,-5.39 a 30.47,30.47 0 0 1 -8,-17 v 0 a 14,14 0 0 0 -4,1.3 10.31,10.31 0 0 0 -1.87,1.41 11,11 0 0 0 -2.81,7 c -0.84,10.17 4.68,20.85 4.68,20.85 12.27,23.7 5.88,27 17.11,41.94 3.45,4.58 7.28,9.57 12.77,13.43 a 34.69,34.69 0 0 0 8.55,4.37 c 2.68,0.94 17.28,6 26.95,-1.63 10.73,-8.52 8.71,-27.51 3.75,-38.43 -2.29,-5 -7.15,-10.22 -16.87,-20.62 -2.54,-2.71 -7,-7.12 -15.93,-15.93 l -2.12,-2.07"
         id="path337" />
      <path
         class="cls-13"
         d="m 3710.99,1504.84 c -7.26,-13.62 -9.72,-26.76 -11.68,-37.27 a 114.48,114.48 0 0 1 -0.6,-37.63 c 3.82,0.59 7.13,2 9.08,4.35 3.46,4.11 0.07,7.91 -0.47,27.42 -0.33,12.11 -0.51,18.56 0.94,27.41 1.22,7.61 2.92,12.45 2.73,15.72 z"
         id="path339" />
      <path
         class="cls-13"
         d="m 3739.44,1560.82 c -9.67,7.66 -24.27,2.57 -26.95,1.63 a 34.69,34.69 0 0 1 -8.5,-4.38 46.4,46.4 0 0 0 16.43,-5.23 c 3.77,-2 11.56,-6.41 12.64,-13.59 1.26,-8.32 -8,-13.63 -15.46,-23.89 a 90.32,90.32 0 0 1 -12.64,-24.6 10.4,10.4 0 0 0 1,-1.18 12.42,12.42 0 0 0 2.34,-5.82 l 2.12,2.07 c 8.93,8.81 13.39,13.22 15.93,15.93 9.72,10.4 14.58,15.59 16.87,20.62 4.93,10.93 6.95,29.92 -3.78,38.44 z"
         id="path341" />
      <path
         class="cls-26"
         d="m 3848.86,566.88 c -6.47,15.28 -22.94,54.13 -64.66,71.7 -30.34,12.78 -80.53,17.06 -108.26,-14.06 a 79.28,79.28 0 0 1 -18.44,-39.85 59,59 0 0 1 1.58,-26.22 c 1.66,-5.36 2.79,-5.65 16.86,-30.92 11.65,-20.91 17.47,-31.36 19.69,-36.56 15.45,-36.19 -0.2,-49.66 15.46,-74.51 11.65,-18.48 29.73,-25.95 35.15,-28.12 3.51,-1.39 28,-10.74 53.42,-1.4 30.82,11.31 43.66,42.92 50.93,65.23 0.91,2.79 1.73,5.44 2.48,7.88 3.76,12.09 16.92,56.94 -4.21,106.83 z"
         id="path343" />
      <path
         class="cls-27"
         d="m 3848.86,566.88 c -6.47,15.28 -22.94,54.13 -64.66,71.7 -30.34,12.78 -80.53,17.06 -108.26,-14.06 a 79.28,79.28 0 0 1 -18.44,-39.85 71.22,71.22 0 0 1 20.69,-16.84 c 10.44,-5.51 20.18,-6.61 35.14,-7 63.44,-1.76 83.49,12.73 104,0 12.26,-7.59 16.34,-19.7 23.89,-42.16 a 185.6,185.6 0 0 0 9.33,-66.46 c 0.91,2.79 1.73,5.44 2.48,7.88 3.8,12.05 16.96,56.9 -4.17,106.79 z"
         id="path345" />
      <path
         class="cls-25"
         d="m 3818.4,586.56 a 103.54,103.54 0 0 1 -19.13,12 c -6.7,3.21 -14.39,5.8 -21.78,5.8 a 27.09,27.09 0 0 1 -7.36,-1 c -10.53,-3 -9.53,-10.5 -22.49,-14.52 -14.65,-4.56 -27.2,1.58 -28.12,-1 -0.92,-2.58 13.29,-6.14 23.91,-18.27 11.08,-12.68 12.76,-28.47 14.52,-45 0.29,-2.79 0.51,-5.62 0.66,-8.42 0.17,-3.18 0.26,-6.32 0.28,-9.33 0.05,-3.41 0,-6.65 -0.07,-9.58 -0.22,-8.5 -0.75,-14.47 -0.75,-14.47 a 78.82,78.82 0 0 1 12.54,7.5 63.81,63.81 0 0 1 8.16,7 36.52,36.52 0 0 1 8.7,13.66 c 1.2,3.66 0.26,3.41 -0.52,27.26 0,1.4 -0.09,2.73 -0.13,4 0,0.62 0,1.22 -0.06,1.79 -0.11,4.07 -0.2,7.43 -0.2,10.19 0,0.54 0,1.06 0,1.57 a 0.75,0.75 0 0 1 0,0.15 c 0.05,3.78 0.31,6.2 0.9,7.53 6.32,14.44 27.23,21.76 30.49,22.83 z"
         id="path347" />
      <path
         class="cls-13"
         d="m 3818.4,586.56 a 103.54,103.54 0 0 1 -19.13,12 c -12.92,-12.12 -21.58,-27.69 -20.57,-39.92 1.23,-14.88 3.9,-18.84 0,-27.42 -1,-2.19 -4.06,-5.68 -10.18,-12.64 -4.79,-5.45 -7.14,-7.5 -9.63,-11.67 0.05,-3.41 0,-6.65 -0.07,-9.58 -0.22,-8.5 -0.75,-14.47 -0.75,-14.47 4.13,-2.15 12.54,3.64 20.7,14.55 a 36.52,36.52 0 0 1 8.7,13.66 c 1.2,3.66 0.26,3.41 -0.52,27.26 0,1.4 -0.09,2.73 -0.13,4 0,0.62 0,1.22 -0.06,1.79 -0.14,4.07 -0.22,7.4 -0.2,10.19 0,0.54 0,1.06 0,1.57 a 0.75,0.75 0 0 1 0,0.15 c 0.05,3.78 0.31,6.2 0.9,7.53 6.32,14.44 27.23,21.76 30.49,22.83 z"
         id="path349" />
      <path
         class="cls-25"
         d="m 3759.63,450.34 a 9.43,9.43 0 0 0 -6.37,-1.54 c -6.11,0.84 -9.06,8.11 -9.37,8.89 -2.14,5.48 -0.34,10.42 0.47,12.66 0.68,1.87 2.8,7.74 8.9,10.78 a 19.42,19.42 0 0 0 4.81,1.78 50.06,50.06 0 0 0 1.76,6.65 c 2.21,6.54 5.17,10.69 8.89,15.93 11.47,16.12 23.77,22.63 26.25,23.91 6,3.06 13.37,6.85 18.27,3.75 3.9,-2.47 4.4,-8.15 4.69,-12.66 1.59,-24.42 -0.46,-40.3 -0.46,-40.3 -4.56,-35.23 -5.12,-40.2 -10.32,-47.32 -2.73,-3.75 -9,-12.34 -18.27,-12.66 -7.14,-0.25 -12.52,4.52 -16.41,8 -8.05,7.12 -11.3,16.31 -12.84,22.13 z"
         id="path351" />
      <path
         class="cls-19"
         d="m 3737.33,581.41 c 1.16,-0.48 2.2,-0.11 6.48,1.19 3.13,1 14.33,4.35 18.83,5.37 4.81,1.1 14.6,0 34,-2.21 7,-0.8 7.27,-0.93 8.2,-0.6 11.49,4 8.74,39.31 5.63,75.92 -11.42,134.35 -14.47,148.72 -13.39,157.07 a 7.6,7.6 0 0 1 0.73,3.66 c -2,14.64 -67.13,23.21 -72.65,10.15 -2.17,-5.11 6.3,-10 14.08,-21.86 9.66,-14.73 9.39,-30 5.15,-103.1 -2.6,-45 -3.91,-67.44 -7,-85.29 -1.92,-10.64 -7,-37.39 -0.06,-40.3 z"
         id="path353" />
      <path
         class="cls-20"
         d="m 3828.71,843.43 a 252.81,252.81 0 0 1 -133.09,-12.19 47.56,47.56 0 0 0 8.91,-25.77 345.05,345.05 0 0 0 120.46,12.18 z"
         id="path355" />
      <path
         class="cls-28"
         d="m 3754.04,705.55 c 0,3.54 -0.08,5.43 -0.08,5.43 -1.52,43.5 -3.76,103.68 -11.94,148.32 -0.74,4 -7,38 -7,38 0,0 -4.86,3.55 -11,7.86 -6.14,4.31 -13.49,9.42 -18.55,12.53 -31.16,19.15 -71.39,22.64 -85.76,10.54 a 31,31 0 0 1 -7.75,-9.95 22.36,22.36 0 0 1 -1.39,-3.41 26.07,26.07 0 0 1 -0.08,-13.11 c 13.95,-60.21 22.84,-121.53 37.34,-181.59 20.62,-85.42 17.42,-130.71 46.39,-140.59 a 37.7,37.7 0 0 1 20.38,-0.7 29.09,29.09 0 0 1 13.1,3.25 c 14.82,7.87 18.16,27.9 19.94,40.32 5.84,40.62 6.43,71.2 6.4,83.1 z"
         id="path357" />
      <path
         class="cls-13"
         d="m 3754.04,705.55 c 0,3.54 -0.08,5.43 -0.08,5.43 -1.52,43.5 -3.76,103.68 -11.94,148.32 -0.74,4 -7,38 -7,38 0,0 -4.86,3.55 -11,7.86 -6.14,4.31 -13.49,9.42 -18.55,12.53 -31.16,19.15 -71.39,22.64 -85.76,10.54 a 31,31 0 0 1 -7.75,-9.95 71.91,71.91 0 0 0 11.4,2.45 c 17.65,2.34 31.55,-2.2 48.5,-7.72 19.94,-6.52 38.73,-12.65 52,-28.13 5,-5.83 13.11,-17.5 16.87,-61.15 5.82,-67.65 -7.82,-107.49 9.14,-116.69 a 14.37,14.37 0 0 1 4.17,-1.49 z"
         id="path359" />
      <path
         class="cls-13"
         d="m 3756.86,742.07 c -0.41,4.64 -0.88,9.37 -1.32,13.47 -3.6,-0.46 -7.3,-0.87 -11.08,-1.2 -1.5,-0.14 -3,-0.26 -4.52,-0.36 a 267.62,267.62 0 0 0 -35,-0.27 c -24.19,1.4 -49.75,6.17 -54.83,-4.21 -1.82,-3.73 -0.67,-8.75 20,-39 24.17,-35.35 36.6,-49 32.68,-64.33 -2.18,-8.54 -8.12,-12.47 -6.33,-14.76 1.79,-2.29 10.86,-1 19.41,3.17 a 44.82,44.82 0 0 1 7.78,4.86 c 4.16,3.27 7.47,7.32 8.66,12 1.52,5.93 -1,12.44 -6.91,21.72 -3.74,5.87 -8.87,12.85 -15.23,21.5 -13.4,18.26 -19.56,22.76 -17.92,29.52 2.67,11.08 23,15.15 31.63,16.88 a 97.64,97.64 0 0 0 14.89,1.81 115,115 0 0 0 18.09,-0.8 z"
         id="path361" />
      <path
         class="cls-25"
         d="m 4009.49,605.57 c -1.24,4.4 -5.69,11.76 -12.53,16.39 -2.22,1.49 -9.65,6 -19,5.26 -7.77,-0.66 -10.48,-4.42 -20,-4.21 -4.6,0.1 -7.17,0.94 -9.13,2.46 -4.1,3.16 -4.74,8.6 -5.06,11 -0.58,4.26 -4.36,33.06 -12,34.79 -2.67,0.61 -6.33,-1.59 -9.54,-5.33 -4.38,-5 -8,-12.9 -7.32,-20.33 0.13,-1.55 0.39,-2.39 4.05,-10.89 4.3,-10 6.09,-13.86 13.17,-28.47 4.26,-8.81 6.45,-13.22 9.48,-14.06 4.32,-1.18 7.31,2.41 14.42,6.67 3.12,1.89 25.62,15 43.28,8.22 6.09,-2.35 8.92,-6 10.11,-5 0.57,0.49 0.57,1.77 0.07,3.5 z"
         id="path363" />
      <path
         class="cls-13"
         d="m 4009.49,605.57 c -1.24,4.4 -5.69,11.76 -12.53,16.39 -2.22,1.49 -9.65,6 -19,5.26 -7.77,-0.66 -10.48,-4.42 -20,-4.21 -4.6,0.1 -7.17,0.94 -9.13,2.46 -4.1,3.16 -4.74,8.6 -5.06,11 -0.58,4.26 -4.36,33.06 -12,34.79 -2.67,0.61 -6.33,-1.59 -9.54,-5.33 4.84,-12.35 10.12,-24.69 16.48,-35.79 2,-3.43 4.82,-8.1 10.3,-10.77 8.63,-4.21 14,1.29 28.59,0.46 4.07,-0.22 15.94,-1 25.78,-8.43 a 35.07,35.07 0 0 0 6.11,-5.83 z"
         id="path365" />
      <path
         class="cls-28"
         d="m 3943.41,649.83 c 0,0 -3.25,9 -8.62,22.52 -5.37,13.52 -12.84,31.64 -21.26,49.88 -19.09,41.32 -26.22,46.8 -31.78,46.38 -5.85,-0.46 -9.7,-7.41 -12.51,-12.64 -21.54,-40.2 -34,-63.53 -39.26,-75.31 -1,-2.25 -1.73,-4.09 -2.21,-5.53 -10.24,-30.88 -14.4,-53.31 -11.25,-78 2.07,-16.17 5.64,-20.47 9.15,-21.78 13.8,-5.19 38.36,32.19 39.36,33.73 4.15,6.41 14.53,22.77 17.92,44.64 1,6.56 3.17,24.95 3.17,24.95 0,0 2.08,-1.89 5,-4.86 a 122.33,122.33 0 0 0 9.79,-11.3 c 0,0 8.92,-11.94 13.39,-25.93 0,-0.11 1.36,-4.3 1.36,-4.3 5.35,3.94 8.51,6.22 10.34,7.52 1.83,1.3 2.32,1.62 2.32,1.62 1.16,0.75 2.34,1.47 3.49,2.15 6.08,3.63 11.59,6.26 11.6,6.26 z"
         id="path367" />
      <path
         class="cls-13"
         d="m 3943.41,649.83 c 0,0 -3.25,9 -8.62,22.52 -5.37,13.52 -12.84,31.64 -21.26,49.88 -19.09,41.32 -26.22,46.8 -31.78,46.38 -5.85,-0.46 -9.7,-7.41 -12.51,-12.64 -21.54,-40.2 -34,-63.53 -39.26,-75.31 2.29,-15.4 7.15,-26.46 10.82,-26.61 2.39,-0.09 4.81,4.43 8.2,10.78 a 68.78,68.78 0 0 1 6.43,17.06 c 2.54,11.81 15.13,56.49 28,57.45 7.65,0.57 14.38,-14.34 22.5,-32.34 8.58,-19 15.92,-42.44 25.84,-63.45 6.12,3.65 11.63,6.28 11.64,6.28 z"
         id="path369" />
      <path
         class="cls-28"
         d="m 3882.6,878.98 c -1,5.94 -3.09,12.74 -8.44,18.28 -5.35,5.54 -11.6,7.32 -22.48,9.84 -29.25,6.78 -44,10.07 -50.62,5.63 -3.35,-2.26 -5.9,-5.45 -8.15,-11.13 a 79.66,79.66 0 0 1 -3.09,-10 c -8.66,-34.6 -1.67,-65 -1.41,-66.08 4.41,-47.87 7.61,-87.35 9.84,-116.68 2.84,-37.39 4.26,-56.08 4,-61.88 -1.33,-35.28 -8.61,-60.14 2.2,-66.61 5.83,-3.48 13.91,0.19 16.26,1.25 13.46,6.14 22.28,21.93 32.32,85.06 9.35,58.61 11,87.92 12.52,105.92 2.56,30.31 1.42,32.08 7.17,44.51 0,0 0.84,1.81 2,5 3.98,10.16 11.74,34.3 7.88,56.89 z"
         id="path371" />
      <path
         class="cls-22"
         d="m 3811.37,573.45 c -6.47,1.7 -12.24,3.21 -15.93,8 -5.54,7.14 -3,17.18 -1.41,25.31 3.13,16.28 0.53,33.2 2.35,49.67 0,0 2.71,24.67 -8,169.17 v 0 c 0.49,-2.25 9.81,-46.16 20.62,-94.19 5.24,-23.26 7.85,-34.88 10.78,-47.33 10.89,-46.37 14,-55.3 15.46,-75.45 0.87,-11.8 1.88,-37 1.88,-37 v 0 c 0,0 -13.4,-1.43 -25.75,1.82 z"
         id="path373" />
      <path
         class="cls-13"
         d="m 3882.6,878.98 c -1,5.94 -3.09,12.74 -8.44,18.28 -5.35,5.54 -11.6,7.32 -22.48,9.84 -29.25,6.78 -44,10.07 -50.62,5.63 -3.35,-2.26 -5.9,-5.45 -8.15,-11.13 5.36,0.1 12.17,0.07 20.95,-0.59 25.18,-1.92 38,-2.89 47.79,-12 12.89,-11.91 13.52,-31.25 14.06,-47.8 a 117.9,117.9 0 0 0 -0.9,-19.17 c 3.89,10.21 11.65,34.35 7.79,56.94 z"
         id="path375" />
      <path
         class="cls-22"
         d="m 3756.99,740.27 c -0.06,0.62 -0.11,1.23 -0.16,1.84 -0.41,4.64 -0.88,9.37 -1.32,13.47 -0.33,3.18 -0.64,6 -0.87,8.12 0,0 -1.59,14.48 -7.17,56.18 0,0 -0.54,-3.89 -1.08,-7.83 -0.54,-3.94 -1.11,-7.9 -1.13,-8 -0.94,-6.81 -1.87,-15.55 -2.86,-25.25 -0.79,-7.79 -1.6,-16.2 -2.49,-24.73 q -0.3,-2.91 -0.61,-5.82 c -0.18,-1.76 -0.37,-3.53 -0.56,-5.29 -1.15,-10.45 -2.41,-20.76 -3.82,-30 -2.8,-18.4 -4.49,-21.11 -9.55,-39.7 -1.58,-5.78 -3.48,-13.11 -5.84,-22.93 -1.13,-4.62 -2.35,-9.82 -3.69,-15.66 q -1.36,-6 -2.9,-12.89 c -2.06,-9.29 -7.62,-34.6 -9.6,-43.63 -0.45,-2 -0.72,-3.24 -0.72,-3.24 0,0 12.62,-2.46 23.44,-0.47 a 47.7,47.7 0 0 1 15,6.09 c 9.65,6.1 14.66,21.18 16.87,85.77 1.31,37.55 0.46,57.54 -0.94,73.97 z"
         id="path377" />
      <path
         class="cls-25"
         d="m 3835.31,756.36 a 21,21 0 0 1 -1.21,2.42 c -0.78,1.34 -3.2,5.12 -9.14,8.55 -8,4.6 -15.69,4.76 -23.2,4.92 -16,0.35 -28.9,0.66 -30.22,0.71 -19.47,0.5 -31.47,5.64 -39.6,7.94 -5.15,1.45 -8.74,1.78 -11.71,-0.92 -6.2,-5.62 -5.38,-20.45 1.41,-26.71 2.43,-2.26 5.87,-3.6 39.35,-3.52 10.55,0 16.81,0.18 20.39,-4.21 4.12,-5 1.85,-13.24 4.92,-14.06 1.61,-0.43 3.9,1.37 4.92,3.41 2.91,5.79 -5.17,11.93 -2.81,16.87 2.26,4.72 12.16,4.34 15.47,4.21 a 40.44,40.44 0 0 0 18.27,-5.62 c 8.69,-4.84 11.1,-9.54 13.36,-8.44 2.48,1.22 2.48,8.33 -0.2,14.45 z"
         id="path379" />
      <path
         class="cls-13"
         d="m 3835.31,756.36 a 21,21 0 0 1 -1.21,2.42 c -0.78,1.34 -3.2,5.12 -9.14,8.55 -8,4.6 -15.69,4.76 -23.2,4.92 -16,0.35 -28.9,0.66 -30.22,0.71 -19.47,0.5 -31.47,5.64 -39.6,7.94 -1.45,-2.55 -2.89,-5.09 -1.73,-7.81 2.08,-4.91 10.87,-6.25 48.49,-5.63 26.28,0.42 28.25,1.18 35.16,-0.7 a 70.38,70.38 0 0 0 21.45,-10.4 z"
         id="path381" />
      <line
         class="cls-16"
         x1="3742.4299"
         y1="778.76001"
         x2="3742.4299"
         y2="778.75"
         id="line383" />
      <path
         class="cls-28"
         d="m 3703.36,578.07 c -13.71,-4 -28.87,2.35 -35.15,5 -19.14,8 -29.23,22.73 -33.74,29.52 -9.11,13.71 -10.86,24.25 -15.47,40.78 -9.67,34.72 -21.08,56.92 -36.55,111.06 -0.09,0.3 -0.17,0.61 -0.27,1 -1.92,6.86 -4.86,19.22 1.25,29.56 1,1.67 4.65,7.41 13.79,11.66 39.2,18.23 139.16,-9.84 139.18,-9.84 a 89.12,89.12 0 0 0 3.32,-8.52 c 0.91,-2.72 1.89,-5.94 2.71,-9.47 v 0 a 76.55,76.55 0 0 0 1.69,-10.12 c 0,-0.24 0.05,-0.48 0.07,-0.73 a 134.24,134.24 0 0 0 -0.07,-19.65 h -4.79 -2.85 c -33.73,-0.44 -51.8,-2.57 -61.44,-4.65 -10.36,-2.23 -11,-4.42 -11,-4.42 -1.57,-5 4.75,-8.56 17.56,-24.6 12.27,-18.33 22.26,-35 30.24,-49.21 2.1,-3.75 4.25,-7.65 6.25,-11.79 0.52,-1.06 1,-2.13 1.51,-3.23 v 0 c -1.13,-4.63 -2.35,-9.81 -3.69,-15.65 q -1.36,-6 -2.9,-12.89 c -2.06,-9.29 -7.62,-34.58 -9.61,-43.62 v 0"
         id="path385" />
      <line
         class="cls-16"
         x1="3703.3601"
         y1="578.09998"
         x2="3703.3601"
         y2="578.09003"
         id="line387" />
      <path
         class="cls-13"
         d="m 3744.19,767.89 c 0,0.25 -0.05,0.49 -0.07,0.73 a 97.09,97.09 0 0 1 -7.72,28.12 c 0,0 -100,28.07 -139.18,9.84 -9.14,-4.25 -12.8,-10 -13.79,-11.66 -6.11,-10.34 -3.17,-22.7 -1.25,-29.56 0.19,7 1.89,14.09 6.74,19.67 6.19,7.15 14.78,8.74 29.52,11.25 23.61,4 30.55,-1.61 61.85,-2.81 30.74,-1.19 50.31,2.93 53.43,-4.92 2.12,-5.34 -5.81,-10.07 -3.51,-15.46 1.17,-2.78 4.49,-4.41 13.98,-5.2 z"
         id="path389" />
      <path
         class="cls-29"
         d="m 4288.64,460.48 -38.07,-5.88 a 44.35,44.35 0 0 0 0.2,12.09 c 1,6.39 1.93,12.35 6.19,15.2 6.37,4.26 16.95,-0.61 22.66,-5.56 a 28.85,28.85 0 0 0 9.02,-15.85 z"
         id="path391" />
      <path
         class="cls-29"
         d="m 3479.68,443.49 -38.52,0.87 a 44.22,44.22 0 0 0 2.32,11.86 c 2.1,6.12 4.06,11.83 8.75,13.89 7,3.07 16.58,-3.56 21.33,-9.44 a 28.85,28.85 0 0 0 6.12,-17.18 z"
         id="path393" />
      <path
         class="cls-29"
         d="m 3785.23,505.74 27.53,0.62 a 31.17,31.17 0 0 1 -1.65,8.48 c -1.5,4.38 -2.9,8.45 -6.26,9.92 -5,2.2 -11.85,-2.54 -15.25,-6.74 a 20.64,20.64 0 0 1 -4.37,-12.28 z"
         id="path395" />
      <path
         class="cls-29"
         d="m 4559.99,573.07 -26.47,-5.31 a 15.64,15.64 0 0 0 -0.94,6 c 0.13,3.23 0.26,6.25 3,7.93 4.14,2.51 12.08,0.76 16.57,-1.34 a 15.87,15.87 0 0 0 7.84,-7.28 z"
         id="path397" />
    </g>
  </g>
</svg>
